G04 #@! TF.GenerationSoftware,KiCad,Pcbnew,7.0.10-7.0.10~ubuntu22.04.1*
G04 #@! TF.CreationDate,2024-02-06T20:51:40-05:00*
G04 #@! TF.ProjectId,PCB,5043422e-6b69-4636-9164-5f7063625858,rev?*
G04 #@! TF.SameCoordinates,Original*
G04 #@! TF.FileFunction,Legend,Bot*
G04 #@! TF.FilePolarity,Positive*
%FSLAX46Y46*%
G04 Gerber Fmt 4.6, Leading zero omitted, Abs format (unit mm)*
G04 Created by KiCad (PCBNEW 7.0.10-7.0.10~ubuntu22.04.1) date 2024-02-06 20:51:40*
%MOMM*%
%LPD*%
G01*
G04 APERTURE LIST*
G04 Aperture macros list*
%AMRoundRect*
0 Rectangle with rounded corners*
0 $1 Rounding radius*
0 $2 $3 $4 $5 $6 $7 $8 $9 X,Y pos of 4 corners*
0 Add a 4 corners polygon primitive as box body*
4,1,4,$2,$3,$4,$5,$6,$7,$8,$9,$2,$3,0*
0 Add four circle primitives for the rounded corners*
1,1,$1+$1,$2,$3*
1,1,$1+$1,$4,$5*
1,1,$1+$1,$6,$7*
1,1,$1+$1,$8,$9*
0 Add four rect primitives between the rounded corners*
20,1,$1+$1,$2,$3,$4,$5,0*
20,1,$1+$1,$4,$5,$6,$7,0*
20,1,$1+$1,$6,$7,$8,$9,0*
20,1,$1+$1,$8,$9,$2,$3,0*%
%AMHorizOval*
0 Thick line with rounded ends*
0 $1 width*
0 $2 $3 position (X,Y) of the first rounded end (center of the circle)*
0 $4 $5 position (X,Y) of the second rounded end (center of the circle)*
0 Add line between two ends*
20,1,$1,$2,$3,$4,$5,0*
0 Add two circle primitives to create the rounded ends*
1,1,$1,$2,$3*
1,1,$1,$4,$5*%
%AMRotRect*
0 Rectangle, with rotation*
0 The origin of the aperture is its center*
0 $1 length*
0 $2 width*
0 $3 Rotation angle, in degrees counterclockwise*
0 Add horizontal line*
21,1,$1,$2,0,0,$3*%
G04 Aperture macros list end*
%ADD10C,0.150000*%
%ADD11C,0.120000*%
%ADD12C,5.400000*%
%ADD13C,0.850000*%
%ADD14C,5.600000*%
%ADD15RotRect,1.000000X1.000000X135.000000*%
%ADD16HorizOval,1.000000X0.000000X0.000000X0.000000X0.000000X0*%
%ADD17C,2.400000*%
%ADD18RoundRect,1.500000X-1.500000X1.500000X-1.500000X-1.500000X1.500000X-1.500000X1.500000X1.500000X0*%
%ADD19C,6.000000*%
%ADD20RoundRect,0.250000X-0.600000X-0.725000X0.600000X-0.725000X0.600000X0.725000X-0.600000X0.725000X0*%
%ADD21O,1.700000X1.950000*%
%ADD22RoundRect,0.200000X-0.275000X0.200000X-0.275000X-0.200000X0.275000X-0.200000X0.275000X0.200000X0*%
%ADD23RoundRect,0.250000X0.350000X0.625000X-0.350000X0.625000X-0.350000X-0.625000X0.350000X-0.625000X0*%
%ADD24O,1.200000X1.750000*%
%ADD25RoundRect,0.112500X0.112500X-0.187500X0.112500X0.187500X-0.112500X0.187500X-0.112500X-0.187500X0*%
%ADD26RoundRect,0.200000X0.275000X-0.200000X0.275000X0.200000X-0.275000X0.200000X-0.275000X-0.200000X0*%
%ADD27RoundRect,0.225000X-0.250000X0.225000X-0.250000X-0.225000X0.250000X-0.225000X0.250000X0.225000X0*%
G04 APERTURE END LIST*
D10*
X155353912Y-33169809D02*
X156061019Y-32462702D01*
X156061019Y-32462702D02*
X155320241Y-32732076D01*
X155320241Y-32732076D02*
X155589615Y-31991297D01*
X155589615Y-31991297D02*
X154882508Y-32698404D01*
X155118210Y-31519893D02*
X154983523Y-31385206D01*
X154983523Y-31385206D02*
X154882508Y-31351534D01*
X154882508Y-31351534D02*
X154747821Y-31351534D01*
X154747821Y-31351534D02*
X154579462Y-31452550D01*
X154579462Y-31452550D02*
X154343760Y-31688252D01*
X154343760Y-31688252D02*
X154242745Y-31856611D01*
X154242745Y-31856611D02*
X154242745Y-31991298D01*
X154242745Y-31991298D02*
X154276417Y-32092313D01*
X154276417Y-32092313D02*
X154411104Y-32227000D01*
X154411104Y-32227000D02*
X154512119Y-32260672D01*
X154512119Y-32260672D02*
X154646806Y-32260672D01*
X154646806Y-32260672D02*
X154815165Y-32159656D01*
X154815165Y-32159656D02*
X155050867Y-31923954D01*
X155050867Y-31923954D02*
X155151882Y-31755595D01*
X155151882Y-31755595D02*
X155151882Y-31620908D01*
X155151882Y-31620908D02*
X155118210Y-31519893D01*
X153805012Y-31620908D02*
X154512119Y-30913802D01*
X154512119Y-30913802D02*
X154343760Y-30745443D01*
X154343760Y-30745443D02*
X154209073Y-30678099D01*
X154209073Y-30678099D02*
X154074386Y-30678099D01*
X154074386Y-30678099D02*
X153973371Y-30711771D01*
X153973371Y-30711771D02*
X153805012Y-30812786D01*
X153805012Y-30812786D02*
X153703997Y-30913802D01*
X153703997Y-30913802D02*
X153602982Y-31082160D01*
X153602982Y-31082160D02*
X153569310Y-31183176D01*
X153569310Y-31183176D02*
X153569310Y-31317863D01*
X153569310Y-31317863D02*
X153636653Y-31452550D01*
X153636653Y-31452550D02*
X153805012Y-31620908D01*
X153468295Y-30543412D02*
X153232592Y-30307710D01*
X152761188Y-30577084D02*
X153097905Y-30913802D01*
X153097905Y-30913802D02*
X153805012Y-30206695D01*
X153805012Y-30206695D02*
X153468295Y-29869977D01*
X155162034Y-33563717D02*
X154757973Y-33159656D01*
X154252897Y-34068794D02*
X154960004Y-33361687D01*
X154589615Y-32991297D02*
X153411103Y-33227000D01*
X154118210Y-32519893D02*
X153882508Y-33698404D01*
X115406958Y-72125984D02*
X115507973Y-72159656D01*
X115507973Y-72159656D02*
X115608989Y-72260671D01*
X115608989Y-72260671D02*
X115676332Y-72395358D01*
X115676332Y-72395358D02*
X115676332Y-72530046D01*
X115676332Y-72530046D02*
X115642660Y-72631061D01*
X115642660Y-72631061D02*
X115541645Y-72799420D01*
X115541645Y-72799420D02*
X115440630Y-72900435D01*
X115440630Y-72900435D02*
X115272271Y-73001450D01*
X115272271Y-73001450D02*
X115171256Y-73035122D01*
X115171256Y-73035122D02*
X115036569Y-73035122D01*
X115036569Y-73035122D02*
X114901882Y-72967778D01*
X114901882Y-72967778D02*
X114834538Y-72900435D01*
X114834538Y-72900435D02*
X114767195Y-72765748D01*
X114767195Y-72765748D02*
X114767195Y-72698404D01*
X114767195Y-72698404D02*
X115002897Y-72462702D01*
X115002897Y-72462702D02*
X115137584Y-72597389D01*
X114396806Y-72462702D02*
X115103912Y-71755595D01*
X115103912Y-71755595D02*
X113992745Y-72058641D01*
X113992745Y-72058641D02*
X114699851Y-71351534D01*
X113656027Y-71721924D02*
X114363134Y-71014817D01*
X114363134Y-71014817D02*
X114194775Y-70846458D01*
X114194775Y-70846458D02*
X114060088Y-70779114D01*
X114060088Y-70779114D02*
X113925401Y-70779114D01*
X113925401Y-70779114D02*
X113824386Y-70812786D01*
X113824386Y-70812786D02*
X113656027Y-70913801D01*
X113656027Y-70913801D02*
X113555012Y-71014817D01*
X113555012Y-71014817D02*
X113453997Y-71183175D01*
X113453997Y-71183175D02*
X113420325Y-71284191D01*
X113420325Y-71284191D02*
X113420325Y-71418878D01*
X113420325Y-71418878D02*
X113487668Y-71553565D01*
X113487668Y-71553565D02*
X113656027Y-71721924D01*
X152949851Y-34765748D02*
X153522271Y-34664733D01*
X153353912Y-35169809D02*
X154061019Y-34462702D01*
X154061019Y-34462702D02*
X153791645Y-34193328D01*
X153791645Y-34193328D02*
X153690630Y-34159656D01*
X153690630Y-34159656D02*
X153623286Y-34159656D01*
X153623286Y-34159656D02*
X153522271Y-34193328D01*
X153522271Y-34193328D02*
X153421256Y-34294343D01*
X153421256Y-34294343D02*
X153387584Y-34395358D01*
X153387584Y-34395358D02*
X153387584Y-34462702D01*
X153387584Y-34462702D02*
X153421256Y-34563717D01*
X153421256Y-34563717D02*
X153690630Y-34833091D01*
X153421256Y-33822939D02*
X152242745Y-34058641D01*
X152949851Y-33351534D02*
X152714149Y-34530046D01*
X153128363Y-35530046D02*
X152690630Y-35092313D01*
X152690630Y-35092313D02*
X152656958Y-35597389D01*
X152656958Y-35597389D02*
X152555943Y-35496374D01*
X152555943Y-35496374D02*
X152454928Y-35462702D01*
X152454928Y-35462702D02*
X152387584Y-35462702D01*
X152387584Y-35462702D02*
X152286569Y-35496374D01*
X152286569Y-35496374D02*
X152118210Y-35664733D01*
X152118210Y-35664733D02*
X152084538Y-35765748D01*
X152084538Y-35765748D02*
X152084538Y-35833091D01*
X152084538Y-35833091D02*
X152118210Y-35934107D01*
X152118210Y-35934107D02*
X152320241Y-36136137D01*
X152320241Y-36136137D02*
X152421256Y-36169809D01*
X152421256Y-36169809D02*
X152488599Y-36169809D01*
X151747821Y-35429030D02*
X151680477Y-35429030D01*
X151680477Y-35429030D02*
X151680477Y-35496374D01*
X151680477Y-35496374D02*
X151747821Y-35496374D01*
X151747821Y-35496374D02*
X151747821Y-35429030D01*
X151747821Y-35429030D02*
X151680477Y-35496374D01*
X152118210Y-34519893D02*
X151680478Y-34082160D01*
X151680478Y-34082160D02*
X151646806Y-34587237D01*
X151646806Y-34587237D02*
X151545791Y-34486222D01*
X151545791Y-34486222D02*
X151444775Y-34452550D01*
X151444775Y-34452550D02*
X151377432Y-34452550D01*
X151377432Y-34452550D02*
X151276417Y-34486222D01*
X151276417Y-34486222D02*
X151108058Y-34654580D01*
X151108058Y-34654580D02*
X151074386Y-34755596D01*
X151074386Y-34755596D02*
X151074386Y-34822939D01*
X151074386Y-34822939D02*
X151108058Y-34923954D01*
X151108058Y-34923954D02*
X151310088Y-35125985D01*
X151310088Y-35125985D02*
X151411104Y-35159657D01*
X151411104Y-35159657D02*
X151478447Y-35159657D01*
X151478447Y-33880130D02*
X150535638Y-34351534D01*
X150535638Y-34351534D02*
X151007043Y-33408725D01*
X111878363Y-76530046D02*
X111440630Y-76092313D01*
X111440630Y-76092313D02*
X111406958Y-76597389D01*
X111406958Y-76597389D02*
X111305943Y-76496374D01*
X111305943Y-76496374D02*
X111204928Y-76462702D01*
X111204928Y-76462702D02*
X111137584Y-76462702D01*
X111137584Y-76462702D02*
X111036569Y-76496374D01*
X111036569Y-76496374D02*
X110868210Y-76664733D01*
X110868210Y-76664733D02*
X110834538Y-76765748D01*
X110834538Y-76765748D02*
X110834538Y-76833091D01*
X110834538Y-76833091D02*
X110868210Y-76934107D01*
X110868210Y-76934107D02*
X111070241Y-77136137D01*
X111070241Y-77136137D02*
X111171256Y-77169809D01*
X111171256Y-77169809D02*
X111238599Y-77169809D01*
X110497821Y-76429030D02*
X110430477Y-76429030D01*
X110430477Y-76429030D02*
X110430477Y-76496374D01*
X110430477Y-76496374D02*
X110497821Y-76496374D01*
X110497821Y-76496374D02*
X110497821Y-76429030D01*
X110497821Y-76429030D02*
X110430477Y-76496374D01*
X110868210Y-75519893D02*
X110430478Y-75082160D01*
X110430478Y-75082160D02*
X110396806Y-75587237D01*
X110396806Y-75587237D02*
X110295791Y-75486222D01*
X110295791Y-75486222D02*
X110194775Y-75452550D01*
X110194775Y-75452550D02*
X110127432Y-75452550D01*
X110127432Y-75452550D02*
X110026417Y-75486222D01*
X110026417Y-75486222D02*
X109858058Y-75654580D01*
X109858058Y-75654580D02*
X109824386Y-75755596D01*
X109824386Y-75755596D02*
X109824386Y-75822939D01*
X109824386Y-75822939D02*
X109858058Y-75923954D01*
X109858058Y-75923954D02*
X110060088Y-76125985D01*
X110060088Y-76125985D02*
X110161104Y-76159657D01*
X110161104Y-76159657D02*
X110228447Y-76159657D01*
X110228447Y-74880130D02*
X109285638Y-75351534D01*
X109285638Y-75351534D02*
X109757043Y-74408725D01*
X112171256Y-76169809D02*
X112036569Y-76102465D01*
X112036569Y-76102465D02*
X111868210Y-75934107D01*
X111868210Y-75934107D02*
X111834538Y-75833091D01*
X111834538Y-75833091D02*
X111834538Y-75765748D01*
X111834538Y-75765748D02*
X111868210Y-75664733D01*
X111868210Y-75664733D02*
X111935554Y-75597389D01*
X111935554Y-75597389D02*
X112036569Y-75563717D01*
X112036569Y-75563717D02*
X112103912Y-75563717D01*
X112103912Y-75563717D02*
X112204928Y-75597389D01*
X112204928Y-75597389D02*
X112373286Y-75698404D01*
X112373286Y-75698404D02*
X112474302Y-75732076D01*
X112474302Y-75732076D02*
X112541645Y-75732076D01*
X112541645Y-75732076D02*
X112642660Y-75698404D01*
X112642660Y-75698404D02*
X112710004Y-75631061D01*
X112710004Y-75631061D02*
X112743676Y-75530046D01*
X112743676Y-75530046D02*
X112743676Y-75462702D01*
X112743676Y-75462702D02*
X112710004Y-75361687D01*
X112710004Y-75361687D02*
X112541645Y-75193328D01*
X112541645Y-75193328D02*
X112406958Y-75125984D01*
X112204928Y-74856610D02*
X111329462Y-75395358D01*
X111329462Y-75395358D02*
X111699851Y-74755595D01*
X111699851Y-74755595D02*
X111060088Y-75125984D01*
X111060088Y-75125984D02*
X111598836Y-74250519D01*
X110622355Y-74688252D02*
X111329462Y-73981145D01*
X110858058Y-73509741D02*
X110723371Y-73375054D01*
X110723371Y-73375054D02*
X110622356Y-73341382D01*
X110622356Y-73341382D02*
X110487669Y-73341382D01*
X110487669Y-73341382D02*
X110319310Y-73442397D01*
X110319310Y-73442397D02*
X110083608Y-73678100D01*
X110083608Y-73678100D02*
X109982593Y-73846458D01*
X109982593Y-73846458D02*
X109982593Y-73981145D01*
X109982593Y-73981145D02*
X110016264Y-74082161D01*
X110016264Y-74082161D02*
X110150951Y-74216848D01*
X110150951Y-74216848D02*
X110251967Y-74250519D01*
X110251967Y-74250519D02*
X110386654Y-74250519D01*
X110386654Y-74250519D02*
X110555012Y-74149504D01*
X110555012Y-74149504D02*
X110790715Y-73913802D01*
X110790715Y-73913802D02*
X110891730Y-73745443D01*
X110891730Y-73745443D02*
X110891730Y-73610756D01*
X110891730Y-73610756D02*
X110858058Y-73509741D01*
X114171256Y-74169809D02*
X114036569Y-74102465D01*
X114036569Y-74102465D02*
X113868210Y-73934107D01*
X113868210Y-73934107D02*
X113834538Y-73833091D01*
X113834538Y-73833091D02*
X113834538Y-73765748D01*
X113834538Y-73765748D02*
X113868210Y-73664733D01*
X113868210Y-73664733D02*
X113935554Y-73597389D01*
X113935554Y-73597389D02*
X114036569Y-73563717D01*
X114036569Y-73563717D02*
X114103912Y-73563717D01*
X114103912Y-73563717D02*
X114204928Y-73597389D01*
X114204928Y-73597389D02*
X114373286Y-73698404D01*
X114373286Y-73698404D02*
X114474302Y-73732076D01*
X114474302Y-73732076D02*
X114541645Y-73732076D01*
X114541645Y-73732076D02*
X114642660Y-73698404D01*
X114642660Y-73698404D02*
X114710004Y-73631061D01*
X114710004Y-73631061D02*
X114743676Y-73530046D01*
X114743676Y-73530046D02*
X114743676Y-73462702D01*
X114743676Y-73462702D02*
X114710004Y-73361687D01*
X114710004Y-73361687D02*
X114541645Y-73193328D01*
X114541645Y-73193328D02*
X114406958Y-73125984D01*
X114204928Y-72856610D02*
X113329462Y-73395358D01*
X113329462Y-73395358D02*
X113699851Y-72755595D01*
X113699851Y-72755595D02*
X113060088Y-73125984D01*
X113060088Y-73125984D02*
X113598836Y-72250519D01*
X113194775Y-71846458D02*
X113060088Y-71711771D01*
X113060088Y-71711771D02*
X112959073Y-71678099D01*
X112959073Y-71678099D02*
X112824386Y-71678099D01*
X112824386Y-71678099D02*
X112656027Y-71779114D01*
X112656027Y-71779114D02*
X112420325Y-72014817D01*
X112420325Y-72014817D02*
X112319310Y-72183176D01*
X112319310Y-72183176D02*
X112319310Y-72317863D01*
X112319310Y-72317863D02*
X112352981Y-72418878D01*
X112352981Y-72418878D02*
X112487668Y-72553565D01*
X112487668Y-72553565D02*
X112588684Y-72587237D01*
X112588684Y-72587237D02*
X112723371Y-72587237D01*
X112723371Y-72587237D02*
X112891729Y-72486221D01*
X112891729Y-72486221D02*
X113127432Y-72250519D01*
X113127432Y-72250519D02*
X113228447Y-72082160D01*
X113228447Y-72082160D02*
X113228447Y-71947473D01*
X113228447Y-71947473D02*
X113194775Y-71846458D01*
X156656958Y-31125984D02*
X156757973Y-31159656D01*
X156757973Y-31159656D02*
X156858989Y-31260671D01*
X156858989Y-31260671D02*
X156926332Y-31395358D01*
X156926332Y-31395358D02*
X156926332Y-31530046D01*
X156926332Y-31530046D02*
X156892660Y-31631061D01*
X156892660Y-31631061D02*
X156791645Y-31799420D01*
X156791645Y-31799420D02*
X156690630Y-31900435D01*
X156690630Y-31900435D02*
X156522271Y-32001450D01*
X156522271Y-32001450D02*
X156421256Y-32035122D01*
X156421256Y-32035122D02*
X156286569Y-32035122D01*
X156286569Y-32035122D02*
X156151882Y-31967778D01*
X156151882Y-31967778D02*
X156084538Y-31900435D01*
X156084538Y-31900435D02*
X156017195Y-31765748D01*
X156017195Y-31765748D02*
X156017195Y-31698404D01*
X156017195Y-31698404D02*
X156252897Y-31462702D01*
X156252897Y-31462702D02*
X156387584Y-31597389D01*
X155646806Y-31462702D02*
X156353912Y-30755595D01*
X156353912Y-30755595D02*
X155242745Y-31058641D01*
X155242745Y-31058641D02*
X155949851Y-30351534D01*
X154906027Y-30721924D02*
X155613134Y-30014817D01*
X155613134Y-30014817D02*
X155444775Y-29846458D01*
X155444775Y-29846458D02*
X155310088Y-29779114D01*
X155310088Y-29779114D02*
X155175401Y-29779114D01*
X155175401Y-29779114D02*
X155074386Y-29812786D01*
X155074386Y-29812786D02*
X154906027Y-29913801D01*
X154906027Y-29913801D02*
X154805012Y-30014817D01*
X154805012Y-30014817D02*
X154703997Y-30183175D01*
X154703997Y-30183175D02*
X154670325Y-30284191D01*
X154670325Y-30284191D02*
X154670325Y-30418878D01*
X154670325Y-30418878D02*
X154737668Y-30553565D01*
X154737668Y-30553565D02*
X154906027Y-30721924D01*
X113171256Y-75169809D02*
X113036569Y-75102465D01*
X113036569Y-75102465D02*
X112868210Y-74934107D01*
X112868210Y-74934107D02*
X112834538Y-74833091D01*
X112834538Y-74833091D02*
X112834538Y-74765748D01*
X112834538Y-74765748D02*
X112868210Y-74664733D01*
X112868210Y-74664733D02*
X112935554Y-74597389D01*
X112935554Y-74597389D02*
X113036569Y-74563717D01*
X113036569Y-74563717D02*
X113103912Y-74563717D01*
X113103912Y-74563717D02*
X113204928Y-74597389D01*
X113204928Y-74597389D02*
X113373286Y-74698404D01*
X113373286Y-74698404D02*
X113474302Y-74732076D01*
X113474302Y-74732076D02*
X113541645Y-74732076D01*
X113541645Y-74732076D02*
X113642660Y-74698404D01*
X113642660Y-74698404D02*
X113710004Y-74631061D01*
X113710004Y-74631061D02*
X113743676Y-74530046D01*
X113743676Y-74530046D02*
X113743676Y-74462702D01*
X113743676Y-74462702D02*
X113710004Y-74361687D01*
X113710004Y-74361687D02*
X113541645Y-74193328D01*
X113541645Y-74193328D02*
X113406958Y-74125984D01*
X113204928Y-73856610D02*
X112329462Y-74395358D01*
X112329462Y-74395358D02*
X112699851Y-73755595D01*
X112699851Y-73755595D02*
X112060088Y-74125984D01*
X112060088Y-74125984D02*
X112598836Y-73250519D01*
X111285638Y-73216847D02*
X111285638Y-73284191D01*
X111285638Y-73284191D02*
X111352981Y-73418878D01*
X111352981Y-73418878D02*
X111420325Y-73486221D01*
X111420325Y-73486221D02*
X111555012Y-73553565D01*
X111555012Y-73553565D02*
X111689699Y-73553565D01*
X111689699Y-73553565D02*
X111790714Y-73519893D01*
X111790714Y-73519893D02*
X111959073Y-73418878D01*
X111959073Y-73418878D02*
X112060088Y-73317863D01*
X112060088Y-73317863D02*
X112161103Y-73149504D01*
X112161103Y-73149504D02*
X112194775Y-73048489D01*
X112194775Y-73048489D02*
X112194775Y-72913802D01*
X112194775Y-72913802D02*
X112127432Y-72779114D01*
X112127432Y-72779114D02*
X112060088Y-72711771D01*
X112060088Y-72711771D02*
X111925401Y-72644427D01*
X111925401Y-72644427D02*
X111858058Y-72644427D01*
X110578531Y-72644427D02*
X110915249Y-72981145D01*
X110915249Y-72981145D02*
X111622355Y-72274038D01*
X110342829Y-72408725D02*
X111049936Y-71701618D01*
X109938768Y-72004664D02*
X110645875Y-71903649D01*
X110645875Y-71297557D02*
X110645875Y-72105679D01*
X86333333Y-65424819D02*
X86333333Y-66139104D01*
X86333333Y-66139104D02*
X86380952Y-66281961D01*
X86380952Y-66281961D02*
X86476190Y-66377200D01*
X86476190Y-66377200D02*
X86619047Y-66424819D01*
X86619047Y-66424819D02*
X86714285Y-66424819D01*
X85428571Y-65424819D02*
X85619047Y-65424819D01*
X85619047Y-65424819D02*
X85714285Y-65472438D01*
X85714285Y-65472438D02*
X85761904Y-65520057D01*
X85761904Y-65520057D02*
X85857142Y-65662914D01*
X85857142Y-65662914D02*
X85904761Y-65853390D01*
X85904761Y-65853390D02*
X85904761Y-66234342D01*
X85904761Y-66234342D02*
X85857142Y-66329580D01*
X85857142Y-66329580D02*
X85809523Y-66377200D01*
X85809523Y-66377200D02*
X85714285Y-66424819D01*
X85714285Y-66424819D02*
X85523809Y-66424819D01*
X85523809Y-66424819D02*
X85428571Y-66377200D01*
X85428571Y-66377200D02*
X85380952Y-66329580D01*
X85380952Y-66329580D02*
X85333333Y-66234342D01*
X85333333Y-66234342D02*
X85333333Y-65996247D01*
X85333333Y-65996247D02*
X85380952Y-65901009D01*
X85380952Y-65901009D02*
X85428571Y-65853390D01*
X85428571Y-65853390D02*
X85523809Y-65805771D01*
X85523809Y-65805771D02*
X85714285Y-65805771D01*
X85714285Y-65805771D02*
X85809523Y-65853390D01*
X85809523Y-65853390D02*
X85857142Y-65901009D01*
X85857142Y-65901009D02*
X85904761Y-65996247D01*
X119451199Y-60916026D02*
X118975008Y-60582693D01*
X119451199Y-60344598D02*
X118451199Y-60344598D01*
X118451199Y-60344598D02*
X118451199Y-60725550D01*
X118451199Y-60725550D02*
X118498818Y-60820788D01*
X118498818Y-60820788D02*
X118546437Y-60868407D01*
X118546437Y-60868407D02*
X118641675Y-60916026D01*
X118641675Y-60916026D02*
X118784532Y-60916026D01*
X118784532Y-60916026D02*
X118879770Y-60868407D01*
X118879770Y-60868407D02*
X118927389Y-60820788D01*
X118927389Y-60820788D02*
X118975008Y-60725550D01*
X118975008Y-60725550D02*
X118975008Y-60344598D01*
X119451199Y-61868407D02*
X119451199Y-61296979D01*
X119451199Y-61582693D02*
X118451199Y-61582693D01*
X118451199Y-61582693D02*
X118594056Y-61487455D01*
X118594056Y-61487455D02*
X118689294Y-61392217D01*
X118689294Y-61392217D02*
X118736913Y-61296979D01*
X118451199Y-62773169D02*
X118451199Y-62296979D01*
X118451199Y-62296979D02*
X118927389Y-62249360D01*
X118927389Y-62249360D02*
X118879770Y-62296979D01*
X118879770Y-62296979D02*
X118832151Y-62392217D01*
X118832151Y-62392217D02*
X118832151Y-62630312D01*
X118832151Y-62630312D02*
X118879770Y-62725550D01*
X118879770Y-62725550D02*
X118927389Y-62773169D01*
X118927389Y-62773169D02*
X119022627Y-62820788D01*
X119022627Y-62820788D02*
X119260722Y-62820788D01*
X119260722Y-62820788D02*
X119355960Y-62773169D01*
X119355960Y-62773169D02*
X119403580Y-62725550D01*
X119403580Y-62725550D02*
X119451199Y-62630312D01*
X119451199Y-62630312D02*
X119451199Y-62392217D01*
X119451199Y-62392217D02*
X119403580Y-62296979D01*
X119403580Y-62296979D02*
X119355960Y-62249360D01*
X126204819Y-41535714D02*
X125204819Y-41535714D01*
X125204819Y-41535714D02*
X125204819Y-41773809D01*
X125204819Y-41773809D02*
X125252438Y-41916666D01*
X125252438Y-41916666D02*
X125347676Y-42011904D01*
X125347676Y-42011904D02*
X125442914Y-42059523D01*
X125442914Y-42059523D02*
X125633390Y-42107142D01*
X125633390Y-42107142D02*
X125776247Y-42107142D01*
X125776247Y-42107142D02*
X125966723Y-42059523D01*
X125966723Y-42059523D02*
X126061961Y-42011904D01*
X126061961Y-42011904D02*
X126157200Y-41916666D01*
X126157200Y-41916666D02*
X126204819Y-41773809D01*
X126204819Y-41773809D02*
X126204819Y-41535714D01*
X126204819Y-43059523D02*
X126204819Y-42488095D01*
X126204819Y-42773809D02*
X125204819Y-42773809D01*
X125204819Y-42773809D02*
X125347676Y-42678571D01*
X125347676Y-42678571D02*
X125442914Y-42583333D01*
X125442914Y-42583333D02*
X125490533Y-42488095D01*
X126204819Y-44011904D02*
X126204819Y-43440476D01*
X126204819Y-43726190D02*
X125204819Y-43726190D01*
X125204819Y-43726190D02*
X125347676Y-43630952D01*
X125347676Y-43630952D02*
X125442914Y-43535714D01*
X125442914Y-43535714D02*
X125490533Y-43440476D01*
X108954819Y-49035714D02*
X107954819Y-49035714D01*
X107954819Y-49035714D02*
X107954819Y-49273809D01*
X107954819Y-49273809D02*
X108002438Y-49416666D01*
X108002438Y-49416666D02*
X108097676Y-49511904D01*
X108097676Y-49511904D02*
X108192914Y-49559523D01*
X108192914Y-49559523D02*
X108383390Y-49607142D01*
X108383390Y-49607142D02*
X108526247Y-49607142D01*
X108526247Y-49607142D02*
X108716723Y-49559523D01*
X108716723Y-49559523D02*
X108811961Y-49511904D01*
X108811961Y-49511904D02*
X108907200Y-49416666D01*
X108907200Y-49416666D02*
X108954819Y-49273809D01*
X108954819Y-49273809D02*
X108954819Y-49035714D01*
X108954819Y-50559523D02*
X108954819Y-49988095D01*
X108954819Y-50273809D02*
X107954819Y-50273809D01*
X107954819Y-50273809D02*
X108097676Y-50178571D01*
X108097676Y-50178571D02*
X108192914Y-50083333D01*
X108192914Y-50083333D02*
X108240533Y-49988095D01*
X107954819Y-51178571D02*
X107954819Y-51273809D01*
X107954819Y-51273809D02*
X108002438Y-51369047D01*
X108002438Y-51369047D02*
X108050057Y-51416666D01*
X108050057Y-51416666D02*
X108145295Y-51464285D01*
X108145295Y-51464285D02*
X108335771Y-51511904D01*
X108335771Y-51511904D02*
X108573866Y-51511904D01*
X108573866Y-51511904D02*
X108764342Y-51464285D01*
X108764342Y-51464285D02*
X108859580Y-51416666D01*
X108859580Y-51416666D02*
X108907200Y-51369047D01*
X108907200Y-51369047D02*
X108954819Y-51273809D01*
X108954819Y-51273809D02*
X108954819Y-51178571D01*
X108954819Y-51178571D02*
X108907200Y-51083333D01*
X108907200Y-51083333D02*
X108859580Y-51035714D01*
X108859580Y-51035714D02*
X108764342Y-50988095D01*
X108764342Y-50988095D02*
X108573866Y-50940476D01*
X108573866Y-50940476D02*
X108335771Y-50940476D01*
X108335771Y-50940476D02*
X108145295Y-50988095D01*
X108145295Y-50988095D02*
X108050057Y-51035714D01*
X108050057Y-51035714D02*
X108002438Y-51083333D01*
X108002438Y-51083333D02*
X107954819Y-51178571D01*
X119704819Y-48357142D02*
X119228628Y-48023809D01*
X119704819Y-47785714D02*
X118704819Y-47785714D01*
X118704819Y-47785714D02*
X118704819Y-48166666D01*
X118704819Y-48166666D02*
X118752438Y-48261904D01*
X118752438Y-48261904D02*
X118800057Y-48309523D01*
X118800057Y-48309523D02*
X118895295Y-48357142D01*
X118895295Y-48357142D02*
X119038152Y-48357142D01*
X119038152Y-48357142D02*
X119133390Y-48309523D01*
X119133390Y-48309523D02*
X119181009Y-48261904D01*
X119181009Y-48261904D02*
X119228628Y-48166666D01*
X119228628Y-48166666D02*
X119228628Y-47785714D01*
X119704819Y-49309523D02*
X119704819Y-48738095D01*
X119704819Y-49023809D02*
X118704819Y-49023809D01*
X118704819Y-49023809D02*
X118847676Y-48928571D01*
X118847676Y-48928571D02*
X118942914Y-48833333D01*
X118942914Y-48833333D02*
X118990533Y-48738095D01*
X118704819Y-50166666D02*
X118704819Y-49976190D01*
X118704819Y-49976190D02*
X118752438Y-49880952D01*
X118752438Y-49880952D02*
X118800057Y-49833333D01*
X118800057Y-49833333D02*
X118942914Y-49738095D01*
X118942914Y-49738095D02*
X119133390Y-49690476D01*
X119133390Y-49690476D02*
X119514342Y-49690476D01*
X119514342Y-49690476D02*
X119609580Y-49738095D01*
X119609580Y-49738095D02*
X119657200Y-49785714D01*
X119657200Y-49785714D02*
X119704819Y-49880952D01*
X119704819Y-49880952D02*
X119704819Y-50071428D01*
X119704819Y-50071428D02*
X119657200Y-50166666D01*
X119657200Y-50166666D02*
X119609580Y-50214285D01*
X119609580Y-50214285D02*
X119514342Y-50261904D01*
X119514342Y-50261904D02*
X119276247Y-50261904D01*
X119276247Y-50261904D02*
X119181009Y-50214285D01*
X119181009Y-50214285D02*
X119133390Y-50166666D01*
X119133390Y-50166666D02*
X119085771Y-50071428D01*
X119085771Y-50071428D02*
X119085771Y-49880952D01*
X119085771Y-49880952D02*
X119133390Y-49785714D01*
X119133390Y-49785714D02*
X119181009Y-49738095D01*
X119181009Y-49738095D02*
X119276247Y-49690476D01*
X125109580Y-58607142D02*
X125157200Y-58559523D01*
X125157200Y-58559523D02*
X125204819Y-58416666D01*
X125204819Y-58416666D02*
X125204819Y-58321428D01*
X125204819Y-58321428D02*
X125157200Y-58178571D01*
X125157200Y-58178571D02*
X125061961Y-58083333D01*
X125061961Y-58083333D02*
X124966723Y-58035714D01*
X124966723Y-58035714D02*
X124776247Y-57988095D01*
X124776247Y-57988095D02*
X124633390Y-57988095D01*
X124633390Y-57988095D02*
X124442914Y-58035714D01*
X124442914Y-58035714D02*
X124347676Y-58083333D01*
X124347676Y-58083333D02*
X124252438Y-58178571D01*
X124252438Y-58178571D02*
X124204819Y-58321428D01*
X124204819Y-58321428D02*
X124204819Y-58416666D01*
X124204819Y-58416666D02*
X124252438Y-58559523D01*
X124252438Y-58559523D02*
X124300057Y-58607142D01*
X124300057Y-58988095D02*
X124252438Y-59035714D01*
X124252438Y-59035714D02*
X124204819Y-59130952D01*
X124204819Y-59130952D02*
X124204819Y-59369047D01*
X124204819Y-59369047D02*
X124252438Y-59464285D01*
X124252438Y-59464285D02*
X124300057Y-59511904D01*
X124300057Y-59511904D02*
X124395295Y-59559523D01*
X124395295Y-59559523D02*
X124490533Y-59559523D01*
X124490533Y-59559523D02*
X124633390Y-59511904D01*
X124633390Y-59511904D02*
X125204819Y-58940476D01*
X125204819Y-58940476D02*
X125204819Y-59559523D01*
X124300057Y-59940476D02*
X124252438Y-59988095D01*
X124252438Y-59988095D02*
X124204819Y-60083333D01*
X124204819Y-60083333D02*
X124204819Y-60321428D01*
X124204819Y-60321428D02*
X124252438Y-60416666D01*
X124252438Y-60416666D02*
X124300057Y-60464285D01*
X124300057Y-60464285D02*
X124395295Y-60511904D01*
X124395295Y-60511904D02*
X124490533Y-60511904D01*
X124490533Y-60511904D02*
X124633390Y-60464285D01*
X124633390Y-60464285D02*
X125204819Y-59892857D01*
X125204819Y-59892857D02*
X125204819Y-60511904D01*
D11*
X79400000Y-65170000D02*
X79400000Y-63920000D01*
X79690000Y-58910000D02*
X92310000Y-58910000D01*
X79690000Y-64880000D02*
X79690000Y-58910000D01*
X79700000Y-62620000D02*
X80450000Y-62620000D01*
X79700000Y-64120000D02*
X81500000Y-64120000D01*
X79700000Y-64870000D02*
X79700000Y-64120000D01*
X80450000Y-59670000D02*
X86000000Y-59670000D01*
X80450000Y-62620000D02*
X80450000Y-59670000D01*
X80650000Y-65170000D02*
X79400000Y-65170000D01*
X81500000Y-64120000D02*
X81500000Y-64870000D01*
X81500000Y-64870000D02*
X79700000Y-64870000D01*
X83000000Y-64120000D02*
X89000000Y-64120000D01*
X83000000Y-64870000D02*
X83000000Y-64120000D01*
X89000000Y-64120000D02*
X89000000Y-64870000D01*
X89000000Y-64870000D02*
X83000000Y-64870000D01*
X90500000Y-64120000D02*
X92300000Y-64120000D01*
X90500000Y-64870000D02*
X90500000Y-64120000D01*
X91550000Y-59670000D02*
X86000000Y-59670000D01*
X91550000Y-62620000D02*
X91550000Y-59670000D01*
X92300000Y-62620000D02*
X91550000Y-62620000D01*
X92300000Y-64120000D02*
X92300000Y-64870000D01*
X92300000Y-64870000D02*
X90500000Y-64870000D01*
X92310000Y-58910000D02*
X92310000Y-64880000D01*
X92310000Y-64880000D02*
X79690000Y-64880000D01*
G36*
X120035305Y-45514732D02*
G01*
X120065785Y-45632843D01*
X120092455Y-45750000D01*
X120116268Y-45871920D01*
X119885763Y-45871920D01*
X119908623Y-45750000D01*
X119934340Y-45632843D01*
X119964820Y-45514732D01*
X120000063Y-45388050D01*
X120035305Y-45514732D01*
G37*
G36*
X119184723Y-46142430D02*
G01*
X119130430Y-46148145D01*
X119072328Y-46150050D01*
X118994222Y-46143382D01*
X118926595Y-46118618D01*
X118878018Y-46067182D01*
X118858967Y-45982410D01*
X118913260Y-45859537D01*
X119058993Y-45822390D01*
X119184723Y-45822390D01*
X119184723Y-46142430D01*
G37*
G36*
X119133288Y-45351855D02*
G01*
X119184723Y-45357570D01*
X119184723Y-45628080D01*
X119093283Y-45628080D01*
X118958028Y-45589027D01*
X118912308Y-45481395D01*
X118925643Y-45413767D01*
X118961838Y-45373762D01*
X119015178Y-45354712D01*
X119078043Y-45349950D01*
X119133288Y-45351855D01*
G37*
G36*
X123323441Y-45750000D02*
G01*
X122656268Y-46750760D01*
X122259393Y-46750760D01*
X120750633Y-46750760D01*
X119790513Y-46750760D01*
X119091378Y-46750760D01*
X117693108Y-46750760D01*
X117496893Y-46750760D01*
X116740607Y-46750760D01*
X116343732Y-46750760D01*
X116068989Y-46338645D01*
X116740607Y-46338645D01*
X117496893Y-46338645D01*
X117693108Y-46338645D01*
X118434153Y-46338645D01*
X118434153Y-45982410D01*
X118628463Y-45982410D01*
X118637511Y-46080279D01*
X118664658Y-46160528D01*
X118762765Y-46274828D01*
X118830392Y-46311499D01*
X118909450Y-46335787D01*
X118997318Y-46349361D01*
X119091378Y-46353885D01*
X119170911Y-46351742D01*
X119253303Y-46345313D01*
X119305163Y-46338645D01*
X119539053Y-46338645D01*
X119790513Y-46338645D01*
X119845758Y-46066230D01*
X120160083Y-46066230D01*
X120213423Y-46338645D01*
X120457263Y-46338645D01*
X120423658Y-46201676D01*
X120389902Y-46069659D01*
X120355993Y-45942596D01*
X120321931Y-45820485D01*
X120287718Y-45703328D01*
X120245212Y-45561822D01*
X120203421Y-45424007D01*
X120162345Y-45289883D01*
X120121983Y-45159450D01*
X120562038Y-45159450D01*
X120562038Y-46338645D01*
X120750633Y-46338645D01*
X120805560Y-46207941D01*
X120863663Y-46077448D01*
X120924940Y-45947167D01*
X120989393Y-45816887D01*
X121057020Y-45686394D01*
X121127823Y-45555690D01*
X121127823Y-46338645D01*
X121339278Y-46338645D01*
X121503108Y-46338645D01*
X122259393Y-46338645D01*
X122259393Y-45159450D01*
X121545018Y-45159450D01*
X121545018Y-45353760D01*
X122025078Y-45353760D01*
X122025078Y-45618555D01*
X121607883Y-45618555D01*
X121607883Y-45812865D01*
X122025078Y-45812865D01*
X122025078Y-46144335D01*
X121503108Y-46144335D01*
X121503108Y-46338645D01*
X121339278Y-46338645D01*
X121339278Y-45159450D01*
X121150683Y-45159450D01*
X121097343Y-45246842D01*
X121044003Y-45341377D01*
X120991377Y-45439247D01*
X120940180Y-45536640D01*
X120891603Y-45632366D01*
X120846835Y-45725235D01*
X120807068Y-45810960D01*
X120773493Y-45885255D01*
X120773493Y-45159450D01*
X120562038Y-45159450D01*
X120121983Y-45159450D01*
X119866713Y-45159450D01*
X119824862Y-45290955D01*
X119783131Y-45426388D01*
X119741518Y-45565751D01*
X119700025Y-45709042D01*
X119667069Y-45827191D01*
X119634493Y-45949225D01*
X119602299Y-46075145D01*
X119570485Y-46204952D01*
X119539053Y-46338645D01*
X119305163Y-46338645D01*
X119336646Y-46334597D01*
X119419038Y-46319595D01*
X119419038Y-45174690D01*
X119272353Y-45154687D01*
X119114238Y-45146115D01*
X118993270Y-45153021D01*
X118897068Y-45173737D01*
X118765623Y-45246127D01*
X118700853Y-45346140D01*
X118683707Y-45456630D01*
X118693947Y-45535688D01*
X118724665Y-45605220D01*
X118834203Y-45708090D01*
X118733476Y-45759525D01*
X118671325Y-45826200D01*
X118639178Y-45902400D01*
X118628463Y-45982410D01*
X118434153Y-45982410D01*
X118434153Y-45159450D01*
X118197933Y-45159450D01*
X118197933Y-46144335D01*
X117693108Y-46144335D01*
X117693108Y-46338645D01*
X117496893Y-46338645D01*
X117496893Y-45159450D01*
X116782517Y-45159450D01*
X116782517Y-45353760D01*
X117262578Y-45353760D01*
X117262578Y-45618555D01*
X116845383Y-45618555D01*
X116845383Y-45812865D01*
X117262578Y-45812865D01*
X117262578Y-46144335D01*
X116740607Y-46144335D01*
X116740607Y-46338645D01*
X116068989Y-46338645D01*
X115676559Y-45750000D01*
X116343732Y-44749240D01*
X116740607Y-44749240D01*
X122259393Y-44749240D01*
X122656268Y-44749240D01*
X123323441Y-45750000D01*
G37*
X121109870Y-61262742D02*
X121109870Y-61737258D01*
X120064870Y-61262742D02*
X120064870Y-61737258D01*
X122860000Y-39390000D02*
X122860000Y-40640000D01*
X122560000Y-44410000D02*
X116440000Y-44410000D01*
X122560000Y-42300000D02*
X121950000Y-42300000D01*
X122560000Y-41000000D02*
X121950000Y-41000000D01*
X122560000Y-39690000D02*
X122560000Y-44410000D01*
X121950000Y-43800000D02*
X117050000Y-43800000D01*
X121950000Y-40300000D02*
X121950000Y-43800000D01*
X121610000Y-39390000D02*
X122860000Y-39390000D01*
X121100000Y-39490000D02*
X121100000Y-39690000D01*
X120800000Y-39690000D02*
X120800000Y-39490000D01*
X120800000Y-39590000D02*
X121100000Y-39590000D01*
X120800000Y-39490000D02*
X121100000Y-39490000D01*
X120000000Y-40300000D02*
X121950000Y-40300000D01*
X120000000Y-39690000D02*
X120000000Y-40300000D01*
X119600000Y-43800000D02*
X119600000Y-43300000D01*
X119600000Y-43300000D02*
X119400000Y-43300000D01*
X119500000Y-43800000D02*
X119500000Y-43300000D01*
X119400000Y-43300000D02*
X119400000Y-43800000D01*
X119000000Y-40300000D02*
X119000000Y-39690000D01*
X117050000Y-43800000D02*
X117050000Y-40300000D01*
X117050000Y-40300000D02*
X119000000Y-40300000D01*
X116440000Y-44410000D02*
X116440000Y-39690000D01*
X116440000Y-42300000D02*
X117050000Y-42300000D01*
X116440000Y-41000000D02*
X117050000Y-41000000D01*
X116440000Y-39690000D02*
X122560000Y-39690000D01*
G36*
X104519050Y-45516637D02*
G01*
X104549530Y-45634747D01*
X104576200Y-45751905D01*
X104600012Y-45873825D01*
X104369507Y-45873825D01*
X104392367Y-45751905D01*
X104418085Y-45634747D01*
X104448565Y-45516637D01*
X104483807Y-45389955D01*
X104519050Y-45516637D01*
G37*
G36*
X106930886Y-45750000D02*
G01*
X106256092Y-46762190D01*
X105859218Y-46762190D01*
X105346772Y-46762190D01*
X104274257Y-46762190D01*
X103329377Y-46762190D01*
X103140782Y-46762190D01*
X102743907Y-46762190D01*
X102069114Y-45750000D01*
X102461544Y-45161355D01*
X103140782Y-45161355D01*
X103140782Y-46340550D01*
X103329377Y-46340550D01*
X103384305Y-46209846D01*
X103442407Y-46079353D01*
X103503685Y-45949072D01*
X103568138Y-45818792D01*
X103635765Y-45688299D01*
X103706567Y-45557595D01*
X103706567Y-46340550D01*
X103918022Y-46340550D01*
X104022797Y-46340550D01*
X104274257Y-46340550D01*
X104329502Y-46068135D01*
X104643827Y-46068135D01*
X104697167Y-46340550D01*
X104941007Y-46340550D01*
X104926986Y-46283400D01*
X105017207Y-46283400D01*
X105151510Y-46339597D01*
X105242712Y-46358886D01*
X105346772Y-46365315D01*
X105500019Y-46347535D01*
X105627019Y-46294195D01*
X105727773Y-46205295D01*
X105785280Y-46116832D01*
X105826356Y-46011461D01*
X105851002Y-45889184D01*
X105859218Y-45750000D01*
X105849216Y-45611411D01*
X105819213Y-45489015D01*
X105771349Y-45383526D01*
X105707770Y-45295657D01*
X105629665Y-45226125D01*
X105538225Y-45175642D01*
X105435593Y-45144924D01*
X105323912Y-45134685D01*
X105210565Y-45145162D01*
X105121982Y-45168975D01*
X105058165Y-45197550D01*
X105019112Y-45220410D01*
X105080072Y-45407100D01*
X105185800Y-45358522D01*
X105327722Y-45338520D01*
X105435355Y-45358522D01*
X105528700Y-45425197D01*
X105595375Y-45549975D01*
X105614663Y-45637605D01*
X105621092Y-45744285D01*
X105613367Y-45868427D01*
X105590189Y-45971615D01*
X105551560Y-46053847D01*
X105459882Y-46134572D01*
X105323912Y-46161480D01*
X105172465Y-46140525D01*
X105076262Y-46098615D01*
X105017207Y-46283400D01*
X104926986Y-46283400D01*
X104907403Y-46203580D01*
X104873647Y-46071564D01*
X104839738Y-45944500D01*
X104805676Y-45822390D01*
X104771462Y-45705232D01*
X104728957Y-45563727D01*
X104687166Y-45425912D01*
X104646090Y-45291788D01*
X104605727Y-45161355D01*
X104350457Y-45161355D01*
X104308607Y-45292860D01*
X104266876Y-45428293D01*
X104225263Y-45567656D01*
X104183770Y-45710947D01*
X104150813Y-45829096D01*
X104118238Y-45951130D01*
X104086043Y-46077050D01*
X104054230Y-46206857D01*
X104022797Y-46340550D01*
X103918022Y-46340550D01*
X103918022Y-45161355D01*
X103729427Y-45161355D01*
X103676087Y-45248747D01*
X103622747Y-45343282D01*
X103570122Y-45441152D01*
X103518925Y-45538545D01*
X103470347Y-45634271D01*
X103425580Y-45727140D01*
X103385813Y-45812865D01*
X103352237Y-45887160D01*
X103352237Y-45161355D01*
X103140782Y-45161355D01*
X102461544Y-45161355D01*
X102743907Y-44737810D01*
X103140782Y-44737810D01*
X105859217Y-44737810D01*
X105859218Y-44737810D01*
X106256092Y-44737810D01*
X106930886Y-45750000D01*
G37*
X123150000Y-44360000D02*
X123150000Y-41700000D01*
X124850000Y-44360000D02*
X123150000Y-44360000D01*
X124850000Y-44360000D02*
X124850000Y-41700000D01*
X107650000Y-48360000D02*
X107650000Y-45700000D01*
X109350000Y-48360000D02*
X107650000Y-48360000D01*
X109350000Y-48360000D02*
X109350000Y-45700000D01*
X120227500Y-49237258D02*
X120227500Y-48762742D01*
X121272500Y-49237258D02*
X121272500Y-48762742D01*
G36*
X82744355Y-50516637D02*
G01*
X82774835Y-50634747D01*
X82801505Y-50751905D01*
X82825317Y-50873825D01*
X82594812Y-50873825D01*
X82617673Y-50751905D01*
X82643390Y-50634747D01*
X82673870Y-50516637D01*
X82709112Y-50389955D01*
X82744355Y-50516637D01*
G37*
G36*
X86656272Y-51144335D02*
G01*
X86601980Y-51150050D01*
X86543877Y-51151955D01*
X86465772Y-51145287D01*
X86398145Y-51120522D01*
X86349567Y-51069087D01*
X86330517Y-50984315D01*
X86384810Y-50861442D01*
X86530542Y-50824295D01*
X86656272Y-50824295D01*
X86656272Y-51144335D01*
G37*
G36*
X86604837Y-50353760D02*
G01*
X86656272Y-50359475D01*
X86656272Y-50629985D01*
X86564832Y-50629985D01*
X86429577Y-50590932D01*
X86383857Y-50483300D01*
X86397192Y-50415672D01*
X86433387Y-50375667D01*
X86486727Y-50356617D01*
X86549592Y-50351855D01*
X86604837Y-50353760D01*
G37*
G36*
X77093172Y-50352807D02*
G01*
X77131272Y-50357570D01*
X77131272Y-50711900D01*
X77079837Y-50711900D01*
X76976491Y-50700232D01*
X76906482Y-50665227D01*
X76853142Y-50532830D01*
X76867430Y-50451867D01*
X76910292Y-50395670D01*
X76976491Y-50362809D01*
X77060787Y-50351855D01*
X77093172Y-50352807D01*
G37*
G36*
X95194483Y-50352807D02*
G01*
X95228773Y-50357570D01*
X95228773Y-51150050D01*
X95207818Y-51151955D01*
X95186863Y-51151955D01*
X95052560Y-51121475D01*
X94964930Y-51037655D01*
X94917305Y-50910972D01*
X94906589Y-50834058D01*
X94903017Y-50750000D01*
X94914448Y-50601410D01*
X94954453Y-50473775D01*
X95032558Y-50385192D01*
X95160193Y-50351855D01*
X95194483Y-50352807D01*
G37*
G36*
X88526982Y-50352807D02*
G01*
X88561272Y-50357570D01*
X88561272Y-51150050D01*
X88540317Y-51151955D01*
X88519362Y-51151955D01*
X88385060Y-51121475D01*
X88297430Y-51037655D01*
X88249805Y-50910972D01*
X88239089Y-50834058D01*
X88235517Y-50750000D01*
X88246947Y-50601410D01*
X88286953Y-50473775D01*
X88365057Y-50385192D01*
X88492692Y-50351855D01*
X88526982Y-50352807D01*
G37*
G36*
X79946862Y-50370905D02*
G01*
X80003060Y-50459487D01*
X80029730Y-50589980D01*
X80034731Y-50667132D01*
X80036397Y-50750000D01*
X80034731Y-50833106D01*
X80029730Y-50910972D01*
X80003060Y-51041465D01*
X79946862Y-51129095D01*
X79849707Y-51161480D01*
X79753505Y-51129095D01*
X79696355Y-51040512D01*
X79669685Y-50910020D01*
X79664684Y-50832867D01*
X79663017Y-50750000D01*
X79664684Y-50666894D01*
X79669685Y-50589027D01*
X79696355Y-50458535D01*
X79752552Y-50370905D01*
X79849707Y-50338520D01*
X79946862Y-50370905D01*
G37*
G36*
X96534756Y-50750000D02*
G01*
X95859962Y-51762190D01*
X95463087Y-51762190D01*
X95211627Y-51762190D01*
X94493442Y-51762190D01*
X93218997Y-51762190D01*
X92605588Y-51762190D01*
X91222558Y-51762190D01*
X90127183Y-51762190D01*
X89730942Y-51762190D01*
X88544127Y-51762190D01*
X86562927Y-51762190D01*
X85444692Y-51762190D01*
X84610302Y-51762190D01*
X82499563Y-51762190D01*
X81752802Y-51762190D01*
X80402157Y-51762190D01*
X79847802Y-51762190D01*
X79253442Y-51762190D01*
X77554182Y-51762190D01*
X76536912Y-51762190D01*
X76140037Y-51762190D01*
X75858944Y-51340550D01*
X76536912Y-51340550D01*
X76782657Y-51340550D01*
X76830044Y-51228393D01*
X76884575Y-51120522D01*
X76944821Y-51014081D01*
X77009352Y-50906210D01*
X77131272Y-50906210D01*
X77131272Y-51340550D01*
X77365587Y-51340550D01*
X77365587Y-50178500D01*
X77290340Y-50164212D01*
X77265484Y-50161355D01*
X77554182Y-50161355D01*
X77554182Y-51340550D01*
X77788497Y-51340550D01*
X77788497Y-50820485D01*
X78100917Y-50820485D01*
X78100917Y-51340550D01*
X78335232Y-51340550D01*
X78497157Y-51340550D01*
X79253442Y-51340550D01*
X79253442Y-50750000D01*
X79424892Y-50750000D01*
X79431798Y-50893054D01*
X79452515Y-51017414D01*
X79487043Y-51123082D01*
X79535382Y-51210057D01*
X79619202Y-51296312D01*
X79723342Y-51348064D01*
X79847802Y-51365315D01*
X79975332Y-51348064D01*
X79990683Y-51340550D01*
X80402157Y-51340550D01*
X81143202Y-51340550D01*
X81143202Y-51190055D01*
X81583257Y-51190055D01*
X81634692Y-51317690D01*
X81752802Y-51361505D01*
X81817572Y-51350075D01*
X81833084Y-51340550D01*
X82248102Y-51340550D01*
X82499563Y-51340550D01*
X82554808Y-51068135D01*
X82869132Y-51068135D01*
X82922472Y-51340550D01*
X83166312Y-51340550D01*
X83132708Y-51203580D01*
X83129250Y-51190055D01*
X84440757Y-51190055D01*
X84492192Y-51317690D01*
X84610302Y-51361505D01*
X84675072Y-51350075D01*
X84729365Y-51316737D01*
X84767465Y-51263397D01*
X84781752Y-51190055D01*
X84767465Y-51118617D01*
X84729365Y-51066230D01*
X84675072Y-51033845D01*
X84610302Y-51022415D01*
X84492192Y-51066230D01*
X84440757Y-51190055D01*
X83129250Y-51190055D01*
X83098952Y-51071564D01*
X83065043Y-50944500D01*
X83030981Y-50822390D01*
X82996767Y-50705232D01*
X82969014Y-50612840D01*
X84440757Y-50612840D01*
X84492192Y-50740475D01*
X84610302Y-50784290D01*
X84675072Y-50772860D01*
X84729365Y-50739522D01*
X84767465Y-50686182D01*
X84781752Y-50612840D01*
X84767465Y-50541402D01*
X84729365Y-50489015D01*
X84675072Y-50456630D01*
X84610302Y-50445200D01*
X84492192Y-50489015D01*
X84440757Y-50612840D01*
X82969014Y-50612840D01*
X82954262Y-50563727D01*
X82912471Y-50425912D01*
X82871395Y-50291788D01*
X82831032Y-50161355D01*
X85111318Y-50161355D01*
X85147512Y-50257081D01*
X85183707Y-50349950D01*
X85220855Y-50440914D01*
X85259907Y-50530925D01*
X85301341Y-50620222D01*
X85345632Y-50709042D01*
X85393257Y-50798816D01*
X85444692Y-50890970D01*
X85444692Y-51340550D01*
X85680912Y-51340550D01*
X85680912Y-50984315D01*
X86100012Y-50984315D01*
X86109061Y-51082184D01*
X86136207Y-51162432D01*
X86234315Y-51276732D01*
X86301942Y-51313404D01*
X86381000Y-51337692D01*
X86468868Y-51351266D01*
X86562927Y-51355790D01*
X86642461Y-51353647D01*
X86724852Y-51347217D01*
X86808196Y-51336502D01*
X86890587Y-51321500D01*
X86890587Y-50750000D01*
X87997392Y-50750000D01*
X88007632Y-50901686D01*
X88038350Y-51029082D01*
X88087166Y-51133619D01*
X88151697Y-51216725D01*
X88230993Y-51279352D01*
X88324100Y-51322452D01*
X88429113Y-51347456D01*
X88544127Y-51355790D01*
X88667000Y-51349122D01*
X88717315Y-51340550D01*
X88974657Y-51340550D01*
X89730942Y-51340550D01*
X89730942Y-50161355D01*
X89938587Y-50161355D01*
X89938587Y-51340550D01*
X90127183Y-51340550D01*
X90182110Y-51209846D01*
X90240212Y-51079353D01*
X90301490Y-50949072D01*
X90365942Y-50818792D01*
X90433570Y-50688299D01*
X90504373Y-50557595D01*
X90504373Y-51340550D01*
X90715828Y-51340550D01*
X90715828Y-50220410D01*
X90872037Y-50220410D01*
X90932997Y-50407100D01*
X91035867Y-50359475D01*
X91161597Y-50338520D01*
X91302567Y-50369000D01*
X91396865Y-50453772D01*
X91450205Y-50583312D01*
X91462349Y-50662608D01*
X91466397Y-50750000D01*
X91458989Y-50878587D01*
X91436764Y-50982410D01*
X91399722Y-51061467D01*
X91317331Y-51136477D01*
X91203507Y-51161480D01*
X91157787Y-51159575D01*
X91112068Y-51153860D01*
X91112068Y-50723330D01*
X90877753Y-50723330D01*
X90877753Y-51311975D01*
X91008245Y-51346265D01*
X91106114Y-51360553D01*
X91222558Y-51365315D01*
X91327571Y-51355552D01*
X91421630Y-51326262D01*
X91503783Y-51277685D01*
X91573077Y-51210057D01*
X91628799Y-51123380D01*
X91670232Y-51017652D01*
X91695950Y-50893113D01*
X91704522Y-50750000D01*
X91694521Y-50608316D01*
X91664518Y-50484252D01*
X91617369Y-50378287D01*
X91555932Y-50290895D01*
X91481161Y-50222553D01*
X91394007Y-50173737D01*
X91353136Y-50161355D01*
X91856922Y-50161355D01*
X91856922Y-50355665D01*
X92112192Y-50355665D01*
X92112192Y-51146240D01*
X91856922Y-51146240D01*
X91856922Y-51340550D01*
X92605588Y-51340550D01*
X92605588Y-51146240D01*
X92348412Y-51146240D01*
X92348412Y-51018605D01*
X92784658Y-51018605D01*
X92811566Y-51165528D01*
X92892290Y-51274827D01*
X92976428Y-51325098D01*
X93085330Y-51355261D01*
X93218997Y-51365315D01*
X93350919Y-51357457D01*
X93424351Y-51340550D01*
X93737158Y-51340550D01*
X94493442Y-51340550D01*
X94493442Y-50750000D01*
X94664892Y-50750000D01*
X94675132Y-50901686D01*
X94705850Y-51029082D01*
X94754666Y-51133619D01*
X94819198Y-51216725D01*
X94898493Y-51279352D01*
X94991600Y-51322452D01*
X95096613Y-51347456D01*
X95211627Y-51355790D01*
X95334500Y-51349122D01*
X95463087Y-51327215D01*
X95463087Y-50176595D01*
X95312593Y-50153735D01*
X95181148Y-50148020D01*
X95069943Y-50156592D01*
X94968740Y-50182310D01*
X94879919Y-50226363D01*
X94805863Y-50289942D01*
X94746569Y-50373286D01*
X94702040Y-50476632D01*
X94674179Y-50601648D01*
X94664892Y-50750000D01*
X94493442Y-50750000D01*
X94493442Y-50161355D01*
X93779067Y-50161355D01*
X93779067Y-50355665D01*
X94259128Y-50355665D01*
X94259128Y-50620460D01*
X93841932Y-50620460D01*
X93841932Y-50814770D01*
X94259128Y-50814770D01*
X94259128Y-51146240D01*
X93737158Y-51146240D01*
X93737158Y-51340550D01*
X93424351Y-51340550D01*
X93453312Y-51333882D01*
X93584757Y-51275780D01*
X93516177Y-51085280D01*
X93393305Y-51142430D01*
X93314009Y-51162432D01*
X93218997Y-51169100D01*
X93120890Y-51156717D01*
X93058977Y-51122427D01*
X93027545Y-51072897D01*
X93018973Y-51016700D01*
X93039927Y-50951930D01*
X93093268Y-50901447D01*
X93165657Y-50861442D01*
X93245668Y-50828105D01*
X93356157Y-50784290D01*
X93459980Y-50721425D01*
X93537132Y-50627127D01*
X93567612Y-50487110D01*
X93540704Y-50339472D01*
X93459980Y-50228030D01*
X93379229Y-50176172D01*
X93280487Y-50145057D01*
X93163752Y-50134685D01*
X93062073Y-50140876D01*
X92974205Y-50159450D01*
X92837998Y-50214695D01*
X92906578Y-50395670D01*
X93012305Y-50349950D01*
X93146607Y-50330900D01*
X93250324Y-50345928D01*
X93312554Y-50391013D01*
X93333298Y-50466155D01*
X93314248Y-50526162D01*
X93265670Y-50571882D01*
X93198995Y-50607125D01*
X93125652Y-50635700D01*
X93010400Y-50682372D01*
X92899910Y-50750952D01*
X92817042Y-50857632D01*
X92792754Y-50929784D01*
X92784658Y-51018605D01*
X92348412Y-51018605D01*
X92348412Y-50355665D01*
X92605588Y-50355665D01*
X92605588Y-50161355D01*
X91856922Y-50161355D01*
X91353136Y-50161355D01*
X91297329Y-50144448D01*
X91193983Y-50134685D01*
X91071110Y-50145162D01*
X90976812Y-50168975D01*
X90911090Y-50197550D01*
X90872037Y-50220410D01*
X90715828Y-50220410D01*
X90715828Y-50161355D01*
X90527232Y-50161355D01*
X90473892Y-50248747D01*
X90420552Y-50343282D01*
X90367927Y-50441152D01*
X90316730Y-50538545D01*
X90268152Y-50634271D01*
X90223385Y-50727140D01*
X90183618Y-50812865D01*
X90150042Y-50887160D01*
X90150042Y-50161355D01*
X89938587Y-50161355D01*
X89730942Y-50161355D01*
X89016567Y-50161355D01*
X89016567Y-50355665D01*
X89496627Y-50355665D01*
X89496627Y-50620460D01*
X89079432Y-50620460D01*
X89079432Y-50814770D01*
X89496627Y-50814770D01*
X89496627Y-51146240D01*
X88974657Y-51146240D01*
X88974657Y-51340550D01*
X88717315Y-51340550D01*
X88795587Y-51327215D01*
X88795587Y-50176595D01*
X88645092Y-50153735D01*
X88513647Y-50148020D01*
X88402443Y-50156592D01*
X88301240Y-50182310D01*
X88212419Y-50226363D01*
X88138363Y-50289942D01*
X88079069Y-50373286D01*
X88034540Y-50476632D01*
X88006679Y-50601648D01*
X87997392Y-50750000D01*
X86890587Y-50750000D01*
X86890587Y-50176595D01*
X86743902Y-50156592D01*
X86585787Y-50148020D01*
X86464820Y-50154926D01*
X86368617Y-50175642D01*
X86237172Y-50248032D01*
X86172402Y-50348045D01*
X86155257Y-50458535D01*
X86165497Y-50537592D01*
X86196215Y-50607125D01*
X86305752Y-50709995D01*
X86205026Y-50761430D01*
X86142875Y-50828105D01*
X86110728Y-50904305D01*
X86100012Y-50984315D01*
X85680912Y-50984315D01*
X85680912Y-50892875D01*
X85747905Y-50770637D01*
X85809183Y-50650305D01*
X85864745Y-50531877D01*
X85916709Y-50412392D01*
X85967192Y-50288884D01*
X86016192Y-50161355D01*
X85764732Y-50161355D01*
X85718536Y-50299706D01*
X85667577Y-50440437D01*
X85613285Y-50576407D01*
X85557087Y-50700470D01*
X85508510Y-50589980D01*
X85453265Y-50449010D01*
X85426119Y-50374239D01*
X85399925Y-50298515D01*
X85353253Y-50161355D01*
X85111318Y-50161355D01*
X82831032Y-50161355D01*
X82575762Y-50161355D01*
X82533912Y-50292860D01*
X82492181Y-50428293D01*
X82450568Y-50567656D01*
X82409075Y-50710947D01*
X82376118Y-50829096D01*
X82343543Y-50951130D01*
X82311348Y-51077050D01*
X82279535Y-51206857D01*
X82248102Y-51340550D01*
X81833084Y-51340550D01*
X81871865Y-51316737D01*
X81909965Y-51263397D01*
X81924252Y-51190055D01*
X81909965Y-51118617D01*
X81871865Y-51066230D01*
X81817572Y-51033845D01*
X81752802Y-51022415D01*
X81634692Y-51066230D01*
X81583257Y-51190055D01*
X81143202Y-51190055D01*
X81143202Y-50161355D01*
X80906982Y-50161355D01*
X80906982Y-51146240D01*
X80402157Y-51146240D01*
X80402157Y-51340550D01*
X79990683Y-51340550D01*
X80081059Y-51296312D01*
X80164985Y-51210057D01*
X80212908Y-51123082D01*
X80247138Y-51017414D01*
X80267676Y-50893054D01*
X80274522Y-50750000D01*
X80267498Y-50606946D01*
X80246424Y-50482586D01*
X80211300Y-50376918D01*
X80162127Y-50289942D01*
X80077461Y-50203688D01*
X79973321Y-50151936D01*
X79849707Y-50134685D01*
X79722284Y-50151936D01*
X79616874Y-50203688D01*
X79533477Y-50289942D01*
X79485972Y-50376918D01*
X79452039Y-50482586D01*
X79431679Y-50606946D01*
X79424892Y-50750000D01*
X79253442Y-50750000D01*
X79253442Y-50161355D01*
X78539067Y-50161355D01*
X78539067Y-50355665D01*
X79019127Y-50355665D01*
X79019127Y-50620460D01*
X78601932Y-50620460D01*
X78601932Y-50814770D01*
X79019127Y-50814770D01*
X79019127Y-51146240D01*
X78497157Y-51146240D01*
X78497157Y-51340550D01*
X78335232Y-51340550D01*
X78335232Y-50161355D01*
X78100917Y-50161355D01*
X78100917Y-50626175D01*
X77788497Y-50626175D01*
X77788497Y-50161355D01*
X77554182Y-50161355D01*
X77265484Y-50161355D01*
X77207472Y-50154687D01*
X77127462Y-50149925D01*
X77060787Y-50148020D01*
X76964585Y-50153735D01*
X76877907Y-50170880D01*
X76801707Y-50199931D01*
X76736937Y-50241365D01*
X76646450Y-50362332D01*
X76622876Y-50442104D01*
X76615017Y-50534735D01*
X76625495Y-50632842D01*
X76656927Y-50721425D01*
X76712649Y-50795244D01*
X76795992Y-50849060D01*
X76727412Y-50958597D01*
X76656927Y-51084327D01*
X76591205Y-51215772D01*
X76536912Y-51340550D01*
X75858944Y-51340550D01*
X75465244Y-50750000D01*
X76140037Y-49737810D01*
X76536912Y-49737810D01*
X95463087Y-49737810D01*
X95859962Y-49737810D01*
X96534756Y-50750000D01*
G37*
X125260000Y-56084420D02*
X125260000Y-56365580D01*
X124240000Y-56084420D02*
X124240000Y-56365580D01*
G36*
X111708472Y-46144335D02*
G01*
X111654180Y-46150050D01*
X111596077Y-46151955D01*
X111517972Y-46145287D01*
X111450345Y-46120522D01*
X111401767Y-46069087D01*
X111382717Y-45984315D01*
X111437010Y-45861442D01*
X111582742Y-45824295D01*
X111708472Y-45824295D01*
X111708472Y-46144335D01*
G37*
G36*
X111657037Y-45353760D02*
G01*
X111708472Y-45359475D01*
X111708472Y-45629985D01*
X111617033Y-45629985D01*
X111481777Y-45590932D01*
X111436057Y-45483300D01*
X111449392Y-45415672D01*
X111485587Y-45375667D01*
X111538927Y-45356617D01*
X111601793Y-45351855D01*
X111657037Y-45353760D01*
G37*
G36*
X113575373Y-45352807D02*
G01*
X113613472Y-45357570D01*
X113613472Y-45711900D01*
X113562038Y-45711900D01*
X113458691Y-45700232D01*
X113388683Y-45665227D01*
X113335343Y-45532830D01*
X113349630Y-45451867D01*
X113392493Y-45395670D01*
X113458691Y-45362809D01*
X113542988Y-45351855D01*
X113575373Y-45352807D01*
G37*
G36*
X114919456Y-45750000D02*
G01*
X114244662Y-46762190D01*
X113847787Y-46762190D01*
X113019113Y-46762190D01*
X112464758Y-46762190D01*
X111615127Y-46762190D01*
X111152212Y-46762190D01*
X110755337Y-46762190D01*
X110236754Y-45984315D01*
X111152212Y-45984315D01*
X111161261Y-46082184D01*
X111188408Y-46162432D01*
X111286515Y-46276732D01*
X111354142Y-46313404D01*
X111433200Y-46337692D01*
X111521068Y-46351266D01*
X111615127Y-46355790D01*
X111694661Y-46353647D01*
X111777052Y-46347217D01*
X111860396Y-46336502D01*
X111942787Y-46321500D01*
X111942787Y-45220410D01*
X112114237Y-45220410D01*
X112175197Y-45407100D01*
X112278067Y-45359475D01*
X112403798Y-45338520D01*
X112544768Y-45369000D01*
X112639065Y-45453772D01*
X112692405Y-45583312D01*
X112704549Y-45662608D01*
X112708598Y-45750000D01*
X112701189Y-45878587D01*
X112678964Y-45982410D01*
X112641923Y-46061467D01*
X112559531Y-46136477D01*
X112445707Y-46161480D01*
X112399987Y-46159575D01*
X112354267Y-46153860D01*
X112354267Y-45723330D01*
X112119952Y-45723330D01*
X112119952Y-46311975D01*
X112250445Y-46346265D01*
X112348314Y-46360553D01*
X112464758Y-46365315D01*
X112569771Y-46355552D01*
X112617947Y-46340550D01*
X113019113Y-46340550D01*
X113264858Y-46340550D01*
X113312244Y-46228393D01*
X113366775Y-46120522D01*
X113427021Y-46014081D01*
X113491553Y-45906210D01*
X113613472Y-45906210D01*
X113613472Y-46340550D01*
X113847788Y-46340550D01*
X113847788Y-45178500D01*
X113772540Y-45164212D01*
X113689673Y-45154687D01*
X113609663Y-45149925D01*
X113542988Y-45148020D01*
X113446785Y-45153735D01*
X113360107Y-45170880D01*
X113283908Y-45199931D01*
X113219137Y-45241365D01*
X113128650Y-45362332D01*
X113105076Y-45442104D01*
X113097218Y-45534735D01*
X113107695Y-45632842D01*
X113139128Y-45721425D01*
X113194849Y-45795244D01*
X113278193Y-45849060D01*
X113209613Y-45958597D01*
X113139128Y-46084327D01*
X113073405Y-46215772D01*
X113019113Y-46340550D01*
X112617947Y-46340550D01*
X112663830Y-46326262D01*
X112745983Y-46277685D01*
X112815278Y-46210057D01*
X112870999Y-46123380D01*
X112912433Y-46017652D01*
X112938150Y-45893113D01*
X112946723Y-45750000D01*
X112936721Y-45608316D01*
X112906717Y-45484252D01*
X112859569Y-45378287D01*
X112798133Y-45290895D01*
X112723361Y-45222553D01*
X112636207Y-45173737D01*
X112539529Y-45144448D01*
X112436183Y-45134685D01*
X112313310Y-45145162D01*
X112219012Y-45168975D01*
X112153290Y-45197550D01*
X112114237Y-45220410D01*
X111942787Y-45220410D01*
X111942787Y-45176595D01*
X111796103Y-45156592D01*
X111637987Y-45148020D01*
X111517020Y-45154926D01*
X111420817Y-45175642D01*
X111289372Y-45248032D01*
X111224602Y-45348045D01*
X111207457Y-45458535D01*
X111217697Y-45537592D01*
X111248415Y-45607125D01*
X111357952Y-45709995D01*
X111257226Y-45761430D01*
X111195075Y-45828105D01*
X111162928Y-45904305D01*
X111152212Y-45984315D01*
X110236754Y-45984315D01*
X110080544Y-45750000D01*
X110755337Y-44737810D01*
X111152212Y-44737810D01*
X113847788Y-44737810D01*
X114244663Y-44737810D01*
X114919456Y-45750000D01*
G37*
X115860000Y-39390000D02*
X115860000Y-40640000D01*
X115560000Y-44410000D02*
X109440000Y-44410000D01*
X115560000Y-42300000D02*
X114950000Y-42300000D01*
X115560000Y-41000000D02*
X114950000Y-41000000D01*
X115560000Y-39690000D02*
X115560000Y-44410000D01*
X114950000Y-43800000D02*
X110050000Y-43800000D01*
X114950000Y-40300000D02*
X114950000Y-43800000D01*
X114610000Y-39390000D02*
X115860000Y-39390000D01*
X114100000Y-39490000D02*
X114100000Y-39690000D01*
X113800000Y-39690000D02*
X113800000Y-39490000D01*
X113800000Y-39590000D02*
X114100000Y-39590000D01*
X113800000Y-39490000D02*
X114100000Y-39490000D01*
X113000000Y-40300000D02*
X114950000Y-40300000D01*
X113000000Y-39690000D02*
X113000000Y-40300000D01*
X112600000Y-43800000D02*
X112600000Y-43300000D01*
X112600000Y-43300000D02*
X112400000Y-43300000D01*
X112500000Y-43800000D02*
X112500000Y-43300000D01*
X112400000Y-43300000D02*
X112400000Y-43800000D01*
X112000000Y-40300000D02*
X112000000Y-39690000D01*
X110050000Y-43800000D02*
X110050000Y-40300000D01*
X110050000Y-40300000D02*
X112000000Y-40300000D01*
X109440000Y-44410000D02*
X109440000Y-39690000D01*
X109440000Y-42300000D02*
X110050000Y-42300000D01*
X109440000Y-41000000D02*
X110050000Y-41000000D01*
X109440000Y-39690000D02*
X115560000Y-39690000D01*
X108860000Y-39390000D02*
X108860000Y-40640000D01*
X108560000Y-44410000D02*
X100440000Y-44410000D01*
X108560000Y-42300000D02*
X107950000Y-42300000D01*
X108560000Y-41000000D02*
X107950000Y-41000000D01*
X108560000Y-39690000D02*
X108560000Y-44410000D01*
X107950000Y-43800000D02*
X101050000Y-43800000D01*
X107950000Y-40300000D02*
X107950000Y-43800000D01*
X107610000Y-39390000D02*
X108860000Y-39390000D01*
X107100000Y-39490000D02*
X107100000Y-39690000D01*
X106800000Y-39690000D02*
X106800000Y-39490000D01*
X106800000Y-39590000D02*
X107100000Y-39590000D01*
X106800000Y-39490000D02*
X107100000Y-39490000D01*
X106000000Y-40300000D02*
X107950000Y-40300000D01*
X106000000Y-39690000D02*
X106000000Y-40300000D01*
X105600000Y-43800000D02*
X105600000Y-43300000D01*
X105600000Y-43300000D02*
X105400000Y-43300000D01*
X105500000Y-43800000D02*
X105500000Y-43300000D01*
X105400000Y-43300000D02*
X105400000Y-43800000D01*
X103600000Y-43800000D02*
X103600000Y-43300000D01*
X103600000Y-43300000D02*
X103400000Y-43300000D01*
X103500000Y-43800000D02*
X103500000Y-43300000D01*
X103400000Y-43300000D02*
X103400000Y-43800000D01*
X103000000Y-40300000D02*
X103000000Y-39690000D01*
X101050000Y-43800000D02*
X101050000Y-40300000D01*
X101050000Y-40300000D02*
X103000000Y-40300000D01*
X100440000Y-44410000D02*
X100440000Y-39690000D01*
X100440000Y-42300000D02*
X101050000Y-42300000D01*
X100440000Y-41000000D02*
X101050000Y-41000000D01*
X100440000Y-39690000D02*
X108560000Y-39690000D01*
%LPC*%
D12*
X49000000Y-36000000D03*
X91500000Y-28000000D03*
D13*
X119974695Y-71346016D03*
X122096016Y-69224695D03*
D14*
X159500000Y-26542136D03*
D15*
X153805923Y-36694077D03*
D16*
X154703949Y-35796051D03*
X155601974Y-34898026D03*
X156500000Y-34000000D03*
X157398025Y-33101975D03*
D17*
X81500000Y-45920000D03*
X78100000Y-45920000D03*
X81500000Y-36000000D03*
X78100000Y-36000000D03*
D12*
X70250000Y-57250000D03*
D14*
X99500000Y-87000000D03*
D12*
X68000000Y-28000000D03*
D18*
X91500000Y-37420000D03*
D19*
X91500000Y-44620000D03*
D12*
X63750000Y-50750000D03*
D20*
X78500000Y-54920000D03*
D21*
X81000000Y-54920000D03*
X83500000Y-54920000D03*
X86000000Y-54920000D03*
X88500000Y-54920000D03*
X91000000Y-54920000D03*
X93500000Y-54920000D03*
D15*
X112750000Y-77750000D03*
D16*
X113648026Y-76851974D03*
X114546051Y-75953949D03*
X115444077Y-75055923D03*
X116342102Y-74157898D03*
D12*
X55000000Y-28000000D03*
D14*
X39500000Y-26542136D03*
D12*
X80000000Y-28000000D03*
D20*
X82250000Y-62420000D03*
D21*
X84750000Y-62420000D03*
X87250000Y-62420000D03*
X89750000Y-62420000D03*
D22*
X120587370Y-60675000D03*
X120587370Y-62325000D03*
D23*
X120500000Y-41500000D03*
D24*
X118500000Y-41500000D03*
D25*
X124000000Y-43800000D03*
X124000000Y-41700000D03*
X108500000Y-47800000D03*
X108500000Y-45700000D03*
D26*
X120750000Y-49825000D03*
X120750000Y-48175000D03*
D27*
X124750000Y-55450000D03*
X124750000Y-57000000D03*
D23*
X113500000Y-41500000D03*
D24*
X111500000Y-41500000D03*
D23*
X106500000Y-41500000D03*
D24*
X104500000Y-41500000D03*
X102500000Y-41500000D03*
%LPD*%
M02*
