G04 #@! TF.GenerationSoftware,KiCad,Pcbnew,8.0.1-rc2-202403101705~c0fd138706~ubuntu22.04.1*
G04 #@! TF.CreationDate,2024-03-11T22:08:16-04:00*
G04 #@! TF.ProjectId,Balance_Controller,42616c61-6e63-4655-9f43-6f6e74726f6c,rev?*
G04 #@! TF.SameCoordinates,Original*
G04 #@! TF.FileFunction,Profile,NP*
%FSLAX46Y46*%
G04 Gerber Fmt 4.6, Leading zero omitted, Abs format (unit mm)*
G04 Created by KiCad (PCBNEW 8.0.1-rc2-202403101705~c0fd138706~ubuntu22.04.1) date 2024-03-11 22:08:16*
%MOMM*%
%LPD*%
G01*
G04 APERTURE LIST*
G04 #@! TA.AperFunction,Profile*
%ADD10C,0.150000*%
G04 #@! TD*
G04 APERTURE END LIST*
D10*
X160400000Y-21550000D02*
X160735795Y-21591014D01*
X161081566Y-21667386D01*
X161518114Y-21789083D01*
X161941857Y-21949788D01*
X162349319Y-22148182D01*
X162737153Y-22382636D01*
X163102179Y-22651227D01*
X163441399Y-22951751D01*
X163752031Y-23281740D01*
X164031524Y-23638486D01*
X164277585Y-24019063D01*
X164488195Y-24420346D01*
X164661625Y-24839043D01*
X164796451Y-25271716D01*
X164891568Y-25714816D01*
X164946195Y-26164706D01*
X164959883Y-26617693D01*
X164932520Y-27070060D01*
X164864331Y-27518094D01*
X164755875Y-27958119D01*
X164608042Y-28386524D01*
X164422046Y-28799791D01*
X164199412Y-29194530D01*
X163941969Y-29567502D01*
X163651829Y-29915645D01*
X163493398Y-30077670D01*
X156987781Y-36583286D01*
X125804372Y-67766696D01*
X103035534Y-90535534D01*
X102879560Y-90688143D01*
X102545257Y-90968656D01*
X102187778Y-91218966D01*
X101809843Y-91437167D01*
X101414329Y-91621598D01*
X101004245Y-91770856D01*
X100582714Y-91883805D01*
X100152942Y-91959585D01*
X99718201Y-91997620D01*
X99281799Y-91997620D01*
X98847058Y-91959585D01*
X98417286Y-91883805D01*
X97995755Y-91770856D01*
X97585671Y-91621598D01*
X97190157Y-91437167D01*
X96812222Y-91218966D01*
X96454743Y-90968656D01*
X96120440Y-90688143D01*
X95964466Y-90535534D01*
X69872226Y-64443294D01*
X53750191Y-48321259D01*
X35506602Y-30077670D01*
X35348172Y-29915644D01*
X35058035Y-29567501D01*
X34800594Y-29194529D01*
X34577963Y-28799789D01*
X34391969Y-28386522D01*
X34244138Y-27958118D01*
X34135683Y-27518094D01*
X34067495Y-27070060D01*
X34040133Y-26617694D01*
X34053822Y-26164708D01*
X34108449Y-25714820D01*
X34203566Y-25271721D01*
X34338392Y-24839048D01*
X34511822Y-24420353D01*
X34722430Y-24019070D01*
X34968491Y-23638494D01*
X35247983Y-23281748D01*
X35558613Y-22951759D01*
X35897832Y-22651235D01*
X36262855Y-22382644D01*
X36650688Y-22148188D01*
X37058148Y-21949794D01*
X37481890Y-21789087D01*
X37918437Y-21667388D01*
X38364206Y-21585695D01*
X38815539Y-21544679D01*
X39042135Y-21542136D01*
X144000000Y-21500000D01*
X152750000Y-21500000D01*
X160050000Y-21500000D01*
X160400000Y-21550000D01*
M02*
