M48
; DRILL file {KiCad 7.0.10-7.0.10~ubuntu22.04.1} date Tue 06 Feb 2024 08:51:50 PM EST
; FORMAT={-:-/ absolute / metric / decimal}
; #@! TF.CreationDate,2024-02-06T20:51:50-05:00
; #@! TF.GenerationSoftware,Kicad,Pcbnew,7.0.10-7.0.10~ubuntu22.04.1
; #@! TF.FileFunction,Plated,1,4,PTH
FMAT,2
METRIC
; #@! TA.AperFunction,Plated,PTH,ViaDrill
T1C0.300
; #@! TA.AperFunction,Plated,PTH,ViaDrill
T2C0.400
; #@! TA.AperFunction,Plated,PTH,ViaDrill
T3C0.500
; #@! TA.AperFunction,Plated,PTH,ComponentDrill
T4C0.650
; #@! TA.AperFunction,Plated,PTH,ComponentDrill
T5C0.750
; #@! TA.AperFunction,Plated,PTH,ComponentDrill
T6C0.950
; #@! TA.AperFunction,Plated,PTH,ComponentDrill
T7C1.600
; #@! TA.AperFunction,Plated,PTH,ComponentDrill
T8C2.700
; #@! TA.AperFunction,Plated,PTH,ComponentDrill
T9C3.200
; #@! TA.AperFunction,Plated,PTH,ComponentDrill
T10C4.500
%
G90
G05
T1
X66.0Y-34.5
X66.0Y-38.5
X66.0Y-42.5
X70.0Y-34.5
X70.0Y-38.5
X70.0Y-42.5
X87.0Y-31.75
X96.5Y-75.75
X97.675Y-71.5
X98.0Y-82.25
X99.0Y-82.25
X99.25Y-80.0
X99.325Y-69.5
X99.8Y-35.5
X100.0Y-24.75
X100.0Y-28.5
X100.25Y-37.75
X100.25Y-38.75
X100.5Y-61.95
X100.5Y-63.0
X101.0Y-34.4
X101.75Y-22.75
X101.75Y-24.25
X101.75Y-79.75
X102.25Y-37.75
X102.25Y-38.75
X102.5Y-43.25
X102.5Y-75.75
X102.75Y-58.85
X103.25Y-22.75
X103.25Y-24.25
X103.5Y-54.5
X103.75Y-58.85
X103.75Y-74.0
X103.75Y-80.25
X103.825Y-71.5
X104.75Y-22.75
X104.75Y-24.25
X104.75Y-57.3
X104.9Y-76.4
X104.9Y-77.4
X105.5Y-47.25
X105.5Y-64.25
X106.25Y-57.3
X107.0Y-32.0
X107.25Y-66.5
X107.5Y-54.5
X108.25Y-59.0
X108.5Y-26.5
X108.5Y-28.5
X108.5Y-30.25
X108.5Y-32.0
X108.5Y-47.0
X108.75Y-61.5
X108.75Y-62.5
X110.0Y-77.25
X110.1Y-28.5
X110.1Y-30.25
X110.1Y-32.0
X110.75Y-55.5
X110.75Y-80.25
X111.5Y-43.25
X111.75Y-28.5
X111.75Y-30.25
X111.75Y-32.0
X111.75Y-48.0
X111.75Y-50.0
X113.5Y-35.5
X113.5Y-37.0
X113.5Y-38.5
X114.5Y-61.0
X114.5Y-62.0
X114.75Y-35.5
X114.75Y-37.0
X114.75Y-38.5
X114.75Y-53.5
X114.75Y-54.5
X114.75Y-57.5
X114.75Y-58.5
X116.0Y-35.5
X116.0Y-37.0
X116.0Y-38.5
X116.5Y-59.75
X116.5Y-69.25
X117.25Y-60.5
X117.25Y-73.25
X117.35Y-48.087
X117.85Y-53.9
X117.85Y-56.7
X118.0Y-59.75
X118.25Y-67.5
X118.5Y-35.5
X118.5Y-43.25
X119.25Y-55.3
X119.9Y-24.7
X119.9Y-28.5
X119.9Y-35.5
X120.0Y-65.75
X120.5Y-37.75
X120.5Y-38.75
X120.587Y-59.75
X120.65Y-53.9
X120.65Y-56.7
X120.75Y-47.25
X120.75Y-50.75
X120.9Y-34.4
X121.65Y-22.75
X121.65Y-24.25
X122.0Y-37.75
X122.0Y-38.75
X123.15Y-22.75
X123.15Y-24.25
X123.25Y-61.0
X123.25Y-62.0
X123.75Y-51.5
X123.75Y-57.0
X123.75Y-58.75
X123.75Y-60.0
X124.0Y-42.8
X124.65Y-22.75
X124.65Y-24.25
X124.75Y-54.225
X126.0Y-48.0
X126.0Y-57.1
X126.25Y-59.25
X126.9Y-32.0
X128.5Y-26.5
X128.5Y-28.5
X128.5Y-30.25
X128.5Y-32.0
X129.75Y-52.75
X130.0Y-28.5
X130.0Y-30.25
X130.0Y-32.0
X130.0Y-54.9
X131.5Y-28.5
X131.65Y-30.25
X131.65Y-32.0
X133.0Y-48.5
X133.0Y-49.5
X133.25Y-35.5
X133.25Y-37.0
X133.25Y-38.5
X134.5Y-35.5
X134.5Y-37.0
X134.5Y-38.5
X135.75Y-35.5
X135.75Y-37.0
X135.75Y-38.5
X136.5Y-26.25
X136.5Y-48.0
X136.5Y-50.0
X136.75Y-27.5
X136.75Y-28.5
X138.5Y-48.0
X138.5Y-50.0
X140.75Y-23.549
X142.7Y-33.4
X142.7Y-34.2
X142.8Y-37.0
X142.8Y-39.0
X142.8Y-40.9
X144.452Y-30.0
X144.5Y-39.0
X145.651Y-30.0
X146.2Y-40.9
X149.5Y-36.0
X150.5Y-28.25
X152.0Y-22.75
X152.0Y-25.947
X153.5Y-28.75
X158.648Y-31.852
T2
X42.25Y-33.25
X116.5Y-23.0
T3
X54.25Y-33.25
X54.25Y-38.5
X54.25Y-43.75
X56.0Y-33.25
X56.0Y-38.5
X56.0Y-43.75
X56.5Y-48.5
X57.75Y-33.25
X57.75Y-38.5
X57.75Y-43.75
X65.25Y-31.75
X65.25Y-45.0
X68.0Y-31.75
X68.0Y-45.0
X68.0Y-47.25
X71.0Y-31.75
X71.0Y-45.0
X71.0Y-47.25
X75.5Y-34.0
X75.5Y-37.75
X77.5Y-32.0
X79.75Y-34.0
X79.75Y-38.5
X82.25Y-32.0
X84.0Y-34.0
X84.0Y-37.75
T4
X112.75Y-77.75
X113.648Y-76.852
X114.546Y-75.954
X115.444Y-75.056
X116.342Y-74.158
X153.806Y-36.694
X154.704Y-35.796
X155.602Y-34.898
X156.5Y-34.0
X157.398Y-33.102
T5
X102.5Y-41.5
X104.5Y-41.5
X106.5Y-41.5
X111.5Y-41.5
X113.5Y-41.5
X118.5Y-41.5
X120.5Y-41.5
T6
X78.5Y-54.92
X81.0Y-54.92
X82.25Y-62.42
X83.5Y-54.92
X84.75Y-62.42
X86.0Y-54.92
X87.25Y-62.42
X88.5Y-54.92
X89.75Y-62.42
X91.0Y-54.92
X93.5Y-54.92
T7
X78.1Y-36.0
X78.1Y-45.92
X81.5Y-36.0
X81.5Y-45.92
T8
X49.0Y-36.0
X55.0Y-28.0
X63.75Y-50.75
X68.0Y-28.0
X70.25Y-57.25
X80.0Y-28.0
X91.5Y-28.0
T9
X39.5Y-26.542
X99.5Y-87.0
X159.5Y-26.542
T10
X91.5Y-37.42
X91.5Y-44.62
M30
