G04 #@! TF.GenerationSoftware,KiCad,Pcbnew,8.0.1-rc2-202403101705~c0fd138706~ubuntu22.04.1*
G04 #@! TF.CreationDate,2024-03-11T22:08:16-04:00*
G04 #@! TF.ProjectId,Balance_Controller,42616c61-6e63-4655-9f43-6f6e74726f6c,rev?*
G04 #@! TF.SameCoordinates,Original*
G04 #@! TF.FileFunction,Copper,L4,Bot*
G04 #@! TF.FilePolarity,Positive*
%FSLAX46Y46*%
G04 Gerber Fmt 4.6, Leading zero omitted, Abs format (unit mm)*
G04 Created by KiCad (PCBNEW 8.0.1-rc2-202403101705~c0fd138706~ubuntu22.04.1) date 2024-03-11 22:08:16*
%MOMM*%
%LPD*%
G01*
G04 APERTURE LIST*
G04 Aperture macros list*
%AMRoundRect*
0 Rectangle with rounded corners*
0 $1 Rounding radius*
0 $2 $3 $4 $5 $6 $7 $8 $9 X,Y pos of 4 corners*
0 Add a 4 corners polygon primitive as box body*
4,1,4,$2,$3,$4,$5,$6,$7,$8,$9,$2,$3,0*
0 Add four circle primitives for the rounded corners*
1,1,$1+$1,$2,$3*
1,1,$1+$1,$4,$5*
1,1,$1+$1,$6,$7*
1,1,$1+$1,$8,$9*
0 Add four rect primitives between the rounded corners*
20,1,$1+$1,$2,$3,$4,$5,0*
20,1,$1+$1,$4,$5,$6,$7,0*
20,1,$1+$1,$6,$7,$8,$9,0*
20,1,$1+$1,$8,$9,$2,$3,0*%
G04 Aperture macros list end*
G04 #@! TA.AperFunction,ComponentPad*
%ADD10RoundRect,0.250000X-0.600000X-0.725000X0.600000X-0.725000X0.600000X0.725000X-0.600000X0.725000X0*%
G04 #@! TD*
G04 #@! TA.AperFunction,ComponentPad*
%ADD11O,1.700000X1.950000*%
G04 #@! TD*
G04 #@! TA.AperFunction,ComponentPad*
%ADD12C,5.400000*%
G04 #@! TD*
G04 #@! TA.AperFunction,ComponentPad*
%ADD13C,5.600000*%
G04 #@! TD*
G04 #@! TA.AperFunction,ComponentPad*
%ADD14C,2.400000*%
G04 #@! TD*
G04 #@! TA.AperFunction,ComponentPad*
%ADD15RoundRect,1.500000X-1.500000X1.500000X-1.500000X-1.500000X1.500000X-1.500000X1.500000X1.500000X0*%
G04 #@! TD*
G04 #@! TA.AperFunction,ComponentPad*
%ADD16C,6.000000*%
G04 #@! TD*
G04 #@! TA.AperFunction,ComponentPad*
%ADD17R,1.700000X1.700000*%
G04 #@! TD*
G04 #@! TA.AperFunction,ComponentPad*
%ADD18O,1.700000X1.700000*%
G04 #@! TD*
G04 #@! TA.AperFunction,SMDPad,CuDef*
%ADD19RoundRect,0.200000X-0.275000X0.200000X-0.275000X-0.200000X0.275000X-0.200000X0.275000X0.200000X0*%
G04 #@! TD*
G04 #@! TA.AperFunction,ComponentPad*
%ADD20RoundRect,0.250000X0.350000X0.625000X-0.350000X0.625000X-0.350000X-0.625000X0.350000X-0.625000X0*%
G04 #@! TD*
G04 #@! TA.AperFunction,ComponentPad*
%ADD21O,1.200000X1.750000*%
G04 #@! TD*
G04 #@! TA.AperFunction,SMDPad,CuDef*
%ADD22RoundRect,0.112500X0.112500X-0.187500X0.112500X0.187500X-0.112500X0.187500X-0.112500X-0.187500X0*%
G04 #@! TD*
G04 #@! TA.AperFunction,SMDPad,CuDef*
%ADD23RoundRect,0.200000X0.275000X-0.200000X0.275000X0.200000X-0.275000X0.200000X-0.275000X-0.200000X0*%
G04 #@! TD*
G04 #@! TA.AperFunction,SMDPad,CuDef*
%ADD24RoundRect,0.225000X-0.250000X0.225000X-0.250000X-0.225000X0.250000X-0.225000X0.250000X0.225000X0*%
G04 #@! TD*
G04 #@! TA.AperFunction,SMDPad,CuDef*
%ADD25RoundRect,0.112500X-0.112500X-0.237500X0.112500X-0.237500X0.112500X0.237500X-0.112500X0.237500X0*%
G04 #@! TD*
G04 #@! TA.AperFunction,ViaPad*
%ADD26C,0.700000*%
G04 #@! TD*
G04 #@! TA.AperFunction,ViaPad*
%ADD27C,0.800000*%
G04 #@! TD*
G04 #@! TA.AperFunction,ViaPad*
%ADD28C,1.000000*%
G04 #@! TD*
G04 #@! TA.AperFunction,Conductor*
%ADD29C,0.700000*%
G04 #@! TD*
G04 #@! TA.AperFunction,Conductor*
%ADD30C,0.300000*%
G04 #@! TD*
G04 #@! TA.AperFunction,Conductor*
%ADD31C,0.400000*%
G04 #@! TD*
G04 #@! TA.AperFunction,Conductor*
%ADD32C,0.250000*%
G04 #@! TD*
G04 APERTURE END LIST*
D10*
X82250000Y-54750000D03*
D11*
X84750000Y-54750000D03*
X87250000Y-54750000D03*
X89750000Y-54750000D03*
D12*
X55000000Y-28000000D03*
X91500000Y-28000000D03*
D13*
X159500000Y-26542136D03*
D14*
X81500000Y-45920000D03*
X78100000Y-45920000D03*
X81500000Y-36000000D03*
X78100000Y-36000000D03*
D12*
X70250000Y-57250000D03*
D13*
X99500000Y-87000000D03*
D12*
X68000000Y-28000000D03*
D15*
X91500000Y-37420000D03*
D16*
X91500000Y-44620000D03*
D12*
X63750000Y-50750000D03*
D17*
X140000000Y-26500000D03*
D18*
X142540000Y-26500000D03*
X145080000Y-26500000D03*
X147620000Y-26500000D03*
X150160000Y-26500000D03*
X152700000Y-26500000D03*
D12*
X55000000Y-40500000D03*
D13*
X39500000Y-26542136D03*
D12*
X80000000Y-28000000D03*
D10*
X82250000Y-62420000D03*
D11*
X84750000Y-62420000D03*
X87250000Y-62420000D03*
X89750000Y-62420000D03*
D19*
X120587370Y-60675000D03*
X120587370Y-62325000D03*
D20*
X120500000Y-41500000D03*
D21*
X118500000Y-41500000D03*
D22*
X124000000Y-43800000D03*
X124000000Y-41700000D03*
X108500000Y-47800000D03*
X108500000Y-45700000D03*
X142500000Y-31300000D03*
X142500000Y-29200000D03*
D23*
X120750000Y-49825000D03*
X120750000Y-48175000D03*
D24*
X124750000Y-55450000D03*
X124750000Y-57000000D03*
D25*
X148350000Y-29250000D03*
X149650000Y-29250000D03*
X149000000Y-31250000D03*
D20*
X113500000Y-41500000D03*
D21*
X111500000Y-41500000D03*
D20*
X106500000Y-41500000D03*
D21*
X104500000Y-41500000D03*
X102500000Y-41500000D03*
D26*
X121650000Y-24250000D03*
X103250000Y-22750000D03*
X103250000Y-24250000D03*
X121650000Y-22750000D03*
X104750000Y-22750000D03*
X124650000Y-22750000D03*
X101750000Y-22750000D03*
D27*
X116500000Y-23000000D03*
D26*
X104750000Y-24250000D03*
X124650000Y-24250000D03*
X123150000Y-22750000D03*
X123150000Y-24250000D03*
X101750000Y-24250000D03*
X103500000Y-54500000D03*
X143020000Y-37250000D03*
X120900000Y-34400000D03*
X119900000Y-35500000D03*
X111500000Y-43250000D03*
X131650000Y-30250000D03*
X123750000Y-51500000D03*
D27*
X46800000Y-28000000D03*
D26*
X117850000Y-53900000D03*
X117250000Y-60500000D03*
X102500000Y-43250000D03*
X129750000Y-52750000D03*
X111750000Y-48000000D03*
X101000000Y-34400000D03*
X126000000Y-57100000D03*
X106250000Y-57300000D03*
X153250000Y-36750000D03*
X107500000Y-54500000D03*
X110100000Y-32000000D03*
X114750000Y-58500000D03*
X151250000Y-36750000D03*
X128500000Y-32000000D03*
X120650000Y-53900000D03*
X142500000Y-30250000D03*
X128500000Y-30250000D03*
X111750000Y-30250000D03*
X107000000Y-32000000D03*
X103750000Y-80250000D03*
X111750000Y-28500000D03*
X101750000Y-79750000D03*
X111750000Y-32000000D03*
X126250000Y-59250000D03*
X100000000Y-24750000D03*
X110100000Y-28500000D03*
X99800000Y-35500000D03*
X130000000Y-30250000D03*
X141750000Y-45750000D03*
X96500000Y-75750000D03*
X119900000Y-24700000D03*
X105500000Y-47250000D03*
X87000000Y-31750000D03*
X147000000Y-34000000D03*
X120650000Y-56700000D03*
X99250000Y-80000000D03*
X128500000Y-28500000D03*
X134250000Y-51500000D03*
X103750000Y-74000000D03*
X117850000Y-56700000D03*
X108500000Y-47000000D03*
X123750000Y-57000000D03*
X124000000Y-42800000D03*
X137250000Y-51350000D03*
X130000000Y-32000000D03*
D28*
X56500000Y-48500000D03*
D26*
X114750000Y-53500000D03*
X104900000Y-76400000D03*
X117250000Y-47250000D03*
X149000000Y-30250000D03*
X119250000Y-55300000D03*
X108500000Y-28500000D03*
X131650000Y-32000000D03*
X108750000Y-62500000D03*
X102750000Y-58850000D03*
X108500000Y-32000000D03*
X104750000Y-57300000D03*
X118500000Y-35500000D03*
X130000000Y-28500000D03*
X139210000Y-33500000D03*
X123250000Y-62000000D03*
X133000000Y-49500000D03*
X141750000Y-37250000D03*
X110100000Y-30250000D03*
X105500000Y-64250000D03*
X126000000Y-48000000D03*
X130000000Y-54900000D03*
X126900000Y-32000000D03*
X99000000Y-82250000D03*
X108500000Y-30250000D03*
X100500000Y-63000000D03*
X112600000Y-72800000D03*
X118500000Y-43250000D03*
X114500000Y-62000000D03*
X123750000Y-60000000D03*
X131500000Y-28500000D03*
X102500000Y-75750000D03*
X123250000Y-61000000D03*
X110750000Y-55500000D03*
X123750000Y-58750000D03*
X133250000Y-35500000D03*
X134500000Y-38500000D03*
X120750000Y-47250000D03*
X133250000Y-38500000D03*
X97675000Y-71500000D03*
X135750000Y-37000000D03*
X128500000Y-26500000D03*
X111750000Y-50000000D03*
X133000000Y-48500000D03*
X134500000Y-35500000D03*
X114500000Y-61000000D03*
X119900000Y-28500000D03*
X103825000Y-71500000D03*
X104900000Y-77400000D03*
X116100000Y-69300000D03*
X98000000Y-82250000D03*
X135750000Y-38500000D03*
X147000000Y-36000000D03*
X134500000Y-37000000D03*
X133250000Y-37000000D03*
X135750000Y-35500000D03*
X114750000Y-37000000D03*
X100000000Y-28500000D03*
X100500000Y-61949997D03*
X113500000Y-38500000D03*
X113500000Y-37000000D03*
X114750000Y-35500000D03*
X136750000Y-26500000D03*
X116000000Y-38500000D03*
X116000000Y-37000000D03*
X108250000Y-59000000D03*
X108500000Y-26500000D03*
X116000000Y-35500000D03*
X113500000Y-35500000D03*
X114750000Y-38500000D03*
X151250000Y-34750000D03*
X153250000Y-34750000D03*
X139210000Y-41000000D03*
X124750000Y-54225000D03*
D28*
X68000000Y-33500000D03*
X71000000Y-36750000D03*
X68000000Y-43250000D03*
X71000000Y-43250000D03*
X68000000Y-36750000D03*
X65250000Y-36750000D03*
X65250000Y-40000000D03*
X71000000Y-33500000D03*
X68000000Y-40000000D03*
X71000000Y-40000000D03*
X65250000Y-33500000D03*
X65250000Y-43250000D03*
D26*
X114750000Y-54500000D03*
X121250000Y-50750000D03*
X141750000Y-41000000D03*
X118000000Y-59750000D03*
X144290000Y-41000000D03*
X114750000Y-57500000D03*
X116500000Y-59750000D03*
X143020000Y-41000000D03*
X123250000Y-49250000D03*
X123250000Y-50500000D03*
X99325000Y-69500000D03*
X107250000Y-66500000D03*
X120587370Y-59750000D03*
X120250000Y-63500000D03*
X108750000Y-61500000D03*
X103750000Y-58850000D03*
X102250000Y-37750000D03*
X100250000Y-37750000D03*
X102250000Y-38750000D03*
X100250000Y-38750000D03*
X120500000Y-38750000D03*
X122000000Y-38750000D03*
X120500000Y-37750000D03*
X122000000Y-37750000D03*
D28*
X82250000Y-32000000D03*
X75500000Y-37750000D03*
X79750000Y-38500000D03*
X84000000Y-34000000D03*
X79750000Y-34000000D03*
X75500000Y-34000000D03*
X84000000Y-37750000D03*
X77500000Y-32000000D03*
D29*
X118500000Y-43250000D02*
X118500000Y-41500000D01*
D30*
X108500000Y-47800000D02*
X108500000Y-47000000D01*
D29*
X102500000Y-43250000D02*
X102500000Y-41500000D01*
X111500000Y-43250000D02*
X111500000Y-41500000D01*
D31*
X149000000Y-30250000D02*
X149000000Y-31250000D01*
D29*
X123750000Y-57000000D02*
X124750000Y-57000000D01*
D31*
X142500000Y-30250000D02*
X142500000Y-31300000D01*
D29*
X124000000Y-42800000D02*
X124000000Y-43800000D01*
X120750000Y-48175000D02*
X120750000Y-47250000D01*
D31*
X142540000Y-26540000D02*
X142540000Y-29160000D01*
X136800000Y-27300000D02*
X136800000Y-26500000D01*
X142450000Y-29250000D02*
X138750000Y-29250000D01*
X142500000Y-29200000D02*
X142450000Y-29250000D01*
X142540000Y-29160000D02*
X142500000Y-29200000D01*
X138750000Y-29250000D02*
X136800000Y-27300000D01*
D30*
X141250000Y-39000000D02*
X139250000Y-41000000D01*
X124750000Y-53250000D02*
X124750000Y-54225000D01*
X152250000Y-34750000D02*
X152250000Y-35500000D01*
X147062500Y-39000000D02*
X141250000Y-39000000D01*
X150312500Y-35750000D02*
X147062500Y-39000000D01*
D29*
X152250000Y-34750000D02*
X153250000Y-34750000D01*
D30*
X152000000Y-35750000D02*
X150312500Y-35750000D01*
X131000000Y-47000000D02*
X124750000Y-53250000D01*
D31*
X139250000Y-41000000D02*
X139210000Y-41000000D01*
D29*
X124750000Y-54225000D02*
X124750000Y-55450000D01*
D30*
X139210000Y-41000000D02*
X133210000Y-47000000D01*
X133210000Y-47000000D02*
X131000000Y-47000000D01*
D29*
X151250000Y-34750000D02*
X152250000Y-34750000D01*
D30*
X152250000Y-35500000D02*
X152000000Y-35750000D01*
X113500000Y-41500000D02*
X113500000Y-43000000D01*
X114000000Y-54500000D02*
X110750000Y-51250000D01*
X114750000Y-54500000D02*
X114000000Y-54500000D01*
X113500000Y-43000000D02*
X110800000Y-45700000D01*
X110800000Y-45700000D02*
X108500000Y-45700000D01*
X110750000Y-51250000D02*
X110750000Y-45700000D01*
D32*
X120750000Y-50250000D02*
X120750000Y-49825000D01*
D29*
X120700000Y-41700000D02*
X120500000Y-41500000D01*
D32*
X122000000Y-49287500D02*
X122000000Y-41700000D01*
X121250000Y-50750000D02*
X120750000Y-50250000D01*
X120750000Y-49825000D02*
X121462500Y-49825000D01*
X120700000Y-41700000D02*
X124000000Y-41700000D01*
X121462500Y-49825000D02*
X122000000Y-49287500D01*
D30*
X140750000Y-46250000D02*
X140750000Y-45375000D01*
X122500000Y-64500000D02*
X140750000Y-46250000D01*
X140750000Y-45375000D02*
X141750000Y-44375000D01*
X141750000Y-44375000D02*
X141750000Y-41000000D01*
X119750000Y-64500000D02*
X122500000Y-64500000D01*
X118000000Y-62750000D02*
X119750000Y-64500000D01*
X118000000Y-59750000D02*
X118000000Y-62750000D01*
X144290000Y-46710000D02*
X144290000Y-41000000D01*
X113250000Y-62500000D02*
X117750000Y-67000000D01*
X124000000Y-67000000D02*
X144290000Y-46710000D01*
X114000000Y-57500000D02*
X113250000Y-58250000D01*
X113250000Y-58250000D02*
X113250000Y-62500000D01*
X117750000Y-67000000D02*
X124000000Y-67000000D01*
X114750000Y-57500000D02*
X114000000Y-57500000D01*
X136250000Y-52500000D02*
X137250000Y-52500000D01*
X137250000Y-52500000D02*
X138500000Y-51250000D01*
X138500000Y-50500000D02*
X143020000Y-45980000D01*
X138500000Y-51250000D02*
X138500000Y-50500000D01*
X116500000Y-63250000D02*
X119000000Y-65750000D01*
X116500000Y-59750000D02*
X116500000Y-63250000D01*
X143020000Y-45980000D02*
X143020000Y-41000000D01*
X123000000Y-65750000D02*
X136250000Y-52500000D01*
X119000000Y-65750000D02*
X123000000Y-65750000D01*
D32*
X125500000Y-44500000D02*
X123250000Y-46750000D01*
D30*
X148350000Y-28350000D02*
X147620000Y-27620000D01*
D32*
X123250000Y-46750000D02*
X123250000Y-49250000D01*
X146500000Y-29250000D02*
X131250000Y-44500000D01*
D30*
X147620000Y-27620000D02*
X147620000Y-26500000D01*
X148350000Y-29200000D02*
X148350000Y-28350000D01*
D32*
X131250000Y-44500000D02*
X125500000Y-44500000D01*
X148350000Y-29250000D02*
X146500000Y-29250000D01*
X124250000Y-49500000D02*
X124250000Y-47250000D01*
X144500000Y-32750000D02*
X149000000Y-32750000D01*
X150250000Y-29500000D02*
X150000000Y-29250000D01*
D30*
X150160000Y-27940000D02*
X150160000Y-26500000D01*
D32*
X149000000Y-32750000D02*
X150250000Y-31500000D01*
X150250000Y-31500000D02*
X150250000Y-29500000D01*
X150000000Y-29250000D02*
X149650000Y-29250000D01*
D30*
X149650000Y-29250000D02*
X149650000Y-28450000D01*
X149650000Y-28450000D02*
X150160000Y-27940000D01*
D32*
X131750000Y-45500000D02*
X144500000Y-32750000D01*
X123250000Y-50500000D02*
X124250000Y-49500000D01*
X124250000Y-47250000D02*
X126000000Y-45500000D01*
X126000000Y-45500000D02*
X131750000Y-45500000D01*
D30*
X107250000Y-66500000D02*
X104500000Y-66500000D01*
X101500000Y-69500000D02*
X99325000Y-69500000D01*
X104500000Y-66500000D02*
X101500000Y-69500000D01*
D29*
X120587370Y-60675000D02*
X120587370Y-59750000D01*
D30*
X120587370Y-63162630D02*
X120587370Y-62325000D01*
X120250000Y-63500000D02*
X120587370Y-63162630D01*
X103750000Y-59425000D02*
X105825000Y-61500000D01*
X103750000Y-58850000D02*
X103750000Y-59425000D01*
X105825000Y-61500000D02*
X108750000Y-61500000D01*
G04 #@! TA.AperFunction,Conductor*
G36*
X122465677Y-34694685D02*
G01*
X122486319Y-34711319D01*
X122713681Y-34938681D01*
X122747166Y-35000004D01*
X122750000Y-35026362D01*
X122750000Y-39148638D01*
X122730315Y-39215677D01*
X122713681Y-39236319D01*
X122486319Y-39463681D01*
X122424996Y-39497166D01*
X122398638Y-39500000D01*
X120101362Y-39500000D01*
X120034323Y-39480315D01*
X120013681Y-39463681D01*
X119786319Y-39236319D01*
X119752834Y-39174996D01*
X119750000Y-39148638D01*
X119750000Y-36851362D01*
X119769685Y-36784323D01*
X119786319Y-36763681D01*
X120013681Y-36536319D01*
X120075004Y-36502834D01*
X120101362Y-36500000D01*
X120950000Y-36500000D01*
X121250000Y-36500000D01*
X121250000Y-35026362D01*
X121269685Y-34959323D01*
X121286319Y-34938681D01*
X121513681Y-34711319D01*
X121575004Y-34677834D01*
X121601362Y-34675000D01*
X122398638Y-34675000D01*
X122465677Y-34694685D01*
G37*
G04 #@! TD.AperFunction*
G04 #@! TA.AperFunction,Conductor*
G36*
X71262782Y-24519962D02*
G01*
X71293641Y-24543641D01*
X72206359Y-25456359D01*
X72244923Y-25523154D01*
X72250000Y-25561718D01*
X72250000Y-47220410D01*
X72238695Y-47277342D01*
X71555105Y-48930669D01*
X71522904Y-48978959D01*
X70470976Y-50033586D01*
X64885232Y-55633659D01*
X64818486Y-55672308D01*
X64779833Y-55677435D01*
X63490074Y-55678261D01*
X63415562Y-55658346D01*
X63384620Y-55634620D01*
X58875748Y-51125748D01*
X58837184Y-51058953D01*
X58832107Y-51020389D01*
X58832107Y-49729611D01*
X58852069Y-49655111D01*
X58875744Y-49624256D01*
X63042893Y-45457107D01*
X63042892Y-45457107D01*
X63750000Y-44750000D01*
X63750000Y-25561718D01*
X63769962Y-25487218D01*
X63793641Y-25456359D01*
X64706359Y-24543641D01*
X64773154Y-24505077D01*
X64811718Y-24500000D01*
X71188282Y-24500000D01*
X71262782Y-24519962D01*
G37*
G04 #@! TD.AperFunction*
G04 #@! TA.AperFunction,Conductor*
G36*
X82522708Y-24519685D02*
G01*
X82534282Y-24528104D01*
X83661834Y-25452476D01*
X83701197Y-25510200D01*
X83704810Y-25524051D01*
X84802681Y-31013408D01*
X84804486Y-31025507D01*
X84999397Y-32993910D01*
X85000000Y-33006129D01*
X85000000Y-38448638D01*
X84980315Y-38515677D01*
X84963681Y-38536319D01*
X84036319Y-39463681D01*
X83974996Y-39497166D01*
X83948638Y-39500000D01*
X75551362Y-39500000D01*
X75484323Y-39480315D01*
X75463681Y-39463681D01*
X74536319Y-38536319D01*
X74502834Y-38474996D01*
X74500000Y-38448638D01*
X74500000Y-33008091D01*
X74501051Y-32991979D01*
X74756612Y-31041783D01*
X74759748Y-31025945D01*
X74759865Y-31025507D01*
X75500000Y-28250000D01*
X76231480Y-25506944D01*
X76267773Y-25447242D01*
X76275748Y-25440565D01*
X77466589Y-24525669D01*
X77531743Y-24500436D01*
X77542134Y-24500000D01*
X82455669Y-24500000D01*
X82522708Y-24519685D01*
G37*
G04 #@! TD.AperFunction*
G04 #@! TA.AperFunction,Conductor*
G36*
X102715677Y-34794685D02*
G01*
X102736319Y-34811319D01*
X102963681Y-35038681D01*
X102997166Y-35100004D01*
X103000000Y-35126362D01*
X103000000Y-39148638D01*
X102980315Y-39215677D01*
X102963681Y-39236319D01*
X102736319Y-39463681D01*
X102674996Y-39497166D01*
X102648638Y-39500000D01*
X99751362Y-39500000D01*
X99684323Y-39480315D01*
X99663681Y-39463681D01*
X99436319Y-39236319D01*
X99402834Y-39174996D01*
X99400000Y-39148638D01*
X99400000Y-36851362D01*
X99419685Y-36784323D01*
X99436319Y-36763681D01*
X99663681Y-36536319D01*
X99725004Y-36502834D01*
X99751362Y-36500000D01*
X101200000Y-36500000D01*
X101500000Y-36500000D01*
X101500000Y-35126362D01*
X101519685Y-35059323D01*
X101536319Y-35038681D01*
X101763681Y-34811319D01*
X101825004Y-34777834D01*
X101851362Y-34775000D01*
X102648638Y-34775000D01*
X102715677Y-34794685D01*
G37*
G04 #@! TD.AperFunction*
M02*
