G04 #@! TF.GenerationSoftware,KiCad,Pcbnew,8.0.1-rc2-202403101705~c0fd138706~ubuntu22.04.1*
G04 #@! TF.CreationDate,2024-03-11T22:08:16-04:00*
G04 #@! TF.ProjectId,Balance_Controller,42616c61-6e63-4655-9f43-6f6e74726f6c,rev?*
G04 #@! TF.SameCoordinates,Original*
G04 #@! TF.FileFunction,Legend,Top*
G04 #@! TF.FilePolarity,Positive*
%FSLAX46Y46*%
G04 Gerber Fmt 4.6, Leading zero omitted, Abs format (unit mm)*
G04 Created by KiCad (PCBNEW 8.0.1-rc2-202403101705~c0fd138706~ubuntu22.04.1) date 2024-03-11 22:08:16*
%MOMM*%
%LPD*%
G01*
G04 APERTURE LIST*
G04 Aperture macros list*
%AMRoundRect*
0 Rectangle with rounded corners*
0 $1 Rounding radius*
0 $2 $3 $4 $5 $6 $7 $8 $9 X,Y pos of 4 corners*
0 Add a 4 corners polygon primitive as box body*
4,1,4,$2,$3,$4,$5,$6,$7,$8,$9,$2,$3,0*
0 Add four circle primitives for the rounded corners*
1,1,$1+$1,$2,$3*
1,1,$1+$1,$4,$5*
1,1,$1+$1,$6,$7*
1,1,$1+$1,$8,$9*
0 Add four rect primitives between the rounded corners*
20,1,$1+$1,$2,$3,$4,$5,0*
20,1,$1+$1,$4,$5,$6,$7,0*
20,1,$1+$1,$6,$7,$8,$9,0*
20,1,$1+$1,$8,$9,$2,$3,0*%
%AMRotRect*
0 Rectangle, with rotation*
0 The origin of the aperture is its center*
0 $1 length*
0 $2 width*
0 $3 Rotation angle, in degrees counterclockwise*
0 Add horizontal line*
21,1,$1,$2,0,0,$3*%
G04 Aperture macros list end*
%ADD10C,0.150000*%
%ADD11C,0.050000*%
%ADD12C,0.200000*%
%ADD13C,0.300000*%
%ADD14C,0.120000*%
%ADD15C,0.152400*%
%ADD16C,0.100000*%
%ADD17C,0.000000*%
%ADD18RoundRect,0.200000X-0.275000X0.200000X-0.275000X-0.200000X0.275000X-0.200000X0.275000X0.200000X0*%
%ADD19RoundRect,0.250000X0.475000X-0.250000X0.475000X0.250000X-0.475000X0.250000X-0.475000X-0.250000X0*%
%ADD20RoundRect,0.225000X-0.225000X-0.250000X0.225000X-0.250000X0.225000X0.250000X-0.225000X0.250000X0*%
%ADD21RoundRect,0.250000X0.450000X-0.262500X0.450000X0.262500X-0.450000X0.262500X-0.450000X-0.262500X0*%
%ADD22RoundRect,0.250000X1.100000X-0.325000X1.100000X0.325000X-1.100000X0.325000X-1.100000X-0.325000X0*%
%ADD23RoundRect,0.250000X-0.600000X-0.725000X0.600000X-0.725000X0.600000X0.725000X-0.600000X0.725000X0*%
%ADD24O,1.700000X1.950000*%
%ADD25RoundRect,0.243750X-0.456250X0.243750X-0.456250X-0.243750X0.456250X-0.243750X0.456250X0.243750X0*%
%ADD26R,0.812800X0.254000*%
%ADD27R,1.092200X0.304800*%
%ADD28R,0.508000X0.254000*%
%ADD29R,0.711200X0.254000*%
%ADD30R,0.254000X0.711200*%
%ADD31R,0.274800X1.062200*%
%ADD32R,0.254000X0.406400*%
%ADD33C,5.400000*%
%ADD34R,2.300000X1.400000*%
%ADD35C,0.850000*%
%ADD36RotRect,1.000000X1.200000X45.000000*%
%ADD37C,5.600000*%
%ADD38R,0.350000X0.650000*%
%ADD39R,2.400000X1.550000*%
%ADD40C,2.400000*%
%ADD41RoundRect,0.225000X-0.250000X0.225000X-0.250000X-0.225000X0.250000X-0.225000X0.250000X0.225000X0*%
%ADD42RoundRect,0.250000X-0.325000X-1.100000X0.325000X-1.100000X0.325000X1.100000X-0.325000X1.100000X0*%
%ADD43RoundRect,0.200000X0.200000X0.275000X-0.200000X0.275000X-0.200000X-0.275000X0.200000X-0.275000X0*%
%ADD44RoundRect,0.112500X-0.112500X0.187500X-0.112500X-0.187500X0.112500X-0.187500X0.112500X0.187500X0*%
%ADD45RoundRect,0.200000X0.275000X-0.200000X0.275000X0.200000X-0.275000X0.200000X-0.275000X-0.200000X0*%
%ADD46R,1.400000X2.300000*%
%ADD47RoundRect,0.250000X-0.475000X0.250000X-0.475000X-0.250000X0.475000X-0.250000X0.475000X0.250000X0*%
%ADD48R,1.950000X1.100000*%
%ADD49RoundRect,0.112500X-0.187500X-0.112500X0.187500X-0.112500X0.187500X0.112500X-0.187500X0.112500X0*%
%ADD50RoundRect,0.070000X-0.345000X-0.070000X0.345000X-0.070000X0.345000X0.070000X-0.345000X0.070000X0*%
%ADD51RoundRect,0.070000X0.070000X-0.345000X0.070000X0.345000X-0.070000X0.345000X-0.070000X-0.345000X0*%
%ADD52R,0.400000X1.200000*%
%ADD53RoundRect,0.225000X0.250000X-0.225000X0.250000X0.225000X-0.250000X0.225000X-0.250000X-0.225000X0*%
%ADD54R,1.100000X1.950000*%
%ADD55RoundRect,0.243750X0.456250X-0.243750X0.456250X0.243750X-0.456250X0.243750X-0.456250X-0.243750X0*%
%ADD56RoundRect,1.500000X-1.500000X1.500000X-1.500000X-1.500000X1.500000X-1.500000X1.500000X1.500000X0*%
%ADD57C,6.000000*%
%ADD58R,1.200000X1.400000*%
%ADD59RoundRect,0.200000X-0.200000X-0.275000X0.200000X-0.275000X0.200000X0.275000X-0.200000X0.275000X0*%
%ADD60RoundRect,0.062500X0.375000X0.062500X-0.375000X0.062500X-0.375000X-0.062500X0.375000X-0.062500X0*%
%ADD61RoundRect,0.062500X0.062500X0.375000X-0.062500X0.375000X-0.062500X-0.375000X0.062500X-0.375000X0*%
%ADD62R,5.600000X5.600000*%
%ADD63R,0.740000X2.400000*%
%ADD64R,1.700000X1.700000*%
%ADD65O,1.700000X1.700000*%
%ADD66RoundRect,0.250000X-0.650000X0.325000X-0.650000X-0.325000X0.650000X-0.325000X0.650000X0.325000X0*%
%ADD67RoundRect,0.250000X0.650000X-0.325000X0.650000X0.325000X-0.650000X0.325000X-0.650000X-0.325000X0*%
%ADD68R,1.000000X0.700000*%
%ADD69RoundRect,0.150000X-0.150000X0.587500X-0.150000X-0.587500X0.150000X-0.587500X0.150000X0.587500X0*%
%ADD70RoundRect,0.250000X0.350000X0.625000X-0.350000X0.625000X-0.350000X-0.625000X0.350000X-0.625000X0*%
%ADD71O,1.200000X1.750000*%
G04 APERTURE END LIST*
D10*
X116476776Y-66711611D02*
X115900000Y-67288388D01*
X96250000Y-64250000D02*
X96500000Y-64500000D01*
X148500000Y-35775000D02*
X150400000Y-35775000D01*
X145500000Y-37250000D02*
X145500000Y-32500000D01*
X138000000Y-26500000D02*
X138000000Y-23250000D01*
X114600000Y-76500000D02*
X113900000Y-77200000D01*
X110700000Y-72400000D02*
X109900000Y-73200000D01*
D11*
X113600000Y-30760000D02*
X113790000Y-30760000D01*
X113790000Y-33540000D01*
X113600000Y-33540000D01*
X113600000Y-30760000D01*
G36*
X113600000Y-30760000D02*
G01*
X113790000Y-30760000D01*
X113790000Y-33540000D01*
X113600000Y-33540000D01*
X113600000Y-30760000D01*
G37*
D10*
X156000000Y-32500000D02*
X155500000Y-32500000D01*
X141000000Y-23250000D02*
X138000000Y-23250000D01*
X120476776Y-70711611D02*
X119800000Y-71400000D01*
X96250000Y-66250000D02*
X98250000Y-66250000D01*
X149000000Y-32500000D02*
X148500000Y-32500000D01*
X144992500Y-37250000D02*
X145507500Y-37250000D01*
X109900000Y-73200000D02*
X113900000Y-77200000D01*
X96000000Y-64500000D02*
X96250000Y-64250000D01*
X98250000Y-66250000D02*
X98000000Y-66000000D01*
X138000000Y-26500000D02*
X138630000Y-26500000D01*
X139000000Y-32500000D02*
X138000000Y-32500000D01*
X96250000Y-66250000D02*
X96250000Y-64250000D01*
X154100000Y-35775000D02*
X156000000Y-35775000D01*
X154750000Y-23250000D02*
X152000000Y-23250000D01*
X116476776Y-66711611D02*
X120476776Y-70711611D01*
X98250000Y-66250000D02*
X98000000Y-66500000D01*
X138000000Y-32500000D02*
X138000000Y-37250000D01*
X153990000Y-26500000D02*
X154750000Y-26500000D01*
X148500000Y-32500000D02*
X148500000Y-35775000D01*
X145500000Y-32500000D02*
X144500000Y-32500000D01*
X156000000Y-35775000D02*
X156000000Y-32500000D01*
D11*
X115720000Y-30760000D02*
X115910000Y-30760000D01*
X115910000Y-33540000D01*
X115720000Y-33540000D01*
X115720000Y-30760000D01*
G36*
X115720000Y-30760000D02*
G01*
X115910000Y-30760000D01*
X115910000Y-33540000D01*
X115720000Y-33540000D01*
X115720000Y-30760000D01*
G37*
D10*
X138000000Y-37250000D02*
X138515000Y-37250000D01*
X96750000Y-66250000D02*
G75*
G02*
X95750000Y-66250000I-500000J0D01*
G01*
X95750000Y-66250000D02*
G75*
G02*
X96750000Y-66250000I500000J0D01*
G01*
X154750000Y-26500000D02*
X154750000Y-23250000D01*
X110809523Y-24369819D02*
X110333333Y-24369819D01*
X110333333Y-24369819D02*
X110285714Y-24846009D01*
X110285714Y-24846009D02*
X110333333Y-24798390D01*
X110333333Y-24798390D02*
X110428571Y-24750771D01*
X110428571Y-24750771D02*
X110666666Y-24750771D01*
X110666666Y-24750771D02*
X110761904Y-24798390D01*
X110761904Y-24798390D02*
X110809523Y-24846009D01*
X110809523Y-24846009D02*
X110857142Y-24941247D01*
X110857142Y-24941247D02*
X110857142Y-25179342D01*
X110857142Y-25179342D02*
X110809523Y-25274580D01*
X110809523Y-25274580D02*
X110761904Y-25322200D01*
X110761904Y-25322200D02*
X110666666Y-25369819D01*
X110666666Y-25369819D02*
X110428571Y-25369819D01*
X110428571Y-25369819D02*
X110333333Y-25322200D01*
X110333333Y-25322200D02*
X110285714Y-25274580D01*
X111142857Y-24369819D02*
X111476190Y-25369819D01*
X111476190Y-25369819D02*
X111809523Y-24369819D01*
D12*
G36*
X115878497Y-30783090D02*
G01*
X113612361Y-30783090D01*
X113612361Y-30593484D01*
X113745694Y-30593484D01*
X113796399Y-30610776D01*
X113813838Y-30615411D01*
X113873189Y-30628655D01*
X113903295Y-30634221D01*
X113963461Y-30643309D01*
X113995862Y-30646980D01*
X114056371Y-30649757D01*
X114070401Y-30649650D01*
X114130756Y-30646502D01*
X114192489Y-30637892D01*
X114253915Y-30622207D01*
X114289470Y-30609043D01*
X114344026Y-30581910D01*
X114394013Y-30546003D01*
X114407554Y-30533556D01*
X114447810Y-30485519D01*
X114476958Y-30430525D01*
X114486121Y-30404944D01*
X114499472Y-30346689D01*
X114503922Y-30284565D01*
X114501017Y-30232484D01*
X114489861Y-30174672D01*
X114466271Y-30113684D01*
X114431293Y-30059652D01*
X114384927Y-30012577D01*
X114377362Y-30006433D01*
X114326597Y-29973103D01*
X114266621Y-29945831D01*
X114209604Y-29927734D01*
X114146190Y-29913843D01*
X114076379Y-29904160D01*
X114015925Y-29899443D01*
X114022666Y-29843170D01*
X114023736Y-29832650D01*
X114028528Y-29773121D01*
X114029507Y-29759413D01*
X114033510Y-29700727D01*
X114033837Y-29696287D01*
X114037907Y-29636833D01*
X114461717Y-29636833D01*
X114461717Y-29468013D01*
X114615590Y-29468013D01*
X114628328Y-29505127D01*
X114647667Y-29560802D01*
X114667284Y-29616482D01*
X114687179Y-29672167D01*
X114707353Y-29727858D01*
X114727804Y-29783553D01*
X114748534Y-29839254D01*
X114769542Y-29894960D01*
X114790829Y-29950671D01*
X114812393Y-30006388D01*
X114834236Y-30062109D01*
X114856353Y-30117559D01*
X114878629Y-30172571D01*
X114901065Y-30227146D01*
X114923661Y-30281282D01*
X114954037Y-30352782D01*
X114984697Y-30423505D01*
X115015641Y-30493448D01*
X115046869Y-30562613D01*
X115078381Y-30631000D01*
X115282666Y-30631000D01*
X115306316Y-30579783D01*
X115337569Y-30510812D01*
X115368502Y-30441063D01*
X115399114Y-30370536D01*
X115429405Y-30299230D01*
X115459376Y-30227146D01*
X115481644Y-30172571D01*
X115503732Y-30117559D01*
X115525639Y-30062109D01*
X115540166Y-30024961D01*
X115561756Y-29969243D01*
X115583103Y-29913530D01*
X115604208Y-29857822D01*
X115625071Y-29802120D01*
X115645692Y-29746422D01*
X115666071Y-29690730D01*
X115686207Y-29635043D01*
X115706102Y-29579361D01*
X115725754Y-29523684D01*
X115745164Y-29468013D01*
X115517139Y-29468013D01*
X115497447Y-29527089D01*
X115477352Y-29586788D01*
X115456854Y-29647110D01*
X115435953Y-29708055D01*
X115414795Y-29769109D01*
X115393528Y-29829761D01*
X115372150Y-29890009D01*
X115350663Y-29949855D01*
X115329304Y-30008785D01*
X115308018Y-30066579D01*
X115286806Y-30123237D01*
X115265667Y-30178759D01*
X115255166Y-30205962D01*
X115231907Y-30265158D01*
X115209158Y-30321573D01*
X115184480Y-30380993D01*
X115171798Y-30351691D01*
X115148753Y-30296675D01*
X115125430Y-30238738D01*
X115101828Y-30177880D01*
X115080726Y-30122028D01*
X115059623Y-30065260D01*
X115038521Y-30007576D01*
X115017418Y-29948976D01*
X114996316Y-29889515D01*
X114975213Y-29829541D01*
X114954110Y-29769054D01*
X114933008Y-29708055D01*
X114912015Y-29647110D01*
X114891242Y-29586788D01*
X114870689Y-29527089D01*
X114850356Y-29468013D01*
X114615590Y-29468013D01*
X114461717Y-29468013D01*
X113864103Y-29468013D01*
X113862363Y-29504640D01*
X113859053Y-29568694D01*
X113855407Y-29632691D01*
X113851424Y-29696633D01*
X113847104Y-29760518D01*
X113843058Y-29815809D01*
X113837556Y-29881722D01*
X113831213Y-29949150D01*
X113825106Y-30008150D01*
X113818381Y-30068264D01*
X113860988Y-30068636D01*
X113924278Y-30070779D01*
X113988296Y-30075468D01*
X114050510Y-30083505D01*
X114083712Y-30089646D01*
X114142267Y-30105143D01*
X114197348Y-30128641D01*
X114236462Y-30155156D01*
X114274138Y-30201914D01*
X114289165Y-30242113D01*
X114296120Y-30300392D01*
X114295791Y-30311826D01*
X114282638Y-30369855D01*
X114277015Y-30381797D01*
X114239554Y-30427594D01*
X114217124Y-30443475D01*
X114162764Y-30466868D01*
X114110886Y-30477420D01*
X114049630Y-30480937D01*
X114008974Y-30479997D01*
X113945804Y-30474014D01*
X113886671Y-30461300D01*
X113841142Y-30446943D01*
X113784676Y-30424663D01*
X113745694Y-30593484D01*
X113612361Y-30593484D01*
X113612361Y-29334680D01*
X115878497Y-29334680D01*
X115878497Y-30783090D01*
G37*
D10*
X98741541Y-65619819D02*
X99408207Y-66619819D01*
X99408207Y-65619819D02*
X98741541Y-66619819D01*
X96277255Y-63393628D02*
X96277255Y-63869819D01*
X95943922Y-62869819D02*
X96277255Y-63393628D01*
X96277255Y-63393628D02*
X96610588Y-62869819D01*
D13*
G36*
X136395652Y-30842257D02*
G01*
X132679965Y-30842257D01*
X132679965Y-30635984D01*
X132829965Y-30635984D01*
X132883894Y-30655035D01*
X132904445Y-30660524D01*
X132962442Y-30673500D01*
X132995456Y-30679242D01*
X133053593Y-30686982D01*
X133086495Y-30689985D01*
X133147383Y-30692257D01*
X133162019Y-30692151D01*
X133224708Y-30689036D01*
X133288273Y-30680519D01*
X133350788Y-30665000D01*
X133386686Y-30652121D01*
X133441634Y-30625605D01*
X133491765Y-30590555D01*
X133505307Y-30578474D01*
X133519635Y-30561832D01*
X133792770Y-30561832D01*
X133799155Y-30605213D01*
X133831458Y-30655914D01*
X133869101Y-30680758D01*
X133927885Y-30692257D01*
X133970471Y-30686259D01*
X134023140Y-30655914D01*
X134038269Y-30635984D01*
X134230942Y-30635984D01*
X134284871Y-30655035D01*
X134305422Y-30660524D01*
X134363419Y-30673500D01*
X134396433Y-30679242D01*
X134454570Y-30686982D01*
X134487472Y-30689985D01*
X134548360Y-30692257D01*
X134562996Y-30692151D01*
X134625685Y-30689036D01*
X134689250Y-30680519D01*
X134751765Y-30665000D01*
X134787663Y-30652121D01*
X134842611Y-30625605D01*
X134892742Y-30590555D01*
X134906284Y-30578474D01*
X134946539Y-30531719D01*
X134975687Y-30478008D01*
X134983455Y-30457318D01*
X134998201Y-30396570D01*
X135002651Y-30336444D01*
X135002123Y-30315378D01*
X134994202Y-30256568D01*
X134974252Y-30198946D01*
X134942568Y-30149452D01*
X134897756Y-30104196D01*
X134845533Y-30068776D01*
X134791626Y-30045112D01*
X134817296Y-30031641D01*
X134866553Y-29995243D01*
X134907104Y-29948978D01*
X134922343Y-29924660D01*
X134944546Y-29868013D01*
X134951947Y-29805949D01*
X134951924Y-29801692D01*
X134946231Y-29740443D01*
X134929085Y-29680506D01*
X134900362Y-29626870D01*
X134859916Y-29580855D01*
X134851017Y-29573056D01*
X134800029Y-29539165D01*
X134742679Y-29515202D01*
X134725291Y-29510513D01*
X135116078Y-29510513D01*
X135128816Y-29547627D01*
X135148155Y-29603302D01*
X135167772Y-29658982D01*
X135187667Y-29714667D01*
X135207841Y-29770358D01*
X135228292Y-29826053D01*
X135249022Y-29881754D01*
X135270030Y-29937460D01*
X135291317Y-29993171D01*
X135312881Y-30048888D01*
X135334724Y-30104609D01*
X135356841Y-30160059D01*
X135379117Y-30215071D01*
X135401553Y-30269646D01*
X135424149Y-30323782D01*
X135454525Y-30395282D01*
X135485185Y-30466005D01*
X135516129Y-30535948D01*
X135547357Y-30605113D01*
X135578869Y-30673500D01*
X135783154Y-30673500D01*
X135806804Y-30622283D01*
X135838057Y-30553312D01*
X135868990Y-30483563D01*
X135899602Y-30413036D01*
X135929893Y-30341730D01*
X135959864Y-30269646D01*
X135982132Y-30215071D01*
X136004219Y-30160059D01*
X136026127Y-30104609D01*
X136040654Y-30067461D01*
X136062244Y-30011743D01*
X136083591Y-29956030D01*
X136104696Y-29900322D01*
X136125559Y-29844620D01*
X136146180Y-29788922D01*
X136166559Y-29733230D01*
X136186695Y-29677543D01*
X136206590Y-29621861D01*
X136226242Y-29566184D01*
X136245652Y-29510513D01*
X136017627Y-29510513D01*
X135997935Y-29569589D01*
X135977840Y-29629288D01*
X135957342Y-29689610D01*
X135936441Y-29750555D01*
X135915283Y-29811609D01*
X135894016Y-29872261D01*
X135872638Y-29932509D01*
X135851151Y-29992355D01*
X135829792Y-30051285D01*
X135808506Y-30109079D01*
X135787294Y-30165737D01*
X135766155Y-30221259D01*
X135755654Y-30248462D01*
X135732395Y-30307658D01*
X135709646Y-30364073D01*
X135684968Y-30423493D01*
X135672286Y-30394191D01*
X135649241Y-30339175D01*
X135625918Y-30281238D01*
X135602316Y-30220380D01*
X135581214Y-30164528D01*
X135560111Y-30107760D01*
X135539009Y-30050076D01*
X135517906Y-29991476D01*
X135496804Y-29932015D01*
X135475701Y-29872041D01*
X135454598Y-29811554D01*
X135433496Y-29750555D01*
X135412503Y-29689610D01*
X135391730Y-29629288D01*
X135371177Y-29569589D01*
X135350844Y-29510513D01*
X135116078Y-29510513D01*
X134725291Y-29510513D01*
X134700649Y-29503868D01*
X134637974Y-29494526D01*
X134573859Y-29491755D01*
X134532054Y-29493254D01*
X134473914Y-29500841D01*
X134442166Y-29507578D01*
X134385401Y-29524288D01*
X134365214Y-29531579D01*
X134310369Y-29554770D01*
X134306195Y-29556779D01*
X134252924Y-29585544D01*
X134327076Y-29754365D01*
X134329946Y-29752101D01*
X134379378Y-29717901D01*
X134431709Y-29689299D01*
X134450619Y-29681024D01*
X134507904Y-29665316D01*
X134566824Y-29660576D01*
X134575636Y-29660708D01*
X134634235Y-29669075D01*
X134636243Y-29669598D01*
X134690802Y-29695747D01*
X134692332Y-29696911D01*
X134730663Y-29742934D01*
X134735053Y-29752105D01*
X134745903Y-29811518D01*
X134744639Y-29835569D01*
X134725680Y-29893876D01*
X134717674Y-29905413D01*
X134673217Y-29945167D01*
X134658861Y-29952955D01*
X134601409Y-29971839D01*
X134581681Y-29975173D01*
X134523154Y-29979459D01*
X134438744Y-29979459D01*
X134438744Y-30148280D01*
X134507913Y-30148280D01*
X134557056Y-30150019D01*
X134616943Y-30157366D01*
X134653941Y-30166035D01*
X134708095Y-30188726D01*
X134729030Y-30202369D01*
X134770523Y-30247345D01*
X134785325Y-30279873D01*
X134793384Y-30338203D01*
X134791303Y-30368662D01*
X134772512Y-30426454D01*
X134734180Y-30473025D01*
X134718284Y-30484840D01*
X134662528Y-30509209D01*
X134603772Y-30520286D01*
X134541619Y-30523437D01*
X134493790Y-30522191D01*
X134434545Y-30516411D01*
X134374263Y-30503506D01*
X134328198Y-30488916D01*
X134271388Y-30467163D01*
X134230942Y-30635984D01*
X134038269Y-30635984D01*
X134050388Y-30620018D01*
X134063000Y-30561832D01*
X134056422Y-30518305D01*
X134023140Y-30466870D01*
X133985433Y-30441425D01*
X133927885Y-30429647D01*
X133884258Y-30435791D01*
X133831458Y-30466870D01*
X133805011Y-30503367D01*
X133792770Y-30561832D01*
X133519635Y-30561832D01*
X133545562Y-30531719D01*
X133574710Y-30478008D01*
X133582478Y-30457318D01*
X133597224Y-30396570D01*
X133601674Y-30336444D01*
X133601146Y-30315378D01*
X133593225Y-30256568D01*
X133573275Y-30198946D01*
X133541591Y-30149452D01*
X133496779Y-30104196D01*
X133444556Y-30068776D01*
X133390649Y-30045112D01*
X133416319Y-30031641D01*
X133465576Y-29995243D01*
X133506127Y-29948978D01*
X133521366Y-29924660D01*
X133543569Y-29868013D01*
X133550970Y-29805949D01*
X133550947Y-29801692D01*
X133545254Y-29740443D01*
X133528108Y-29680506D01*
X133499386Y-29626870D01*
X133458939Y-29580855D01*
X133450040Y-29573056D01*
X133399052Y-29539165D01*
X133341702Y-29515202D01*
X133299672Y-29503868D01*
X133236997Y-29494526D01*
X133172882Y-29491755D01*
X133131078Y-29493254D01*
X133072938Y-29500841D01*
X133041189Y-29507578D01*
X132984424Y-29524288D01*
X132964237Y-29531579D01*
X132909393Y-29554770D01*
X132905218Y-29556779D01*
X132851947Y-29585544D01*
X132926099Y-29754365D01*
X132928969Y-29752101D01*
X132978401Y-29717901D01*
X133030732Y-29689299D01*
X133049642Y-29681024D01*
X133106927Y-29665316D01*
X133165847Y-29660576D01*
X133174659Y-29660708D01*
X133233259Y-29669075D01*
X133235266Y-29669598D01*
X133289825Y-29695747D01*
X133291355Y-29696911D01*
X133329686Y-29742934D01*
X133334076Y-29752105D01*
X133344926Y-29811518D01*
X133343662Y-29835569D01*
X133324703Y-29893876D01*
X133316697Y-29905413D01*
X133272240Y-29945167D01*
X133257884Y-29952955D01*
X133200432Y-29971839D01*
X133180704Y-29975173D01*
X133122177Y-29979459D01*
X133037767Y-29979459D01*
X133037767Y-30148280D01*
X133106936Y-30148280D01*
X133156079Y-30150019D01*
X133215966Y-30157366D01*
X133252964Y-30166035D01*
X133307118Y-30188726D01*
X133328053Y-30202369D01*
X133369546Y-30247345D01*
X133384348Y-30279873D01*
X133392407Y-30338203D01*
X133390326Y-30368662D01*
X133371535Y-30426454D01*
X133333203Y-30473025D01*
X133317307Y-30484840D01*
X133261551Y-30509209D01*
X133202795Y-30520286D01*
X133140642Y-30523437D01*
X133092813Y-30522191D01*
X133033569Y-30516411D01*
X132973286Y-30503506D01*
X132927221Y-30488916D01*
X132870411Y-30467163D01*
X132829965Y-30635984D01*
X132679965Y-30635984D01*
X132679965Y-29341755D01*
X136395652Y-29341755D01*
X136395652Y-30842257D01*
G37*
D10*
X129023810Y-24204819D02*
X129642857Y-24204819D01*
X129642857Y-24204819D02*
X129309524Y-24585771D01*
X129309524Y-24585771D02*
X129452381Y-24585771D01*
X129452381Y-24585771D02*
X129547619Y-24633390D01*
X129547619Y-24633390D02*
X129595238Y-24681009D01*
X129595238Y-24681009D02*
X129642857Y-24776247D01*
X129642857Y-24776247D02*
X129642857Y-25014342D01*
X129642857Y-25014342D02*
X129595238Y-25109580D01*
X129595238Y-25109580D02*
X129547619Y-25157200D01*
X129547619Y-25157200D02*
X129452381Y-25204819D01*
X129452381Y-25204819D02*
X129166667Y-25204819D01*
X129166667Y-25204819D02*
X129071429Y-25157200D01*
X129071429Y-25157200D02*
X129023810Y-25109580D01*
X130071429Y-25109580D02*
X130119048Y-25157200D01*
X130119048Y-25157200D02*
X130071429Y-25204819D01*
X130071429Y-25204819D02*
X130023810Y-25157200D01*
X130023810Y-25157200D02*
X130071429Y-25109580D01*
X130071429Y-25109580D02*
X130071429Y-25204819D01*
X130452381Y-24204819D02*
X131071428Y-24204819D01*
X131071428Y-24204819D02*
X130738095Y-24585771D01*
X130738095Y-24585771D02*
X130880952Y-24585771D01*
X130880952Y-24585771D02*
X130976190Y-24633390D01*
X130976190Y-24633390D02*
X131023809Y-24681009D01*
X131023809Y-24681009D02*
X131071428Y-24776247D01*
X131071428Y-24776247D02*
X131071428Y-25014342D01*
X131071428Y-25014342D02*
X131023809Y-25109580D01*
X131023809Y-25109580D02*
X130976190Y-25157200D01*
X130976190Y-25157200D02*
X130880952Y-25204819D01*
X130880952Y-25204819D02*
X130595238Y-25204819D01*
X130595238Y-25204819D02*
X130500000Y-25157200D01*
X130500000Y-25157200D02*
X130452381Y-25109580D01*
X131357143Y-24204819D02*
X131690476Y-25204819D01*
X131690476Y-25204819D02*
X132023809Y-24204819D01*
X114130952Y-25204819D02*
X113559524Y-25204819D01*
X113845238Y-25204819D02*
X113845238Y-24204819D01*
X113845238Y-24204819D02*
X113750000Y-24347676D01*
X113750000Y-24347676D02*
X113654762Y-24442914D01*
X113654762Y-24442914D02*
X113559524Y-24490533D01*
X114511905Y-24300057D02*
X114559524Y-24252438D01*
X114559524Y-24252438D02*
X114654762Y-24204819D01*
X114654762Y-24204819D02*
X114892857Y-24204819D01*
X114892857Y-24204819D02*
X114988095Y-24252438D01*
X114988095Y-24252438D02*
X115035714Y-24300057D01*
X115035714Y-24300057D02*
X115083333Y-24395295D01*
X115083333Y-24395295D02*
X115083333Y-24490533D01*
X115083333Y-24490533D02*
X115035714Y-24633390D01*
X115035714Y-24633390D02*
X114464286Y-25204819D01*
X114464286Y-25204819D02*
X115083333Y-25204819D01*
X115369048Y-24204819D02*
X115702381Y-25204819D01*
X115702381Y-25204819D02*
X116035714Y-24204819D01*
X97833333Y-30704819D02*
X97500000Y-30228628D01*
X97261905Y-30704819D02*
X97261905Y-29704819D01*
X97261905Y-29704819D02*
X97642857Y-29704819D01*
X97642857Y-29704819D02*
X97738095Y-29752438D01*
X97738095Y-29752438D02*
X97785714Y-29800057D01*
X97785714Y-29800057D02*
X97833333Y-29895295D01*
X97833333Y-29895295D02*
X97833333Y-30038152D01*
X97833333Y-30038152D02*
X97785714Y-30133390D01*
X97785714Y-30133390D02*
X97738095Y-30181009D01*
X97738095Y-30181009D02*
X97642857Y-30228628D01*
X97642857Y-30228628D02*
X97261905Y-30228628D01*
X98166667Y-29704819D02*
X98833333Y-29704819D01*
X98833333Y-29704819D02*
X98404762Y-30704819D01*
X127609580Y-46142857D02*
X127657200Y-46190476D01*
X127657200Y-46190476D02*
X127704819Y-46333333D01*
X127704819Y-46333333D02*
X127704819Y-46428571D01*
X127704819Y-46428571D02*
X127657200Y-46571428D01*
X127657200Y-46571428D02*
X127561961Y-46666666D01*
X127561961Y-46666666D02*
X127466723Y-46714285D01*
X127466723Y-46714285D02*
X127276247Y-46761904D01*
X127276247Y-46761904D02*
X127133390Y-46761904D01*
X127133390Y-46761904D02*
X126942914Y-46714285D01*
X126942914Y-46714285D02*
X126847676Y-46666666D01*
X126847676Y-46666666D02*
X126752438Y-46571428D01*
X126752438Y-46571428D02*
X126704819Y-46428571D01*
X126704819Y-46428571D02*
X126704819Y-46333333D01*
X126704819Y-46333333D02*
X126752438Y-46190476D01*
X126752438Y-46190476D02*
X126800057Y-46142857D01*
X127704819Y-45190476D02*
X127704819Y-45761904D01*
X127704819Y-45476190D02*
X126704819Y-45476190D01*
X126704819Y-45476190D02*
X126847676Y-45571428D01*
X126847676Y-45571428D02*
X126942914Y-45666666D01*
X126942914Y-45666666D02*
X126990533Y-45761904D01*
X126704819Y-44571428D02*
X126704819Y-44476190D01*
X126704819Y-44476190D02*
X126752438Y-44380952D01*
X126752438Y-44380952D02*
X126800057Y-44333333D01*
X126800057Y-44333333D02*
X126895295Y-44285714D01*
X126895295Y-44285714D02*
X127085771Y-44238095D01*
X127085771Y-44238095D02*
X127323866Y-44238095D01*
X127323866Y-44238095D02*
X127514342Y-44285714D01*
X127514342Y-44285714D02*
X127609580Y-44333333D01*
X127609580Y-44333333D02*
X127657200Y-44380952D01*
X127657200Y-44380952D02*
X127704819Y-44476190D01*
X127704819Y-44476190D02*
X127704819Y-44571428D01*
X127704819Y-44571428D02*
X127657200Y-44666666D01*
X127657200Y-44666666D02*
X127609580Y-44714285D01*
X127609580Y-44714285D02*
X127514342Y-44761904D01*
X127514342Y-44761904D02*
X127323866Y-44809523D01*
X127323866Y-44809523D02*
X127085771Y-44809523D01*
X127085771Y-44809523D02*
X126895295Y-44761904D01*
X126895295Y-44761904D02*
X126800057Y-44714285D01*
X126800057Y-44714285D02*
X126752438Y-44666666D01*
X126752438Y-44666666D02*
X126704819Y-44571428D01*
X105357142Y-81609580D02*
X105309523Y-81657200D01*
X105309523Y-81657200D02*
X105166666Y-81704819D01*
X105166666Y-81704819D02*
X105071428Y-81704819D01*
X105071428Y-81704819D02*
X104928571Y-81657200D01*
X104928571Y-81657200D02*
X104833333Y-81561961D01*
X104833333Y-81561961D02*
X104785714Y-81466723D01*
X104785714Y-81466723D02*
X104738095Y-81276247D01*
X104738095Y-81276247D02*
X104738095Y-81133390D01*
X104738095Y-81133390D02*
X104785714Y-80942914D01*
X104785714Y-80942914D02*
X104833333Y-80847676D01*
X104833333Y-80847676D02*
X104928571Y-80752438D01*
X104928571Y-80752438D02*
X105071428Y-80704819D01*
X105071428Y-80704819D02*
X105166666Y-80704819D01*
X105166666Y-80704819D02*
X105309523Y-80752438D01*
X105309523Y-80752438D02*
X105357142Y-80800057D01*
X105738095Y-80800057D02*
X105785714Y-80752438D01*
X105785714Y-80752438D02*
X105880952Y-80704819D01*
X105880952Y-80704819D02*
X106119047Y-80704819D01*
X106119047Y-80704819D02*
X106214285Y-80752438D01*
X106214285Y-80752438D02*
X106261904Y-80800057D01*
X106261904Y-80800057D02*
X106309523Y-80895295D01*
X106309523Y-80895295D02*
X106309523Y-80990533D01*
X106309523Y-80990533D02*
X106261904Y-81133390D01*
X106261904Y-81133390D02*
X105690476Y-81704819D01*
X105690476Y-81704819D02*
X106309523Y-81704819D01*
X106642857Y-80704819D02*
X107309523Y-80704819D01*
X107309523Y-80704819D02*
X106880952Y-81704819D01*
X118609580Y-45666666D02*
X118657200Y-45714285D01*
X118657200Y-45714285D02*
X118704819Y-45857142D01*
X118704819Y-45857142D02*
X118704819Y-45952380D01*
X118704819Y-45952380D02*
X118657200Y-46095237D01*
X118657200Y-46095237D02*
X118561961Y-46190475D01*
X118561961Y-46190475D02*
X118466723Y-46238094D01*
X118466723Y-46238094D02*
X118276247Y-46285713D01*
X118276247Y-46285713D02*
X118133390Y-46285713D01*
X118133390Y-46285713D02*
X117942914Y-46238094D01*
X117942914Y-46238094D02*
X117847676Y-46190475D01*
X117847676Y-46190475D02*
X117752438Y-46095237D01*
X117752438Y-46095237D02*
X117704819Y-45952380D01*
X117704819Y-45952380D02*
X117704819Y-45857142D01*
X117704819Y-45857142D02*
X117752438Y-45714285D01*
X117752438Y-45714285D02*
X117800057Y-45666666D01*
X118704819Y-45190475D02*
X118704819Y-44999999D01*
X118704819Y-44999999D02*
X118657200Y-44904761D01*
X118657200Y-44904761D02*
X118609580Y-44857142D01*
X118609580Y-44857142D02*
X118466723Y-44761904D01*
X118466723Y-44761904D02*
X118276247Y-44714285D01*
X118276247Y-44714285D02*
X117895295Y-44714285D01*
X117895295Y-44714285D02*
X117800057Y-44761904D01*
X117800057Y-44761904D02*
X117752438Y-44809523D01*
X117752438Y-44809523D02*
X117704819Y-44904761D01*
X117704819Y-44904761D02*
X117704819Y-45095237D01*
X117704819Y-45095237D02*
X117752438Y-45190475D01*
X117752438Y-45190475D02*
X117800057Y-45238094D01*
X117800057Y-45238094D02*
X117895295Y-45285713D01*
X117895295Y-45285713D02*
X118133390Y-45285713D01*
X118133390Y-45285713D02*
X118228628Y-45238094D01*
X118228628Y-45238094D02*
X118276247Y-45190475D01*
X118276247Y-45190475D02*
X118323866Y-45095237D01*
X118323866Y-45095237D02*
X118323866Y-44904761D01*
X118323866Y-44904761D02*
X118276247Y-44809523D01*
X118276247Y-44809523D02*
X118228628Y-44761904D01*
X118228628Y-44761904D02*
X118133390Y-44714285D01*
X110833333Y-38684580D02*
X110785714Y-38732200D01*
X110785714Y-38732200D02*
X110642857Y-38779819D01*
X110642857Y-38779819D02*
X110547619Y-38779819D01*
X110547619Y-38779819D02*
X110404762Y-38732200D01*
X110404762Y-38732200D02*
X110309524Y-38636961D01*
X110309524Y-38636961D02*
X110261905Y-38541723D01*
X110261905Y-38541723D02*
X110214286Y-38351247D01*
X110214286Y-38351247D02*
X110214286Y-38208390D01*
X110214286Y-38208390D02*
X110261905Y-38017914D01*
X110261905Y-38017914D02*
X110309524Y-37922676D01*
X110309524Y-37922676D02*
X110404762Y-37827438D01*
X110404762Y-37827438D02*
X110547619Y-37779819D01*
X110547619Y-37779819D02*
X110642857Y-37779819D01*
X110642857Y-37779819D02*
X110785714Y-37827438D01*
X110785714Y-37827438D02*
X110833333Y-37875057D01*
X111690476Y-38113152D02*
X111690476Y-38779819D01*
X111452381Y-37732200D02*
X111214286Y-38446485D01*
X111214286Y-38446485D02*
X111833333Y-38446485D01*
X103238095Y-37704819D02*
X103238095Y-38514342D01*
X103238095Y-38514342D02*
X103285714Y-38609580D01*
X103285714Y-38609580D02*
X103333333Y-38657200D01*
X103333333Y-38657200D02*
X103428571Y-38704819D01*
X103428571Y-38704819D02*
X103619047Y-38704819D01*
X103619047Y-38704819D02*
X103714285Y-38657200D01*
X103714285Y-38657200D02*
X103761904Y-38609580D01*
X103761904Y-38609580D02*
X103809523Y-38514342D01*
X103809523Y-38514342D02*
X103809523Y-37704819D01*
X104809523Y-38704819D02*
X104238095Y-38704819D01*
X104523809Y-38704819D02*
X104523809Y-37704819D01*
X104523809Y-37704819D02*
X104428571Y-37847676D01*
X104428571Y-37847676D02*
X104333333Y-37942914D01*
X104333333Y-37942914D02*
X104238095Y-37990533D01*
X91166666Y-22704819D02*
X91166666Y-23419104D01*
X91166666Y-23419104D02*
X91119047Y-23561961D01*
X91119047Y-23561961D02*
X91023809Y-23657200D01*
X91023809Y-23657200D02*
X90880952Y-23704819D01*
X90880952Y-23704819D02*
X90785714Y-23704819D01*
X92119047Y-22704819D02*
X91642857Y-22704819D01*
X91642857Y-22704819D02*
X91595238Y-23181009D01*
X91595238Y-23181009D02*
X91642857Y-23133390D01*
X91642857Y-23133390D02*
X91738095Y-23085771D01*
X91738095Y-23085771D02*
X91976190Y-23085771D01*
X91976190Y-23085771D02*
X92071428Y-23133390D01*
X92071428Y-23133390D02*
X92119047Y-23181009D01*
X92119047Y-23181009D02*
X92166666Y-23276247D01*
X92166666Y-23276247D02*
X92166666Y-23514342D01*
X92166666Y-23514342D02*
X92119047Y-23609580D01*
X92119047Y-23609580D02*
X92071428Y-23657200D01*
X92071428Y-23657200D02*
X91976190Y-23704819D01*
X91976190Y-23704819D02*
X91738095Y-23704819D01*
X91738095Y-23704819D02*
X91642857Y-23657200D01*
X91642857Y-23657200D02*
X91595238Y-23609580D01*
X126733333Y-38584580D02*
X126685714Y-38632200D01*
X126685714Y-38632200D02*
X126542857Y-38679819D01*
X126542857Y-38679819D02*
X126447619Y-38679819D01*
X126447619Y-38679819D02*
X126304762Y-38632200D01*
X126304762Y-38632200D02*
X126209524Y-38536961D01*
X126209524Y-38536961D02*
X126161905Y-38441723D01*
X126161905Y-38441723D02*
X126114286Y-38251247D01*
X126114286Y-38251247D02*
X126114286Y-38108390D01*
X126114286Y-38108390D02*
X126161905Y-37917914D01*
X126161905Y-37917914D02*
X126209524Y-37822676D01*
X126209524Y-37822676D02*
X126304762Y-37727438D01*
X126304762Y-37727438D02*
X126447619Y-37679819D01*
X126447619Y-37679819D02*
X126542857Y-37679819D01*
X126542857Y-37679819D02*
X126685714Y-37727438D01*
X126685714Y-37727438D02*
X126733333Y-37775057D01*
X127638095Y-37679819D02*
X127161905Y-37679819D01*
X127161905Y-37679819D02*
X127114286Y-38156009D01*
X127114286Y-38156009D02*
X127161905Y-38108390D01*
X127161905Y-38108390D02*
X127257143Y-38060771D01*
X127257143Y-38060771D02*
X127495238Y-38060771D01*
X127495238Y-38060771D02*
X127590476Y-38108390D01*
X127590476Y-38108390D02*
X127638095Y-38156009D01*
X127638095Y-38156009D02*
X127685714Y-38251247D01*
X127685714Y-38251247D02*
X127685714Y-38489342D01*
X127685714Y-38489342D02*
X127638095Y-38584580D01*
X127638095Y-38584580D02*
X127590476Y-38632200D01*
X127590476Y-38632200D02*
X127495238Y-38679819D01*
X127495238Y-38679819D02*
X127257143Y-38679819D01*
X127257143Y-38679819D02*
X127161905Y-38632200D01*
X127161905Y-38632200D02*
X127114286Y-38584580D01*
X101238095Y-56704819D02*
X101238095Y-57514342D01*
X101238095Y-57514342D02*
X101285714Y-57609580D01*
X101285714Y-57609580D02*
X101333333Y-57657200D01*
X101333333Y-57657200D02*
X101428571Y-57704819D01*
X101428571Y-57704819D02*
X101619047Y-57704819D01*
X101619047Y-57704819D02*
X101714285Y-57657200D01*
X101714285Y-57657200D02*
X101761904Y-57609580D01*
X101761904Y-57609580D02*
X101809523Y-57514342D01*
X101809523Y-57514342D02*
X101809523Y-56704819D01*
X102714285Y-57038152D02*
X102714285Y-57704819D01*
X102476190Y-56657200D02*
X102238095Y-57371485D01*
X102238095Y-57371485D02*
X102857142Y-57371485D01*
X79666666Y-50431009D02*
X79333333Y-50431009D01*
X79333333Y-50954819D02*
X79333333Y-49954819D01*
X79333333Y-49954819D02*
X79809523Y-49954819D01*
X80714285Y-50954819D02*
X80142857Y-50954819D01*
X80428571Y-50954819D02*
X80428571Y-49954819D01*
X80428571Y-49954819D02*
X80333333Y-50097676D01*
X80333333Y-50097676D02*
X80238095Y-50192914D01*
X80238095Y-50192914D02*
X80142857Y-50240533D01*
X117733333Y-30704819D02*
X117400000Y-30228628D01*
X117161905Y-30704819D02*
X117161905Y-29704819D01*
X117161905Y-29704819D02*
X117542857Y-29704819D01*
X117542857Y-29704819D02*
X117638095Y-29752438D01*
X117638095Y-29752438D02*
X117685714Y-29800057D01*
X117685714Y-29800057D02*
X117733333Y-29895295D01*
X117733333Y-29895295D02*
X117733333Y-30038152D01*
X117733333Y-30038152D02*
X117685714Y-30133390D01*
X117685714Y-30133390D02*
X117638095Y-30181009D01*
X117638095Y-30181009D02*
X117542857Y-30228628D01*
X117542857Y-30228628D02*
X117161905Y-30228628D01*
X118304762Y-30133390D02*
X118209524Y-30085771D01*
X118209524Y-30085771D02*
X118161905Y-30038152D01*
X118161905Y-30038152D02*
X118114286Y-29942914D01*
X118114286Y-29942914D02*
X118114286Y-29895295D01*
X118114286Y-29895295D02*
X118161905Y-29800057D01*
X118161905Y-29800057D02*
X118209524Y-29752438D01*
X118209524Y-29752438D02*
X118304762Y-29704819D01*
X118304762Y-29704819D02*
X118495238Y-29704819D01*
X118495238Y-29704819D02*
X118590476Y-29752438D01*
X118590476Y-29752438D02*
X118638095Y-29800057D01*
X118638095Y-29800057D02*
X118685714Y-29895295D01*
X118685714Y-29895295D02*
X118685714Y-29942914D01*
X118685714Y-29942914D02*
X118638095Y-30038152D01*
X118638095Y-30038152D02*
X118590476Y-30085771D01*
X118590476Y-30085771D02*
X118495238Y-30133390D01*
X118495238Y-30133390D02*
X118304762Y-30133390D01*
X118304762Y-30133390D02*
X118209524Y-30181009D01*
X118209524Y-30181009D02*
X118161905Y-30228628D01*
X118161905Y-30228628D02*
X118114286Y-30323866D01*
X118114286Y-30323866D02*
X118114286Y-30514342D01*
X118114286Y-30514342D02*
X118161905Y-30609580D01*
X118161905Y-30609580D02*
X118209524Y-30657200D01*
X118209524Y-30657200D02*
X118304762Y-30704819D01*
X118304762Y-30704819D02*
X118495238Y-30704819D01*
X118495238Y-30704819D02*
X118590476Y-30657200D01*
X118590476Y-30657200D02*
X118638095Y-30609580D01*
X118638095Y-30609580D02*
X118685714Y-30514342D01*
X118685714Y-30514342D02*
X118685714Y-30323866D01*
X118685714Y-30323866D02*
X118638095Y-30228628D01*
X118638095Y-30228628D02*
X118590476Y-30181009D01*
X118590476Y-30181009D02*
X118495238Y-30133390D01*
X105859580Y-53392857D02*
X105907200Y-53440476D01*
X105907200Y-53440476D02*
X105954819Y-53583333D01*
X105954819Y-53583333D02*
X105954819Y-53678571D01*
X105954819Y-53678571D02*
X105907200Y-53821428D01*
X105907200Y-53821428D02*
X105811961Y-53916666D01*
X105811961Y-53916666D02*
X105716723Y-53964285D01*
X105716723Y-53964285D02*
X105526247Y-54011904D01*
X105526247Y-54011904D02*
X105383390Y-54011904D01*
X105383390Y-54011904D02*
X105192914Y-53964285D01*
X105192914Y-53964285D02*
X105097676Y-53916666D01*
X105097676Y-53916666D02*
X105002438Y-53821428D01*
X105002438Y-53821428D02*
X104954819Y-53678571D01*
X104954819Y-53678571D02*
X104954819Y-53583333D01*
X104954819Y-53583333D02*
X105002438Y-53440476D01*
X105002438Y-53440476D02*
X105050057Y-53392857D01*
X105954819Y-52440476D02*
X105954819Y-53011904D01*
X105954819Y-52726190D02*
X104954819Y-52726190D01*
X104954819Y-52726190D02*
X105097676Y-52821428D01*
X105097676Y-52821428D02*
X105192914Y-52916666D01*
X105192914Y-52916666D02*
X105240533Y-53011904D01*
X105050057Y-52059523D02*
X105002438Y-52011904D01*
X105002438Y-52011904D02*
X104954819Y-51916666D01*
X104954819Y-51916666D02*
X104954819Y-51678571D01*
X104954819Y-51678571D02*
X105002438Y-51583333D01*
X105002438Y-51583333D02*
X105050057Y-51535714D01*
X105050057Y-51535714D02*
X105145295Y-51488095D01*
X105145295Y-51488095D02*
X105240533Y-51488095D01*
X105240533Y-51488095D02*
X105383390Y-51535714D01*
X105383390Y-51535714D02*
X105954819Y-52107142D01*
X105954819Y-52107142D02*
X105954819Y-51488095D01*
X109359580Y-53392857D02*
X109407200Y-53440476D01*
X109407200Y-53440476D02*
X109454819Y-53583333D01*
X109454819Y-53583333D02*
X109454819Y-53678571D01*
X109454819Y-53678571D02*
X109407200Y-53821428D01*
X109407200Y-53821428D02*
X109311961Y-53916666D01*
X109311961Y-53916666D02*
X109216723Y-53964285D01*
X109216723Y-53964285D02*
X109026247Y-54011904D01*
X109026247Y-54011904D02*
X108883390Y-54011904D01*
X108883390Y-54011904D02*
X108692914Y-53964285D01*
X108692914Y-53964285D02*
X108597676Y-53916666D01*
X108597676Y-53916666D02*
X108502438Y-53821428D01*
X108502438Y-53821428D02*
X108454819Y-53678571D01*
X108454819Y-53678571D02*
X108454819Y-53583333D01*
X108454819Y-53583333D02*
X108502438Y-53440476D01*
X108502438Y-53440476D02*
X108550057Y-53392857D01*
X109454819Y-52440476D02*
X109454819Y-53011904D01*
X109454819Y-52726190D02*
X108454819Y-52726190D01*
X108454819Y-52726190D02*
X108597676Y-52821428D01*
X108597676Y-52821428D02*
X108692914Y-52916666D01*
X108692914Y-52916666D02*
X108740533Y-53011904D01*
X108454819Y-51535714D02*
X108454819Y-52011904D01*
X108454819Y-52011904D02*
X108931009Y-52059523D01*
X108931009Y-52059523D02*
X108883390Y-52011904D01*
X108883390Y-52011904D02*
X108835771Y-51916666D01*
X108835771Y-51916666D02*
X108835771Y-51678571D01*
X108835771Y-51678571D02*
X108883390Y-51583333D01*
X108883390Y-51583333D02*
X108931009Y-51535714D01*
X108931009Y-51535714D02*
X109026247Y-51488095D01*
X109026247Y-51488095D02*
X109264342Y-51488095D01*
X109264342Y-51488095D02*
X109359580Y-51535714D01*
X109359580Y-51535714D02*
X109407200Y-51583333D01*
X109407200Y-51583333D02*
X109454819Y-51678571D01*
X109454819Y-51678571D02*
X109454819Y-51916666D01*
X109454819Y-51916666D02*
X109407200Y-52011904D01*
X109407200Y-52011904D02*
X109359580Y-52059523D01*
X103833333Y-27054819D02*
X103500000Y-26578628D01*
X103261905Y-27054819D02*
X103261905Y-26054819D01*
X103261905Y-26054819D02*
X103642857Y-26054819D01*
X103642857Y-26054819D02*
X103738095Y-26102438D01*
X103738095Y-26102438D02*
X103785714Y-26150057D01*
X103785714Y-26150057D02*
X103833333Y-26245295D01*
X103833333Y-26245295D02*
X103833333Y-26388152D01*
X103833333Y-26388152D02*
X103785714Y-26483390D01*
X103785714Y-26483390D02*
X103738095Y-26531009D01*
X103738095Y-26531009D02*
X103642857Y-26578628D01*
X103642857Y-26578628D02*
X103261905Y-26578628D01*
X104214286Y-26150057D02*
X104261905Y-26102438D01*
X104261905Y-26102438D02*
X104357143Y-26054819D01*
X104357143Y-26054819D02*
X104595238Y-26054819D01*
X104595238Y-26054819D02*
X104690476Y-26102438D01*
X104690476Y-26102438D02*
X104738095Y-26150057D01*
X104738095Y-26150057D02*
X104785714Y-26245295D01*
X104785714Y-26245295D02*
X104785714Y-26340533D01*
X104785714Y-26340533D02*
X104738095Y-26483390D01*
X104738095Y-26483390D02*
X104166667Y-27054819D01*
X104166667Y-27054819D02*
X104785714Y-27054819D01*
X106583333Y-26859580D02*
X106535714Y-26907200D01*
X106535714Y-26907200D02*
X106392857Y-26954819D01*
X106392857Y-26954819D02*
X106297619Y-26954819D01*
X106297619Y-26954819D02*
X106154762Y-26907200D01*
X106154762Y-26907200D02*
X106059524Y-26811961D01*
X106059524Y-26811961D02*
X106011905Y-26716723D01*
X106011905Y-26716723D02*
X105964286Y-26526247D01*
X105964286Y-26526247D02*
X105964286Y-26383390D01*
X105964286Y-26383390D02*
X106011905Y-26192914D01*
X106011905Y-26192914D02*
X106059524Y-26097676D01*
X106059524Y-26097676D02*
X106154762Y-26002438D01*
X106154762Y-26002438D02*
X106297619Y-25954819D01*
X106297619Y-25954819D02*
X106392857Y-25954819D01*
X106392857Y-25954819D02*
X106535714Y-26002438D01*
X106535714Y-26002438D02*
X106583333Y-26050057D01*
X107535714Y-26954819D02*
X106964286Y-26954819D01*
X107250000Y-26954819D02*
X107250000Y-25954819D01*
X107250000Y-25954819D02*
X107154762Y-26097676D01*
X107154762Y-26097676D02*
X107059524Y-26192914D01*
X107059524Y-26192914D02*
X106964286Y-26240533D01*
X114583333Y-26954819D02*
X114250000Y-26478628D01*
X114011905Y-26954819D02*
X114011905Y-25954819D01*
X114011905Y-25954819D02*
X114392857Y-25954819D01*
X114392857Y-25954819D02*
X114488095Y-26002438D01*
X114488095Y-26002438D02*
X114535714Y-26050057D01*
X114535714Y-26050057D02*
X114583333Y-26145295D01*
X114583333Y-26145295D02*
X114583333Y-26288152D01*
X114583333Y-26288152D02*
X114535714Y-26383390D01*
X114535714Y-26383390D02*
X114488095Y-26431009D01*
X114488095Y-26431009D02*
X114392857Y-26478628D01*
X114392857Y-26478628D02*
X114011905Y-26478628D01*
X115488095Y-25954819D02*
X115011905Y-25954819D01*
X115011905Y-25954819D02*
X114964286Y-26431009D01*
X114964286Y-26431009D02*
X115011905Y-26383390D01*
X115011905Y-26383390D02*
X115107143Y-26335771D01*
X115107143Y-26335771D02*
X115345238Y-26335771D01*
X115345238Y-26335771D02*
X115440476Y-26383390D01*
X115440476Y-26383390D02*
X115488095Y-26431009D01*
X115488095Y-26431009D02*
X115535714Y-26526247D01*
X115535714Y-26526247D02*
X115535714Y-26764342D01*
X115535714Y-26764342D02*
X115488095Y-26859580D01*
X115488095Y-26859580D02*
X115440476Y-26907200D01*
X115440476Y-26907200D02*
X115345238Y-26954819D01*
X115345238Y-26954819D02*
X115107143Y-26954819D01*
X115107143Y-26954819D02*
X115011905Y-26907200D01*
X115011905Y-26907200D02*
X114964286Y-26859580D01*
X146261905Y-31954819D02*
X146261905Y-30954819D01*
X146261905Y-30954819D02*
X146500000Y-30954819D01*
X146500000Y-30954819D02*
X146642857Y-31002438D01*
X146642857Y-31002438D02*
X146738095Y-31097676D01*
X146738095Y-31097676D02*
X146785714Y-31192914D01*
X146785714Y-31192914D02*
X146833333Y-31383390D01*
X146833333Y-31383390D02*
X146833333Y-31526247D01*
X146833333Y-31526247D02*
X146785714Y-31716723D01*
X146785714Y-31716723D02*
X146738095Y-31811961D01*
X146738095Y-31811961D02*
X146642857Y-31907200D01*
X146642857Y-31907200D02*
X146500000Y-31954819D01*
X146500000Y-31954819D02*
X146261905Y-31954819D01*
X147690476Y-31288152D02*
X147690476Y-31954819D01*
X147452381Y-30907200D02*
X147214286Y-31621485D01*
X147214286Y-31621485D02*
X147833333Y-31621485D01*
X134333333Y-26954819D02*
X134000000Y-26478628D01*
X133761905Y-26954819D02*
X133761905Y-25954819D01*
X133761905Y-25954819D02*
X134142857Y-25954819D01*
X134142857Y-25954819D02*
X134238095Y-26002438D01*
X134238095Y-26002438D02*
X134285714Y-26050057D01*
X134285714Y-26050057D02*
X134333333Y-26145295D01*
X134333333Y-26145295D02*
X134333333Y-26288152D01*
X134333333Y-26288152D02*
X134285714Y-26383390D01*
X134285714Y-26383390D02*
X134238095Y-26431009D01*
X134238095Y-26431009D02*
X134142857Y-26478628D01*
X134142857Y-26478628D02*
X133761905Y-26478628D01*
X135190476Y-25954819D02*
X135000000Y-25954819D01*
X135000000Y-25954819D02*
X134904762Y-26002438D01*
X134904762Y-26002438D02*
X134857143Y-26050057D01*
X134857143Y-26050057D02*
X134761905Y-26192914D01*
X134761905Y-26192914D02*
X134714286Y-26383390D01*
X134714286Y-26383390D02*
X134714286Y-26764342D01*
X134714286Y-26764342D02*
X134761905Y-26859580D01*
X134761905Y-26859580D02*
X134809524Y-26907200D01*
X134809524Y-26907200D02*
X134904762Y-26954819D01*
X134904762Y-26954819D02*
X135095238Y-26954819D01*
X135095238Y-26954819D02*
X135190476Y-26907200D01*
X135190476Y-26907200D02*
X135238095Y-26859580D01*
X135238095Y-26859580D02*
X135285714Y-26764342D01*
X135285714Y-26764342D02*
X135285714Y-26526247D01*
X135285714Y-26526247D02*
X135238095Y-26431009D01*
X135238095Y-26431009D02*
X135190476Y-26383390D01*
X135190476Y-26383390D02*
X135095238Y-26335771D01*
X135095238Y-26335771D02*
X134904762Y-26335771D01*
X134904762Y-26335771D02*
X134809524Y-26383390D01*
X134809524Y-26383390D02*
X134761905Y-26431009D01*
X134761905Y-26431009D02*
X134714286Y-26526247D01*
X117733333Y-26954819D02*
X117400000Y-26478628D01*
X117161905Y-26954819D02*
X117161905Y-25954819D01*
X117161905Y-25954819D02*
X117542857Y-25954819D01*
X117542857Y-25954819D02*
X117638095Y-26002438D01*
X117638095Y-26002438D02*
X117685714Y-26050057D01*
X117685714Y-26050057D02*
X117733333Y-26145295D01*
X117733333Y-26145295D02*
X117733333Y-26288152D01*
X117733333Y-26288152D02*
X117685714Y-26383390D01*
X117685714Y-26383390D02*
X117638095Y-26431009D01*
X117638095Y-26431009D02*
X117542857Y-26478628D01*
X117542857Y-26478628D02*
X117161905Y-26478628D01*
X118066667Y-25954819D02*
X118685714Y-25954819D01*
X118685714Y-25954819D02*
X118352381Y-26335771D01*
X118352381Y-26335771D02*
X118495238Y-26335771D01*
X118495238Y-26335771D02*
X118590476Y-26383390D01*
X118590476Y-26383390D02*
X118638095Y-26431009D01*
X118638095Y-26431009D02*
X118685714Y-26526247D01*
X118685714Y-26526247D02*
X118685714Y-26764342D01*
X118685714Y-26764342D02*
X118638095Y-26859580D01*
X118638095Y-26859580D02*
X118590476Y-26907200D01*
X118590476Y-26907200D02*
X118495238Y-26954819D01*
X118495238Y-26954819D02*
X118209524Y-26954819D01*
X118209524Y-26954819D02*
X118114286Y-26907200D01*
X118114286Y-26907200D02*
X118066667Y-26859580D01*
X94857142Y-81609580D02*
X94809523Y-81657200D01*
X94809523Y-81657200D02*
X94666666Y-81704819D01*
X94666666Y-81704819D02*
X94571428Y-81704819D01*
X94571428Y-81704819D02*
X94428571Y-81657200D01*
X94428571Y-81657200D02*
X94333333Y-81561961D01*
X94333333Y-81561961D02*
X94285714Y-81466723D01*
X94285714Y-81466723D02*
X94238095Y-81276247D01*
X94238095Y-81276247D02*
X94238095Y-81133390D01*
X94238095Y-81133390D02*
X94285714Y-80942914D01*
X94285714Y-80942914D02*
X94333333Y-80847676D01*
X94333333Y-80847676D02*
X94428571Y-80752438D01*
X94428571Y-80752438D02*
X94571428Y-80704819D01*
X94571428Y-80704819D02*
X94666666Y-80704819D01*
X94666666Y-80704819D02*
X94809523Y-80752438D01*
X94809523Y-80752438D02*
X94857142Y-80800057D01*
X95238095Y-80800057D02*
X95285714Y-80752438D01*
X95285714Y-80752438D02*
X95380952Y-80704819D01*
X95380952Y-80704819D02*
X95619047Y-80704819D01*
X95619047Y-80704819D02*
X95714285Y-80752438D01*
X95714285Y-80752438D02*
X95761904Y-80800057D01*
X95761904Y-80800057D02*
X95809523Y-80895295D01*
X95809523Y-80895295D02*
X95809523Y-80990533D01*
X95809523Y-80990533D02*
X95761904Y-81133390D01*
X95761904Y-81133390D02*
X95190476Y-81704819D01*
X95190476Y-81704819D02*
X95809523Y-81704819D01*
X96666666Y-80704819D02*
X96476190Y-80704819D01*
X96476190Y-80704819D02*
X96380952Y-80752438D01*
X96380952Y-80752438D02*
X96333333Y-80800057D01*
X96333333Y-80800057D02*
X96238095Y-80942914D01*
X96238095Y-80942914D02*
X96190476Y-81133390D01*
X96190476Y-81133390D02*
X96190476Y-81514342D01*
X96190476Y-81514342D02*
X96238095Y-81609580D01*
X96238095Y-81609580D02*
X96285714Y-81657200D01*
X96285714Y-81657200D02*
X96380952Y-81704819D01*
X96380952Y-81704819D02*
X96571428Y-81704819D01*
X96571428Y-81704819D02*
X96666666Y-81657200D01*
X96666666Y-81657200D02*
X96714285Y-81609580D01*
X96714285Y-81609580D02*
X96761904Y-81514342D01*
X96761904Y-81514342D02*
X96761904Y-81276247D01*
X96761904Y-81276247D02*
X96714285Y-81181009D01*
X96714285Y-81181009D02*
X96666666Y-81133390D01*
X96666666Y-81133390D02*
X96571428Y-81085771D01*
X96571428Y-81085771D02*
X96380952Y-81085771D01*
X96380952Y-81085771D02*
X96285714Y-81133390D01*
X96285714Y-81133390D02*
X96238095Y-81181009D01*
X96238095Y-81181009D02*
X96190476Y-81276247D01*
X102454819Y-49892857D02*
X101978628Y-50226190D01*
X102454819Y-50464285D02*
X101454819Y-50464285D01*
X101454819Y-50464285D02*
X101454819Y-50083333D01*
X101454819Y-50083333D02*
X101502438Y-49988095D01*
X101502438Y-49988095D02*
X101550057Y-49940476D01*
X101550057Y-49940476D02*
X101645295Y-49892857D01*
X101645295Y-49892857D02*
X101788152Y-49892857D01*
X101788152Y-49892857D02*
X101883390Y-49940476D01*
X101883390Y-49940476D02*
X101931009Y-49988095D01*
X101931009Y-49988095D02*
X101978628Y-50083333D01*
X101978628Y-50083333D02*
X101978628Y-50464285D01*
X102454819Y-48940476D02*
X102454819Y-49511904D01*
X102454819Y-49226190D02*
X101454819Y-49226190D01*
X101454819Y-49226190D02*
X101597676Y-49321428D01*
X101597676Y-49321428D02*
X101692914Y-49416666D01*
X101692914Y-49416666D02*
X101740533Y-49511904D01*
X101454819Y-48607142D02*
X101454819Y-47988095D01*
X101454819Y-47988095D02*
X101835771Y-48321428D01*
X101835771Y-48321428D02*
X101835771Y-48178571D01*
X101835771Y-48178571D02*
X101883390Y-48083333D01*
X101883390Y-48083333D02*
X101931009Y-48035714D01*
X101931009Y-48035714D02*
X102026247Y-47988095D01*
X102026247Y-47988095D02*
X102264342Y-47988095D01*
X102264342Y-47988095D02*
X102359580Y-48035714D01*
X102359580Y-48035714D02*
X102407200Y-48083333D01*
X102407200Y-48083333D02*
X102454819Y-48178571D01*
X102454819Y-48178571D02*
X102454819Y-48464285D01*
X102454819Y-48464285D02*
X102407200Y-48559523D01*
X102407200Y-48559523D02*
X102359580Y-48607142D01*
X132109580Y-46142857D02*
X132157200Y-46190476D01*
X132157200Y-46190476D02*
X132204819Y-46333333D01*
X132204819Y-46333333D02*
X132204819Y-46428571D01*
X132204819Y-46428571D02*
X132157200Y-46571428D01*
X132157200Y-46571428D02*
X132061961Y-46666666D01*
X132061961Y-46666666D02*
X131966723Y-46714285D01*
X131966723Y-46714285D02*
X131776247Y-46761904D01*
X131776247Y-46761904D02*
X131633390Y-46761904D01*
X131633390Y-46761904D02*
X131442914Y-46714285D01*
X131442914Y-46714285D02*
X131347676Y-46666666D01*
X131347676Y-46666666D02*
X131252438Y-46571428D01*
X131252438Y-46571428D02*
X131204819Y-46428571D01*
X131204819Y-46428571D02*
X131204819Y-46333333D01*
X131204819Y-46333333D02*
X131252438Y-46190476D01*
X131252438Y-46190476D02*
X131300057Y-46142857D01*
X132204819Y-45190476D02*
X132204819Y-45761904D01*
X132204819Y-45476190D02*
X131204819Y-45476190D01*
X131204819Y-45476190D02*
X131347676Y-45571428D01*
X131347676Y-45571428D02*
X131442914Y-45666666D01*
X131442914Y-45666666D02*
X131490533Y-45761904D01*
X132204819Y-44238095D02*
X132204819Y-44809523D01*
X132204819Y-44523809D02*
X131204819Y-44523809D01*
X131204819Y-44523809D02*
X131347676Y-44619047D01*
X131347676Y-44619047D02*
X131442914Y-44714285D01*
X131442914Y-44714285D02*
X131490533Y-44809523D01*
X123238095Y-37704819D02*
X123238095Y-38514342D01*
X123238095Y-38514342D02*
X123285714Y-38609580D01*
X123285714Y-38609580D02*
X123333333Y-38657200D01*
X123333333Y-38657200D02*
X123428571Y-38704819D01*
X123428571Y-38704819D02*
X123619047Y-38704819D01*
X123619047Y-38704819D02*
X123714285Y-38657200D01*
X123714285Y-38657200D02*
X123761904Y-38609580D01*
X123761904Y-38609580D02*
X123809523Y-38514342D01*
X123809523Y-38514342D02*
X123809523Y-37704819D01*
X124238095Y-37800057D02*
X124285714Y-37752438D01*
X124285714Y-37752438D02*
X124380952Y-37704819D01*
X124380952Y-37704819D02*
X124619047Y-37704819D01*
X124619047Y-37704819D02*
X124714285Y-37752438D01*
X124714285Y-37752438D02*
X124761904Y-37800057D01*
X124761904Y-37800057D02*
X124809523Y-37895295D01*
X124809523Y-37895295D02*
X124809523Y-37990533D01*
X124809523Y-37990533D02*
X124761904Y-38133390D01*
X124761904Y-38133390D02*
X124190476Y-38704819D01*
X124190476Y-38704819D02*
X124809523Y-38704819D01*
X104488095Y-67704819D02*
X105059523Y-67704819D01*
X104773809Y-68704819D02*
X104773809Y-67704819D01*
X105535714Y-68133390D02*
X105440476Y-68085771D01*
X105440476Y-68085771D02*
X105392857Y-68038152D01*
X105392857Y-68038152D02*
X105345238Y-67942914D01*
X105345238Y-67942914D02*
X105345238Y-67895295D01*
X105345238Y-67895295D02*
X105392857Y-67800057D01*
X105392857Y-67800057D02*
X105440476Y-67752438D01*
X105440476Y-67752438D02*
X105535714Y-67704819D01*
X105535714Y-67704819D02*
X105726190Y-67704819D01*
X105726190Y-67704819D02*
X105821428Y-67752438D01*
X105821428Y-67752438D02*
X105869047Y-67800057D01*
X105869047Y-67800057D02*
X105916666Y-67895295D01*
X105916666Y-67895295D02*
X105916666Y-67942914D01*
X105916666Y-67942914D02*
X105869047Y-68038152D01*
X105869047Y-68038152D02*
X105821428Y-68085771D01*
X105821428Y-68085771D02*
X105726190Y-68133390D01*
X105726190Y-68133390D02*
X105535714Y-68133390D01*
X105535714Y-68133390D02*
X105440476Y-68181009D01*
X105440476Y-68181009D02*
X105392857Y-68228628D01*
X105392857Y-68228628D02*
X105345238Y-68323866D01*
X105345238Y-68323866D02*
X105345238Y-68514342D01*
X105345238Y-68514342D02*
X105392857Y-68609580D01*
X105392857Y-68609580D02*
X105440476Y-68657200D01*
X105440476Y-68657200D02*
X105535714Y-68704819D01*
X105535714Y-68704819D02*
X105726190Y-68704819D01*
X105726190Y-68704819D02*
X105821428Y-68657200D01*
X105821428Y-68657200D02*
X105869047Y-68609580D01*
X105869047Y-68609580D02*
X105916666Y-68514342D01*
X105916666Y-68514342D02*
X105916666Y-68323866D01*
X105916666Y-68323866D02*
X105869047Y-68228628D01*
X105869047Y-68228628D02*
X105821428Y-68181009D01*
X105821428Y-68181009D02*
X105726190Y-68133390D01*
X86661905Y-30454819D02*
X86661905Y-29454819D01*
X86661905Y-29454819D02*
X86900000Y-29454819D01*
X86900000Y-29454819D02*
X87042857Y-29502438D01*
X87042857Y-29502438D02*
X87138095Y-29597676D01*
X87138095Y-29597676D02*
X87185714Y-29692914D01*
X87185714Y-29692914D02*
X87233333Y-29883390D01*
X87233333Y-29883390D02*
X87233333Y-30026247D01*
X87233333Y-30026247D02*
X87185714Y-30216723D01*
X87185714Y-30216723D02*
X87138095Y-30311961D01*
X87138095Y-30311961D02*
X87042857Y-30407200D01*
X87042857Y-30407200D02*
X86900000Y-30454819D01*
X86900000Y-30454819D02*
X86661905Y-30454819D01*
X88185714Y-30454819D02*
X87614286Y-30454819D01*
X87900000Y-30454819D02*
X87900000Y-29454819D01*
X87900000Y-29454819D02*
X87804762Y-29597676D01*
X87804762Y-29597676D02*
X87709524Y-29692914D01*
X87709524Y-29692914D02*
X87614286Y-29740533D01*
X97833333Y-34204819D02*
X97500000Y-33728628D01*
X97261905Y-34204819D02*
X97261905Y-33204819D01*
X97261905Y-33204819D02*
X97642857Y-33204819D01*
X97642857Y-33204819D02*
X97738095Y-33252438D01*
X97738095Y-33252438D02*
X97785714Y-33300057D01*
X97785714Y-33300057D02*
X97833333Y-33395295D01*
X97833333Y-33395295D02*
X97833333Y-33538152D01*
X97833333Y-33538152D02*
X97785714Y-33633390D01*
X97785714Y-33633390D02*
X97738095Y-33681009D01*
X97738095Y-33681009D02*
X97642857Y-33728628D01*
X97642857Y-33728628D02*
X97261905Y-33728628D01*
X98309524Y-34204819D02*
X98500000Y-34204819D01*
X98500000Y-34204819D02*
X98595238Y-34157200D01*
X98595238Y-34157200D02*
X98642857Y-34109580D01*
X98642857Y-34109580D02*
X98738095Y-33966723D01*
X98738095Y-33966723D02*
X98785714Y-33776247D01*
X98785714Y-33776247D02*
X98785714Y-33395295D01*
X98785714Y-33395295D02*
X98738095Y-33300057D01*
X98738095Y-33300057D02*
X98690476Y-33252438D01*
X98690476Y-33252438D02*
X98595238Y-33204819D01*
X98595238Y-33204819D02*
X98404762Y-33204819D01*
X98404762Y-33204819D02*
X98309524Y-33252438D01*
X98309524Y-33252438D02*
X98261905Y-33300057D01*
X98261905Y-33300057D02*
X98214286Y-33395295D01*
X98214286Y-33395295D02*
X98214286Y-33633390D01*
X98214286Y-33633390D02*
X98261905Y-33728628D01*
X98261905Y-33728628D02*
X98309524Y-33776247D01*
X98309524Y-33776247D02*
X98404762Y-33823866D01*
X98404762Y-33823866D02*
X98595238Y-33823866D01*
X98595238Y-33823866D02*
X98690476Y-33776247D01*
X98690476Y-33776247D02*
X98738095Y-33728628D01*
X98738095Y-33728628D02*
X98785714Y-33633390D01*
X94738095Y-78204819D02*
X94738095Y-79014342D01*
X94738095Y-79014342D02*
X94785714Y-79109580D01*
X94785714Y-79109580D02*
X94833333Y-79157200D01*
X94833333Y-79157200D02*
X94928571Y-79204819D01*
X94928571Y-79204819D02*
X95119047Y-79204819D01*
X95119047Y-79204819D02*
X95214285Y-79157200D01*
X95214285Y-79157200D02*
X95261904Y-79109580D01*
X95261904Y-79109580D02*
X95309523Y-79014342D01*
X95309523Y-79014342D02*
X95309523Y-78204819D01*
X96261904Y-78204819D02*
X95785714Y-78204819D01*
X95785714Y-78204819D02*
X95738095Y-78681009D01*
X95738095Y-78681009D02*
X95785714Y-78633390D01*
X95785714Y-78633390D02*
X95880952Y-78585771D01*
X95880952Y-78585771D02*
X96119047Y-78585771D01*
X96119047Y-78585771D02*
X96214285Y-78633390D01*
X96214285Y-78633390D02*
X96261904Y-78681009D01*
X96261904Y-78681009D02*
X96309523Y-78776247D01*
X96309523Y-78776247D02*
X96309523Y-79014342D01*
X96309523Y-79014342D02*
X96261904Y-79109580D01*
X96261904Y-79109580D02*
X96214285Y-79157200D01*
X96214285Y-79157200D02*
X96119047Y-79204819D01*
X96119047Y-79204819D02*
X95880952Y-79204819D01*
X95880952Y-79204819D02*
X95785714Y-79157200D01*
X95785714Y-79157200D02*
X95738095Y-79109580D01*
X144011905Y-45454819D02*
X144011905Y-44454819D01*
X144011905Y-44454819D02*
X144250000Y-44454819D01*
X144250000Y-44454819D02*
X144392857Y-44502438D01*
X144392857Y-44502438D02*
X144488095Y-44597676D01*
X144488095Y-44597676D02*
X144535714Y-44692914D01*
X144535714Y-44692914D02*
X144583333Y-44883390D01*
X144583333Y-44883390D02*
X144583333Y-45026247D01*
X144583333Y-45026247D02*
X144535714Y-45216723D01*
X144535714Y-45216723D02*
X144488095Y-45311961D01*
X144488095Y-45311961D02*
X144392857Y-45407200D01*
X144392857Y-45407200D02*
X144250000Y-45454819D01*
X144250000Y-45454819D02*
X144011905Y-45454819D01*
X145440476Y-44454819D02*
X145250000Y-44454819D01*
X145250000Y-44454819D02*
X145154762Y-44502438D01*
X145154762Y-44502438D02*
X145107143Y-44550057D01*
X145107143Y-44550057D02*
X145011905Y-44692914D01*
X145011905Y-44692914D02*
X144964286Y-44883390D01*
X144964286Y-44883390D02*
X144964286Y-45264342D01*
X144964286Y-45264342D02*
X145011905Y-45359580D01*
X145011905Y-45359580D02*
X145059524Y-45407200D01*
X145059524Y-45407200D02*
X145154762Y-45454819D01*
X145154762Y-45454819D02*
X145345238Y-45454819D01*
X145345238Y-45454819D02*
X145440476Y-45407200D01*
X145440476Y-45407200D02*
X145488095Y-45359580D01*
X145488095Y-45359580D02*
X145535714Y-45264342D01*
X145535714Y-45264342D02*
X145535714Y-45026247D01*
X145535714Y-45026247D02*
X145488095Y-44931009D01*
X145488095Y-44931009D02*
X145440476Y-44883390D01*
X145440476Y-44883390D02*
X145345238Y-44835771D01*
X145345238Y-44835771D02*
X145154762Y-44835771D01*
X145154762Y-44835771D02*
X145059524Y-44883390D01*
X145059524Y-44883390D02*
X145011905Y-44931009D01*
X145011905Y-44931009D02*
X144964286Y-45026247D01*
X107859580Y-63142857D02*
X107907200Y-63190476D01*
X107907200Y-63190476D02*
X107954819Y-63333333D01*
X107954819Y-63333333D02*
X107954819Y-63428571D01*
X107954819Y-63428571D02*
X107907200Y-63571428D01*
X107907200Y-63571428D02*
X107811961Y-63666666D01*
X107811961Y-63666666D02*
X107716723Y-63714285D01*
X107716723Y-63714285D02*
X107526247Y-63761904D01*
X107526247Y-63761904D02*
X107383390Y-63761904D01*
X107383390Y-63761904D02*
X107192914Y-63714285D01*
X107192914Y-63714285D02*
X107097676Y-63666666D01*
X107097676Y-63666666D02*
X107002438Y-63571428D01*
X107002438Y-63571428D02*
X106954819Y-63428571D01*
X106954819Y-63428571D02*
X106954819Y-63333333D01*
X106954819Y-63333333D02*
X107002438Y-63190476D01*
X107002438Y-63190476D02*
X107050057Y-63142857D01*
X107050057Y-62761904D02*
X107002438Y-62714285D01*
X107002438Y-62714285D02*
X106954819Y-62619047D01*
X106954819Y-62619047D02*
X106954819Y-62380952D01*
X106954819Y-62380952D02*
X107002438Y-62285714D01*
X107002438Y-62285714D02*
X107050057Y-62238095D01*
X107050057Y-62238095D02*
X107145295Y-62190476D01*
X107145295Y-62190476D02*
X107240533Y-62190476D01*
X107240533Y-62190476D02*
X107383390Y-62238095D01*
X107383390Y-62238095D02*
X107954819Y-62809523D01*
X107954819Y-62809523D02*
X107954819Y-62190476D01*
X106954819Y-61857142D02*
X106954819Y-61238095D01*
X106954819Y-61238095D02*
X107335771Y-61571428D01*
X107335771Y-61571428D02*
X107335771Y-61428571D01*
X107335771Y-61428571D02*
X107383390Y-61333333D01*
X107383390Y-61333333D02*
X107431009Y-61285714D01*
X107431009Y-61285714D02*
X107526247Y-61238095D01*
X107526247Y-61238095D02*
X107764342Y-61238095D01*
X107764342Y-61238095D02*
X107859580Y-61285714D01*
X107859580Y-61285714D02*
X107907200Y-61333333D01*
X107907200Y-61333333D02*
X107954819Y-61428571D01*
X107954819Y-61428571D02*
X107954819Y-61714285D01*
X107954819Y-61714285D02*
X107907200Y-61809523D01*
X107907200Y-61809523D02*
X107859580Y-61857142D01*
X97583333Y-26954819D02*
X97250000Y-26478628D01*
X97011905Y-26954819D02*
X97011905Y-25954819D01*
X97011905Y-25954819D02*
X97392857Y-25954819D01*
X97392857Y-25954819D02*
X97488095Y-26002438D01*
X97488095Y-26002438D02*
X97535714Y-26050057D01*
X97535714Y-26050057D02*
X97583333Y-26145295D01*
X97583333Y-26145295D02*
X97583333Y-26288152D01*
X97583333Y-26288152D02*
X97535714Y-26383390D01*
X97535714Y-26383390D02*
X97488095Y-26431009D01*
X97488095Y-26431009D02*
X97392857Y-26478628D01*
X97392857Y-26478628D02*
X97011905Y-26478628D01*
X98535714Y-26954819D02*
X97964286Y-26954819D01*
X98250000Y-26954819D02*
X98250000Y-25954819D01*
X98250000Y-25954819D02*
X98154762Y-26097676D01*
X98154762Y-26097676D02*
X98059524Y-26192914D01*
X98059524Y-26192914D02*
X97964286Y-26240533D01*
X112704819Y-62261904D02*
X112704819Y-61690476D01*
X113704819Y-61976190D02*
X112704819Y-61976190D01*
X112704819Y-60928571D02*
X112704819Y-61119047D01*
X112704819Y-61119047D02*
X112752438Y-61214285D01*
X112752438Y-61214285D02*
X112800057Y-61261904D01*
X112800057Y-61261904D02*
X112942914Y-61357142D01*
X112942914Y-61357142D02*
X113133390Y-61404761D01*
X113133390Y-61404761D02*
X113514342Y-61404761D01*
X113514342Y-61404761D02*
X113609580Y-61357142D01*
X113609580Y-61357142D02*
X113657200Y-61309523D01*
X113657200Y-61309523D02*
X113704819Y-61214285D01*
X113704819Y-61214285D02*
X113704819Y-61023809D01*
X113704819Y-61023809D02*
X113657200Y-60928571D01*
X113657200Y-60928571D02*
X113609580Y-60880952D01*
X113609580Y-60880952D02*
X113514342Y-60833333D01*
X113514342Y-60833333D02*
X113276247Y-60833333D01*
X113276247Y-60833333D02*
X113181009Y-60880952D01*
X113181009Y-60880952D02*
X113133390Y-60928571D01*
X113133390Y-60928571D02*
X113085771Y-61023809D01*
X113085771Y-61023809D02*
X113085771Y-61214285D01*
X113085771Y-61214285D02*
X113133390Y-61309523D01*
X113133390Y-61309523D02*
X113181009Y-61357142D01*
X113181009Y-61357142D02*
X113276247Y-61404761D01*
X138204819Y-46901785D02*
X137204819Y-46901785D01*
X137204819Y-46901785D02*
X137204819Y-46663690D01*
X137204819Y-46663690D02*
X137252438Y-46520833D01*
X137252438Y-46520833D02*
X137347676Y-46425595D01*
X137347676Y-46425595D02*
X137442914Y-46377976D01*
X137442914Y-46377976D02*
X137633390Y-46330357D01*
X137633390Y-46330357D02*
X137776247Y-46330357D01*
X137776247Y-46330357D02*
X137966723Y-46377976D01*
X137966723Y-46377976D02*
X138061961Y-46425595D01*
X138061961Y-46425595D02*
X138157200Y-46520833D01*
X138157200Y-46520833D02*
X138204819Y-46663690D01*
X138204819Y-46663690D02*
X138204819Y-46901785D01*
X138204819Y-45377976D02*
X138204819Y-45949404D01*
X138204819Y-45663690D02*
X137204819Y-45663690D01*
X137204819Y-45663690D02*
X137347676Y-45758928D01*
X137347676Y-45758928D02*
X137442914Y-45854166D01*
X137442914Y-45854166D02*
X137490533Y-45949404D01*
X137204819Y-44758928D02*
X137204819Y-44663690D01*
X137204819Y-44663690D02*
X137252438Y-44568452D01*
X137252438Y-44568452D02*
X137300057Y-44520833D01*
X137300057Y-44520833D02*
X137395295Y-44473214D01*
X137395295Y-44473214D02*
X137585771Y-44425595D01*
X137585771Y-44425595D02*
X137823866Y-44425595D01*
X137823866Y-44425595D02*
X138014342Y-44473214D01*
X138014342Y-44473214D02*
X138109580Y-44520833D01*
X138109580Y-44520833D02*
X138157200Y-44568452D01*
X138157200Y-44568452D02*
X138204819Y-44663690D01*
X138204819Y-44663690D02*
X138204819Y-44758928D01*
X138204819Y-44758928D02*
X138157200Y-44854166D01*
X138157200Y-44854166D02*
X138109580Y-44901785D01*
X138109580Y-44901785D02*
X138014342Y-44949404D01*
X138014342Y-44949404D02*
X137823866Y-44997023D01*
X137823866Y-44997023D02*
X137585771Y-44997023D01*
X137585771Y-44997023D02*
X137395295Y-44949404D01*
X137395295Y-44949404D02*
X137300057Y-44901785D01*
X137300057Y-44901785D02*
X137252438Y-44854166D01*
X137252438Y-44854166D02*
X137204819Y-44758928D01*
X112704819Y-58011904D02*
X112704819Y-57440476D01*
X113704819Y-57726190D02*
X112704819Y-57726190D01*
X112704819Y-56630952D02*
X112704819Y-57107142D01*
X112704819Y-57107142D02*
X113181009Y-57154761D01*
X113181009Y-57154761D02*
X113133390Y-57107142D01*
X113133390Y-57107142D02*
X113085771Y-57011904D01*
X113085771Y-57011904D02*
X113085771Y-56773809D01*
X113085771Y-56773809D02*
X113133390Y-56678571D01*
X113133390Y-56678571D02*
X113181009Y-56630952D01*
X113181009Y-56630952D02*
X113276247Y-56583333D01*
X113276247Y-56583333D02*
X113514342Y-56583333D01*
X113514342Y-56583333D02*
X113609580Y-56630952D01*
X113609580Y-56630952D02*
X113657200Y-56678571D01*
X113657200Y-56678571D02*
X113704819Y-56773809D01*
X113704819Y-56773809D02*
X113704819Y-57011904D01*
X113704819Y-57011904D02*
X113657200Y-57107142D01*
X113657200Y-57107142D02*
X113609580Y-57154761D01*
X67666666Y-22704819D02*
X67666666Y-23419104D01*
X67666666Y-23419104D02*
X67619047Y-23561961D01*
X67619047Y-23561961D02*
X67523809Y-23657200D01*
X67523809Y-23657200D02*
X67380952Y-23704819D01*
X67380952Y-23704819D02*
X67285714Y-23704819D01*
X68047619Y-22704819D02*
X68666666Y-22704819D01*
X68666666Y-22704819D02*
X68333333Y-23085771D01*
X68333333Y-23085771D02*
X68476190Y-23085771D01*
X68476190Y-23085771D02*
X68571428Y-23133390D01*
X68571428Y-23133390D02*
X68619047Y-23181009D01*
X68619047Y-23181009D02*
X68666666Y-23276247D01*
X68666666Y-23276247D02*
X68666666Y-23514342D01*
X68666666Y-23514342D02*
X68619047Y-23609580D01*
X68619047Y-23609580D02*
X68571428Y-23657200D01*
X68571428Y-23657200D02*
X68476190Y-23704819D01*
X68476190Y-23704819D02*
X68190476Y-23704819D01*
X68190476Y-23704819D02*
X68095238Y-23657200D01*
X68095238Y-23657200D02*
X68047619Y-23609580D01*
X110109580Y-57892857D02*
X110157200Y-57940476D01*
X110157200Y-57940476D02*
X110204819Y-58083333D01*
X110204819Y-58083333D02*
X110204819Y-58178571D01*
X110204819Y-58178571D02*
X110157200Y-58321428D01*
X110157200Y-58321428D02*
X110061961Y-58416666D01*
X110061961Y-58416666D02*
X109966723Y-58464285D01*
X109966723Y-58464285D02*
X109776247Y-58511904D01*
X109776247Y-58511904D02*
X109633390Y-58511904D01*
X109633390Y-58511904D02*
X109442914Y-58464285D01*
X109442914Y-58464285D02*
X109347676Y-58416666D01*
X109347676Y-58416666D02*
X109252438Y-58321428D01*
X109252438Y-58321428D02*
X109204819Y-58178571D01*
X109204819Y-58178571D02*
X109204819Y-58083333D01*
X109204819Y-58083333D02*
X109252438Y-57940476D01*
X109252438Y-57940476D02*
X109300057Y-57892857D01*
X110204819Y-56940476D02*
X110204819Y-57511904D01*
X110204819Y-57226190D02*
X109204819Y-57226190D01*
X109204819Y-57226190D02*
X109347676Y-57321428D01*
X109347676Y-57321428D02*
X109442914Y-57416666D01*
X109442914Y-57416666D02*
X109490533Y-57511904D01*
X109204819Y-56607142D02*
X109204819Y-55940476D01*
X109204819Y-55940476D02*
X110204819Y-56369047D01*
X102359580Y-53417857D02*
X102407200Y-53465476D01*
X102407200Y-53465476D02*
X102454819Y-53608333D01*
X102454819Y-53608333D02*
X102454819Y-53703571D01*
X102454819Y-53703571D02*
X102407200Y-53846428D01*
X102407200Y-53846428D02*
X102311961Y-53941666D01*
X102311961Y-53941666D02*
X102216723Y-53989285D01*
X102216723Y-53989285D02*
X102026247Y-54036904D01*
X102026247Y-54036904D02*
X101883390Y-54036904D01*
X101883390Y-54036904D02*
X101692914Y-53989285D01*
X101692914Y-53989285D02*
X101597676Y-53941666D01*
X101597676Y-53941666D02*
X101502438Y-53846428D01*
X101502438Y-53846428D02*
X101454819Y-53703571D01*
X101454819Y-53703571D02*
X101454819Y-53608333D01*
X101454819Y-53608333D02*
X101502438Y-53465476D01*
X101502438Y-53465476D02*
X101550057Y-53417857D01*
X102454819Y-52465476D02*
X102454819Y-53036904D01*
X102454819Y-52751190D02*
X101454819Y-52751190D01*
X101454819Y-52751190D02*
X101597676Y-52846428D01*
X101597676Y-52846428D02*
X101692914Y-52941666D01*
X101692914Y-52941666D02*
X101740533Y-53036904D01*
X101788152Y-51608333D02*
X102454819Y-51608333D01*
X101407200Y-51846428D02*
X102121485Y-52084523D01*
X102121485Y-52084523D02*
X102121485Y-51465476D01*
X105332142Y-73359580D02*
X105284523Y-73407200D01*
X105284523Y-73407200D02*
X105141666Y-73454819D01*
X105141666Y-73454819D02*
X105046428Y-73454819D01*
X105046428Y-73454819D02*
X104903571Y-73407200D01*
X104903571Y-73407200D02*
X104808333Y-73311961D01*
X104808333Y-73311961D02*
X104760714Y-73216723D01*
X104760714Y-73216723D02*
X104713095Y-73026247D01*
X104713095Y-73026247D02*
X104713095Y-72883390D01*
X104713095Y-72883390D02*
X104760714Y-72692914D01*
X104760714Y-72692914D02*
X104808333Y-72597676D01*
X104808333Y-72597676D02*
X104903571Y-72502438D01*
X104903571Y-72502438D02*
X105046428Y-72454819D01*
X105046428Y-72454819D02*
X105141666Y-72454819D01*
X105141666Y-72454819D02*
X105284523Y-72502438D01*
X105284523Y-72502438D02*
X105332142Y-72550057D01*
X105713095Y-72550057D02*
X105760714Y-72502438D01*
X105760714Y-72502438D02*
X105855952Y-72454819D01*
X105855952Y-72454819D02*
X106094047Y-72454819D01*
X106094047Y-72454819D02*
X106189285Y-72502438D01*
X106189285Y-72502438D02*
X106236904Y-72550057D01*
X106236904Y-72550057D02*
X106284523Y-72645295D01*
X106284523Y-72645295D02*
X106284523Y-72740533D01*
X106284523Y-72740533D02*
X106236904Y-72883390D01*
X106236904Y-72883390D02*
X105665476Y-73454819D01*
X105665476Y-73454819D02*
X106284523Y-73454819D01*
X107141666Y-72788152D02*
X107141666Y-73454819D01*
X106903571Y-72407200D02*
X106665476Y-73121485D01*
X106665476Y-73121485D02*
X107284523Y-73121485D01*
X130777255Y-57228628D02*
X130777255Y-57704819D01*
X130443922Y-56704819D02*
X130777255Y-57228628D01*
X130777255Y-57228628D02*
X131110588Y-56704819D01*
X131967731Y-57704819D02*
X131396303Y-57704819D01*
X131682017Y-57704819D02*
X131682017Y-56704819D01*
X131682017Y-56704819D02*
X131586779Y-56847676D01*
X131586779Y-56847676D02*
X131491541Y-56942914D01*
X131491541Y-56942914D02*
X131396303Y-56990533D01*
X127282142Y-41454819D02*
X126948809Y-40978628D01*
X126710714Y-41454819D02*
X126710714Y-40454819D01*
X126710714Y-40454819D02*
X127091666Y-40454819D01*
X127091666Y-40454819D02*
X127186904Y-40502438D01*
X127186904Y-40502438D02*
X127234523Y-40550057D01*
X127234523Y-40550057D02*
X127282142Y-40645295D01*
X127282142Y-40645295D02*
X127282142Y-40788152D01*
X127282142Y-40788152D02*
X127234523Y-40883390D01*
X127234523Y-40883390D02*
X127186904Y-40931009D01*
X127186904Y-40931009D02*
X127091666Y-40978628D01*
X127091666Y-40978628D02*
X126710714Y-40978628D01*
X128234523Y-41454819D02*
X127663095Y-41454819D01*
X127948809Y-41454819D02*
X127948809Y-40454819D01*
X127948809Y-40454819D02*
X127853571Y-40597676D01*
X127853571Y-40597676D02*
X127758333Y-40692914D01*
X127758333Y-40692914D02*
X127663095Y-40740533D01*
X129186904Y-41454819D02*
X128615476Y-41454819D01*
X128901190Y-41454819D02*
X128901190Y-40454819D01*
X128901190Y-40454819D02*
X128805952Y-40597676D01*
X128805952Y-40597676D02*
X128710714Y-40692914D01*
X128710714Y-40692914D02*
X128615476Y-40740533D01*
X123733333Y-26954819D02*
X123400000Y-26478628D01*
X123161905Y-26954819D02*
X123161905Y-25954819D01*
X123161905Y-25954819D02*
X123542857Y-25954819D01*
X123542857Y-25954819D02*
X123638095Y-26002438D01*
X123638095Y-26002438D02*
X123685714Y-26050057D01*
X123685714Y-26050057D02*
X123733333Y-26145295D01*
X123733333Y-26145295D02*
X123733333Y-26288152D01*
X123733333Y-26288152D02*
X123685714Y-26383390D01*
X123685714Y-26383390D02*
X123638095Y-26431009D01*
X123638095Y-26431009D02*
X123542857Y-26478628D01*
X123542857Y-26478628D02*
X123161905Y-26478628D01*
X124590476Y-26288152D02*
X124590476Y-26954819D01*
X124352381Y-25907200D02*
X124114286Y-26621485D01*
X124114286Y-26621485D02*
X124733333Y-26621485D01*
X127357142Y-61109580D02*
X127309523Y-61157200D01*
X127309523Y-61157200D02*
X127166666Y-61204819D01*
X127166666Y-61204819D02*
X127071428Y-61204819D01*
X127071428Y-61204819D02*
X126928571Y-61157200D01*
X126928571Y-61157200D02*
X126833333Y-61061961D01*
X126833333Y-61061961D02*
X126785714Y-60966723D01*
X126785714Y-60966723D02*
X126738095Y-60776247D01*
X126738095Y-60776247D02*
X126738095Y-60633390D01*
X126738095Y-60633390D02*
X126785714Y-60442914D01*
X126785714Y-60442914D02*
X126833333Y-60347676D01*
X126833333Y-60347676D02*
X126928571Y-60252438D01*
X126928571Y-60252438D02*
X127071428Y-60204819D01*
X127071428Y-60204819D02*
X127166666Y-60204819D01*
X127166666Y-60204819D02*
X127309523Y-60252438D01*
X127309523Y-60252438D02*
X127357142Y-60300057D01*
X128309523Y-61204819D02*
X127738095Y-61204819D01*
X128023809Y-61204819D02*
X128023809Y-60204819D01*
X128023809Y-60204819D02*
X127928571Y-60347676D01*
X127928571Y-60347676D02*
X127833333Y-60442914D01*
X127833333Y-60442914D02*
X127738095Y-60490533D01*
X128785714Y-61204819D02*
X128976190Y-61204819D01*
X128976190Y-61204819D02*
X129071428Y-61157200D01*
X129071428Y-61157200D02*
X129119047Y-61109580D01*
X129119047Y-61109580D02*
X129214285Y-60966723D01*
X129214285Y-60966723D02*
X129261904Y-60776247D01*
X129261904Y-60776247D02*
X129261904Y-60395295D01*
X129261904Y-60395295D02*
X129214285Y-60300057D01*
X129214285Y-60300057D02*
X129166666Y-60252438D01*
X129166666Y-60252438D02*
X129071428Y-60204819D01*
X129071428Y-60204819D02*
X128880952Y-60204819D01*
X128880952Y-60204819D02*
X128785714Y-60252438D01*
X128785714Y-60252438D02*
X128738095Y-60300057D01*
X128738095Y-60300057D02*
X128690476Y-60395295D01*
X128690476Y-60395295D02*
X128690476Y-60633390D01*
X128690476Y-60633390D02*
X128738095Y-60728628D01*
X128738095Y-60728628D02*
X128785714Y-60776247D01*
X128785714Y-60776247D02*
X128880952Y-60823866D01*
X128880952Y-60823866D02*
X129071428Y-60823866D01*
X129071428Y-60823866D02*
X129166666Y-60776247D01*
X129166666Y-60776247D02*
X129214285Y-60728628D01*
X129214285Y-60728628D02*
X129261904Y-60633390D01*
X125109580Y-49642857D02*
X125157200Y-49690476D01*
X125157200Y-49690476D02*
X125204819Y-49833333D01*
X125204819Y-49833333D02*
X125204819Y-49928571D01*
X125204819Y-49928571D02*
X125157200Y-50071428D01*
X125157200Y-50071428D02*
X125061961Y-50166666D01*
X125061961Y-50166666D02*
X124966723Y-50214285D01*
X124966723Y-50214285D02*
X124776247Y-50261904D01*
X124776247Y-50261904D02*
X124633390Y-50261904D01*
X124633390Y-50261904D02*
X124442914Y-50214285D01*
X124442914Y-50214285D02*
X124347676Y-50166666D01*
X124347676Y-50166666D02*
X124252438Y-50071428D01*
X124252438Y-50071428D02*
X124204819Y-49928571D01*
X124204819Y-49928571D02*
X124204819Y-49833333D01*
X124204819Y-49833333D02*
X124252438Y-49690476D01*
X124252438Y-49690476D02*
X124300057Y-49642857D01*
X125204819Y-48690476D02*
X125204819Y-49261904D01*
X125204819Y-48976190D02*
X124204819Y-48976190D01*
X124204819Y-48976190D02*
X124347676Y-49071428D01*
X124347676Y-49071428D02*
X124442914Y-49166666D01*
X124442914Y-49166666D02*
X124490533Y-49261904D01*
X124204819Y-48357142D02*
X124204819Y-47738095D01*
X124204819Y-47738095D02*
X124585771Y-48071428D01*
X124585771Y-48071428D02*
X124585771Y-47928571D01*
X124585771Y-47928571D02*
X124633390Y-47833333D01*
X124633390Y-47833333D02*
X124681009Y-47785714D01*
X124681009Y-47785714D02*
X124776247Y-47738095D01*
X124776247Y-47738095D02*
X125014342Y-47738095D01*
X125014342Y-47738095D02*
X125109580Y-47785714D01*
X125109580Y-47785714D02*
X125157200Y-47833333D01*
X125157200Y-47833333D02*
X125204819Y-47928571D01*
X125204819Y-47928571D02*
X125204819Y-48214285D01*
X125204819Y-48214285D02*
X125157200Y-48309523D01*
X125157200Y-48309523D02*
X125109580Y-48357142D01*
X113238095Y-51704819D02*
X113238095Y-52514342D01*
X113238095Y-52514342D02*
X113285714Y-52609580D01*
X113285714Y-52609580D02*
X113333333Y-52657200D01*
X113333333Y-52657200D02*
X113428571Y-52704819D01*
X113428571Y-52704819D02*
X113619047Y-52704819D01*
X113619047Y-52704819D02*
X113714285Y-52657200D01*
X113714285Y-52657200D02*
X113761904Y-52609580D01*
X113761904Y-52609580D02*
X113809523Y-52514342D01*
X113809523Y-52514342D02*
X113809523Y-51704819D01*
X114190476Y-51704819D02*
X114809523Y-51704819D01*
X114809523Y-51704819D02*
X114476190Y-52085771D01*
X114476190Y-52085771D02*
X114619047Y-52085771D01*
X114619047Y-52085771D02*
X114714285Y-52133390D01*
X114714285Y-52133390D02*
X114761904Y-52181009D01*
X114761904Y-52181009D02*
X114809523Y-52276247D01*
X114809523Y-52276247D02*
X114809523Y-52514342D01*
X114809523Y-52514342D02*
X114761904Y-52609580D01*
X114761904Y-52609580D02*
X114714285Y-52657200D01*
X114714285Y-52657200D02*
X114619047Y-52704819D01*
X114619047Y-52704819D02*
X114333333Y-52704819D01*
X114333333Y-52704819D02*
X114238095Y-52657200D01*
X114238095Y-52657200D02*
X114190476Y-52609580D01*
X94682142Y-70954819D02*
X94348809Y-70478628D01*
X94110714Y-70954819D02*
X94110714Y-69954819D01*
X94110714Y-69954819D02*
X94491666Y-69954819D01*
X94491666Y-69954819D02*
X94586904Y-70002438D01*
X94586904Y-70002438D02*
X94634523Y-70050057D01*
X94634523Y-70050057D02*
X94682142Y-70145295D01*
X94682142Y-70145295D02*
X94682142Y-70288152D01*
X94682142Y-70288152D02*
X94634523Y-70383390D01*
X94634523Y-70383390D02*
X94586904Y-70431009D01*
X94586904Y-70431009D02*
X94491666Y-70478628D01*
X94491666Y-70478628D02*
X94110714Y-70478628D01*
X95634523Y-70954819D02*
X95063095Y-70954819D01*
X95348809Y-70954819D02*
X95348809Y-69954819D01*
X95348809Y-69954819D02*
X95253571Y-70097676D01*
X95253571Y-70097676D02*
X95158333Y-70192914D01*
X95158333Y-70192914D02*
X95063095Y-70240533D01*
X96539285Y-69954819D02*
X96063095Y-69954819D01*
X96063095Y-69954819D02*
X96015476Y-70431009D01*
X96015476Y-70431009D02*
X96063095Y-70383390D01*
X96063095Y-70383390D02*
X96158333Y-70335771D01*
X96158333Y-70335771D02*
X96396428Y-70335771D01*
X96396428Y-70335771D02*
X96491666Y-70383390D01*
X96491666Y-70383390D02*
X96539285Y-70431009D01*
X96539285Y-70431009D02*
X96586904Y-70526247D01*
X96586904Y-70526247D02*
X96586904Y-70764342D01*
X96586904Y-70764342D02*
X96539285Y-70859580D01*
X96539285Y-70859580D02*
X96491666Y-70907200D01*
X96491666Y-70907200D02*
X96396428Y-70954819D01*
X96396428Y-70954819D02*
X96158333Y-70954819D01*
X96158333Y-70954819D02*
X96063095Y-70907200D01*
X96063095Y-70907200D02*
X96015476Y-70859580D01*
X129431009Y-46333333D02*
X129431009Y-46666666D01*
X129954819Y-46666666D02*
X128954819Y-46666666D01*
X128954819Y-46666666D02*
X128954819Y-46190476D01*
X129431009Y-45476190D02*
X129478628Y-45333333D01*
X129478628Y-45333333D02*
X129526247Y-45285714D01*
X129526247Y-45285714D02*
X129621485Y-45238095D01*
X129621485Y-45238095D02*
X129764342Y-45238095D01*
X129764342Y-45238095D02*
X129859580Y-45285714D01*
X129859580Y-45285714D02*
X129907200Y-45333333D01*
X129907200Y-45333333D02*
X129954819Y-45428571D01*
X129954819Y-45428571D02*
X129954819Y-45809523D01*
X129954819Y-45809523D02*
X128954819Y-45809523D01*
X128954819Y-45809523D02*
X128954819Y-45476190D01*
X128954819Y-45476190D02*
X129002438Y-45380952D01*
X129002438Y-45380952D02*
X129050057Y-45333333D01*
X129050057Y-45333333D02*
X129145295Y-45285714D01*
X129145295Y-45285714D02*
X129240533Y-45285714D01*
X129240533Y-45285714D02*
X129335771Y-45333333D01*
X129335771Y-45333333D02*
X129383390Y-45380952D01*
X129383390Y-45380952D02*
X129431009Y-45476190D01*
X129431009Y-45476190D02*
X129431009Y-45809523D01*
X129954819Y-44285714D02*
X129954819Y-44857142D01*
X129954819Y-44571428D02*
X128954819Y-44571428D01*
X128954819Y-44571428D02*
X129097676Y-44666666D01*
X129097676Y-44666666D02*
X129192914Y-44761904D01*
X129192914Y-44761904D02*
X129240533Y-44857142D01*
X95488095Y-67704819D02*
X96059523Y-67704819D01*
X95773809Y-68704819D02*
X95773809Y-67704819D01*
X96297619Y-67704819D02*
X96964285Y-67704819D01*
X96964285Y-67704819D02*
X96535714Y-68704819D01*
X106583333Y-38609580D02*
X106535714Y-38657200D01*
X106535714Y-38657200D02*
X106392857Y-38704819D01*
X106392857Y-38704819D02*
X106297619Y-38704819D01*
X106297619Y-38704819D02*
X106154762Y-38657200D01*
X106154762Y-38657200D02*
X106059524Y-38561961D01*
X106059524Y-38561961D02*
X106011905Y-38466723D01*
X106011905Y-38466723D02*
X105964286Y-38276247D01*
X105964286Y-38276247D02*
X105964286Y-38133390D01*
X105964286Y-38133390D02*
X106011905Y-37942914D01*
X106011905Y-37942914D02*
X106059524Y-37847676D01*
X106059524Y-37847676D02*
X106154762Y-37752438D01*
X106154762Y-37752438D02*
X106297619Y-37704819D01*
X106297619Y-37704819D02*
X106392857Y-37704819D01*
X106392857Y-37704819D02*
X106535714Y-37752438D01*
X106535714Y-37752438D02*
X106583333Y-37800057D01*
X106916667Y-37704819D02*
X107535714Y-37704819D01*
X107535714Y-37704819D02*
X107202381Y-38085771D01*
X107202381Y-38085771D02*
X107345238Y-38085771D01*
X107345238Y-38085771D02*
X107440476Y-38133390D01*
X107440476Y-38133390D02*
X107488095Y-38181009D01*
X107488095Y-38181009D02*
X107535714Y-38276247D01*
X107535714Y-38276247D02*
X107535714Y-38514342D01*
X107535714Y-38514342D02*
X107488095Y-38609580D01*
X107488095Y-38609580D02*
X107440476Y-38657200D01*
X107440476Y-38657200D02*
X107345238Y-38704819D01*
X107345238Y-38704819D02*
X107059524Y-38704819D01*
X107059524Y-38704819D02*
X106964286Y-38657200D01*
X106964286Y-38657200D02*
X106916667Y-38609580D01*
X127282142Y-43454819D02*
X126948809Y-42978628D01*
X126710714Y-43454819D02*
X126710714Y-42454819D01*
X126710714Y-42454819D02*
X127091666Y-42454819D01*
X127091666Y-42454819D02*
X127186904Y-42502438D01*
X127186904Y-42502438D02*
X127234523Y-42550057D01*
X127234523Y-42550057D02*
X127282142Y-42645295D01*
X127282142Y-42645295D02*
X127282142Y-42788152D01*
X127282142Y-42788152D02*
X127234523Y-42883390D01*
X127234523Y-42883390D02*
X127186904Y-42931009D01*
X127186904Y-42931009D02*
X127091666Y-42978628D01*
X127091666Y-42978628D02*
X126710714Y-42978628D01*
X128234523Y-43454819D02*
X127663095Y-43454819D01*
X127948809Y-43454819D02*
X127948809Y-42454819D01*
X127948809Y-42454819D02*
X127853571Y-42597676D01*
X127853571Y-42597676D02*
X127758333Y-42692914D01*
X127758333Y-42692914D02*
X127663095Y-42740533D01*
X128615476Y-42550057D02*
X128663095Y-42502438D01*
X128663095Y-42502438D02*
X128758333Y-42454819D01*
X128758333Y-42454819D02*
X128996428Y-42454819D01*
X128996428Y-42454819D02*
X129091666Y-42502438D01*
X129091666Y-42502438D02*
X129139285Y-42550057D01*
X129139285Y-42550057D02*
X129186904Y-42645295D01*
X129186904Y-42645295D02*
X129186904Y-42740533D01*
X129186904Y-42740533D02*
X129139285Y-42883390D01*
X129139285Y-42883390D02*
X128567857Y-43454819D01*
X128567857Y-43454819D02*
X129186904Y-43454819D01*
X126583333Y-26859580D02*
X126535714Y-26907200D01*
X126535714Y-26907200D02*
X126392857Y-26954819D01*
X126392857Y-26954819D02*
X126297619Y-26954819D01*
X126297619Y-26954819D02*
X126154762Y-26907200D01*
X126154762Y-26907200D02*
X126059524Y-26811961D01*
X126059524Y-26811961D02*
X126011905Y-26716723D01*
X126011905Y-26716723D02*
X125964286Y-26526247D01*
X125964286Y-26526247D02*
X125964286Y-26383390D01*
X125964286Y-26383390D02*
X126011905Y-26192914D01*
X126011905Y-26192914D02*
X126059524Y-26097676D01*
X126059524Y-26097676D02*
X126154762Y-26002438D01*
X126154762Y-26002438D02*
X126297619Y-25954819D01*
X126297619Y-25954819D02*
X126392857Y-25954819D01*
X126392857Y-25954819D02*
X126535714Y-26002438D01*
X126535714Y-26002438D02*
X126583333Y-26050057D01*
X126964286Y-26050057D02*
X127011905Y-26002438D01*
X127011905Y-26002438D02*
X127107143Y-25954819D01*
X127107143Y-25954819D02*
X127345238Y-25954819D01*
X127345238Y-25954819D02*
X127440476Y-26002438D01*
X127440476Y-26002438D02*
X127488095Y-26050057D01*
X127488095Y-26050057D02*
X127535714Y-26145295D01*
X127535714Y-26145295D02*
X127535714Y-26240533D01*
X127535714Y-26240533D02*
X127488095Y-26383390D01*
X127488095Y-26383390D02*
X126916667Y-26954819D01*
X126916667Y-26954819D02*
X127535714Y-26954819D01*
X109454819Y-49892857D02*
X108978628Y-50226190D01*
X109454819Y-50464285D02*
X108454819Y-50464285D01*
X108454819Y-50464285D02*
X108454819Y-50083333D01*
X108454819Y-50083333D02*
X108502438Y-49988095D01*
X108502438Y-49988095D02*
X108550057Y-49940476D01*
X108550057Y-49940476D02*
X108645295Y-49892857D01*
X108645295Y-49892857D02*
X108788152Y-49892857D01*
X108788152Y-49892857D02*
X108883390Y-49940476D01*
X108883390Y-49940476D02*
X108931009Y-49988095D01*
X108931009Y-49988095D02*
X108978628Y-50083333D01*
X108978628Y-50083333D02*
X108978628Y-50464285D01*
X109454819Y-48940476D02*
X109454819Y-49511904D01*
X109454819Y-49226190D02*
X108454819Y-49226190D01*
X108454819Y-49226190D02*
X108597676Y-49321428D01*
X108597676Y-49321428D02*
X108692914Y-49416666D01*
X108692914Y-49416666D02*
X108740533Y-49511904D01*
X108788152Y-48083333D02*
X109454819Y-48083333D01*
X108407200Y-48321428D02*
X109121485Y-48559523D01*
X109121485Y-48559523D02*
X109121485Y-47940476D01*
X131158207Y-53109580D02*
X131110588Y-53157200D01*
X131110588Y-53157200D02*
X130967731Y-53204819D01*
X130967731Y-53204819D02*
X130872493Y-53204819D01*
X130872493Y-53204819D02*
X130729636Y-53157200D01*
X130729636Y-53157200D02*
X130634398Y-53061961D01*
X130634398Y-53061961D02*
X130586779Y-52966723D01*
X130586779Y-52966723D02*
X130539160Y-52776247D01*
X130539160Y-52776247D02*
X130539160Y-52633390D01*
X130539160Y-52633390D02*
X130586779Y-52442914D01*
X130586779Y-52442914D02*
X130634398Y-52347676D01*
X130634398Y-52347676D02*
X130729636Y-52252438D01*
X130729636Y-52252438D02*
X130872493Y-52204819D01*
X130872493Y-52204819D02*
X130967731Y-52204819D01*
X130967731Y-52204819D02*
X131110588Y-52252438D01*
X131110588Y-52252438D02*
X131158207Y-52300057D01*
X132110588Y-53204819D02*
X131539160Y-53204819D01*
X131824874Y-53204819D02*
X131824874Y-52204819D01*
X131824874Y-52204819D02*
X131729636Y-52347676D01*
X131729636Y-52347676D02*
X131634398Y-52442914D01*
X131634398Y-52442914D02*
X131539160Y-52490533D01*
X132967731Y-52204819D02*
X132777255Y-52204819D01*
X132777255Y-52204819D02*
X132682017Y-52252438D01*
X132682017Y-52252438D02*
X132634398Y-52300057D01*
X132634398Y-52300057D02*
X132539160Y-52442914D01*
X132539160Y-52442914D02*
X132491541Y-52633390D01*
X132491541Y-52633390D02*
X132491541Y-53014342D01*
X132491541Y-53014342D02*
X132539160Y-53109580D01*
X132539160Y-53109580D02*
X132586779Y-53157200D01*
X132586779Y-53157200D02*
X132682017Y-53204819D01*
X132682017Y-53204819D02*
X132872493Y-53204819D01*
X132872493Y-53204819D02*
X132967731Y-53157200D01*
X132967731Y-53157200D02*
X133015350Y-53109580D01*
X133015350Y-53109580D02*
X133062969Y-53014342D01*
X133062969Y-53014342D02*
X133062969Y-52776247D01*
X133062969Y-52776247D02*
X133015350Y-52681009D01*
X133015350Y-52681009D02*
X132967731Y-52633390D01*
X132967731Y-52633390D02*
X132872493Y-52585771D01*
X132872493Y-52585771D02*
X132682017Y-52585771D01*
X132682017Y-52585771D02*
X132586779Y-52633390D01*
X132586779Y-52633390D02*
X132539160Y-52681009D01*
X132539160Y-52681009D02*
X132491541Y-52776247D01*
X104359580Y-63142857D02*
X104407200Y-63190476D01*
X104407200Y-63190476D02*
X104454819Y-63333333D01*
X104454819Y-63333333D02*
X104454819Y-63428571D01*
X104454819Y-63428571D02*
X104407200Y-63571428D01*
X104407200Y-63571428D02*
X104311961Y-63666666D01*
X104311961Y-63666666D02*
X104216723Y-63714285D01*
X104216723Y-63714285D02*
X104026247Y-63761904D01*
X104026247Y-63761904D02*
X103883390Y-63761904D01*
X103883390Y-63761904D02*
X103692914Y-63714285D01*
X103692914Y-63714285D02*
X103597676Y-63666666D01*
X103597676Y-63666666D02*
X103502438Y-63571428D01*
X103502438Y-63571428D02*
X103454819Y-63428571D01*
X103454819Y-63428571D02*
X103454819Y-63333333D01*
X103454819Y-63333333D02*
X103502438Y-63190476D01*
X103502438Y-63190476D02*
X103550057Y-63142857D01*
X103550057Y-62761904D02*
X103502438Y-62714285D01*
X103502438Y-62714285D02*
X103454819Y-62619047D01*
X103454819Y-62619047D02*
X103454819Y-62380952D01*
X103454819Y-62380952D02*
X103502438Y-62285714D01*
X103502438Y-62285714D02*
X103550057Y-62238095D01*
X103550057Y-62238095D02*
X103645295Y-62190476D01*
X103645295Y-62190476D02*
X103740533Y-62190476D01*
X103740533Y-62190476D02*
X103883390Y-62238095D01*
X103883390Y-62238095D02*
X104454819Y-62809523D01*
X104454819Y-62809523D02*
X104454819Y-62190476D01*
X103550057Y-61809523D02*
X103502438Y-61761904D01*
X103502438Y-61761904D02*
X103454819Y-61666666D01*
X103454819Y-61666666D02*
X103454819Y-61428571D01*
X103454819Y-61428571D02*
X103502438Y-61333333D01*
X103502438Y-61333333D02*
X103550057Y-61285714D01*
X103550057Y-61285714D02*
X103645295Y-61238095D01*
X103645295Y-61238095D02*
X103740533Y-61238095D01*
X103740533Y-61238095D02*
X103883390Y-61285714D01*
X103883390Y-61285714D02*
X104454819Y-61857142D01*
X104454819Y-61857142D02*
X104454819Y-61238095D01*
X105357142Y-70954819D02*
X105023809Y-70478628D01*
X104785714Y-70954819D02*
X104785714Y-69954819D01*
X104785714Y-69954819D02*
X105166666Y-69954819D01*
X105166666Y-69954819D02*
X105261904Y-70002438D01*
X105261904Y-70002438D02*
X105309523Y-70050057D01*
X105309523Y-70050057D02*
X105357142Y-70145295D01*
X105357142Y-70145295D02*
X105357142Y-70288152D01*
X105357142Y-70288152D02*
X105309523Y-70383390D01*
X105309523Y-70383390D02*
X105261904Y-70431009D01*
X105261904Y-70431009D02*
X105166666Y-70478628D01*
X105166666Y-70478628D02*
X104785714Y-70478628D01*
X106309523Y-70954819D02*
X105738095Y-70954819D01*
X106023809Y-70954819D02*
X106023809Y-69954819D01*
X106023809Y-69954819D02*
X105928571Y-70097676D01*
X105928571Y-70097676D02*
X105833333Y-70192914D01*
X105833333Y-70192914D02*
X105738095Y-70240533D01*
X107166666Y-69954819D02*
X106976190Y-69954819D01*
X106976190Y-69954819D02*
X106880952Y-70002438D01*
X106880952Y-70002438D02*
X106833333Y-70050057D01*
X106833333Y-70050057D02*
X106738095Y-70192914D01*
X106738095Y-70192914D02*
X106690476Y-70383390D01*
X106690476Y-70383390D02*
X106690476Y-70764342D01*
X106690476Y-70764342D02*
X106738095Y-70859580D01*
X106738095Y-70859580D02*
X106785714Y-70907200D01*
X106785714Y-70907200D02*
X106880952Y-70954819D01*
X106880952Y-70954819D02*
X107071428Y-70954819D01*
X107071428Y-70954819D02*
X107166666Y-70907200D01*
X107166666Y-70907200D02*
X107214285Y-70859580D01*
X107214285Y-70859580D02*
X107261904Y-70764342D01*
X107261904Y-70764342D02*
X107261904Y-70526247D01*
X107261904Y-70526247D02*
X107214285Y-70431009D01*
X107214285Y-70431009D02*
X107166666Y-70383390D01*
X107166666Y-70383390D02*
X107071428Y-70335771D01*
X107071428Y-70335771D02*
X106880952Y-70335771D01*
X106880952Y-70335771D02*
X106785714Y-70383390D01*
X106785714Y-70383390D02*
X106738095Y-70431009D01*
X106738095Y-70431009D02*
X106690476Y-70526247D01*
X135204819Y-46425594D02*
X134204819Y-46425594D01*
X134204819Y-46425594D02*
X134204819Y-46187499D01*
X134204819Y-46187499D02*
X134252438Y-46044642D01*
X134252438Y-46044642D02*
X134347676Y-45949404D01*
X134347676Y-45949404D02*
X134442914Y-45901785D01*
X134442914Y-45901785D02*
X134633390Y-45854166D01*
X134633390Y-45854166D02*
X134776247Y-45854166D01*
X134776247Y-45854166D02*
X134966723Y-45901785D01*
X134966723Y-45901785D02*
X135061961Y-45949404D01*
X135061961Y-45949404D02*
X135157200Y-46044642D01*
X135157200Y-46044642D02*
X135204819Y-46187499D01*
X135204819Y-46187499D02*
X135204819Y-46425594D01*
X135204819Y-45377975D02*
X135204819Y-45187499D01*
X135204819Y-45187499D02*
X135157200Y-45092261D01*
X135157200Y-45092261D02*
X135109580Y-45044642D01*
X135109580Y-45044642D02*
X134966723Y-44949404D01*
X134966723Y-44949404D02*
X134776247Y-44901785D01*
X134776247Y-44901785D02*
X134395295Y-44901785D01*
X134395295Y-44901785D02*
X134300057Y-44949404D01*
X134300057Y-44949404D02*
X134252438Y-44997023D01*
X134252438Y-44997023D02*
X134204819Y-45092261D01*
X134204819Y-45092261D02*
X134204819Y-45282737D01*
X134204819Y-45282737D02*
X134252438Y-45377975D01*
X134252438Y-45377975D02*
X134300057Y-45425594D01*
X134300057Y-45425594D02*
X134395295Y-45473213D01*
X134395295Y-45473213D02*
X134633390Y-45473213D01*
X134633390Y-45473213D02*
X134728628Y-45425594D01*
X134728628Y-45425594D02*
X134776247Y-45377975D01*
X134776247Y-45377975D02*
X134823866Y-45282737D01*
X134823866Y-45282737D02*
X134823866Y-45092261D01*
X134823866Y-45092261D02*
X134776247Y-44997023D01*
X134776247Y-44997023D02*
X134728628Y-44949404D01*
X134728628Y-44949404D02*
X134633390Y-44901785D01*
X114857142Y-64159580D02*
X114809523Y-64207200D01*
X114809523Y-64207200D02*
X114666666Y-64254819D01*
X114666666Y-64254819D02*
X114571428Y-64254819D01*
X114571428Y-64254819D02*
X114428571Y-64207200D01*
X114428571Y-64207200D02*
X114333333Y-64111961D01*
X114333333Y-64111961D02*
X114285714Y-64016723D01*
X114285714Y-64016723D02*
X114238095Y-63826247D01*
X114238095Y-63826247D02*
X114238095Y-63683390D01*
X114238095Y-63683390D02*
X114285714Y-63492914D01*
X114285714Y-63492914D02*
X114333333Y-63397676D01*
X114333333Y-63397676D02*
X114428571Y-63302438D01*
X114428571Y-63302438D02*
X114571428Y-63254819D01*
X114571428Y-63254819D02*
X114666666Y-63254819D01*
X114666666Y-63254819D02*
X114809523Y-63302438D01*
X114809523Y-63302438D02*
X114857142Y-63350057D01*
X115238095Y-63350057D02*
X115285714Y-63302438D01*
X115285714Y-63302438D02*
X115380952Y-63254819D01*
X115380952Y-63254819D02*
X115619047Y-63254819D01*
X115619047Y-63254819D02*
X115714285Y-63302438D01*
X115714285Y-63302438D02*
X115761904Y-63350057D01*
X115761904Y-63350057D02*
X115809523Y-63445295D01*
X115809523Y-63445295D02*
X115809523Y-63540533D01*
X115809523Y-63540533D02*
X115761904Y-63683390D01*
X115761904Y-63683390D02*
X115190476Y-64254819D01*
X115190476Y-64254819D02*
X115809523Y-64254819D01*
X116428571Y-63254819D02*
X116523809Y-63254819D01*
X116523809Y-63254819D02*
X116619047Y-63302438D01*
X116619047Y-63302438D02*
X116666666Y-63350057D01*
X116666666Y-63350057D02*
X116714285Y-63445295D01*
X116714285Y-63445295D02*
X116761904Y-63635771D01*
X116761904Y-63635771D02*
X116761904Y-63873866D01*
X116761904Y-63873866D02*
X116714285Y-64064342D01*
X116714285Y-64064342D02*
X116666666Y-64159580D01*
X116666666Y-64159580D02*
X116619047Y-64207200D01*
X116619047Y-64207200D02*
X116523809Y-64254819D01*
X116523809Y-64254819D02*
X116428571Y-64254819D01*
X116428571Y-64254819D02*
X116333333Y-64207200D01*
X116333333Y-64207200D02*
X116285714Y-64159580D01*
X116285714Y-64159580D02*
X116238095Y-64064342D01*
X116238095Y-64064342D02*
X116190476Y-63873866D01*
X116190476Y-63873866D02*
X116190476Y-63635771D01*
X116190476Y-63635771D02*
X116238095Y-63445295D01*
X116238095Y-63445295D02*
X116285714Y-63350057D01*
X116285714Y-63350057D02*
X116333333Y-63302438D01*
X116333333Y-63302438D02*
X116428571Y-63254819D01*
X116359580Y-45666666D02*
X116407200Y-45714285D01*
X116407200Y-45714285D02*
X116454819Y-45857142D01*
X116454819Y-45857142D02*
X116454819Y-45952380D01*
X116454819Y-45952380D02*
X116407200Y-46095237D01*
X116407200Y-46095237D02*
X116311961Y-46190475D01*
X116311961Y-46190475D02*
X116216723Y-46238094D01*
X116216723Y-46238094D02*
X116026247Y-46285713D01*
X116026247Y-46285713D02*
X115883390Y-46285713D01*
X115883390Y-46285713D02*
X115692914Y-46238094D01*
X115692914Y-46238094D02*
X115597676Y-46190475D01*
X115597676Y-46190475D02*
X115502438Y-46095237D01*
X115502438Y-46095237D02*
X115454819Y-45952380D01*
X115454819Y-45952380D02*
X115454819Y-45857142D01*
X115454819Y-45857142D02*
X115502438Y-45714285D01*
X115502438Y-45714285D02*
X115550057Y-45666666D01*
X115883390Y-45095237D02*
X115835771Y-45190475D01*
X115835771Y-45190475D02*
X115788152Y-45238094D01*
X115788152Y-45238094D02*
X115692914Y-45285713D01*
X115692914Y-45285713D02*
X115645295Y-45285713D01*
X115645295Y-45285713D02*
X115550057Y-45238094D01*
X115550057Y-45238094D02*
X115502438Y-45190475D01*
X115502438Y-45190475D02*
X115454819Y-45095237D01*
X115454819Y-45095237D02*
X115454819Y-44904761D01*
X115454819Y-44904761D02*
X115502438Y-44809523D01*
X115502438Y-44809523D02*
X115550057Y-44761904D01*
X115550057Y-44761904D02*
X115645295Y-44714285D01*
X115645295Y-44714285D02*
X115692914Y-44714285D01*
X115692914Y-44714285D02*
X115788152Y-44761904D01*
X115788152Y-44761904D02*
X115835771Y-44809523D01*
X115835771Y-44809523D02*
X115883390Y-44904761D01*
X115883390Y-44904761D02*
X115883390Y-45095237D01*
X115883390Y-45095237D02*
X115931009Y-45190475D01*
X115931009Y-45190475D02*
X115978628Y-45238094D01*
X115978628Y-45238094D02*
X116073866Y-45285713D01*
X116073866Y-45285713D02*
X116264342Y-45285713D01*
X116264342Y-45285713D02*
X116359580Y-45238094D01*
X116359580Y-45238094D02*
X116407200Y-45190475D01*
X116407200Y-45190475D02*
X116454819Y-45095237D01*
X116454819Y-45095237D02*
X116454819Y-44904761D01*
X116454819Y-44904761D02*
X116407200Y-44809523D01*
X116407200Y-44809523D02*
X116359580Y-44761904D01*
X116359580Y-44761904D02*
X116264342Y-44714285D01*
X116264342Y-44714285D02*
X116073866Y-44714285D01*
X116073866Y-44714285D02*
X115978628Y-44761904D01*
X115978628Y-44761904D02*
X115931009Y-44809523D01*
X115931009Y-44809523D02*
X115883390Y-44904761D01*
X57761905Y-47704819D02*
X57761905Y-46704819D01*
X57761905Y-46704819D02*
X58000000Y-46704819D01*
X58000000Y-46704819D02*
X58142857Y-46752438D01*
X58142857Y-46752438D02*
X58238095Y-46847676D01*
X58238095Y-46847676D02*
X58285714Y-46942914D01*
X58285714Y-46942914D02*
X58333333Y-47133390D01*
X58333333Y-47133390D02*
X58333333Y-47276247D01*
X58333333Y-47276247D02*
X58285714Y-47466723D01*
X58285714Y-47466723D02*
X58238095Y-47561961D01*
X58238095Y-47561961D02*
X58142857Y-47657200D01*
X58142857Y-47657200D02*
X58000000Y-47704819D01*
X58000000Y-47704819D02*
X57761905Y-47704819D01*
X58904762Y-47133390D02*
X58809524Y-47085771D01*
X58809524Y-47085771D02*
X58761905Y-47038152D01*
X58761905Y-47038152D02*
X58714286Y-46942914D01*
X58714286Y-46942914D02*
X58714286Y-46895295D01*
X58714286Y-46895295D02*
X58761905Y-46800057D01*
X58761905Y-46800057D02*
X58809524Y-46752438D01*
X58809524Y-46752438D02*
X58904762Y-46704819D01*
X58904762Y-46704819D02*
X59095238Y-46704819D01*
X59095238Y-46704819D02*
X59190476Y-46752438D01*
X59190476Y-46752438D02*
X59238095Y-46800057D01*
X59238095Y-46800057D02*
X59285714Y-46895295D01*
X59285714Y-46895295D02*
X59285714Y-46942914D01*
X59285714Y-46942914D02*
X59238095Y-47038152D01*
X59238095Y-47038152D02*
X59190476Y-47085771D01*
X59190476Y-47085771D02*
X59095238Y-47133390D01*
X59095238Y-47133390D02*
X58904762Y-47133390D01*
X58904762Y-47133390D02*
X58809524Y-47181009D01*
X58809524Y-47181009D02*
X58761905Y-47228628D01*
X58761905Y-47228628D02*
X58714286Y-47323866D01*
X58714286Y-47323866D02*
X58714286Y-47514342D01*
X58714286Y-47514342D02*
X58761905Y-47609580D01*
X58761905Y-47609580D02*
X58809524Y-47657200D01*
X58809524Y-47657200D02*
X58904762Y-47704819D01*
X58904762Y-47704819D02*
X59095238Y-47704819D01*
X59095238Y-47704819D02*
X59190476Y-47657200D01*
X59190476Y-47657200D02*
X59238095Y-47609580D01*
X59238095Y-47609580D02*
X59285714Y-47514342D01*
X59285714Y-47514342D02*
X59285714Y-47323866D01*
X59285714Y-47323866D02*
X59238095Y-47228628D01*
X59238095Y-47228628D02*
X59190476Y-47181009D01*
X59190476Y-47181009D02*
X59095238Y-47133390D01*
X47811905Y-26454819D02*
X47811905Y-25454819D01*
X47811905Y-25454819D02*
X48050000Y-25454819D01*
X48050000Y-25454819D02*
X48192857Y-25502438D01*
X48192857Y-25502438D02*
X48288095Y-25597676D01*
X48288095Y-25597676D02*
X48335714Y-25692914D01*
X48335714Y-25692914D02*
X48383333Y-25883390D01*
X48383333Y-25883390D02*
X48383333Y-26026247D01*
X48383333Y-26026247D02*
X48335714Y-26216723D01*
X48335714Y-26216723D02*
X48288095Y-26311961D01*
X48288095Y-26311961D02*
X48192857Y-26407200D01*
X48192857Y-26407200D02*
X48050000Y-26454819D01*
X48050000Y-26454819D02*
X47811905Y-26454819D01*
X49288095Y-25454819D02*
X48811905Y-25454819D01*
X48811905Y-25454819D02*
X48764286Y-25931009D01*
X48764286Y-25931009D02*
X48811905Y-25883390D01*
X48811905Y-25883390D02*
X48907143Y-25835771D01*
X48907143Y-25835771D02*
X49145238Y-25835771D01*
X49145238Y-25835771D02*
X49240476Y-25883390D01*
X49240476Y-25883390D02*
X49288095Y-25931009D01*
X49288095Y-25931009D02*
X49335714Y-26026247D01*
X49335714Y-26026247D02*
X49335714Y-26264342D01*
X49335714Y-26264342D02*
X49288095Y-26359580D01*
X49288095Y-26359580D02*
X49240476Y-26407200D01*
X49240476Y-26407200D02*
X49145238Y-26454819D01*
X49145238Y-26454819D02*
X48907143Y-26454819D01*
X48907143Y-26454819D02*
X48811905Y-26407200D01*
X48811905Y-26407200D02*
X48764286Y-26359580D01*
X130733333Y-38609580D02*
X130685714Y-38657200D01*
X130685714Y-38657200D02*
X130542857Y-38704819D01*
X130542857Y-38704819D02*
X130447619Y-38704819D01*
X130447619Y-38704819D02*
X130304762Y-38657200D01*
X130304762Y-38657200D02*
X130209524Y-38561961D01*
X130209524Y-38561961D02*
X130161905Y-38466723D01*
X130161905Y-38466723D02*
X130114286Y-38276247D01*
X130114286Y-38276247D02*
X130114286Y-38133390D01*
X130114286Y-38133390D02*
X130161905Y-37942914D01*
X130161905Y-37942914D02*
X130209524Y-37847676D01*
X130209524Y-37847676D02*
X130304762Y-37752438D01*
X130304762Y-37752438D02*
X130447619Y-37704819D01*
X130447619Y-37704819D02*
X130542857Y-37704819D01*
X130542857Y-37704819D02*
X130685714Y-37752438D01*
X130685714Y-37752438D02*
X130733333Y-37800057D01*
X131590476Y-37704819D02*
X131400000Y-37704819D01*
X131400000Y-37704819D02*
X131304762Y-37752438D01*
X131304762Y-37752438D02*
X131257143Y-37800057D01*
X131257143Y-37800057D02*
X131161905Y-37942914D01*
X131161905Y-37942914D02*
X131114286Y-38133390D01*
X131114286Y-38133390D02*
X131114286Y-38514342D01*
X131114286Y-38514342D02*
X131161905Y-38609580D01*
X131161905Y-38609580D02*
X131209524Y-38657200D01*
X131209524Y-38657200D02*
X131304762Y-38704819D01*
X131304762Y-38704819D02*
X131495238Y-38704819D01*
X131495238Y-38704819D02*
X131590476Y-38657200D01*
X131590476Y-38657200D02*
X131638095Y-38609580D01*
X131638095Y-38609580D02*
X131685714Y-38514342D01*
X131685714Y-38514342D02*
X131685714Y-38276247D01*
X131685714Y-38276247D02*
X131638095Y-38181009D01*
X131638095Y-38181009D02*
X131590476Y-38133390D01*
X131590476Y-38133390D02*
X131495238Y-38085771D01*
X131495238Y-38085771D02*
X131304762Y-38085771D01*
X131304762Y-38085771D02*
X131209524Y-38133390D01*
X131209524Y-38133390D02*
X131161905Y-38181009D01*
X131161905Y-38181009D02*
X131114286Y-38276247D01*
X113609580Y-45666666D02*
X113657200Y-45714285D01*
X113657200Y-45714285D02*
X113704819Y-45857142D01*
X113704819Y-45857142D02*
X113704819Y-45952380D01*
X113704819Y-45952380D02*
X113657200Y-46095237D01*
X113657200Y-46095237D02*
X113561961Y-46190475D01*
X113561961Y-46190475D02*
X113466723Y-46238094D01*
X113466723Y-46238094D02*
X113276247Y-46285713D01*
X113276247Y-46285713D02*
X113133390Y-46285713D01*
X113133390Y-46285713D02*
X112942914Y-46238094D01*
X112942914Y-46238094D02*
X112847676Y-46190475D01*
X112847676Y-46190475D02*
X112752438Y-46095237D01*
X112752438Y-46095237D02*
X112704819Y-45952380D01*
X112704819Y-45952380D02*
X112704819Y-45857142D01*
X112704819Y-45857142D02*
X112752438Y-45714285D01*
X112752438Y-45714285D02*
X112800057Y-45666666D01*
X112704819Y-45333332D02*
X112704819Y-44666666D01*
X112704819Y-44666666D02*
X113704819Y-45095237D01*
X116857142Y-34179819D02*
X116523809Y-33703628D01*
X116285714Y-34179819D02*
X116285714Y-33179819D01*
X116285714Y-33179819D02*
X116666666Y-33179819D01*
X116666666Y-33179819D02*
X116761904Y-33227438D01*
X116761904Y-33227438D02*
X116809523Y-33275057D01*
X116809523Y-33275057D02*
X116857142Y-33370295D01*
X116857142Y-33370295D02*
X116857142Y-33513152D01*
X116857142Y-33513152D02*
X116809523Y-33608390D01*
X116809523Y-33608390D02*
X116761904Y-33656009D01*
X116761904Y-33656009D02*
X116666666Y-33703628D01*
X116666666Y-33703628D02*
X116285714Y-33703628D01*
X117809523Y-34179819D02*
X117238095Y-34179819D01*
X117523809Y-34179819D02*
X117523809Y-33179819D01*
X117523809Y-33179819D02*
X117428571Y-33322676D01*
X117428571Y-33322676D02*
X117333333Y-33417914D01*
X117333333Y-33417914D02*
X117238095Y-33465533D01*
X118428571Y-33179819D02*
X118523809Y-33179819D01*
X118523809Y-33179819D02*
X118619047Y-33227438D01*
X118619047Y-33227438D02*
X118666666Y-33275057D01*
X118666666Y-33275057D02*
X118714285Y-33370295D01*
X118714285Y-33370295D02*
X118761904Y-33560771D01*
X118761904Y-33560771D02*
X118761904Y-33798866D01*
X118761904Y-33798866D02*
X118714285Y-33989342D01*
X118714285Y-33989342D02*
X118666666Y-34084580D01*
X118666666Y-34084580D02*
X118619047Y-34132200D01*
X118619047Y-34132200D02*
X118523809Y-34179819D01*
X118523809Y-34179819D02*
X118428571Y-34179819D01*
X118428571Y-34179819D02*
X118333333Y-34132200D01*
X118333333Y-34132200D02*
X118285714Y-34084580D01*
X118285714Y-34084580D02*
X118238095Y-33989342D01*
X118238095Y-33989342D02*
X118190476Y-33798866D01*
X118190476Y-33798866D02*
X118190476Y-33560771D01*
X118190476Y-33560771D02*
X118238095Y-33370295D01*
X118238095Y-33370295D02*
X118285714Y-33275057D01*
X118285714Y-33275057D02*
X118333333Y-33227438D01*
X118333333Y-33227438D02*
X118428571Y-33179819D01*
X106107142Y-77359580D02*
X106059523Y-77407200D01*
X106059523Y-77407200D02*
X105916666Y-77454819D01*
X105916666Y-77454819D02*
X105821428Y-77454819D01*
X105821428Y-77454819D02*
X105678571Y-77407200D01*
X105678571Y-77407200D02*
X105583333Y-77311961D01*
X105583333Y-77311961D02*
X105535714Y-77216723D01*
X105535714Y-77216723D02*
X105488095Y-77026247D01*
X105488095Y-77026247D02*
X105488095Y-76883390D01*
X105488095Y-76883390D02*
X105535714Y-76692914D01*
X105535714Y-76692914D02*
X105583333Y-76597676D01*
X105583333Y-76597676D02*
X105678571Y-76502438D01*
X105678571Y-76502438D02*
X105821428Y-76454819D01*
X105821428Y-76454819D02*
X105916666Y-76454819D01*
X105916666Y-76454819D02*
X106059523Y-76502438D01*
X106059523Y-76502438D02*
X106107142Y-76550057D01*
X106488095Y-76550057D02*
X106535714Y-76502438D01*
X106535714Y-76502438D02*
X106630952Y-76454819D01*
X106630952Y-76454819D02*
X106869047Y-76454819D01*
X106869047Y-76454819D02*
X106964285Y-76502438D01*
X106964285Y-76502438D02*
X107011904Y-76550057D01*
X107011904Y-76550057D02*
X107059523Y-76645295D01*
X107059523Y-76645295D02*
X107059523Y-76740533D01*
X107059523Y-76740533D02*
X107011904Y-76883390D01*
X107011904Y-76883390D02*
X106440476Y-77454819D01*
X106440476Y-77454819D02*
X107059523Y-77454819D01*
X107964285Y-76454819D02*
X107488095Y-76454819D01*
X107488095Y-76454819D02*
X107440476Y-76931009D01*
X107440476Y-76931009D02*
X107488095Y-76883390D01*
X107488095Y-76883390D02*
X107583333Y-76835771D01*
X107583333Y-76835771D02*
X107821428Y-76835771D01*
X107821428Y-76835771D02*
X107916666Y-76883390D01*
X107916666Y-76883390D02*
X107964285Y-76931009D01*
X107964285Y-76931009D02*
X108011904Y-77026247D01*
X108011904Y-77026247D02*
X108011904Y-77264342D01*
X108011904Y-77264342D02*
X107964285Y-77359580D01*
X107964285Y-77359580D02*
X107916666Y-77407200D01*
X107916666Y-77407200D02*
X107821428Y-77454819D01*
X107821428Y-77454819D02*
X107583333Y-77454819D01*
X107583333Y-77454819D02*
X107488095Y-77407200D01*
X107488095Y-77407200D02*
X107440476Y-77359580D01*
X125109580Y-62892857D02*
X125157200Y-62940476D01*
X125157200Y-62940476D02*
X125204819Y-63083333D01*
X125204819Y-63083333D02*
X125204819Y-63178571D01*
X125204819Y-63178571D02*
X125157200Y-63321428D01*
X125157200Y-63321428D02*
X125061961Y-63416666D01*
X125061961Y-63416666D02*
X124966723Y-63464285D01*
X124966723Y-63464285D02*
X124776247Y-63511904D01*
X124776247Y-63511904D02*
X124633390Y-63511904D01*
X124633390Y-63511904D02*
X124442914Y-63464285D01*
X124442914Y-63464285D02*
X124347676Y-63416666D01*
X124347676Y-63416666D02*
X124252438Y-63321428D01*
X124252438Y-63321428D02*
X124204819Y-63178571D01*
X124204819Y-63178571D02*
X124204819Y-63083333D01*
X124204819Y-63083333D02*
X124252438Y-62940476D01*
X124252438Y-62940476D02*
X124300057Y-62892857D01*
X125204819Y-61940476D02*
X125204819Y-62511904D01*
X125204819Y-62226190D02*
X124204819Y-62226190D01*
X124204819Y-62226190D02*
X124347676Y-62321428D01*
X124347676Y-62321428D02*
X124442914Y-62416666D01*
X124442914Y-62416666D02*
X124490533Y-62511904D01*
X124633390Y-61369047D02*
X124585771Y-61464285D01*
X124585771Y-61464285D02*
X124538152Y-61511904D01*
X124538152Y-61511904D02*
X124442914Y-61559523D01*
X124442914Y-61559523D02*
X124395295Y-61559523D01*
X124395295Y-61559523D02*
X124300057Y-61511904D01*
X124300057Y-61511904D02*
X124252438Y-61464285D01*
X124252438Y-61464285D02*
X124204819Y-61369047D01*
X124204819Y-61369047D02*
X124204819Y-61178571D01*
X124204819Y-61178571D02*
X124252438Y-61083333D01*
X124252438Y-61083333D02*
X124300057Y-61035714D01*
X124300057Y-61035714D02*
X124395295Y-60988095D01*
X124395295Y-60988095D02*
X124442914Y-60988095D01*
X124442914Y-60988095D02*
X124538152Y-61035714D01*
X124538152Y-61035714D02*
X124585771Y-61083333D01*
X124585771Y-61083333D02*
X124633390Y-61178571D01*
X124633390Y-61178571D02*
X124633390Y-61369047D01*
X124633390Y-61369047D02*
X124681009Y-61464285D01*
X124681009Y-61464285D02*
X124728628Y-61511904D01*
X124728628Y-61511904D02*
X124823866Y-61559523D01*
X124823866Y-61559523D02*
X125014342Y-61559523D01*
X125014342Y-61559523D02*
X125109580Y-61511904D01*
X125109580Y-61511904D02*
X125157200Y-61464285D01*
X125157200Y-61464285D02*
X125204819Y-61369047D01*
X125204819Y-61369047D02*
X125204819Y-61178571D01*
X125204819Y-61178571D02*
X125157200Y-61083333D01*
X125157200Y-61083333D02*
X125109580Y-61035714D01*
X125109580Y-61035714D02*
X125014342Y-60988095D01*
X125014342Y-60988095D02*
X124823866Y-60988095D01*
X124823866Y-60988095D02*
X124728628Y-61035714D01*
X124728628Y-61035714D02*
X124681009Y-61083333D01*
X124681009Y-61083333D02*
X124633390Y-61178571D01*
X101261905Y-45454819D02*
X101261905Y-44454819D01*
X101261905Y-44454819D02*
X101500000Y-44454819D01*
X101500000Y-44454819D02*
X101642857Y-44502438D01*
X101642857Y-44502438D02*
X101738095Y-44597676D01*
X101738095Y-44597676D02*
X101785714Y-44692914D01*
X101785714Y-44692914D02*
X101833333Y-44883390D01*
X101833333Y-44883390D02*
X101833333Y-45026247D01*
X101833333Y-45026247D02*
X101785714Y-45216723D01*
X101785714Y-45216723D02*
X101738095Y-45311961D01*
X101738095Y-45311961D02*
X101642857Y-45407200D01*
X101642857Y-45407200D02*
X101500000Y-45454819D01*
X101500000Y-45454819D02*
X101261905Y-45454819D01*
X102166667Y-44454819D02*
X102833333Y-44454819D01*
X102833333Y-44454819D02*
X102404762Y-45454819D01*
X121657142Y-64159580D02*
X121609523Y-64207200D01*
X121609523Y-64207200D02*
X121466666Y-64254819D01*
X121466666Y-64254819D02*
X121371428Y-64254819D01*
X121371428Y-64254819D02*
X121228571Y-64207200D01*
X121228571Y-64207200D02*
X121133333Y-64111961D01*
X121133333Y-64111961D02*
X121085714Y-64016723D01*
X121085714Y-64016723D02*
X121038095Y-63826247D01*
X121038095Y-63826247D02*
X121038095Y-63683390D01*
X121038095Y-63683390D02*
X121085714Y-63492914D01*
X121085714Y-63492914D02*
X121133333Y-63397676D01*
X121133333Y-63397676D02*
X121228571Y-63302438D01*
X121228571Y-63302438D02*
X121371428Y-63254819D01*
X121371428Y-63254819D02*
X121466666Y-63254819D01*
X121466666Y-63254819D02*
X121609523Y-63302438D01*
X121609523Y-63302438D02*
X121657142Y-63350057D01*
X122038095Y-63350057D02*
X122085714Y-63302438D01*
X122085714Y-63302438D02*
X122180952Y-63254819D01*
X122180952Y-63254819D02*
X122419047Y-63254819D01*
X122419047Y-63254819D02*
X122514285Y-63302438D01*
X122514285Y-63302438D02*
X122561904Y-63350057D01*
X122561904Y-63350057D02*
X122609523Y-63445295D01*
X122609523Y-63445295D02*
X122609523Y-63540533D01*
X122609523Y-63540533D02*
X122561904Y-63683390D01*
X122561904Y-63683390D02*
X121990476Y-64254819D01*
X121990476Y-64254819D02*
X122609523Y-64254819D01*
X123561904Y-64254819D02*
X122990476Y-64254819D01*
X123276190Y-64254819D02*
X123276190Y-63254819D01*
X123276190Y-63254819D02*
X123180952Y-63397676D01*
X123180952Y-63397676D02*
X123085714Y-63492914D01*
X123085714Y-63492914D02*
X122990476Y-63540533D01*
X79666666Y-22704819D02*
X79666666Y-23419104D01*
X79666666Y-23419104D02*
X79619047Y-23561961D01*
X79619047Y-23561961D02*
X79523809Y-23657200D01*
X79523809Y-23657200D02*
X79380952Y-23704819D01*
X79380952Y-23704819D02*
X79285714Y-23704819D01*
X80571428Y-23038152D02*
X80571428Y-23704819D01*
X80333333Y-22657200D02*
X80095238Y-23371485D01*
X80095238Y-23371485D02*
X80714285Y-23371485D01*
D14*
X99477500Y-30012742D02*
X99477500Y-30487258D01*
X100522500Y-30012742D02*
X100522500Y-30487258D01*
X126515000Y-49261252D02*
X126515000Y-48738748D01*
X127985000Y-49261252D02*
X127985000Y-48738748D01*
X102859420Y-80740000D02*
X103140580Y-80740000D01*
X102859420Y-81760000D02*
X103140580Y-81760000D01*
X117515000Y-49227064D02*
X117515000Y-48772936D01*
X118985000Y-49227064D02*
X118985000Y-48772936D01*
X109640000Y-35711252D02*
X109640000Y-34288748D01*
X112360000Y-35711252D02*
X112360000Y-34288748D01*
X79400000Y-52000000D02*
X79400000Y-53250000D01*
X79690000Y-52290000D02*
X79690000Y-58260000D01*
X79690000Y-58260000D02*
X92310000Y-58260000D01*
X79700000Y-52300000D02*
X79700000Y-53050000D01*
X79700000Y-53050000D02*
X81500000Y-53050000D01*
X79700000Y-54550000D02*
X80450000Y-54550000D01*
X80450000Y-54550000D02*
X80450000Y-57500000D01*
X80450000Y-57500000D02*
X86000000Y-57500000D01*
X80650000Y-52000000D02*
X79400000Y-52000000D01*
X81500000Y-52300000D02*
X79700000Y-52300000D01*
X81500000Y-53050000D02*
X81500000Y-52300000D01*
X83000000Y-52300000D02*
X83000000Y-53050000D01*
X83000000Y-53050000D02*
X89000000Y-53050000D01*
X89000000Y-52300000D02*
X83000000Y-52300000D01*
X89000000Y-53050000D02*
X89000000Y-52300000D01*
X90500000Y-52300000D02*
X90500000Y-53050000D01*
X90500000Y-53050000D02*
X92300000Y-53050000D01*
X91550000Y-54550000D02*
X91550000Y-57500000D01*
X91550000Y-57500000D02*
X86000000Y-57500000D01*
X92300000Y-52300000D02*
X90500000Y-52300000D01*
X92300000Y-53050000D02*
X92300000Y-52300000D01*
X92300000Y-54550000D02*
X91550000Y-54550000D01*
X92310000Y-52290000D02*
X79690000Y-52290000D01*
X92310000Y-58260000D02*
X92310000Y-52290000D01*
X133540000Y-30877500D02*
X133540000Y-33562500D01*
X135460000Y-30877500D02*
X133540000Y-30877500D01*
X135460000Y-33562500D02*
X135460000Y-30877500D01*
D15*
X105176400Y-37179700D02*
X101823600Y-37179700D01*
D16*
X112715938Y-74507107D02*
X112715938Y-74507107D01*
X112786649Y-74577817D02*
X112786649Y-74577817D01*
D12*
X113529111Y-75320280D02*
X118620280Y-70229111D01*
X115650431Y-77441600D02*
X113529111Y-75320280D01*
X118620280Y-70229111D02*
X120741600Y-72350431D01*
D16*
X112715938Y-74507107D02*
G75*
G02*
X112786649Y-74577817I35355J-35356D01*
G01*
X112786649Y-74577817D02*
G75*
G02*
X112715938Y-74507107I-35356J35355D01*
G01*
D14*
X126040000Y-35711252D02*
X126040000Y-34288748D01*
X128760000Y-35711252D02*
X128760000Y-34288748D01*
D17*
G36*
X111788622Y-70838567D02*
G01*
X111845872Y-70876957D01*
X111889650Y-70985394D01*
X111821626Y-71108647D01*
X111756967Y-71173306D01*
X111565688Y-70982027D01*
X111598017Y-70941615D01*
X111635734Y-70901204D01*
X111683554Y-70860119D01*
X111734741Y-70835873D01*
X111788622Y-70838567D01*
G37*
G36*
X112237861Y-71193511D02*
G01*
X112284332Y-71266925D01*
X112286353Y-71337644D01*
X112256045Y-71402975D01*
X112205531Y-71462919D01*
X112163100Y-71502657D01*
X112120668Y-71537006D01*
X111894365Y-71310704D01*
X111983270Y-71221799D01*
X112112585Y-71145018D01*
X112237861Y-71193511D01*
G37*
G36*
X112516024Y-70171783D02*
G01*
X112627154Y-70245196D01*
X112685750Y-70296720D01*
X112745694Y-70354306D01*
X112803111Y-70414081D01*
X112854130Y-70472172D01*
X112927544Y-70583302D01*
X112949770Y-70686351D01*
X112904645Y-70777276D01*
X112813046Y-70823075D01*
X112711344Y-70800850D01*
X112600213Y-70727436D01*
X112541617Y-70675912D01*
X112481675Y-70618325D01*
X112424256Y-70558551D01*
X112373238Y-70500460D01*
X112299824Y-70389329D01*
X112276925Y-70286954D01*
X112322724Y-70195355D01*
X112414323Y-70149556D01*
X112516024Y-70171783D01*
G37*
G36*
X113189543Y-69498263D02*
G01*
X113300673Y-69571677D01*
X113359270Y-69623201D01*
X113419213Y-69680787D01*
X113476630Y-69740561D01*
X113527649Y-69798653D01*
X113601063Y-69909783D01*
X113623289Y-70012832D01*
X113578164Y-70103757D01*
X113486565Y-70149556D01*
X113384863Y-70127330D01*
X113273732Y-70053916D01*
X113215137Y-70002393D01*
X113155194Y-69944806D01*
X113097775Y-69885032D01*
X113046757Y-69826941D01*
X112973343Y-69715810D01*
X112950444Y-69613435D01*
X112996243Y-69521836D01*
X113087842Y-69476037D01*
X113189543Y-69498263D01*
G37*
G36*
X114519743Y-68142469D02*
G01*
X114596974Y-68180037D01*
X114681388Y-68240653D01*
X114772987Y-68324319D01*
X114857401Y-68416666D01*
X114918467Y-68501530D01*
X114956183Y-68578909D01*
X114968307Y-68678927D01*
X114927480Y-68756302D01*
X114926549Y-68758065D01*
X114848252Y-68798982D01*
X114748066Y-68787026D01*
X114670313Y-68749684D01*
X114585225Y-68688843D01*
X114492803Y-68604503D01*
X114409212Y-68512829D01*
X114358324Y-68441511D01*
X114502232Y-68441511D01*
X114545337Y-68525028D01*
X114628180Y-68567459D01*
X114709676Y-68538498D01*
X114736616Y-68459023D01*
X114694859Y-68375507D01*
X114610668Y-68333075D01*
X114530520Y-68359342D01*
X114502232Y-68441511D01*
X114358324Y-68441511D01*
X114348820Y-68428191D01*
X114311626Y-68350586D01*
X114299671Y-68250401D01*
X114340588Y-68172104D01*
X114419726Y-68130346D01*
X114519743Y-68142469D01*
G37*
G36*
X115681639Y-67418361D02*
G01*
X115920215Y-68611238D01*
X115639582Y-68891871D01*
X115349968Y-69181485D01*
X114759965Y-69771487D01*
X114004277Y-70527176D01*
X113330758Y-71200695D01*
X112623562Y-71907891D01*
X112391872Y-72139581D01*
X112111239Y-72420214D01*
X110918361Y-72181639D01*
X110685713Y-71018397D01*
X111270686Y-71018397D01*
X112080256Y-71827967D01*
X112149124Y-71780315D01*
X112215634Y-71728958D01*
X112278440Y-71675246D01*
X112336194Y-71620523D01*
X112399505Y-71550813D01*
X112452039Y-71479083D01*
X112490767Y-71406006D01*
X112512656Y-71332256D01*
X112501206Y-71182061D01*
X112463657Y-71106122D01*
X112400852Y-71030520D01*
X112336699Y-70981521D01*
X112260086Y-70950371D01*
X112168993Y-70947172D01*
X112061398Y-70982027D01*
X112066113Y-70831831D01*
X112038666Y-70760943D01*
X111990005Y-70697801D01*
X111899753Y-70631797D01*
X111783235Y-70606875D01*
X111639101Y-70648634D01*
X111556427Y-70702011D01*
X111466007Y-70782665D01*
X111360264Y-70900530D01*
X111270686Y-71018397D01*
X110685713Y-71018397D01*
X110679786Y-70988761D01*
X110960418Y-70708129D01*
X111407486Y-70261061D01*
X112066337Y-70261061D01*
X112067459Y-70381921D01*
X112094191Y-70478192D01*
X112144073Y-70577747D01*
X112217107Y-70680584D01*
X112313294Y-70786706D01*
X112419290Y-70883019D01*
X112521748Y-70956432D01*
X112620671Y-71006946D01*
X112716058Y-71034560D01*
X112836395Y-71036207D01*
X112947749Y-70998041D01*
X113050125Y-70920062D01*
X113125933Y-70819857D01*
X113162977Y-70709625D01*
X113161255Y-70589364D01*
X113133935Y-70493682D01*
X113083632Y-70394549D01*
X113010345Y-70291964D01*
X112914074Y-70185926D01*
X112808120Y-70089571D01*
X112705788Y-70016032D01*
X112607075Y-69965307D01*
X112511983Y-69937397D01*
X112392021Y-69935377D01*
X112280891Y-69973319D01*
X112178591Y-70051222D01*
X112103381Y-70150829D01*
X112066337Y-70261061D01*
X111407486Y-70261061D01*
X112081005Y-69587542D01*
X112739856Y-69587542D01*
X112740979Y-69708401D01*
X112767710Y-69804673D01*
X112817592Y-69904228D01*
X112890626Y-70007065D01*
X112986814Y-70113186D01*
X113092809Y-70209500D01*
X113195268Y-70282913D01*
X113294190Y-70333427D01*
X113389578Y-70361041D01*
X113509914Y-70362688D01*
X113621268Y-70324522D01*
X113723644Y-70246543D01*
X113799452Y-70146338D01*
X113836496Y-70036106D01*
X113834774Y-69915845D01*
X113807454Y-69820163D01*
X113757151Y-69721030D01*
X113683864Y-69618445D01*
X113587593Y-69512407D01*
X113481639Y-69416052D01*
X113379307Y-69342513D01*
X113280594Y-69291788D01*
X113185502Y-69263878D01*
X113065540Y-69261858D01*
X112954410Y-69299800D01*
X112852110Y-69377703D01*
X112776900Y-69477310D01*
X112739856Y-69587542D01*
X112081005Y-69587542D01*
X112642421Y-69026126D01*
X113241404Y-69026126D01*
X113378802Y-69163524D01*
X113598369Y-68943957D01*
X114294788Y-69640376D01*
X114461821Y-69473343D01*
X113765402Y-68776924D01*
X113984969Y-68557357D01*
X113847571Y-68419959D01*
X113241404Y-69026126D01*
X112642421Y-69026126D01*
X113433132Y-68235415D01*
X114090188Y-68235415D01*
X114092732Y-68352607D01*
X114120515Y-68446395D01*
X114171534Y-68544559D01*
X114245789Y-68647103D01*
X114343282Y-68754024D01*
X114451297Y-68852780D01*
X114554429Y-68928130D01*
X114652679Y-68980075D01*
X114746046Y-69008615D01*
X114862789Y-69011608D01*
X114970552Y-68975687D01*
X115069335Y-68900852D01*
X115144171Y-68802069D01*
X115180092Y-68694306D01*
X115177098Y-68577562D01*
X115148558Y-68484196D01*
X115096613Y-68385946D01*
X115021263Y-68282814D01*
X114922508Y-68174798D01*
X114815123Y-68076675D01*
X114712538Y-68001872D01*
X114614752Y-67950390D01*
X114521764Y-67922228D01*
X114405395Y-67919609D01*
X114297856Y-67955754D01*
X114199148Y-68030665D01*
X114125660Y-68128100D01*
X114090188Y-68235415D01*
X113433132Y-68235415D01*
X114208129Y-67460418D01*
X114488762Y-67179785D01*
X115681639Y-67418361D01*
G37*
G36*
X142722446Y-32144272D02*
G01*
X142798607Y-32230650D01*
X142837616Y-32355108D01*
X142848762Y-32500000D01*
X142845279Y-32581966D01*
X142834830Y-32656966D01*
X142788390Y-32780495D01*
X142702941Y-32862229D01*
X142571981Y-32891950D01*
X142551548Y-32891950D01*
X142531115Y-32890093D01*
X142531115Y-32117337D01*
X142564551Y-32112693D01*
X142597988Y-32111765D01*
X142722446Y-32144272D01*
G37*
G36*
X144100155Y-32500000D02*
G01*
X143390557Y-33564396D01*
X143080960Y-33564396D01*
X142547833Y-33564396D01*
X142094582Y-33564396D01*
X140775697Y-33564396D01*
X140419040Y-33564396D01*
X140109443Y-33564396D01*
X139741641Y-33012693D01*
X140419040Y-33012693D01*
X140547214Y-33069350D01*
X140647059Y-33092337D01*
X140775697Y-33100000D01*
X140906037Y-33090196D01*
X141012229Y-33060784D01*
X141094272Y-33011765D01*
X141172988Y-32905186D01*
X141199226Y-32761920D01*
X141191331Y-32675310D01*
X141167647Y-32604954D01*
X141086842Y-32500929D01*
X140979102Y-32434056D01*
X140866718Y-32388545D01*
X140795201Y-32360681D01*
X140730186Y-32326316D01*
X140682817Y-32281734D01*
X140664241Y-32223220D01*
X140684469Y-32149948D01*
X140745150Y-32105986D01*
X140846285Y-32091331D01*
X140977245Y-32109907D01*
X141080341Y-32154489D01*
X141147214Y-31978019D01*
X141018974Y-31926006D01*
X141316254Y-31926006D01*
X141320433Y-32067879D01*
X141325542Y-32214861D01*
X141331811Y-32363932D01*
X141339474Y-32512074D01*
X141348529Y-32658824D01*
X141358978Y-32803715D01*
X141371053Y-32943731D01*
X141384985Y-33075851D01*
X141574458Y-33075851D01*
X141613467Y-32953715D01*
X141656192Y-32821362D01*
X141699845Y-32689009D01*
X141741641Y-32566873D01*
X141782508Y-32692492D01*
X141823375Y-32824149D01*
X141864241Y-32954412D01*
X141905108Y-33075851D01*
X142094582Y-33075851D01*
X142095795Y-33062848D01*
X142302632Y-33062848D01*
X142428019Y-33084211D01*
X142547833Y-33090712D01*
X142659985Y-33082585D01*
X142762384Y-33058204D01*
X142853173Y-33016176D01*
X142930495Y-32955108D01*
X142993421Y-32874071D01*
X143041022Y-32772136D01*
X143070975Y-32647910D01*
X143080960Y-32500000D01*
X143071904Y-32355341D01*
X143044737Y-32233437D01*
X143001316Y-32132663D01*
X142943498Y-32051393D01*
X142871285Y-31989396D01*
X142784675Y-31946440D01*
X142685991Y-31921362D01*
X142577554Y-31913003D01*
X142449381Y-31918576D01*
X142302632Y-31940867D01*
X142302632Y-33062848D01*
X142095795Y-33062848D01*
X142106889Y-32943963D01*
X142117802Y-32804644D01*
X142127322Y-32660449D01*
X142135449Y-32513932D01*
X142142415Y-32365789D01*
X142148452Y-32216718D01*
X142154025Y-32069272D01*
X142159598Y-31926006D01*
X141947833Y-31926006D01*
X141948297Y-32037693D01*
X141949690Y-32153560D01*
X141951548Y-32270820D01*
X141953406Y-32386687D01*
X141955263Y-32500697D01*
X141957121Y-32612384D01*
X141958514Y-32719427D01*
X141958978Y-32819505D01*
X141917183Y-32670898D01*
X141878173Y-32535294D01*
X141845666Y-32420124D01*
X141823375Y-32332817D01*
X141656192Y-32332817D01*
X141630186Y-32423839D01*
X141593963Y-32550155D01*
X141553096Y-32689474D01*
X141515015Y-32819505D01*
X141515480Y-32719427D01*
X141516873Y-32612384D01*
X141518731Y-32500464D01*
X141520588Y-32385759D01*
X141522446Y-32269427D01*
X141524303Y-32152632D01*
X141526161Y-32037461D01*
X141528019Y-31926006D01*
X141316254Y-31926006D01*
X141018974Y-31926006D01*
X141014396Y-31924149D01*
X140928715Y-31906037D01*
X140829567Y-31900000D01*
X140715738Y-31910114D01*
X140619453Y-31940454D01*
X140540712Y-31991022D01*
X140461997Y-32099690D01*
X140435759Y-32243653D01*
X140465480Y-32380186D01*
X140540712Y-32472136D01*
X140641950Y-32533437D01*
X140749690Y-32576161D01*
X140827709Y-32608669D01*
X140898297Y-32647678D01*
X140950310Y-32696904D01*
X140970743Y-32760062D01*
X140962384Y-32814861D01*
X140931734Y-32863158D01*
X140871362Y-32896594D01*
X140775697Y-32908669D01*
X140683050Y-32902167D01*
X140605728Y-32882663D01*
X140485913Y-32826935D01*
X140419040Y-33012693D01*
X139741641Y-33012693D01*
X139399845Y-32500000D01*
X140109443Y-31435604D01*
X140419040Y-31435604D01*
X143080960Y-31435604D01*
X143390557Y-31435604D01*
X144100155Y-32500000D01*
G37*
G36*
X69392587Y-52266246D02*
G01*
X69422871Y-52383596D01*
X69448423Y-52500000D01*
X69471136Y-52621136D01*
X69242114Y-52621136D01*
X69265773Y-52500000D01*
X69292271Y-52383596D01*
X69322555Y-52266246D01*
X69357571Y-52140379D01*
X69392587Y-52266246D01*
G37*
G36*
X68544637Y-52608833D02*
G01*
X68598580Y-52730915D01*
X68579653Y-52815142D01*
X68531388Y-52866246D01*
X68464196Y-52890852D01*
X68386593Y-52897476D01*
X68328864Y-52895584D01*
X68274921Y-52889905D01*
X68274921Y-52571924D01*
X68399842Y-52571924D01*
X68544637Y-52608833D01*
G37*
G36*
X68443375Y-52107256D02*
G01*
X68496372Y-52126183D01*
X68532334Y-52165931D01*
X68545584Y-52233123D01*
X68500158Y-52340063D01*
X68365773Y-52378864D01*
X68274921Y-52378864D01*
X68274921Y-52110095D01*
X68326025Y-52104416D01*
X68380915Y-52102524D01*
X68443375Y-52107256D01*
G37*
G36*
X73488801Y-52500000D02*
G01*
X72773344Y-53573186D01*
X72457886Y-53573186D01*
X71369558Y-53573186D01*
X70423186Y-53573186D01*
X69565773Y-53573186D01*
X68367666Y-53573186D01*
X68042114Y-53573186D01*
X67726656Y-53573186D01*
X67388486Y-53065931D01*
X68042114Y-53065931D01*
X68123975Y-53080836D01*
X68206782Y-53091483D01*
X68288644Y-53097871D01*
X68367666Y-53100000D01*
X68461120Y-53095505D01*
X68530044Y-53084858D01*
X68903312Y-53084858D01*
X69145584Y-53084858D01*
X69198580Y-52814196D01*
X69510883Y-52814196D01*
X69565773Y-53084858D01*
X69815615Y-53084858D01*
X69784385Y-52952025D01*
X69752776Y-52823054D01*
X69720789Y-52697943D01*
X69688423Y-52576694D01*
X69655678Y-52459306D01*
X69614452Y-52316936D01*
X69573107Y-52178470D01*
X69531644Y-52043908D01*
X69490063Y-51913249D01*
X69879968Y-51913249D01*
X69879968Y-52106309D01*
X70188486Y-52106309D01*
X70188486Y-53084858D01*
X70423186Y-53084858D01*
X70423186Y-52106309D01*
X70731703Y-52106309D01*
X70731703Y-51913249D01*
X70826341Y-51913249D01*
X70826341Y-52106309D01*
X71134858Y-52106309D01*
X71134858Y-53084858D01*
X71369558Y-53084858D01*
X71369558Y-52484858D01*
X71939274Y-52484858D01*
X71939274Y-52713880D01*
X72457886Y-52713880D01*
X72457886Y-52484858D01*
X71939274Y-52484858D01*
X71369558Y-52484858D01*
X71369558Y-52106309D01*
X71678076Y-52106309D01*
X71678076Y-51913249D01*
X70826341Y-51913249D01*
X70731703Y-51913249D01*
X69879968Y-51913249D01*
X69490063Y-51913249D01*
X69236435Y-51913249D01*
X69196333Y-52042843D01*
X69155521Y-52176104D01*
X69113998Y-52313032D01*
X69071767Y-52453628D01*
X69037773Y-52570032D01*
X69003931Y-52691356D01*
X68970240Y-52817603D01*
X68936700Y-52948770D01*
X68903312Y-53084858D01*
X68530044Y-53084858D01*
X68548423Y-53082019D01*
X68626972Y-53057886D01*
X68694164Y-53021451D01*
X68791640Y-52907886D01*
X68818612Y-52828155D01*
X68827603Y-52730915D01*
X68816956Y-52651420D01*
X68785016Y-52575710D01*
X68723265Y-52509464D01*
X68623186Y-52458360D01*
X68732019Y-52356151D01*
X68762539Y-52287066D01*
X68772713Y-52208517D01*
X68755678Y-52098738D01*
X68691325Y-51999369D01*
X68560726Y-51927445D01*
X68465142Y-51906861D01*
X68344953Y-51900000D01*
X68187855Y-51908517D01*
X68042114Y-51928391D01*
X68042114Y-53065931D01*
X67388486Y-53065931D01*
X67011199Y-52500000D01*
X67726656Y-51426814D01*
X68042114Y-51426814D01*
X72457886Y-51426814D01*
X72773344Y-51426814D01*
X73488801Y-52500000D01*
G37*
D14*
X103940000Y-55740000D02*
X104090000Y-55740000D01*
X103940000Y-57300000D02*
X103940000Y-55740000D01*
X107060000Y-55740000D02*
X106910000Y-55740000D01*
X107060000Y-58860000D02*
X106910000Y-58860000D01*
X107060000Y-58860000D02*
X107060000Y-55740000D01*
D17*
G36*
X91069470Y-50266637D02*
G01*
X91099950Y-50384747D01*
X91125667Y-50501905D01*
X91148527Y-50623825D01*
X90918022Y-50623825D01*
X90941835Y-50501905D01*
X90968505Y-50384747D01*
X90998985Y-50266637D01*
X91034227Y-50139955D01*
X91069470Y-50266637D01*
G37*
G36*
X92004349Y-50112809D02*
G01*
X92070547Y-50145670D01*
X92113410Y-50201867D01*
X92127697Y-50282830D01*
X92074357Y-50415227D01*
X92004349Y-50450232D01*
X91901002Y-50461900D01*
X91849567Y-50461900D01*
X91849567Y-50107570D01*
X91887667Y-50102807D01*
X91920052Y-50101855D01*
X92004349Y-50112809D01*
G37*
G36*
X95365351Y-50500000D02*
G01*
X94690557Y-51512190D01*
X94293683Y-51512190D01*
X93537397Y-51512190D01*
X92998282Y-51512190D01*
X92443927Y-51512190D01*
X91243777Y-51512190D01*
X90474157Y-51512190D01*
X89218762Y-51512190D01*
X88706317Y-51512190D01*
X88309442Y-51512190D01*
X87634649Y-50500000D01*
X88706317Y-50500000D01*
X88714533Y-50639184D01*
X88739179Y-50761461D01*
X88780255Y-50866832D01*
X88837762Y-50955295D01*
X88938516Y-51044195D01*
X89065516Y-51097535D01*
X89218762Y-51115315D01*
X89322823Y-51108886D01*
X89414025Y-51089597D01*
X89548327Y-51033400D01*
X89489272Y-50848615D01*
X89393070Y-50890525D01*
X89241622Y-50911480D01*
X89105653Y-50884572D01*
X89013975Y-50803847D01*
X88975346Y-50721615D01*
X88952168Y-50618427D01*
X88944442Y-50494285D01*
X88950872Y-50387605D01*
X88970160Y-50299975D01*
X89036835Y-50175197D01*
X89130180Y-50108522D01*
X89237812Y-50088520D01*
X89379735Y-50108522D01*
X89485462Y-50157100D01*
X89546422Y-49970410D01*
X89507370Y-49947550D01*
X89443552Y-49918975D01*
X89415206Y-49911355D01*
X89693107Y-49911355D01*
X89693107Y-51090550D01*
X89927422Y-51090550D01*
X89927422Y-50570485D01*
X90239842Y-50570485D01*
X90239842Y-51090550D01*
X90474157Y-51090550D01*
X90577027Y-51090550D01*
X90820867Y-51090550D01*
X90874207Y-50818135D01*
X91188532Y-50818135D01*
X91243777Y-51090550D01*
X91495237Y-51090550D01*
X91615252Y-51090550D01*
X91849567Y-51090550D01*
X91849567Y-50656210D01*
X91971487Y-50656210D01*
X92036019Y-50764081D01*
X92096265Y-50870522D01*
X92150796Y-50978393D01*
X92198182Y-51090550D01*
X92443927Y-51090550D01*
X92389635Y-50965772D01*
X92323912Y-50834327D01*
X92253427Y-50708597D01*
X92184847Y-50599060D01*
X92268191Y-50545244D01*
X92302343Y-50500000D01*
X92516317Y-50500000D01*
X92524890Y-50643113D01*
X92550607Y-50767652D01*
X92592041Y-50873380D01*
X92647762Y-50960057D01*
X92717057Y-51027685D01*
X92799210Y-51076262D01*
X92893269Y-51105552D01*
X92998282Y-51115315D01*
X93114726Y-51110553D01*
X93212595Y-51096265D01*
X93343087Y-51061975D01*
X93343087Y-50473330D01*
X93108772Y-50473330D01*
X93108772Y-50903860D01*
X93063052Y-50909575D01*
X93017332Y-50911480D01*
X92903509Y-50886477D01*
X92821117Y-50811467D01*
X92784076Y-50732410D01*
X92761851Y-50628587D01*
X92754442Y-50500000D01*
X92758491Y-50412608D01*
X92770635Y-50333312D01*
X92823975Y-50203772D01*
X92918272Y-50119000D01*
X93059242Y-50088520D01*
X93184972Y-50109475D01*
X93287842Y-50157100D01*
X93348802Y-49970410D01*
X93309750Y-49947550D01*
X93244027Y-49918975D01*
X93213853Y-49911355D01*
X93537397Y-49911355D01*
X93537397Y-51090550D01*
X94293683Y-51090550D01*
X94293683Y-50896240D01*
X93771712Y-50896240D01*
X93771712Y-50564770D01*
X94188907Y-50564770D01*
X94188907Y-50370460D01*
X93771712Y-50370460D01*
X93771712Y-50105665D01*
X94251772Y-50105665D01*
X94251772Y-49911355D01*
X93537397Y-49911355D01*
X93213853Y-49911355D01*
X93149730Y-49895162D01*
X93026857Y-49884685D01*
X92923511Y-49894448D01*
X92826832Y-49923737D01*
X92739679Y-49972553D01*
X92664907Y-50040895D01*
X92603471Y-50128287D01*
X92556322Y-50234252D01*
X92526319Y-50358316D01*
X92516317Y-50500000D01*
X92302343Y-50500000D01*
X92323912Y-50471425D01*
X92355345Y-50382842D01*
X92365822Y-50284735D01*
X92357964Y-50192104D01*
X92334390Y-50112332D01*
X92243902Y-49991365D01*
X92179132Y-49949931D01*
X92102932Y-49920880D01*
X92016255Y-49903735D01*
X91920052Y-49898020D01*
X91853377Y-49899925D01*
X91773367Y-49904687D01*
X91690500Y-49914212D01*
X91615252Y-49928500D01*
X91615252Y-51090550D01*
X91495237Y-51090550D01*
X91463805Y-50956857D01*
X91431991Y-50827050D01*
X91399797Y-50701130D01*
X91367221Y-50579096D01*
X91334265Y-50460947D01*
X91292772Y-50317656D01*
X91251159Y-50178293D01*
X91209428Y-50042860D01*
X91167577Y-49911355D01*
X90912307Y-49911355D01*
X90871945Y-50041788D01*
X90830869Y-50175912D01*
X90789078Y-50313727D01*
X90746572Y-50455232D01*
X90712359Y-50572390D01*
X90678297Y-50694500D01*
X90644388Y-50821564D01*
X90610632Y-50953580D01*
X90577027Y-51090550D01*
X90474157Y-51090550D01*
X90474157Y-49911355D01*
X90239842Y-49911355D01*
X90239842Y-50376175D01*
X89927422Y-50376175D01*
X89927422Y-49911355D01*
X89693107Y-49911355D01*
X89415206Y-49911355D01*
X89354970Y-49895162D01*
X89241622Y-49884685D01*
X89129942Y-49894924D01*
X89027310Y-49925642D01*
X88935870Y-49976125D01*
X88857765Y-50045657D01*
X88794186Y-50133526D01*
X88746322Y-50239015D01*
X88716319Y-50361411D01*
X88706317Y-50500000D01*
X87634649Y-50500000D01*
X88309442Y-49487810D01*
X88706317Y-49487810D01*
X94293683Y-49487810D01*
X94690557Y-49487810D01*
X95365351Y-50500000D01*
G37*
D16*
X76435000Y-32960000D02*
X83165000Y-32960000D01*
X76435000Y-48960000D02*
X76435000Y-32960000D01*
X83165000Y-32960000D02*
X83165000Y-48960000D01*
X83165000Y-48960000D02*
X76435000Y-48960000D01*
D14*
X119377500Y-30012742D02*
X119377500Y-30487258D01*
X120422500Y-30012742D02*
X120422500Y-30487258D01*
X104990000Y-49109420D02*
X104990000Y-49390580D01*
X106010000Y-49109420D02*
X106010000Y-49390580D01*
X106990000Y-52609420D02*
X106990000Y-52890580D01*
X108010000Y-52609420D02*
X108010000Y-52890580D01*
X101477500Y-26262742D02*
X101477500Y-26737258D01*
X102522500Y-26262742D02*
X102522500Y-26737258D01*
X104788748Y-28140000D02*
X106211252Y-28140000D01*
X104788748Y-30860000D02*
X106211252Y-30860000D01*
X114987258Y-27977500D02*
X114512742Y-27977500D01*
X114987258Y-29022500D02*
X114512742Y-29022500D01*
X146150000Y-32340000D02*
X146150000Y-35000000D01*
X147850000Y-32340000D02*
X146150000Y-32340000D01*
X147850000Y-32340000D02*
X147850000Y-35000000D01*
X134737258Y-27977500D02*
X134262742Y-27977500D01*
X134737258Y-29022500D02*
X134262742Y-29022500D01*
X119377500Y-26737258D02*
X119377500Y-26262742D01*
X120422500Y-26737258D02*
X120422500Y-26262742D01*
X98359420Y-80740000D02*
X98640580Y-80740000D01*
X98359420Y-81760000D02*
X98640580Y-81760000D01*
X102977500Y-49012742D02*
X102977500Y-49487258D01*
X104022500Y-49012742D02*
X104022500Y-49487258D01*
X131015000Y-48738748D02*
X131015000Y-49261252D01*
X132485000Y-48738748D02*
X132485000Y-49261252D01*
D15*
X125076400Y-37179700D02*
X121723600Y-37179700D01*
D17*
G36*
X151769464Y-32112809D02*
G01*
X151835663Y-32145670D01*
X151878525Y-32201867D01*
X151892812Y-32282830D01*
X151839472Y-32415227D01*
X151769464Y-32450232D01*
X151666118Y-32461900D01*
X151614683Y-32461900D01*
X151614683Y-32107570D01*
X151652783Y-32102807D01*
X151685167Y-32101855D01*
X151769464Y-32112809D01*
G37*
G36*
X155159041Y-32500000D02*
G01*
X154484248Y-33512190D01*
X154087373Y-33512190D01*
X153776858Y-33512190D01*
X152671958Y-33512190D01*
X152209043Y-33512190D01*
X151001272Y-33512190D01*
X150412628Y-33512190D01*
X150015752Y-33512190D01*
X149340959Y-32500000D01*
X149733389Y-31911355D01*
X150412627Y-31911355D01*
X150412627Y-33090550D01*
X150624082Y-33090550D01*
X150624082Y-32307595D01*
X150694885Y-32438299D01*
X150762513Y-32568792D01*
X150826965Y-32699072D01*
X150888242Y-32829353D01*
X150946345Y-32959846D01*
X151001272Y-33090550D01*
X151189867Y-33090550D01*
X151380368Y-33090550D01*
X151614683Y-33090550D01*
X151614683Y-32656210D01*
X151736603Y-32656210D01*
X151801134Y-32764081D01*
X151861380Y-32870522D01*
X151915911Y-32978393D01*
X151963298Y-33090550D01*
X152209043Y-33090550D01*
X152180860Y-33025780D01*
X152306198Y-33025780D01*
X152437643Y-33083882D01*
X152540036Y-33107457D01*
X152671958Y-33115315D01*
X152805625Y-33105261D01*
X152914528Y-33075098D01*
X152998665Y-33024827D01*
X153079389Y-32915528D01*
X153106298Y-32768605D01*
X153098201Y-32679784D01*
X153073912Y-32607632D01*
X152991045Y-32500952D01*
X152880555Y-32432372D01*
X152765303Y-32385700D01*
X152691960Y-32357125D01*
X152625285Y-32321882D01*
X152576708Y-32276162D01*
X152557658Y-32216155D01*
X152578401Y-32141013D01*
X152640631Y-32095928D01*
X152744348Y-32080900D01*
X152878650Y-32099950D01*
X152984377Y-32145670D01*
X153052958Y-31964695D01*
X152921447Y-31911355D01*
X153230123Y-31911355D01*
X153230123Y-32105665D01*
X153540638Y-32105665D01*
X153540638Y-33090550D01*
X153776858Y-33090550D01*
X153776858Y-32105665D01*
X154087373Y-32105665D01*
X154087373Y-31911355D01*
X153230123Y-31911355D01*
X152921447Y-31911355D01*
X152916750Y-31909450D01*
X152828882Y-31890876D01*
X152727203Y-31884685D01*
X152610468Y-31895057D01*
X152511726Y-31926172D01*
X152430975Y-31978030D01*
X152350251Y-32089472D01*
X152323342Y-32237110D01*
X152353822Y-32377127D01*
X152430975Y-32471425D01*
X152534798Y-32534290D01*
X152645288Y-32578105D01*
X152725298Y-32611442D01*
X152797688Y-32651447D01*
X152851027Y-32701930D01*
X152871983Y-32766700D01*
X152863410Y-32822897D01*
X152831978Y-32872427D01*
X152770065Y-32906717D01*
X152671958Y-32919100D01*
X152576946Y-32912432D01*
X152497650Y-32892430D01*
X152374778Y-32835280D01*
X152306198Y-33025780D01*
X152180860Y-33025780D01*
X152154750Y-32965772D01*
X152089028Y-32834327D01*
X152018542Y-32708597D01*
X151949963Y-32599060D01*
X152033306Y-32545244D01*
X152089028Y-32471425D01*
X152120460Y-32382842D01*
X152130938Y-32284735D01*
X152123079Y-32192104D01*
X152099505Y-32112332D01*
X152009018Y-31991365D01*
X151944248Y-31949931D01*
X151868048Y-31920880D01*
X151781370Y-31903735D01*
X151685167Y-31898020D01*
X151618492Y-31899925D01*
X151538483Y-31904687D01*
X151455615Y-31914212D01*
X151380368Y-31928500D01*
X151380368Y-33090550D01*
X151189867Y-33090550D01*
X151189867Y-31911355D01*
X150978412Y-31911355D01*
X150978412Y-32637160D01*
X150944837Y-32562865D01*
X150905070Y-32477140D01*
X150860302Y-32384271D01*
X150811725Y-32288545D01*
X150760528Y-32191152D01*
X150707902Y-32093282D01*
X150654562Y-31998747D01*
X150601222Y-31911355D01*
X150412627Y-31911355D01*
X149733389Y-31911355D01*
X150015752Y-31487810D01*
X150412627Y-31487810D01*
X154087373Y-31487810D01*
X154484248Y-31487810D01*
X155159041Y-32500000D01*
G37*
D14*
X85840000Y-30900000D02*
X85840000Y-32600000D01*
X85840000Y-30900000D02*
X88500000Y-30900000D01*
X85840000Y-32600000D02*
X88500000Y-32600000D01*
X99477500Y-33512742D02*
X99477500Y-33987258D01*
X100522500Y-33512742D02*
X100522500Y-33987258D01*
X97350000Y-75315000D02*
X97350000Y-75090000D01*
X97350000Y-79150000D02*
X97350000Y-78625000D01*
X97350000Y-79150000D02*
X97875000Y-79150000D01*
X97875000Y-74850000D02*
X97650000Y-74850000D01*
X101650000Y-74850000D02*
X101125000Y-74850000D01*
X101650000Y-74850000D02*
X101650000Y-75375000D01*
X101650000Y-79150000D02*
X101125000Y-79150000D01*
X101650000Y-79150000D02*
X101650000Y-78625000D01*
X97350000Y-74850000D02*
X97110000Y-74520000D01*
X97590000Y-74520000D01*
X97350000Y-74850000D01*
G36*
X97350000Y-74850000D02*
G01*
X97110000Y-74520000D01*
X97590000Y-74520000D01*
X97350000Y-74850000D01*
G37*
D12*
X140650000Y-45050000D02*
X140650000Y-43850000D01*
D14*
X104990000Y-62640580D02*
X104990000Y-62359420D01*
X106010000Y-62640580D02*
X106010000Y-62359420D01*
X99477500Y-26737258D02*
X99477500Y-26262742D01*
X100522500Y-26737258D02*
X100522500Y-26262742D01*
D17*
G36*
X58224149Y-35750000D02*
G01*
X57514551Y-36814396D01*
X57204954Y-36814396D01*
X56107121Y-36814396D01*
X55059443Y-36814396D01*
X53816718Y-36814396D01*
X53116409Y-36814396D01*
X52795046Y-36814396D01*
X52485449Y-36814396D01*
X51775851Y-35750000D01*
X52158514Y-35176006D01*
X52795046Y-35176006D01*
X52816409Y-35280031D01*
X52847059Y-35410062D01*
X52871620Y-35507379D01*
X52898246Y-35608617D01*
X52926935Y-35713777D01*
X52957276Y-35821001D01*
X52988854Y-35928431D01*
X53021672Y-36036068D01*
X53070433Y-36189319D01*
X53116409Y-36325851D01*
X53352322Y-36325851D01*
X53387822Y-36226883D01*
X53422497Y-36125645D01*
X53456347Y-36022136D01*
X53488854Y-35918111D01*
X53519505Y-35815325D01*
X53548297Y-35713777D01*
X53587771Y-35565867D01*
X53622601Y-35424923D01*
X53652554Y-35293963D01*
X53677399Y-35176006D01*
X53816718Y-35176006D01*
X53816718Y-36325851D01*
X54554180Y-36325851D01*
X54554180Y-36262693D01*
X54702786Y-36262693D01*
X54830960Y-36319350D01*
X54930805Y-36342337D01*
X55059443Y-36350000D01*
X55189783Y-36340196D01*
X55295975Y-36310784D01*
X55378019Y-36261765D01*
X55456734Y-36155186D01*
X55482972Y-36011920D01*
X55475077Y-35925310D01*
X55451393Y-35854954D01*
X55370588Y-35750929D01*
X55369091Y-35750000D01*
X55607430Y-35750000D01*
X55615441Y-35885720D01*
X55639474Y-36004954D01*
X55679528Y-36107701D01*
X55735604Y-36193963D01*
X55833849Y-36280650D01*
X55957688Y-36332663D01*
X56107121Y-36350000D01*
X56208591Y-36343731D01*
X56297523Y-36324923D01*
X56428483Y-36270124D01*
X56370898Y-36089938D01*
X56277090Y-36130805D01*
X56129412Y-36151238D01*
X55996827Y-36125000D01*
X55907430Y-36046285D01*
X55869763Y-35966099D01*
X55847162Y-35865480D01*
X55839628Y-35744427D01*
X55840076Y-35736997D01*
X56695975Y-35736997D01*
X56695975Y-35961765D01*
X57204954Y-35961765D01*
X57204954Y-35736997D01*
X56695975Y-35736997D01*
X55840076Y-35736997D01*
X55845898Y-35640402D01*
X55864706Y-35554954D01*
X55929721Y-35433282D01*
X56020743Y-35368266D01*
X56125697Y-35348762D01*
X56264087Y-35368266D01*
X56367183Y-35415635D01*
X56426625Y-35233591D01*
X56388545Y-35211300D01*
X56326316Y-35183437D01*
X56239938Y-35160217D01*
X56129412Y-35150000D01*
X56020511Y-35159985D01*
X55920433Y-35189938D01*
X55831269Y-35239164D01*
X55755108Y-35306966D01*
X55693111Y-35392647D01*
X55646440Y-35495511D01*
X55617183Y-35614861D01*
X55607430Y-35750000D01*
X55369091Y-35750000D01*
X55262848Y-35684056D01*
X55150464Y-35638545D01*
X55078947Y-35610681D01*
X55013932Y-35576316D01*
X54966563Y-35531734D01*
X54947988Y-35473220D01*
X54968215Y-35399948D01*
X55028896Y-35355986D01*
X55130031Y-35341331D01*
X55260991Y-35359907D01*
X55364087Y-35404489D01*
X55430960Y-35228019D01*
X55298142Y-35174149D01*
X55212461Y-35156037D01*
X55113313Y-35150000D01*
X54999484Y-35160114D01*
X54903199Y-35190454D01*
X54824458Y-35241022D01*
X54745743Y-35349690D01*
X54719505Y-35493653D01*
X54749226Y-35630186D01*
X54824458Y-35722136D01*
X54925697Y-35783437D01*
X55033437Y-35826161D01*
X55111455Y-35858669D01*
X55182043Y-35897678D01*
X55234056Y-35946904D01*
X55254489Y-36010062D01*
X55246130Y-36064861D01*
X55215480Y-36113158D01*
X55155108Y-36146594D01*
X55059443Y-36158669D01*
X54966796Y-36152167D01*
X54889474Y-36132663D01*
X54769659Y-36076935D01*
X54702786Y-36262693D01*
X54554180Y-36262693D01*
X54554180Y-36136378D01*
X54045201Y-36136378D01*
X54045201Y-35813158D01*
X54452012Y-35813158D01*
X54452012Y-35623684D01*
X54045201Y-35623684D01*
X54045201Y-35365480D01*
X54513313Y-35365480D01*
X54513313Y-35176006D01*
X53816718Y-35176006D01*
X53677399Y-35176006D01*
X53437771Y-35176006D01*
X53421053Y-35272601D01*
X53400619Y-35384056D01*
X53377399Y-35504567D01*
X53352322Y-35628328D01*
X53325387Y-35752786D01*
X53296594Y-35875387D01*
X53266873Y-35990325D01*
X53237152Y-36091796D01*
X53207198Y-35988932D01*
X53176780Y-35873529D01*
X53147059Y-35750929D01*
X53119195Y-35626471D01*
X53093421Y-35502941D01*
X53069969Y-35383127D01*
X53050464Y-35272368D01*
X53036533Y-35176006D01*
X52795046Y-35176006D01*
X52158514Y-35176006D01*
X52485449Y-34685604D01*
X52795046Y-34685604D01*
X57204954Y-34685604D01*
X57514551Y-34685604D01*
X58224149Y-35750000D01*
G37*
D14*
X136790000Y-48000000D02*
X136790000Y-50685000D01*
X136790000Y-50685000D02*
X138710000Y-50685000D01*
X138710000Y-50685000D02*
X138710000Y-48000000D01*
D17*
G36*
X84004954Y-67637598D02*
G01*
X84035434Y-67755708D01*
X84061152Y-67872865D01*
X84084012Y-67994785D01*
X83853507Y-67994785D01*
X83877319Y-67872865D01*
X83903989Y-67755708D01*
X83934469Y-67637598D01*
X83969712Y-67510915D01*
X84004954Y-67637598D01*
G37*
G36*
X85909954Y-67637598D02*
G01*
X85940434Y-67755708D01*
X85966152Y-67872865D01*
X85989012Y-67994785D01*
X85758507Y-67994785D01*
X85782319Y-67872865D01*
X85808989Y-67755708D01*
X85839469Y-67637598D01*
X85874712Y-67510915D01*
X85909954Y-67637598D01*
G37*
G36*
X83151514Y-67982403D02*
G01*
X83205807Y-68105275D01*
X83186757Y-68190048D01*
X83138179Y-68241483D01*
X83070552Y-68266248D01*
X82992447Y-68272915D01*
X82934344Y-68271010D01*
X82880052Y-68265295D01*
X82880052Y-67945255D01*
X83005782Y-67945255D01*
X83151514Y-67982403D01*
G37*
G36*
X83049597Y-67477578D02*
G01*
X83102937Y-67496628D01*
X83139132Y-67536633D01*
X83152467Y-67604260D01*
X83106747Y-67711893D01*
X82971492Y-67750945D01*
X82880052Y-67750945D01*
X82880052Y-67480435D01*
X82931487Y-67474720D01*
X82986732Y-67472815D01*
X83049597Y-67477578D01*
G37*
G36*
X87757573Y-72758857D02*
G01*
X87810284Y-72878151D01*
X87791789Y-72960454D01*
X87744627Y-73010391D01*
X87678969Y-73034435D01*
X87603139Y-73040908D01*
X87546729Y-73039059D01*
X87494017Y-73033510D01*
X87494017Y-72722792D01*
X87616085Y-72722792D01*
X87757573Y-72758857D01*
G37*
G36*
X87658624Y-72268736D02*
G01*
X87710411Y-72287231D01*
X87745551Y-72326071D01*
X87758498Y-72391729D01*
X87714110Y-72496226D01*
X87582794Y-72534141D01*
X87494017Y-72534141D01*
X87494017Y-72271510D01*
X87543954Y-72265962D01*
X87597590Y-72264112D01*
X87658624Y-72268736D01*
G37*
G36*
X83020504Y-72274747D02*
G01*
X83084775Y-72306651D01*
X83126389Y-72361212D01*
X83140260Y-72439816D01*
X83088474Y-72568357D01*
X83020504Y-72602342D01*
X82920168Y-72613670D01*
X82870231Y-72613670D01*
X82870231Y-72269661D01*
X82907221Y-72265037D01*
X82938663Y-72264112D01*
X83020504Y-72274747D01*
G37*
G36*
X86781257Y-69879468D02*
G01*
X86846478Y-69911844D01*
X86888707Y-69967211D01*
X86902783Y-70046977D01*
X86850232Y-70177418D01*
X86781257Y-70211905D01*
X86679438Y-70223401D01*
X86628764Y-70223401D01*
X86628764Y-69874307D01*
X86666300Y-69869615D01*
X86698207Y-69868676D01*
X86781257Y-69879468D01*
G37*
G36*
X91473376Y-69879468D02*
G01*
X91538596Y-69911844D01*
X91580825Y-69967211D01*
X91594901Y-70046977D01*
X91542350Y-70177418D01*
X91473376Y-70211905D01*
X91371557Y-70223401D01*
X91320882Y-70223401D01*
X91320882Y-69874307D01*
X91358419Y-69869615D01*
X91390325Y-69868676D01*
X91473376Y-69879468D01*
G37*
G36*
X84046222Y-69887445D02*
G01*
X84101589Y-69973780D01*
X84127865Y-70102344D01*
X84132791Y-70179060D01*
X84134433Y-70260938D01*
X84127865Y-70418593D01*
X84101589Y-70547157D01*
X84045283Y-70634430D01*
X83950502Y-70666337D01*
X83854783Y-70634430D01*
X83799416Y-70548095D01*
X83773140Y-70419531D01*
X83768214Y-70342815D01*
X83766571Y-70260938D01*
X83773140Y-70103282D01*
X83799416Y-69974718D01*
X83854783Y-69887445D01*
X83950502Y-69855538D01*
X84046222Y-69887445D01*
G37*
G36*
X87799916Y-69887445D02*
G01*
X87855283Y-69973780D01*
X87881559Y-70102344D01*
X87886486Y-70179060D01*
X87888128Y-70260938D01*
X87881559Y-70418593D01*
X87855283Y-70547157D01*
X87798978Y-70634430D01*
X87704197Y-70666337D01*
X87608478Y-70634430D01*
X87553111Y-70548095D01*
X87526835Y-70419531D01*
X87521908Y-70342815D01*
X87520266Y-70260938D01*
X87526835Y-70103282D01*
X87553111Y-69974718D01*
X87608478Y-69887445D01*
X87704197Y-69855538D01*
X87799916Y-69887445D01*
G37*
G36*
X92303333Y-73641230D02*
G01*
X91906458Y-73641230D01*
X90168498Y-73641230D01*
X89975182Y-73641230D01*
X89036759Y-73641230D01*
X87584644Y-73641230D01*
X87214340Y-73641230D01*
X85781367Y-73641230D01*
X85324167Y-73641230D01*
X84736391Y-73641230D01*
X83584144Y-73641230D01*
X83447280Y-73641230D01*
X82593542Y-73641230D01*
X82196667Y-73641230D01*
X82196667Y-73224010D01*
X82642741Y-73224010D01*
X82870231Y-73224010D01*
X82870231Y-72802321D01*
X82988600Y-72802321D01*
X83051252Y-72907050D01*
X83109743Y-73010391D01*
X83162686Y-73115120D01*
X83208692Y-73224010D01*
X83447280Y-73224010D01*
X83584144Y-73224010D01*
X84318401Y-73224010D01*
X84318401Y-73035360D01*
X83811634Y-73035360D01*
X83811634Y-72713544D01*
X84216678Y-72713544D01*
X84216678Y-72524894D01*
X83811634Y-72524894D01*
X83811634Y-72267811D01*
X84277712Y-72267811D01*
X84277712Y-72079161D01*
X84416425Y-72079161D01*
X84437695Y-72182733D01*
X84468212Y-72312199D01*
X84505664Y-72459005D01*
X84547741Y-72614595D01*
X84577950Y-72721353D01*
X84609391Y-72828317D01*
X84642066Y-72935486D01*
X84690616Y-73088071D01*
X84736391Y-73224010D01*
X84971280Y-73224010D01*
X85006626Y-73125472D01*
X85022920Y-73077899D01*
X85614911Y-73077899D01*
X85628782Y-73149105D01*
X85665772Y-73200891D01*
X85718483Y-73233258D01*
X85781367Y-73244355D01*
X85886066Y-73205515D01*
X87266527Y-73205515D01*
X87346519Y-73220080D01*
X87427435Y-73230483D01*
X87584644Y-73238806D01*
X87675963Y-73234414D01*
X87761272Y-73221236D01*
X87903685Y-73162051D01*
X87998935Y-73051081D01*
X88025291Y-72973170D01*
X88034076Y-72878151D01*
X88023672Y-72800471D01*
X87992462Y-72726491D01*
X87932121Y-72661758D01*
X87834328Y-72611821D01*
X87940675Y-72511947D01*
X87980440Y-72367685D01*
X87963794Y-72260413D01*
X87900911Y-72163314D01*
X87773294Y-72093032D01*
X87706074Y-72078556D01*
X87679894Y-72072919D01*
X87562450Y-72066214D01*
X87408940Y-72074537D01*
X87266527Y-72093957D01*
X87266527Y-73205515D01*
X85886066Y-73205515D01*
X85896037Y-73201816D01*
X85945974Y-73077899D01*
X85943714Y-73072459D01*
X85896037Y-72957680D01*
X85781367Y-72915141D01*
X85718483Y-72926238D01*
X85665772Y-72957680D01*
X85628782Y-73008542D01*
X85614911Y-73077899D01*
X85022920Y-73077899D01*
X85041150Y-73024674D01*
X85074852Y-72921615D01*
X85107219Y-72818042D01*
X85137736Y-72715702D01*
X85166403Y-72614595D01*
X85205706Y-72467328D01*
X85240384Y-72326996D01*
X85270207Y-72196605D01*
X85294945Y-72079161D01*
X85085995Y-72079161D01*
X85056357Y-72079161D01*
X85039712Y-72175335D01*
X85019367Y-72286306D01*
X84996248Y-72406294D01*
X84971280Y-72529517D01*
X84944462Y-72653435D01*
X84915794Y-72775503D01*
X84886202Y-72889942D01*
X84856610Y-72990971D01*
X84826786Y-72888554D01*
X84796500Y-72773653D01*
X84766908Y-72651585D01*
X84739166Y-72527668D01*
X84713504Y-72404675D01*
X84690153Y-72285382D01*
X84670733Y-72175104D01*
X84656862Y-72079161D01*
X84416425Y-72079161D01*
X84277712Y-72079161D01*
X83952379Y-72079161D01*
X83584144Y-72079161D01*
X83584144Y-73224010D01*
X83447280Y-73224010D01*
X83394568Y-73102867D01*
X83330760Y-72975250D01*
X83262328Y-72853183D01*
X83195746Y-72746835D01*
X83276662Y-72694587D01*
X83330760Y-72622918D01*
X83361277Y-72536916D01*
X83371450Y-72441666D01*
X83363820Y-72351733D01*
X83340933Y-72274284D01*
X83253081Y-72156840D01*
X83116217Y-72088408D01*
X83098414Y-72084887D01*
X83032064Y-72071763D01*
X82938663Y-72066214D01*
X82873930Y-72068064D01*
X82796250Y-72072687D01*
X82715797Y-72081935D01*
X82642741Y-72095806D01*
X82642741Y-73224010D01*
X82196667Y-73224010D01*
X82196667Y-70260938D01*
X82593542Y-70260938D01*
X82601636Y-70398065D01*
X82625917Y-70518535D01*
X82666387Y-70622348D01*
X82723044Y-70709504D01*
X82822309Y-70797090D01*
X82947432Y-70849642D01*
X83098414Y-70867159D01*
X83200937Y-70860825D01*
X83290791Y-70841822D01*
X83423108Y-70786455D01*
X83364926Y-70604401D01*
X83270145Y-70645691D01*
X83120936Y-70666337D01*
X82986976Y-70639826D01*
X82896653Y-70560295D01*
X82858594Y-70479277D01*
X82835759Y-70377615D01*
X82828498Y-70260938D01*
X83531966Y-70260938D01*
X83538710Y-70401877D01*
X83558945Y-70524400D01*
X83592670Y-70628506D01*
X83639884Y-70714196D01*
X83722570Y-70799176D01*
X83826735Y-70850163D01*
X83952379Y-70867159D01*
X84075000Y-70850163D01*
X84177601Y-70799176D01*
X84260182Y-70714196D01*
X84307807Y-70628506D01*
X84341825Y-70524400D01*
X84362236Y-70401877D01*
X84369039Y-70260938D01*
X84362353Y-70119998D01*
X84342294Y-69997475D01*
X84308863Y-69893369D01*
X84262059Y-69807679D01*
X84179895Y-69722699D01*
X84179262Y-69722389D01*
X84094945Y-69680992D01*
X84506049Y-69680992D01*
X84506049Y-70842760D01*
X84714379Y-70842760D01*
X84714379Y-70071376D01*
X84784135Y-70200149D01*
X84850764Y-70328713D01*
X84914264Y-70457068D01*
X84974635Y-70585424D01*
X85031879Y-70713988D01*
X85085995Y-70842760D01*
X85271803Y-70842760D01*
X85271803Y-69872430D01*
X85405059Y-69872430D01*
X85710985Y-69872430D01*
X85710985Y-70842760D01*
X85943714Y-70842760D01*
X86397911Y-70842760D01*
X86628764Y-70842760D01*
X86628764Y-70414839D01*
X86748882Y-70414839D01*
X86812460Y-70521115D01*
X86871815Y-70625984D01*
X86925540Y-70732261D01*
X86972227Y-70842760D01*
X87214340Y-70842760D01*
X87160850Y-70719827D01*
X87096099Y-70590324D01*
X87026655Y-70466452D01*
X86959089Y-70358534D01*
X87041201Y-70305513D01*
X87074848Y-70260938D01*
X87285660Y-70260938D01*
X87292405Y-70401877D01*
X87312640Y-70524400D01*
X87346364Y-70628506D01*
X87393579Y-70714196D01*
X87476264Y-70799176D01*
X87580429Y-70850163D01*
X87706074Y-70867159D01*
X87828695Y-70850163D01*
X87843592Y-70842760D01*
X88306665Y-70842760D01*
X89036759Y-70842760D01*
X89036759Y-70651322D01*
X88539394Y-70651322D01*
X88539394Y-69680992D01*
X89245089Y-69680992D01*
X89245089Y-70842760D01*
X89975182Y-70842760D01*
X89975182Y-70651322D01*
X89477818Y-70651322D01*
X89477818Y-69680992D01*
X90168498Y-69680992D01*
X90168498Y-70842760D01*
X90913606Y-70842760D01*
X91090030Y-70842760D01*
X91320882Y-70842760D01*
X91320882Y-70414839D01*
X91441000Y-70414839D01*
X91504578Y-70521115D01*
X91563933Y-70625984D01*
X91617658Y-70732261D01*
X91664345Y-70842760D01*
X91906458Y-70842760D01*
X91852968Y-70719827D01*
X91788217Y-70590324D01*
X91718773Y-70466452D01*
X91651207Y-70358534D01*
X91733319Y-70305513D01*
X91788217Y-70232785D01*
X91819185Y-70145511D01*
X91829507Y-70048854D01*
X91821765Y-69957592D01*
X91798539Y-69878999D01*
X91709389Y-69759819D01*
X91570502Y-69690376D01*
X91485106Y-69673484D01*
X91390325Y-69667854D01*
X91324635Y-69669731D01*
X91245808Y-69674423D01*
X91164165Y-69683807D01*
X91090030Y-69697883D01*
X91090030Y-70842760D01*
X90913606Y-70842760D01*
X90913606Y-70651322D01*
X90399350Y-70651322D01*
X90399350Y-70324750D01*
X90810379Y-70324750D01*
X90810379Y-70133312D01*
X90399350Y-70133312D01*
X90399350Y-69872430D01*
X90872315Y-69872430D01*
X90872315Y-69680992D01*
X90168498Y-69680992D01*
X89477818Y-69680992D01*
X89245089Y-69680992D01*
X88539394Y-69680992D01*
X88377882Y-69680992D01*
X88306665Y-69680992D01*
X88306665Y-70842760D01*
X87843592Y-70842760D01*
X87931296Y-70799176D01*
X88013877Y-70714196D01*
X88061502Y-70628506D01*
X88095520Y-70524400D01*
X88115930Y-70401877D01*
X88122734Y-70260938D01*
X88116048Y-70119998D01*
X88095989Y-69997475D01*
X88062558Y-69893369D01*
X88015754Y-69807679D01*
X87933589Y-69722699D01*
X87869247Y-69691110D01*
X87829737Y-69671712D01*
X87704197Y-69654716D01*
X87582411Y-69671712D01*
X87479810Y-69722699D01*
X87396394Y-69807679D01*
X87347948Y-69893369D01*
X87313344Y-69997475D01*
X87292581Y-70119998D01*
X87285660Y-70260938D01*
X87074848Y-70260938D01*
X87096099Y-70232785D01*
X87127067Y-70145511D01*
X87137389Y-70048854D01*
X87129647Y-69957592D01*
X87106421Y-69878999D01*
X87029142Y-69775689D01*
X87017271Y-69759819D01*
X86878384Y-69690376D01*
X86792988Y-69673484D01*
X86698207Y-69667854D01*
X86632517Y-69669731D01*
X86553690Y-69674423D01*
X86472047Y-69683807D01*
X86397911Y-69697883D01*
X86397911Y-70842760D01*
X85943714Y-70842760D01*
X85943714Y-69872430D01*
X86249640Y-69872430D01*
X86249640Y-69680992D01*
X86084262Y-69680992D01*
X85405059Y-69680992D01*
X85405059Y-69872430D01*
X85271803Y-69872430D01*
X85271803Y-69680992D01*
X85063473Y-69680992D01*
X85063473Y-70396071D01*
X85030393Y-70322873D01*
X84991214Y-70238415D01*
X84947108Y-70146919D01*
X84899249Y-70052607D01*
X84848808Y-69956654D01*
X84796961Y-69860231D01*
X84744409Y-69767092D01*
X84691857Y-69680992D01*
X84506049Y-69680992D01*
X84094945Y-69680992D01*
X84076043Y-69671712D01*
X83950502Y-69654716D01*
X83828716Y-69671712D01*
X83726115Y-69722699D01*
X83642700Y-69807679D01*
X83594253Y-69893369D01*
X83559649Y-69997475D01*
X83538886Y-70119998D01*
X83531966Y-70260938D01*
X82828498Y-70260938D01*
X82828148Y-70255307D01*
X82834482Y-70150204D01*
X82853485Y-70063869D01*
X82919175Y-69940935D01*
X83011140Y-69875245D01*
X83117182Y-69855538D01*
X83257007Y-69875245D01*
X83361172Y-69923105D01*
X83421232Y-69739174D01*
X83382756Y-69716652D01*
X83319882Y-69688499D01*
X83232608Y-69665038D01*
X83120936Y-69654716D01*
X83010906Y-69664804D01*
X82973397Y-69676030D01*
X82909791Y-69695068D01*
X82819702Y-69744805D01*
X82742751Y-69813309D01*
X82680111Y-69899879D01*
X82632956Y-70003809D01*
X82603395Y-70124397D01*
X82593542Y-70260938D01*
X82196667Y-70260938D01*
X82196667Y-68442460D01*
X82645737Y-68442460D01*
X82728128Y-68457462D01*
X82811472Y-68468178D01*
X82893863Y-68474607D01*
X82973397Y-68476750D01*
X83067456Y-68472226D01*
X83136829Y-68461510D01*
X83512512Y-68461510D01*
X83756352Y-68461510D01*
X83809692Y-68189095D01*
X84124017Y-68189095D01*
X84179262Y-68461510D01*
X84430722Y-68461510D01*
X84399289Y-68327817D01*
X84367476Y-68198011D01*
X84335281Y-68072090D01*
X84302706Y-67950056D01*
X84269749Y-67831908D01*
X84228256Y-67688616D01*
X84186644Y-67549253D01*
X84144912Y-67413820D01*
X84103062Y-67282315D01*
X84583122Y-67282315D01*
X84583122Y-68461510D01*
X85324167Y-68461510D01*
X85417512Y-68461510D01*
X85661352Y-68461510D01*
X85714692Y-68189095D01*
X86029017Y-68189095D01*
X86084262Y-68461510D01*
X86335722Y-68461510D01*
X86304289Y-68327817D01*
X86272476Y-68198011D01*
X86240281Y-68072090D01*
X86207706Y-67950056D01*
X86174749Y-67831908D01*
X86133256Y-67688616D01*
X86091644Y-67549253D01*
X86049912Y-67413820D01*
X86008062Y-67282315D01*
X86440497Y-67282315D01*
X86440497Y-68461510D01*
X86651952Y-68461510D01*
X86651952Y-67678555D01*
X86722754Y-67809259D01*
X86790382Y-67939752D01*
X86854834Y-68070033D01*
X86916112Y-68200314D01*
X86974214Y-68330806D01*
X87029142Y-68461510D01*
X87217737Y-68461510D01*
X87217737Y-67870960D01*
X87356802Y-67870960D01*
X87365017Y-68010144D01*
X87389663Y-68132421D01*
X87430740Y-68237792D01*
X87488247Y-68326255D01*
X87589000Y-68415155D01*
X87716000Y-68468495D01*
X87869247Y-68486275D01*
X87973308Y-68479846D01*
X88064509Y-68460558D01*
X88198812Y-68404360D01*
X88139757Y-68219575D01*
X88043554Y-68261485D01*
X87892107Y-68282440D01*
X87756138Y-68255532D01*
X87664459Y-68174808D01*
X87625830Y-68092575D01*
X87602653Y-67989388D01*
X87594927Y-67865245D01*
X87601356Y-67758565D01*
X87620644Y-67670935D01*
X87687319Y-67546158D01*
X87780664Y-67479483D01*
X87888297Y-67459480D01*
X88030219Y-67479483D01*
X88135947Y-67528060D01*
X88196907Y-67341370D01*
X88157854Y-67318510D01*
X88094037Y-67289935D01*
X88065690Y-67282315D01*
X88377882Y-67282315D01*
X88377882Y-68461510D01*
X89134167Y-68461510D01*
X89134167Y-68267200D01*
X88612197Y-68267200D01*
X88612197Y-67935730D01*
X89029392Y-67935730D01*
X89029392Y-67741420D01*
X88612197Y-67741420D01*
X88612197Y-67476625D01*
X89092257Y-67476625D01*
X89092257Y-67282315D01*
X88377882Y-67282315D01*
X88065690Y-67282315D01*
X88005454Y-67266123D01*
X87892107Y-67255645D01*
X87780426Y-67265885D01*
X87677794Y-67296603D01*
X87586354Y-67347085D01*
X87508249Y-67416618D01*
X87444670Y-67504486D01*
X87396807Y-67609975D01*
X87366803Y-67732371D01*
X87356802Y-67870960D01*
X87217737Y-67870960D01*
X87217737Y-67282315D01*
X87006282Y-67282315D01*
X87006282Y-68008120D01*
X86972706Y-67933825D01*
X86932939Y-67848100D01*
X86888172Y-67755231D01*
X86839594Y-67659505D01*
X86788398Y-67562112D01*
X86735772Y-67464243D01*
X86682432Y-67369707D01*
X86629092Y-67282315D01*
X86440497Y-67282315D01*
X86008062Y-67282315D01*
X85752792Y-67282315D01*
X85712430Y-67412748D01*
X85671353Y-67546872D01*
X85629562Y-67684687D01*
X85587057Y-67826193D01*
X85552843Y-67943350D01*
X85518782Y-68065461D01*
X85484873Y-68192524D01*
X85451116Y-68324541D01*
X85417512Y-68461510D01*
X85324167Y-68461510D01*
X85324167Y-68267200D01*
X84819342Y-68267200D01*
X84819342Y-67282315D01*
X84583122Y-67282315D01*
X84103062Y-67282315D01*
X83847792Y-67282315D01*
X83807430Y-67412748D01*
X83766353Y-67546872D01*
X83724562Y-67684687D01*
X83682057Y-67826193D01*
X83647843Y-67943350D01*
X83613782Y-68065461D01*
X83579873Y-68192524D01*
X83546116Y-68324541D01*
X83512512Y-68461510D01*
X83136829Y-68461510D01*
X83155324Y-68458653D01*
X83234382Y-68434364D01*
X83302009Y-68397693D01*
X83400117Y-68283393D01*
X83427263Y-68203145D01*
X83436312Y-68105275D01*
X83425596Y-68025265D01*
X83393449Y-67949065D01*
X83331299Y-67882390D01*
X83230572Y-67830955D01*
X83340109Y-67728085D01*
X83370828Y-67658553D01*
X83381067Y-67579495D01*
X83363922Y-67469005D01*
X83299152Y-67368993D01*
X83167707Y-67296603D01*
X83071504Y-67275886D01*
X82950537Y-67268980D01*
X82792422Y-67277553D01*
X82645737Y-67297555D01*
X82645737Y-68442460D01*
X82196667Y-68442460D01*
X82196667Y-66858770D01*
X82593542Y-66858770D01*
X91906458Y-66858770D01*
X92303333Y-66858770D01*
X92303333Y-73641230D01*
G37*
D14*
X87350000Y-36020000D02*
X87350000Y-48870000D01*
X87350000Y-48870000D02*
X95650000Y-48870000D01*
X89950000Y-33170000D02*
X87350000Y-36020000D01*
X93100000Y-33170000D02*
X89950000Y-33170000D01*
X95650000Y-36020000D02*
X93100000Y-33170000D01*
X95650000Y-48870000D02*
X95650000Y-36020000D01*
X107740000Y-57390580D02*
X107740000Y-57109420D01*
X108760000Y-57390580D02*
X108760000Y-57109420D01*
X102990000Y-52609420D02*
X102990000Y-52890580D01*
X104010000Y-52609420D02*
X104010000Y-52890580D01*
X102834420Y-72490000D02*
X103115580Y-72490000D01*
X102834420Y-73510000D02*
X103115580Y-73510000D01*
D16*
X129150000Y-58200000D02*
X129150000Y-58200000D01*
X129250000Y-58200000D02*
X129250000Y-58200000D01*
X129150000Y-58200000D02*
G75*
G02*
X129250000Y-58200000I50000J0D01*
G01*
X129250000Y-58200000D02*
G75*
G02*
X129150000Y-58200000I-50000J0D01*
G01*
D14*
X130762742Y-40477500D02*
X131237258Y-40477500D01*
X130762742Y-41522500D02*
X131237258Y-41522500D01*
X121377500Y-26262742D02*
X121377500Y-26737258D01*
X122422500Y-26262742D02*
X122422500Y-26737258D01*
X128237258Y-58727500D02*
X127762742Y-58727500D01*
X128237258Y-59772500D02*
X127762742Y-59772500D01*
X124240000Y-52390580D02*
X124240000Y-52109420D01*
X125260000Y-52390580D02*
X125260000Y-52109420D01*
D17*
G36*
X81733753Y-59766637D02*
G01*
X81764232Y-59884747D01*
X81789950Y-60001905D01*
X81812810Y-60123825D01*
X81582305Y-60123825D01*
X81606118Y-60001905D01*
X81632787Y-59884747D01*
X81663267Y-59766637D01*
X81698510Y-59639955D01*
X81733753Y-59766637D01*
G37*
G36*
X86496253Y-59766637D02*
G01*
X86526733Y-59884747D01*
X86552450Y-60001905D01*
X86575310Y-60123825D01*
X86344805Y-60123825D01*
X86368618Y-60001905D01*
X86395288Y-59884747D01*
X86425768Y-59766637D01*
X86461010Y-59639955D01*
X86496253Y-59766637D01*
G37*
G36*
X88401253Y-59766637D02*
G01*
X88431733Y-59884747D01*
X88457450Y-60001905D01*
X88480310Y-60123825D01*
X88249805Y-60123825D01*
X88273618Y-60001905D01*
X88300288Y-59884747D01*
X88330768Y-59766637D01*
X88366010Y-59639955D01*
X88401253Y-59766637D01*
G37*
G36*
X80880313Y-60111442D02*
G01*
X80934605Y-60234315D01*
X80915555Y-60319087D01*
X80866978Y-60370522D01*
X80799350Y-60395287D01*
X80721245Y-60401955D01*
X80663143Y-60400050D01*
X80608850Y-60394335D01*
X80608850Y-60074295D01*
X80734580Y-60074295D01*
X80880313Y-60111442D01*
G37*
G36*
X80778395Y-59606617D02*
G01*
X80831735Y-59625667D01*
X80867930Y-59665672D01*
X80881265Y-59733300D01*
X80835545Y-59840932D01*
X80700290Y-59879985D01*
X80608850Y-59879985D01*
X80608850Y-59609475D01*
X80660285Y-59603760D01*
X80715530Y-59601855D01*
X80778395Y-59606617D01*
G37*
G36*
X85642813Y-60111442D02*
G01*
X85697105Y-60234315D01*
X85678055Y-60319087D01*
X85629478Y-60370522D01*
X85561850Y-60395287D01*
X85483745Y-60401955D01*
X85425643Y-60400050D01*
X85371350Y-60394335D01*
X85371350Y-60074295D01*
X85497080Y-60074295D01*
X85642813Y-60111442D01*
G37*
G36*
X85540895Y-59606617D02*
G01*
X85594235Y-59625667D01*
X85630430Y-59665672D01*
X85643765Y-59733300D01*
X85598045Y-59840932D01*
X85462790Y-59879985D01*
X85371350Y-59879985D01*
X85371350Y-59609475D01*
X85422785Y-59603760D01*
X85478030Y-59601855D01*
X85540895Y-59606617D01*
G37*
G36*
X92697133Y-60000000D02*
G01*
X92022340Y-61012190D01*
X91625465Y-61012190D01*
X90869180Y-61012190D01*
X90360545Y-61012190D01*
X89520440Y-61012190D01*
X88575560Y-61012190D01*
X87815465Y-61012190D01*
X86670560Y-61012190D01*
X85464695Y-61012190D01*
X83723525Y-61012190D01*
X82771025Y-61012190D01*
X81908060Y-61012190D01*
X80702195Y-61012190D01*
X80374535Y-61012190D01*
X79977660Y-61012190D01*
X79683867Y-60571500D01*
X80374535Y-60571500D01*
X80456926Y-60586502D01*
X80540270Y-60597217D01*
X80622661Y-60603647D01*
X80702195Y-60605790D01*
X80796254Y-60601266D01*
X80865621Y-60590550D01*
X81241310Y-60590550D01*
X81485150Y-60590550D01*
X81538490Y-60318135D01*
X81852815Y-60318135D01*
X81908060Y-60590550D01*
X82159520Y-60590550D01*
X82128088Y-60456857D01*
X82096274Y-60327050D01*
X82064080Y-60201130D01*
X82031504Y-60079096D01*
X81998548Y-59960947D01*
X81957054Y-59817656D01*
X81915442Y-59678293D01*
X81873710Y-59542860D01*
X81831860Y-59411355D01*
X82224290Y-59411355D01*
X82224290Y-59605665D01*
X82534805Y-59605665D01*
X82534805Y-60590550D01*
X82771025Y-60590550D01*
X82771025Y-59605665D01*
X83081540Y-59605665D01*
X83081540Y-59411355D01*
X83176790Y-59411355D01*
X83176790Y-59605665D01*
X83487305Y-59605665D01*
X83487305Y-60590550D01*
X83723525Y-60590550D01*
X83723525Y-60571500D01*
X85137035Y-60571500D01*
X85219426Y-60586502D01*
X85302770Y-60597217D01*
X85385161Y-60603647D01*
X85464695Y-60605790D01*
X85558754Y-60601266D01*
X85628122Y-60590550D01*
X86003810Y-60590550D01*
X86247650Y-60590550D01*
X86300990Y-60318135D01*
X86615315Y-60318135D01*
X86670560Y-60590550D01*
X86922020Y-60590550D01*
X86890588Y-60456857D01*
X86858774Y-60327050D01*
X86826580Y-60201130D01*
X86794004Y-60079096D01*
X86761048Y-59960947D01*
X86719554Y-59817656D01*
X86677942Y-59678293D01*
X86636210Y-59542860D01*
X86594360Y-59411355D01*
X87074420Y-59411355D01*
X87074420Y-60590550D01*
X87815465Y-60590550D01*
X87908810Y-60590550D01*
X88152650Y-60590550D01*
X88205990Y-60318135D01*
X88520315Y-60318135D01*
X88575560Y-60590550D01*
X88827020Y-60590550D01*
X88795588Y-60456857D01*
X88763774Y-60327050D01*
X88731580Y-60201130D01*
X88699004Y-60079096D01*
X88666048Y-59960947D01*
X88624554Y-59817656D01*
X88582942Y-59678293D01*
X88541210Y-59542860D01*
X88499360Y-59411355D01*
X88931795Y-59411355D01*
X88931795Y-60590550D01*
X89143250Y-60590550D01*
X89143250Y-59807595D01*
X89214053Y-59938299D01*
X89281680Y-60068792D01*
X89346133Y-60199072D01*
X89407410Y-60329353D01*
X89465513Y-60459846D01*
X89520440Y-60590550D01*
X89709035Y-60590550D01*
X89709035Y-60000000D01*
X89848100Y-60000000D01*
X89856315Y-60139184D01*
X89880961Y-60261461D01*
X89922038Y-60366832D01*
X89979545Y-60455295D01*
X90080298Y-60544195D01*
X90207298Y-60597535D01*
X90360545Y-60615315D01*
X90464606Y-60608886D01*
X90555808Y-60589597D01*
X90690110Y-60533400D01*
X90631055Y-60348615D01*
X90534853Y-60390525D01*
X90383405Y-60411480D01*
X90247436Y-60384572D01*
X90155758Y-60303847D01*
X90117128Y-60221615D01*
X90093951Y-60118427D01*
X90086225Y-59994285D01*
X90092654Y-59887605D01*
X90111943Y-59799975D01*
X90178618Y-59675197D01*
X90271963Y-59608522D01*
X90379595Y-59588520D01*
X90521518Y-59608522D01*
X90627245Y-59657100D01*
X90688205Y-59470410D01*
X90649153Y-59447550D01*
X90585335Y-59418975D01*
X90556989Y-59411355D01*
X90869180Y-59411355D01*
X90869180Y-60590550D01*
X91625465Y-60590550D01*
X91625465Y-60396240D01*
X91103495Y-60396240D01*
X91103495Y-60064770D01*
X91520690Y-60064770D01*
X91520690Y-59870460D01*
X91103495Y-59870460D01*
X91103495Y-59605665D01*
X91583555Y-59605665D01*
X91583555Y-59411355D01*
X90869180Y-59411355D01*
X90556989Y-59411355D01*
X90496753Y-59395162D01*
X90383405Y-59384685D01*
X90271724Y-59394924D01*
X90169093Y-59425642D01*
X90077653Y-59476125D01*
X89999548Y-59545657D01*
X89935968Y-59633526D01*
X89888105Y-59739015D01*
X89858101Y-59861411D01*
X89848100Y-60000000D01*
X89709035Y-60000000D01*
X89709035Y-59411355D01*
X89497580Y-59411355D01*
X89497580Y-60137160D01*
X89464004Y-60062865D01*
X89424238Y-59977140D01*
X89379470Y-59884271D01*
X89330893Y-59788545D01*
X89279696Y-59691152D01*
X89227070Y-59593282D01*
X89173730Y-59498747D01*
X89120390Y-59411355D01*
X88931795Y-59411355D01*
X88499360Y-59411355D01*
X88244090Y-59411355D01*
X88203728Y-59541788D01*
X88162651Y-59675912D01*
X88120860Y-59813727D01*
X88078355Y-59955232D01*
X88044141Y-60072390D01*
X88010080Y-60194500D01*
X87976171Y-60321564D01*
X87942414Y-60453580D01*
X87908810Y-60590550D01*
X87815465Y-60590550D01*
X87815465Y-60396240D01*
X87310640Y-60396240D01*
X87310640Y-59411355D01*
X87074420Y-59411355D01*
X86594360Y-59411355D01*
X86339090Y-59411355D01*
X86298728Y-59541788D01*
X86257651Y-59675912D01*
X86215860Y-59813727D01*
X86173355Y-59955232D01*
X86139141Y-60072390D01*
X86105080Y-60194500D01*
X86071171Y-60321564D01*
X86037414Y-60453580D01*
X86003810Y-60590550D01*
X85628122Y-60590550D01*
X85646623Y-60587692D01*
X85725680Y-60563404D01*
X85793308Y-60526732D01*
X85891415Y-60412432D01*
X85918561Y-60332184D01*
X85927610Y-60234315D01*
X85916894Y-60154305D01*
X85884748Y-60078105D01*
X85822597Y-60011430D01*
X85721870Y-59959995D01*
X85831408Y-59857125D01*
X85862126Y-59787592D01*
X85872365Y-59708535D01*
X85855220Y-59598045D01*
X85790450Y-59498032D01*
X85659005Y-59425642D01*
X85562803Y-59404926D01*
X85441835Y-59398020D01*
X85283720Y-59406592D01*
X85137035Y-59426595D01*
X85137035Y-60571500D01*
X83723525Y-60571500D01*
X83723525Y-59605665D01*
X84034040Y-59605665D01*
X84034040Y-59411355D01*
X83176790Y-59411355D01*
X83081540Y-59411355D01*
X82224290Y-59411355D01*
X81831860Y-59411355D01*
X81576590Y-59411355D01*
X81536228Y-59541788D01*
X81495151Y-59675912D01*
X81453360Y-59813727D01*
X81410855Y-59955232D01*
X81376641Y-60072390D01*
X81342580Y-60194500D01*
X81308671Y-60321564D01*
X81274914Y-60453580D01*
X81241310Y-60590550D01*
X80865621Y-60590550D01*
X80884122Y-60587692D01*
X80963180Y-60563404D01*
X81030808Y-60526732D01*
X81128915Y-60412432D01*
X81156061Y-60332184D01*
X81165110Y-60234315D01*
X81154394Y-60154305D01*
X81122247Y-60078105D01*
X81060097Y-60011430D01*
X80959370Y-59959995D01*
X81068907Y-59857125D01*
X81099626Y-59787592D01*
X81109865Y-59708535D01*
X81092720Y-59598045D01*
X81027950Y-59498032D01*
X80896505Y-59425642D01*
X80800302Y-59404926D01*
X80679335Y-59398020D01*
X80521220Y-59406592D01*
X80374535Y-59426595D01*
X80374535Y-60571500D01*
X79683867Y-60571500D01*
X79302867Y-60000000D01*
X79977660Y-58987810D01*
X80374535Y-58987810D01*
X91625465Y-58987810D01*
X92022340Y-58987810D01*
X92697133Y-60000000D01*
G37*
D14*
X115640000Y-51640000D02*
X115640000Y-52115000D01*
X115640000Y-58860000D02*
X115640000Y-58385000D01*
X116115000Y-51640000D02*
X115640000Y-51640000D01*
X116115000Y-58860000D02*
X115640000Y-58860000D01*
X122385000Y-51640000D02*
X122860000Y-51640000D01*
X122385000Y-58860000D02*
X122560000Y-58860000D01*
X122860000Y-51640000D02*
X122860000Y-52115000D01*
X122860000Y-58385000D02*
X122860000Y-58620000D01*
X123100000Y-59190000D02*
X122620000Y-59190000D01*
X122860000Y-58860000D01*
X123100000Y-59190000D01*
G36*
X123100000Y-59190000D02*
G01*
X122620000Y-59190000D01*
X122860000Y-58860000D01*
X123100000Y-59190000D01*
G37*
X98737258Y-69977500D02*
X98262742Y-69977500D01*
X98737258Y-71022500D02*
X98262742Y-71022500D01*
X128977500Y-49237258D02*
X128977500Y-48762742D01*
X130022500Y-49237258D02*
X130022500Y-48762742D01*
D17*
G36*
X142813825Y-23361442D02*
G01*
X142868117Y-23484315D01*
X142849067Y-23569087D01*
X142800490Y-23620522D01*
X142732862Y-23645287D01*
X142654757Y-23651955D01*
X142596655Y-23650050D01*
X142542362Y-23644335D01*
X142542362Y-23324295D01*
X142668092Y-23324295D01*
X142813825Y-23361442D01*
G37*
G36*
X142711907Y-22856617D02*
G01*
X142765247Y-22875667D01*
X142801442Y-22915672D01*
X142814777Y-22983300D01*
X142769057Y-23090932D01*
X142633802Y-23129985D01*
X142542362Y-23129985D01*
X142542362Y-22859475D01*
X142593797Y-22853760D01*
X142649042Y-22851855D01*
X142711907Y-22856617D01*
G37*
G36*
X147541082Y-22870905D02*
G01*
X147597280Y-22958535D01*
X147623950Y-23089027D01*
X147628951Y-23166894D01*
X147630618Y-23250000D01*
X147628951Y-23332867D01*
X147623950Y-23410020D01*
X147597280Y-23540512D01*
X147540130Y-23629095D01*
X147443927Y-23661480D01*
X147346772Y-23629095D01*
X147290575Y-23541465D01*
X147263905Y-23410972D01*
X147258904Y-23333106D01*
X147257237Y-23250000D01*
X147258904Y-23167132D01*
X147263905Y-23089980D01*
X147290575Y-22959487D01*
X147346772Y-22870905D01*
X147443927Y-22838520D01*
X147541082Y-22870905D01*
G37*
G36*
X148493583Y-22870905D02*
G01*
X148549780Y-22958535D01*
X148576450Y-23089027D01*
X148581451Y-23166894D01*
X148583118Y-23250000D01*
X148581451Y-23332867D01*
X148576450Y-23410020D01*
X148549780Y-23540512D01*
X148492630Y-23629095D01*
X148396427Y-23661480D01*
X148299272Y-23629095D01*
X148243075Y-23541465D01*
X148216405Y-23410972D01*
X148211404Y-23333106D01*
X148209737Y-23250000D01*
X148211404Y-23167132D01*
X148216405Y-23089980D01*
X148243075Y-22959487D01*
X148299272Y-22870905D01*
X148396427Y-22838520D01*
X148493583Y-22870905D01*
G37*
G36*
X151763621Y-23250000D02*
G01*
X151088828Y-24262190D01*
X150691953Y-24262190D01*
X149467037Y-24262190D01*
X148398332Y-24262190D01*
X147445832Y-24262190D01*
X146609537Y-24262190D01*
X145182692Y-24262190D01*
X144582617Y-24262190D01*
X144033977Y-24262190D01*
X142635707Y-24262190D01*
X142308047Y-24262190D01*
X141911172Y-24262190D01*
X141617379Y-23821500D01*
X142308047Y-23821500D01*
X142390439Y-23836502D01*
X142473782Y-23847217D01*
X142556174Y-23853647D01*
X142635707Y-23855790D01*
X142729767Y-23851266D01*
X142817635Y-23837692D01*
X142896692Y-23813404D01*
X142964320Y-23776732D01*
X143062427Y-23662432D01*
X143089574Y-23582184D01*
X143098622Y-23484315D01*
X143087907Y-23404305D01*
X143055760Y-23328105D01*
X142993609Y-23261430D01*
X142892882Y-23209995D01*
X143002420Y-23107125D01*
X143033138Y-23037592D01*
X143043377Y-22958535D01*
X143026232Y-22848045D01*
X142961462Y-22748032D01*
X142830017Y-22675642D01*
X142763670Y-22661355D01*
X143292932Y-22661355D01*
X143292932Y-23840550D01*
X144033977Y-23840550D01*
X144033977Y-23646240D01*
X143529152Y-23646240D01*
X143529152Y-22661355D01*
X144184472Y-22661355D01*
X144184472Y-23413830D01*
X144189235Y-23511937D01*
X144203522Y-23600520D01*
X144229240Y-23678149D01*
X144268292Y-23743395D01*
X144391165Y-23833882D01*
X144477604Y-23857457D01*
X144582617Y-23865315D01*
X144689297Y-23857457D01*
X144776927Y-23833882D01*
X144847412Y-23795544D01*
X144902657Y-23743395D01*
X144943139Y-23678149D01*
X144969332Y-23600520D01*
X144983620Y-23511937D01*
X144988382Y-23413830D01*
X144988382Y-22661355D01*
X145182692Y-22661355D01*
X145182692Y-23840550D01*
X145938977Y-23840550D01*
X145938977Y-23646240D01*
X145417007Y-23646240D01*
X145417007Y-23314770D01*
X145834202Y-23314770D01*
X145834202Y-23120460D01*
X145417007Y-23120460D01*
X145417007Y-22855665D01*
X145897067Y-22855665D01*
X145897067Y-22661355D01*
X146062802Y-22661355D01*
X146062802Y-22855665D01*
X146373317Y-22855665D01*
X146373317Y-23840550D01*
X146609537Y-23840550D01*
X146609537Y-23250000D01*
X147019113Y-23250000D01*
X147025959Y-23393054D01*
X147046497Y-23517414D01*
X147080727Y-23623082D01*
X147128650Y-23710057D01*
X147212576Y-23796312D01*
X147318303Y-23848064D01*
X147445832Y-23865315D01*
X147570292Y-23848064D01*
X147674433Y-23796312D01*
X147758253Y-23710057D01*
X147806592Y-23623082D01*
X147841120Y-23517414D01*
X147861837Y-23393054D01*
X147868743Y-23250000D01*
X147971612Y-23250000D01*
X147978459Y-23393054D01*
X147998997Y-23517414D01*
X148033227Y-23623082D01*
X148081150Y-23710057D01*
X148165076Y-23796312D01*
X148270803Y-23848064D01*
X148398332Y-23865315D01*
X148522792Y-23848064D01*
X148626933Y-23796312D01*
X148710753Y-23710057D01*
X148759092Y-23623082D01*
X148793620Y-23517414D01*
X148814337Y-23393054D01*
X148821243Y-23250000D01*
X148814456Y-23106946D01*
X148794096Y-22982586D01*
X148760163Y-22876918D01*
X148712657Y-22789942D01*
X148629261Y-22703688D01*
X148543036Y-22661355D01*
X148920302Y-22661355D01*
X148920302Y-22855665D01*
X149230817Y-22855665D01*
X149230817Y-23840550D01*
X149467037Y-23840550D01*
X149467037Y-22855665D01*
X149777553Y-22855665D01*
X149777553Y-22661355D01*
X149910902Y-22661355D01*
X149910902Y-23840550D01*
X150145217Y-23840550D01*
X150145217Y-23320485D01*
X150457638Y-23320485D01*
X150457638Y-23840550D01*
X150691953Y-23840550D01*
X150691953Y-22661355D01*
X150457638Y-22661355D01*
X150457638Y-23126175D01*
X150145217Y-23126175D01*
X150145217Y-22661355D01*
X149910902Y-22661355D01*
X149777553Y-22661355D01*
X148920302Y-22661355D01*
X148543036Y-22661355D01*
X148523851Y-22651936D01*
X148396427Y-22634685D01*
X148272814Y-22651936D01*
X148168674Y-22703688D01*
X148084007Y-22789942D01*
X148034835Y-22876918D01*
X147999711Y-22982586D01*
X147978637Y-23106946D01*
X147971612Y-23250000D01*
X147868743Y-23250000D01*
X147861956Y-23106946D01*
X147841596Y-22982586D01*
X147807663Y-22876918D01*
X147760157Y-22789942D01*
X147676761Y-22703688D01*
X147571351Y-22651936D01*
X147443927Y-22634685D01*
X147320314Y-22651936D01*
X147216174Y-22703688D01*
X147131507Y-22789942D01*
X147082335Y-22876918D01*
X147047211Y-22982586D01*
X147026137Y-23106946D01*
X147019113Y-23250000D01*
X146609537Y-23250000D01*
X146609537Y-22855665D01*
X146920052Y-22855665D01*
X146920052Y-22661355D01*
X146062802Y-22661355D01*
X145897067Y-22661355D01*
X145182692Y-22661355D01*
X144988382Y-22661355D01*
X144754067Y-22661355D01*
X144754067Y-23396685D01*
X144746447Y-23521462D01*
X144719777Y-23603377D01*
X144668342Y-23648145D01*
X144586427Y-23661480D01*
X144504512Y-23648145D01*
X144454030Y-23604330D01*
X144428312Y-23523367D01*
X144420692Y-23398590D01*
X144420692Y-22661355D01*
X144184472Y-22661355D01*
X143529152Y-22661355D01*
X143292932Y-22661355D01*
X142763670Y-22661355D01*
X142733815Y-22654926D01*
X142612847Y-22648020D01*
X142454732Y-22656592D01*
X142308047Y-22676595D01*
X142308047Y-23821500D01*
X141617379Y-23821500D01*
X141236379Y-23250000D01*
X141911172Y-22237810D01*
X142308047Y-22237810D01*
X150691953Y-22237810D01*
X151088828Y-22237810D01*
X151763621Y-23250000D01*
G37*
D14*
X138515000Y-35485000D02*
X138515000Y-39015000D01*
X138580000Y-35485000D02*
X138515000Y-35485000D01*
X138580000Y-39015000D02*
X138515000Y-39015000D01*
X144920000Y-34160001D02*
X144920000Y-35485000D01*
X144985000Y-35485000D02*
X144920000Y-35485000D01*
X144985000Y-35485000D02*
X144985000Y-39015000D01*
X144985000Y-39015000D02*
X144920000Y-39015000D01*
X113790000Y-30815000D02*
X113790000Y-33500000D01*
X115710000Y-30815000D02*
X113790000Y-30815000D01*
X115710000Y-33500000D02*
X115710000Y-30815000D01*
X106140000Y-35711252D02*
X106140000Y-34288748D01*
X108860000Y-35711252D02*
X108860000Y-34288748D01*
X130762742Y-42477500D02*
X131237258Y-42477500D01*
X130762742Y-43522500D02*
X131237258Y-43522500D01*
X138670000Y-25170000D02*
X140000000Y-25170000D01*
X138670000Y-26500000D02*
X138670000Y-25170000D01*
X141270000Y-25170000D02*
X154030000Y-25170000D01*
X141270000Y-27830000D02*
X141270000Y-25170000D01*
X141270000Y-27830000D02*
X154030000Y-27830000D01*
X154030000Y-27830000D02*
X154030000Y-25170000D01*
X124713748Y-28140000D02*
X126136252Y-28140000D01*
X124713748Y-30860000D02*
X126136252Y-30860000D01*
X106977500Y-49487258D02*
X106977500Y-49012742D01*
X108022500Y-49487258D02*
X108022500Y-49012742D01*
D17*
G36*
X58291950Y-23250000D02*
G01*
X57582353Y-24314396D01*
X57272755Y-24314396D01*
X56981115Y-24314396D01*
X56039319Y-24314396D01*
X54991641Y-24314396D01*
X53748916Y-24314396D01*
X53048607Y-24314396D01*
X52727245Y-24314396D01*
X52417647Y-24314396D01*
X51708050Y-23250000D01*
X52090712Y-22676006D01*
X52727245Y-22676006D01*
X52748607Y-22780031D01*
X52779257Y-22910062D01*
X52803818Y-23007379D01*
X52830444Y-23108617D01*
X52859133Y-23213777D01*
X52889474Y-23321001D01*
X52921053Y-23428431D01*
X52953870Y-23536068D01*
X53002632Y-23689319D01*
X53048607Y-23825851D01*
X53284520Y-23825851D01*
X53320021Y-23726883D01*
X53354696Y-23625645D01*
X53388545Y-23522136D01*
X53421053Y-23418111D01*
X53451703Y-23315325D01*
X53480495Y-23213777D01*
X53519969Y-23065867D01*
X53554799Y-22924923D01*
X53584752Y-22793963D01*
X53609598Y-22676006D01*
X53748916Y-22676006D01*
X53748916Y-23825851D01*
X54486378Y-23825851D01*
X54486378Y-23762693D01*
X54634985Y-23762693D01*
X54763158Y-23819350D01*
X54863003Y-23842337D01*
X54991641Y-23850000D01*
X55121981Y-23840196D01*
X55228173Y-23810784D01*
X55310217Y-23761765D01*
X55388932Y-23655186D01*
X55415170Y-23511920D01*
X55407276Y-23425310D01*
X55383591Y-23354954D01*
X55302786Y-23250929D01*
X55301289Y-23250000D01*
X55539628Y-23250000D01*
X55547639Y-23385720D01*
X55571672Y-23504954D01*
X55611726Y-23607701D01*
X55667802Y-23693963D01*
X55766047Y-23780650D01*
X55889886Y-23832663D01*
X56039319Y-23850000D01*
X56140789Y-23843731D01*
X56229721Y-23824923D01*
X56360681Y-23770124D01*
X56303096Y-23589938D01*
X56209288Y-23630805D01*
X56061610Y-23651238D01*
X55929025Y-23625000D01*
X55839628Y-23546285D01*
X55801961Y-23466099D01*
X55794311Y-23432043D01*
X56492570Y-23432043D01*
X56784211Y-23432043D01*
X56784211Y-23755263D01*
X56981115Y-23755263D01*
X56981115Y-23432043D01*
X57272755Y-23432043D01*
X57272755Y-23244427D01*
X56981115Y-23244427D01*
X56981115Y-22921207D01*
X56784211Y-22921207D01*
X56784211Y-23244427D01*
X56492570Y-23244427D01*
X56492570Y-23432043D01*
X55794311Y-23432043D01*
X55779360Y-23365480D01*
X55771827Y-23244427D01*
X55778096Y-23140402D01*
X55796904Y-23054954D01*
X55861920Y-22933282D01*
X55952941Y-22868266D01*
X56057895Y-22848762D01*
X56196285Y-22868266D01*
X56299381Y-22915635D01*
X56358824Y-22733591D01*
X56320743Y-22711300D01*
X56258514Y-22683437D01*
X56172136Y-22660217D01*
X56061610Y-22650000D01*
X55952709Y-22659985D01*
X55852632Y-22689938D01*
X55763467Y-22739164D01*
X55687307Y-22806966D01*
X55625310Y-22892647D01*
X55578638Y-22995511D01*
X55549381Y-23114861D01*
X55539628Y-23250000D01*
X55301289Y-23250000D01*
X55195046Y-23184056D01*
X55082663Y-23138545D01*
X55011146Y-23110681D01*
X54946130Y-23076316D01*
X54898762Y-23031734D01*
X54880186Y-22973220D01*
X54900413Y-22899948D01*
X54961094Y-22855986D01*
X55062229Y-22841331D01*
X55193189Y-22859907D01*
X55296285Y-22904489D01*
X55363158Y-22728019D01*
X55230341Y-22674149D01*
X55144659Y-22656037D01*
X55045511Y-22650000D01*
X54931682Y-22660114D01*
X54835397Y-22690454D01*
X54756656Y-22741022D01*
X54677941Y-22849690D01*
X54651703Y-22993653D01*
X54681424Y-23130186D01*
X54756656Y-23222136D01*
X54857895Y-23283437D01*
X54965635Y-23326161D01*
X55043653Y-23358669D01*
X55114241Y-23397678D01*
X55166254Y-23446904D01*
X55186687Y-23510062D01*
X55178328Y-23564861D01*
X55147678Y-23613158D01*
X55087307Y-23646594D01*
X54991641Y-23658669D01*
X54898994Y-23652167D01*
X54821672Y-23632663D01*
X54701858Y-23576935D01*
X54634985Y-23762693D01*
X54486378Y-23762693D01*
X54486378Y-23636378D01*
X53977399Y-23636378D01*
X53977399Y-23313158D01*
X54384211Y-23313158D01*
X54384211Y-23123684D01*
X53977399Y-23123684D01*
X53977399Y-22865480D01*
X54445511Y-22865480D01*
X54445511Y-22676006D01*
X53748916Y-22676006D01*
X53609598Y-22676006D01*
X53369969Y-22676006D01*
X53353251Y-22772601D01*
X53332817Y-22884056D01*
X53309598Y-23004567D01*
X53284520Y-23128328D01*
X53257585Y-23252786D01*
X53228793Y-23375387D01*
X53199071Y-23490325D01*
X53169350Y-23591796D01*
X53139396Y-23488932D01*
X53108978Y-23373529D01*
X53079257Y-23250929D01*
X53051393Y-23126471D01*
X53025619Y-23002941D01*
X53002167Y-22883127D01*
X52982663Y-22772368D01*
X52968731Y-22676006D01*
X52727245Y-22676006D01*
X52090712Y-22676006D01*
X52417647Y-22185604D01*
X52727245Y-22185604D01*
X57272755Y-22185604D01*
X57582353Y-22185604D01*
X58291950Y-23250000D01*
G37*
D14*
X127762742Y-52227500D02*
X128237258Y-52227500D01*
X127762742Y-53272500D02*
X128237258Y-53272500D01*
X101090000Y-61788748D02*
X101090000Y-63211252D01*
X102910000Y-61788748D02*
X102910000Y-63211252D01*
X102762742Y-69977500D02*
X103237258Y-69977500D01*
X102762742Y-71022500D02*
X103237258Y-71022500D01*
X133790000Y-48000000D02*
X133790000Y-50685000D01*
X133790000Y-50685000D02*
X135710000Y-50685000D01*
X135710000Y-50685000D02*
X135710000Y-48000000D01*
X114990000Y-61359420D02*
X114990000Y-61640580D01*
X116010000Y-61359420D02*
X116010000Y-61640580D01*
X115490000Y-49140580D02*
X115490000Y-48859420D01*
X116510000Y-49140580D02*
X116510000Y-48859420D01*
X57640000Y-48150000D02*
X57640000Y-49850000D01*
X57640000Y-48150000D02*
X60300000Y-48150000D01*
X57640000Y-49850000D02*
X60300000Y-49850000D01*
X47640000Y-27150000D02*
X47640000Y-28850000D01*
X47640000Y-27150000D02*
X50300000Y-27150000D01*
X47640000Y-28850000D02*
X50300000Y-28850000D01*
X129540000Y-35711252D02*
X129540000Y-34288748D01*
X132260000Y-35711252D02*
X132260000Y-34288748D01*
X112340000Y-49711252D02*
X112340000Y-48288748D01*
X114160000Y-49711252D02*
X114160000Y-48288748D01*
X119377500Y-33487742D02*
X119377500Y-33962258D01*
X120422500Y-33487742D02*
X120422500Y-33962258D01*
D16*
X149250000Y-34650000D02*
X149250000Y-34650000D01*
X149250000Y-34750000D02*
X149250000Y-34750000D01*
X150150000Y-35350000D02*
X150150000Y-36150000D01*
X150650000Y-34150000D02*
X153850000Y-34150000D01*
X153850000Y-37350000D02*
X150650000Y-37350000D01*
X154350000Y-35350000D02*
X154350000Y-36150000D01*
X149250000Y-34650000D02*
G75*
G02*
X149250000Y-34750000I0J-50000D01*
G01*
X149250000Y-34750000D02*
G75*
G02*
X149250000Y-34650000I0J50000D01*
G01*
D14*
X103240000Y-77140580D02*
X103240000Y-76859420D01*
X104260000Y-77140580D02*
X104260000Y-76859420D01*
X124240000Y-59109420D02*
X124240000Y-59390580D01*
X125260000Y-59109420D02*
X125260000Y-59390580D01*
X103940000Y-45000000D02*
X103940000Y-44350000D01*
X103940000Y-45000000D02*
X103940000Y-45650000D01*
X107060000Y-45000000D02*
X107060000Y-43325000D01*
X107060000Y-45000000D02*
X107060000Y-45650000D01*
X121740000Y-61359420D02*
X121740000Y-61640580D01*
X122760000Y-61359420D02*
X122760000Y-61640580D01*
D17*
G36*
X62823502Y-46016246D02*
G01*
X62853785Y-46133596D01*
X62879338Y-46250000D01*
X62902050Y-46371136D01*
X62673028Y-46371136D01*
X62696688Y-46250000D01*
X62723186Y-46133596D01*
X62753470Y-46016246D01*
X62788486Y-45890379D01*
X62823502Y-46016246D01*
G37*
G36*
X61975552Y-46358833D02*
G01*
X62029495Y-46480915D01*
X62010568Y-46565142D01*
X61962303Y-46616246D01*
X61895110Y-46640852D01*
X61817508Y-46647476D01*
X61759779Y-46645584D01*
X61705836Y-46639905D01*
X61705836Y-46321924D01*
X61830757Y-46321924D01*
X61975552Y-46358833D01*
G37*
G36*
X61874290Y-45857256D02*
G01*
X61927287Y-45876183D01*
X61963249Y-45915931D01*
X61976498Y-45983123D01*
X61931073Y-46090063D01*
X61796688Y-46128864D01*
X61705836Y-46128864D01*
X61705836Y-45860095D01*
X61756940Y-45854416D01*
X61811830Y-45852524D01*
X61874290Y-45857256D01*
G37*
G36*
X67057886Y-46250000D02*
G01*
X66342429Y-47323186D01*
X66026972Y-47323186D01*
X65729811Y-47323186D01*
X64800473Y-47323186D01*
X63854101Y-47323186D01*
X62996688Y-47323186D01*
X61798580Y-47323186D01*
X61473028Y-47323186D01*
X61157571Y-47323186D01*
X60819401Y-46815931D01*
X61473028Y-46815931D01*
X61554890Y-46830836D01*
X61637697Y-46841483D01*
X61719558Y-46847871D01*
X61798580Y-46850000D01*
X61892035Y-46845505D01*
X61960959Y-46834858D01*
X62334227Y-46834858D01*
X62576498Y-46834858D01*
X62629495Y-46564196D01*
X62941798Y-46564196D01*
X62996688Y-46834858D01*
X63246530Y-46834858D01*
X63215300Y-46702025D01*
X63183691Y-46573054D01*
X63151703Y-46447943D01*
X63119338Y-46326694D01*
X63086593Y-46209306D01*
X63045367Y-46066936D01*
X63004022Y-45928470D01*
X62962559Y-45793908D01*
X62920978Y-45663249D01*
X63310883Y-45663249D01*
X63310883Y-45856309D01*
X63619401Y-45856309D01*
X63619401Y-46834858D01*
X63854101Y-46834858D01*
X63854101Y-45856309D01*
X64162618Y-45856309D01*
X64162618Y-45663249D01*
X64257256Y-45663249D01*
X64257256Y-45856309D01*
X64565773Y-45856309D01*
X64565773Y-46834858D01*
X64800473Y-46834858D01*
X64800473Y-46433596D01*
X65232019Y-46433596D01*
X65529180Y-46433596D01*
X65529180Y-46762934D01*
X65729811Y-46762934D01*
X65729811Y-46433596D01*
X66026972Y-46433596D01*
X66026972Y-46242429D01*
X65729811Y-46242429D01*
X65729811Y-45913091D01*
X65529180Y-45913091D01*
X65529180Y-46242429D01*
X65232019Y-46242429D01*
X65232019Y-46433596D01*
X64800473Y-46433596D01*
X64800473Y-45856309D01*
X65108991Y-45856309D01*
X65108991Y-45663249D01*
X64257256Y-45663249D01*
X64162618Y-45663249D01*
X63310883Y-45663249D01*
X62920978Y-45663249D01*
X62667350Y-45663249D01*
X62627248Y-45792843D01*
X62586435Y-45926104D01*
X62544913Y-46063032D01*
X62502681Y-46203628D01*
X62468688Y-46320032D01*
X62434845Y-46441356D01*
X62401155Y-46567603D01*
X62367615Y-46698770D01*
X62334227Y-46834858D01*
X61960959Y-46834858D01*
X61979338Y-46832019D01*
X62057886Y-46807886D01*
X62125079Y-46771451D01*
X62222555Y-46657886D01*
X62249527Y-46578155D01*
X62258517Y-46480915D01*
X62247871Y-46401420D01*
X62215931Y-46325710D01*
X62154180Y-46259464D01*
X62054101Y-46208360D01*
X62162934Y-46106151D01*
X62193454Y-46037066D01*
X62203628Y-45958517D01*
X62186593Y-45848738D01*
X62122240Y-45749369D01*
X61991640Y-45677445D01*
X61896057Y-45656861D01*
X61775868Y-45650000D01*
X61618770Y-45658517D01*
X61473028Y-45678391D01*
X61473028Y-46815931D01*
X60819401Y-46815931D01*
X60442114Y-46250000D01*
X61157571Y-45176814D01*
X61473028Y-45176814D01*
X66026972Y-45176814D01*
X66342429Y-45176814D01*
X67057886Y-46250000D01*
G37*
%LPC*%
G36*
X102792000Y-36727000D02*
G01*
X102208000Y-36727000D01*
X102208000Y-34773000D01*
X102792000Y-34773000D01*
X102792000Y-36727000D01*
G37*
G36*
X104792000Y-36727000D02*
G01*
X104208000Y-36727000D01*
X104208000Y-34773000D01*
X104792000Y-34773000D01*
X104792000Y-36727000D01*
G37*
G36*
X122692000Y-36727000D02*
G01*
X122108000Y-36727000D01*
X122108000Y-34773000D01*
X122692000Y-34773000D01*
X122692000Y-36727000D01*
G37*
G36*
X124692000Y-36727000D02*
G01*
X124108000Y-36727000D01*
X124108000Y-34773000D01*
X124692000Y-34773000D01*
X124692000Y-36727000D01*
G37*
D18*
X100000000Y-29425000D03*
X100000000Y-31075000D03*
D19*
X127250000Y-49950000D03*
X127250000Y-48050000D03*
D20*
X102225000Y-81250000D03*
X103775000Y-81250000D03*
D21*
X118250000Y-49912500D03*
X118250000Y-48087500D03*
D22*
X111000000Y-36475000D03*
X111000000Y-33525000D03*
D23*
X82250000Y-54750000D03*
D24*
X84750000Y-54750000D03*
X87250000Y-54750000D03*
X89750000Y-54750000D03*
D25*
X134500000Y-31625000D03*
X134500000Y-33500000D03*
D26*
X102106000Y-32950000D03*
D27*
X102246000Y-33599999D03*
X102246000Y-34250000D03*
D28*
X101954000Y-34900000D03*
X101954000Y-35750001D03*
X101954000Y-36600000D03*
X105046000Y-36600000D03*
X105046000Y-35750001D03*
X105046000Y-34900000D03*
D27*
X104754000Y-34250000D03*
X104754000Y-33599999D03*
D29*
X104944000Y-32950000D03*
D30*
X104750000Y-32056000D03*
X104250001Y-32056000D03*
D31*
X103750000Y-32246000D03*
X103250000Y-32246000D03*
D30*
X102749999Y-32056000D03*
X102250000Y-32056000D03*
D32*
X103250000Y-33925000D03*
X103750000Y-33925000D03*
D33*
X55000000Y-28000000D03*
X91500000Y-28000000D03*
D34*
X130540000Y-26500000D03*
D35*
X116074695Y-74896016D03*
X118196016Y-72774695D03*
D36*
X113529111Y-73764645D03*
X115296878Y-71996878D03*
X117064645Y-70229111D03*
D22*
X127400000Y-36475000D03*
X127400000Y-33525000D03*
D37*
X159500000Y-26542136D03*
D38*
X104525000Y-58850000D03*
X105175000Y-58850000D03*
X105825000Y-58850000D03*
X106475000Y-58850000D03*
X106475000Y-55750000D03*
X105825000Y-55750000D03*
X105175000Y-55750000D03*
X104525000Y-55750000D03*
D39*
X105500000Y-57300000D03*
D40*
X81500000Y-45920000D03*
X78100000Y-45920000D03*
X81500000Y-36000000D03*
X78100000Y-36000000D03*
D18*
X119900000Y-29425000D03*
X119900000Y-31075000D03*
D41*
X105500000Y-48475000D03*
X105500000Y-50025000D03*
X107500000Y-51975000D03*
X107500000Y-53525000D03*
D18*
X102000000Y-25675000D03*
X102000000Y-27325000D03*
D42*
X104025000Y-29500000D03*
X106975000Y-29500000D03*
D43*
X115575000Y-28500000D03*
X113925000Y-28500000D03*
D44*
X147000000Y-32900000D03*
X147000000Y-35000000D03*
D33*
X70250000Y-57250000D03*
D43*
X135325000Y-28500000D03*
X133675000Y-28500000D03*
D45*
X119900000Y-27325000D03*
X119900000Y-25675000D03*
D20*
X97725000Y-81250000D03*
X99275000Y-81250000D03*
D46*
X118500000Y-37750000D03*
D18*
X103500000Y-48425000D03*
X103500000Y-50075000D03*
D47*
X131750000Y-48050000D03*
X131750000Y-49950000D03*
D37*
X99500000Y-87000000D03*
D26*
X122006000Y-32950000D03*
D27*
X122146000Y-33599999D03*
X122146000Y-34250000D03*
D28*
X121854000Y-34900000D03*
X121854000Y-35750001D03*
X121854000Y-36600000D03*
X124946000Y-36600000D03*
X124946000Y-35750001D03*
X124946000Y-34900000D03*
D27*
X124654000Y-34250000D03*
X124654000Y-33599999D03*
D29*
X124844000Y-32950000D03*
D30*
X124650000Y-32056000D03*
X124150001Y-32056000D03*
D31*
X123650000Y-32246000D03*
X123150000Y-32246000D03*
D30*
X122649999Y-32056000D03*
X122150000Y-32056000D03*
D32*
X123150000Y-33925000D03*
X123650000Y-33925000D03*
D48*
X103000000Y-68250000D03*
D49*
X86400000Y-31750000D03*
X88500000Y-31750000D03*
D18*
X100000000Y-32925000D03*
X100000000Y-34575000D03*
D50*
X97550000Y-75750000D03*
X97550000Y-76250000D03*
X97550000Y-76750000D03*
X97550000Y-77250000D03*
X97550000Y-77750000D03*
X97550000Y-78250000D03*
D51*
X98250000Y-78950000D03*
X98750000Y-78950000D03*
X99250000Y-78950000D03*
X99750000Y-78950000D03*
X100250000Y-78950000D03*
X100750000Y-78950000D03*
D50*
X101450000Y-78250000D03*
X101450000Y-77750000D03*
X101450000Y-77250000D03*
X101450000Y-76750000D03*
X101450000Y-76250000D03*
X101450000Y-75750000D03*
D51*
X100750000Y-75050000D03*
X100250000Y-75050000D03*
X99750000Y-75050000D03*
X99250000Y-75050000D03*
X98750000Y-75050000D03*
X98250000Y-75050000D03*
D52*
X141100000Y-44450000D03*
X141750000Y-44450000D03*
X142400000Y-44450000D03*
X142400000Y-42550000D03*
X141100000Y-42550000D03*
D53*
X105500000Y-63275000D03*
X105500000Y-61725000D03*
D45*
X100000000Y-27325000D03*
X100000000Y-25675000D03*
D54*
X111500000Y-61500000D03*
D55*
X137750000Y-49937500D03*
X137750000Y-48062500D03*
D54*
X111500000Y-57250000D03*
D33*
X68000000Y-28000000D03*
D56*
X91500000Y-37420000D03*
D57*
X91500000Y-44620000D03*
D53*
X108250000Y-58025000D03*
X108250000Y-56475000D03*
D41*
X103500000Y-51975000D03*
X103500000Y-53525000D03*
D33*
X63750000Y-50750000D03*
D20*
X102200000Y-73000000D03*
X103750000Y-73000000D03*
D58*
X128800000Y-57100000D03*
X128800000Y-54900000D03*
X127200000Y-54900000D03*
X127200000Y-57100000D03*
D59*
X130175000Y-41000000D03*
X131825000Y-41000000D03*
D18*
X121900000Y-25675000D03*
X121900000Y-27325000D03*
D43*
X128825000Y-59250000D03*
X127175000Y-59250000D03*
D53*
X124750000Y-53025000D03*
X124750000Y-51475000D03*
D60*
X122687500Y-58000000D03*
X122687500Y-57500000D03*
X122687500Y-57000000D03*
X122687500Y-56500000D03*
X122687500Y-56000000D03*
X122687500Y-55500000D03*
X122687500Y-55000000D03*
X122687500Y-54500000D03*
X122687500Y-54000000D03*
X122687500Y-53500000D03*
X122687500Y-53000000D03*
X122687500Y-52500000D03*
D61*
X122000000Y-51812500D03*
X121500000Y-51812500D03*
X121000000Y-51812500D03*
X120500000Y-51812500D03*
X120000000Y-51812500D03*
X119500000Y-51812500D03*
X119000000Y-51812500D03*
X118500000Y-51812500D03*
X118000000Y-51812500D03*
X117500000Y-51812500D03*
X117000000Y-51812500D03*
X116500000Y-51812500D03*
D60*
X115812500Y-52500000D03*
X115812500Y-53000000D03*
X115812500Y-53500000D03*
X115812500Y-54000000D03*
X115812500Y-54500000D03*
X115812500Y-55000000D03*
X115812500Y-55500000D03*
X115812500Y-56000000D03*
X115812500Y-56500000D03*
X115812500Y-57000000D03*
X115812500Y-57500000D03*
X115812500Y-58000000D03*
D61*
X116500000Y-58687500D03*
X117000000Y-58687500D03*
X117500000Y-58687500D03*
X118000000Y-58687500D03*
X118500000Y-58687500D03*
X119000000Y-58687500D03*
X119500000Y-58687500D03*
X120000000Y-58687500D03*
X120500000Y-58687500D03*
X121000000Y-58687500D03*
X121500000Y-58687500D03*
X122000000Y-58687500D03*
D62*
X119250000Y-55250000D03*
D43*
X99325000Y-70500000D03*
X97675000Y-70500000D03*
D45*
X129500000Y-49825000D03*
X129500000Y-48175000D03*
D63*
X144290000Y-35300000D03*
X144290000Y-39200000D03*
X143020000Y-35300000D03*
X143020000Y-39200000D03*
X141750000Y-35300000D03*
X141750000Y-39200000D03*
X140480000Y-35300000D03*
X140480000Y-39200000D03*
X139210000Y-35300000D03*
X139210000Y-39200000D03*
D25*
X114750000Y-31562500D03*
X114750000Y-33437500D03*
D48*
X98500000Y-68250000D03*
D22*
X107500000Y-36475000D03*
X107500000Y-33525000D03*
D59*
X130175000Y-43000000D03*
X131825000Y-43000000D03*
D64*
X140000000Y-26500000D03*
D65*
X142540000Y-26500000D03*
X145080000Y-26500000D03*
X147620000Y-26500000D03*
X150160000Y-26500000D03*
X152700000Y-26500000D03*
D42*
X123950000Y-29500000D03*
X126900000Y-29500000D03*
D45*
X107500000Y-50075000D03*
X107500000Y-48425000D03*
D59*
X127175000Y-52750000D03*
X128825000Y-52750000D03*
D66*
X102000000Y-61025000D03*
X102000000Y-63975000D03*
D59*
X102175000Y-70500000D03*
X103825000Y-70500000D03*
D55*
X134750000Y-49937500D03*
X134750000Y-48062500D03*
D33*
X55000000Y-40500000D03*
D41*
X115500000Y-60725000D03*
X115500000Y-62275000D03*
D53*
X116000000Y-49775000D03*
X116000000Y-48225000D03*
D49*
X58200000Y-49000000D03*
X60300000Y-49000000D03*
D34*
X114750000Y-23000000D03*
D49*
X48200000Y-28000000D03*
X50300000Y-28000000D03*
D22*
X130900000Y-36475000D03*
X130900000Y-33525000D03*
D67*
X113250000Y-50475000D03*
X113250000Y-47525000D03*
D18*
X119900000Y-32900000D03*
X119900000Y-34550000D03*
D68*
X150000000Y-34675000D03*
X154500000Y-34675000D03*
X150000000Y-36825000D03*
X154500000Y-36825000D03*
D34*
X110960000Y-26500000D03*
D53*
X103750000Y-77775000D03*
X103750000Y-76225000D03*
D41*
X124750000Y-58475000D03*
X124750000Y-60025000D03*
D69*
X106450000Y-44062500D03*
X104550000Y-44062500D03*
X105500000Y-45937500D03*
D37*
X39500000Y-26542136D03*
D41*
X122250000Y-60725000D03*
X122250000Y-62275000D03*
D33*
X80000000Y-28000000D03*
D23*
X82250000Y-62420000D03*
D24*
X84750000Y-62420000D03*
X87250000Y-62420000D03*
X89750000Y-62420000D03*
D70*
X120500000Y-41500000D03*
D71*
X118500000Y-41500000D03*
D70*
X113500000Y-41500000D03*
D71*
X111500000Y-41500000D03*
D70*
X106500000Y-41500000D03*
D71*
X104500000Y-41500000D03*
X102500000Y-41500000D03*
%LPD*%
M02*
