%TF.GenerationSoftware,KiCad,Pcbnew,7.0.10-7.0.10~ubuntu22.04.1*%
%TF.CreationDate,2024-02-06T20:51:51-05:00*%
%TF.ProjectId,PCB,5043422e-6b69-4636-9164-5f7063625858,rev?*%
%TF.SameCoordinates,Original*%
%TF.FileFunction,Drillmap*%
%TF.FilePolarity,Positive*%
%FSLAX45Y45*%
G04 Gerber Fmt 4.5, Leading zero omitted, Abs format (unit mm)*
G04 Created by KiCad (PCBNEW 7.0.10-7.0.10~ubuntu22.04.1) date 2024-02-06 20:51:51*
%MOMM*%
%LPD*%
G01*
G04 APERTURE LIST*
%ADD10C,0.150000*%
%ADD11C,0.200000*%
%ADD12C,0.100000*%
G04 APERTURE END LIST*
D10*
X16040000Y-2155000D02*
X16073579Y-2159101D01*
X16108157Y-2166739D01*
X16151811Y-2178908D01*
X16194186Y-2194979D01*
X16234932Y-2214818D01*
X16273715Y-2238264D01*
X16310218Y-2265123D01*
X16344140Y-2295175D01*
X16375203Y-2328174D01*
X16403152Y-2363849D01*
X16427758Y-2401906D01*
X16448819Y-2442035D01*
X16466162Y-2483904D01*
X16479645Y-2527172D01*
X16489157Y-2571482D01*
X16494619Y-2616471D01*
X16495988Y-2661769D01*
X16493252Y-2707006D01*
X16486433Y-2751809D01*
X16475587Y-2795812D01*
X16460804Y-2838652D01*
X16442205Y-2879979D01*
X16419941Y-2919453D01*
X16394197Y-2956750D01*
X16365183Y-2991564D01*
X16349340Y-3007767D01*
X15698778Y-3658329D01*
X12580437Y-6776670D01*
X10303553Y-9053553D01*
X10287956Y-9068814D01*
X10254526Y-9096866D01*
X10218778Y-9121897D01*
X10180984Y-9143717D01*
X10141433Y-9162160D01*
X10100425Y-9177086D01*
X10058271Y-9188381D01*
X10015294Y-9195959D01*
X9971820Y-9199762D01*
X9928180Y-9199762D01*
X9884706Y-9195959D01*
X9841729Y-9188381D01*
X9799576Y-9177086D01*
X9758567Y-9162160D01*
X9719016Y-9143717D01*
X9681222Y-9121897D01*
X9645474Y-9096866D01*
X9612044Y-9068814D01*
X9596447Y-9053553D01*
X6987223Y-6444329D01*
X5375019Y-4832126D01*
X3550660Y-3007767D01*
X3534817Y-2991564D01*
X3505803Y-2956750D01*
X3480059Y-2919453D01*
X3457796Y-2879979D01*
X3439197Y-2838652D01*
X3424414Y-2795812D01*
X3413568Y-2751809D01*
X3406749Y-2707006D01*
X3404013Y-2661769D01*
X3405382Y-2616471D01*
X3410845Y-2571482D01*
X3420357Y-2527172D01*
X3433839Y-2483905D01*
X3451182Y-2442035D01*
X3472243Y-2401907D01*
X3496849Y-2363849D01*
X3524798Y-2328175D01*
X3555861Y-2295176D01*
X3589783Y-2265124D01*
X3626285Y-2238264D01*
X3665069Y-2214819D01*
X3705815Y-2194979D01*
X3748189Y-2178909D01*
X3791844Y-2166739D01*
X3836421Y-2158570D01*
X3881554Y-2154468D01*
X3904213Y-2154214D01*
X14400000Y-2150000D01*
X15275000Y-2150000D01*
X16005000Y-2150000D01*
X16040000Y-2155000D01*
D11*
D12*
X11954969Y-7092102D02*
X12039969Y-7177102D01*
X12039969Y-7092102D02*
X11954969Y-7177102D01*
X12167102Y-6879969D02*
X12252102Y-6964969D01*
X12252102Y-6879969D02*
X12167102Y-6964969D01*
D11*
X3657290Y-9518746D02*
X3657290Y-9318746D01*
X3657290Y-9318746D02*
X3704909Y-9318746D01*
X3704909Y-9318746D02*
X3733481Y-9328270D01*
X3733481Y-9328270D02*
X3752528Y-9347317D01*
X3752528Y-9347317D02*
X3762052Y-9366365D01*
X3762052Y-9366365D02*
X3771576Y-9404460D01*
X3771576Y-9404460D02*
X3771576Y-9433032D01*
X3771576Y-9433032D02*
X3762052Y-9471127D01*
X3762052Y-9471127D02*
X3752528Y-9490174D01*
X3752528Y-9490174D02*
X3733481Y-9509222D01*
X3733481Y-9509222D02*
X3704909Y-9518746D01*
X3704909Y-9518746D02*
X3657290Y-9518746D01*
X3857290Y-9518746D02*
X3857290Y-9385412D01*
X3857290Y-9423508D02*
X3866814Y-9404460D01*
X3866814Y-9404460D02*
X3876338Y-9394936D01*
X3876338Y-9394936D02*
X3895385Y-9385412D01*
X3895385Y-9385412D02*
X3914433Y-9385412D01*
X3981100Y-9518746D02*
X3981100Y-9385412D01*
X3981100Y-9318746D02*
X3971576Y-9328270D01*
X3971576Y-9328270D02*
X3981100Y-9337793D01*
X3981100Y-9337793D02*
X3990623Y-9328270D01*
X3990623Y-9328270D02*
X3981100Y-9318746D01*
X3981100Y-9318746D02*
X3981100Y-9337793D01*
X4104909Y-9518746D02*
X4085861Y-9509222D01*
X4085861Y-9509222D02*
X4076338Y-9490174D01*
X4076338Y-9490174D02*
X4076338Y-9318746D01*
X4209671Y-9518746D02*
X4190623Y-9509222D01*
X4190623Y-9509222D02*
X4181100Y-9490174D01*
X4181100Y-9490174D02*
X4181100Y-9318746D01*
X4438243Y-9518746D02*
X4438243Y-9318746D01*
X4438243Y-9318746D02*
X4504909Y-9461603D01*
X4504909Y-9461603D02*
X4571576Y-9318746D01*
X4571576Y-9318746D02*
X4571576Y-9518746D01*
X4752528Y-9518746D02*
X4752528Y-9413984D01*
X4752528Y-9413984D02*
X4743004Y-9394936D01*
X4743004Y-9394936D02*
X4723957Y-9385412D01*
X4723957Y-9385412D02*
X4685862Y-9385412D01*
X4685862Y-9385412D02*
X4666814Y-9394936D01*
X4752528Y-9509222D02*
X4733481Y-9518746D01*
X4733481Y-9518746D02*
X4685862Y-9518746D01*
X4685862Y-9518746D02*
X4666814Y-9509222D01*
X4666814Y-9509222D02*
X4657290Y-9490174D01*
X4657290Y-9490174D02*
X4657290Y-9471127D01*
X4657290Y-9471127D02*
X4666814Y-9452079D01*
X4666814Y-9452079D02*
X4685862Y-9442555D01*
X4685862Y-9442555D02*
X4733481Y-9442555D01*
X4733481Y-9442555D02*
X4752528Y-9433032D01*
X4847766Y-9385412D02*
X4847766Y-9585412D01*
X4847766Y-9394936D02*
X4866814Y-9385412D01*
X4866814Y-9385412D02*
X4904909Y-9385412D01*
X4904909Y-9385412D02*
X4923957Y-9394936D01*
X4923957Y-9394936D02*
X4933481Y-9404460D01*
X4933481Y-9404460D02*
X4943004Y-9423508D01*
X4943004Y-9423508D02*
X4943004Y-9480651D01*
X4943004Y-9480651D02*
X4933481Y-9499698D01*
X4933481Y-9499698D02*
X4923957Y-9509222D01*
X4923957Y-9509222D02*
X4904909Y-9518746D01*
X4904909Y-9518746D02*
X4866814Y-9518746D01*
X4866814Y-9518746D02*
X4847766Y-9509222D01*
X5028719Y-9499698D02*
X5038243Y-9509222D01*
X5038243Y-9509222D02*
X5028719Y-9518746D01*
X5028719Y-9518746D02*
X5019195Y-9509222D01*
X5019195Y-9509222D02*
X5028719Y-9499698D01*
X5028719Y-9499698D02*
X5028719Y-9518746D01*
X5028719Y-9394936D02*
X5038243Y-9404460D01*
X5038243Y-9404460D02*
X5028719Y-9413984D01*
X5028719Y-9413984D02*
X5019195Y-9404460D01*
X5019195Y-9404460D02*
X5028719Y-9394936D01*
X5028719Y-9394936D02*
X5028719Y-9413984D01*
D12*
X3311513Y-9804762D02*
X3396513Y-9889762D01*
X3396513Y-9804762D02*
X3311513Y-9889762D01*
D11*
X3695385Y-9738746D02*
X3714433Y-9738746D01*
X3714433Y-9738746D02*
X3733481Y-9748270D01*
X3733481Y-9748270D02*
X3743004Y-9757793D01*
X3743004Y-9757793D02*
X3752528Y-9776841D01*
X3752528Y-9776841D02*
X3762052Y-9814936D01*
X3762052Y-9814936D02*
X3762052Y-9862555D01*
X3762052Y-9862555D02*
X3752528Y-9900651D01*
X3752528Y-9900651D02*
X3743004Y-9919698D01*
X3743004Y-9919698D02*
X3733481Y-9929222D01*
X3733481Y-9929222D02*
X3714433Y-9938746D01*
X3714433Y-9938746D02*
X3695385Y-9938746D01*
X3695385Y-9938746D02*
X3676338Y-9929222D01*
X3676338Y-9929222D02*
X3666814Y-9919698D01*
X3666814Y-9919698D02*
X3657290Y-9900651D01*
X3657290Y-9900651D02*
X3647766Y-9862555D01*
X3647766Y-9862555D02*
X3647766Y-9814936D01*
X3647766Y-9814936D02*
X3657290Y-9776841D01*
X3657290Y-9776841D02*
X3666814Y-9757793D01*
X3666814Y-9757793D02*
X3676338Y-9748270D01*
X3676338Y-9748270D02*
X3695385Y-9738746D01*
X3847766Y-9919698D02*
X3857290Y-9929222D01*
X3857290Y-9929222D02*
X3847766Y-9938746D01*
X3847766Y-9938746D02*
X3838242Y-9929222D01*
X3838242Y-9929222D02*
X3847766Y-9919698D01*
X3847766Y-9919698D02*
X3847766Y-9938746D01*
X3971576Y-9824460D02*
X3952528Y-9814936D01*
X3952528Y-9814936D02*
X3943004Y-9805412D01*
X3943004Y-9805412D02*
X3933481Y-9786365D01*
X3933481Y-9786365D02*
X3933481Y-9776841D01*
X3933481Y-9776841D02*
X3943004Y-9757793D01*
X3943004Y-9757793D02*
X3952528Y-9748270D01*
X3952528Y-9748270D02*
X3971576Y-9738746D01*
X3971576Y-9738746D02*
X4009671Y-9738746D01*
X4009671Y-9738746D02*
X4028719Y-9748270D01*
X4028719Y-9748270D02*
X4038242Y-9757793D01*
X4038242Y-9757793D02*
X4047766Y-9776841D01*
X4047766Y-9776841D02*
X4047766Y-9786365D01*
X4047766Y-9786365D02*
X4038242Y-9805412D01*
X4038242Y-9805412D02*
X4028719Y-9814936D01*
X4028719Y-9814936D02*
X4009671Y-9824460D01*
X4009671Y-9824460D02*
X3971576Y-9824460D01*
X3971576Y-9824460D02*
X3952528Y-9833984D01*
X3952528Y-9833984D02*
X3943004Y-9843508D01*
X3943004Y-9843508D02*
X3933481Y-9862555D01*
X3933481Y-9862555D02*
X3933481Y-9900651D01*
X3933481Y-9900651D02*
X3943004Y-9919698D01*
X3943004Y-9919698D02*
X3952528Y-9929222D01*
X3952528Y-9929222D02*
X3971576Y-9938746D01*
X3971576Y-9938746D02*
X4009671Y-9938746D01*
X4009671Y-9938746D02*
X4028719Y-9929222D01*
X4028719Y-9929222D02*
X4038242Y-9919698D01*
X4038242Y-9919698D02*
X4047766Y-9900651D01*
X4047766Y-9900651D02*
X4047766Y-9862555D01*
X4047766Y-9862555D02*
X4038242Y-9843508D01*
X4038242Y-9843508D02*
X4028719Y-9833984D01*
X4028719Y-9833984D02*
X4009671Y-9824460D01*
X4228719Y-9738746D02*
X4133481Y-9738746D01*
X4133481Y-9738746D02*
X4123957Y-9833984D01*
X4123957Y-9833984D02*
X4133481Y-9824460D01*
X4133481Y-9824460D02*
X4152528Y-9814936D01*
X4152528Y-9814936D02*
X4200147Y-9814936D01*
X4200147Y-9814936D02*
X4219195Y-9824460D01*
X4219195Y-9824460D02*
X4228719Y-9833984D01*
X4228719Y-9833984D02*
X4238243Y-9853032D01*
X4238243Y-9853032D02*
X4238243Y-9900651D01*
X4238243Y-9900651D02*
X4228719Y-9919698D01*
X4228719Y-9919698D02*
X4219195Y-9929222D01*
X4219195Y-9929222D02*
X4200147Y-9938746D01*
X4200147Y-9938746D02*
X4152528Y-9938746D01*
X4152528Y-9938746D02*
X4133481Y-9929222D01*
X4133481Y-9929222D02*
X4123957Y-9919698D01*
X4362052Y-9738746D02*
X4381100Y-9738746D01*
X4381100Y-9738746D02*
X4400147Y-9748270D01*
X4400147Y-9748270D02*
X4409671Y-9757793D01*
X4409671Y-9757793D02*
X4419195Y-9776841D01*
X4419195Y-9776841D02*
X4428719Y-9814936D01*
X4428719Y-9814936D02*
X4428719Y-9862555D01*
X4428719Y-9862555D02*
X4419195Y-9900651D01*
X4419195Y-9900651D02*
X4409671Y-9919698D01*
X4409671Y-9919698D02*
X4400147Y-9929222D01*
X4400147Y-9929222D02*
X4381100Y-9938746D01*
X4381100Y-9938746D02*
X4362052Y-9938746D01*
X4362052Y-9938746D02*
X4343004Y-9929222D01*
X4343004Y-9929222D02*
X4333481Y-9919698D01*
X4333481Y-9919698D02*
X4323957Y-9900651D01*
X4323957Y-9900651D02*
X4314433Y-9862555D01*
X4314433Y-9862555D02*
X4314433Y-9814936D01*
X4314433Y-9814936D02*
X4323957Y-9776841D01*
X4323957Y-9776841D02*
X4333481Y-9757793D01*
X4333481Y-9757793D02*
X4343004Y-9748270D01*
X4343004Y-9748270D02*
X4362052Y-9738746D01*
X4514433Y-9938746D02*
X4514433Y-9805412D01*
X4514433Y-9824460D02*
X4523957Y-9814936D01*
X4523957Y-9814936D02*
X4543004Y-9805412D01*
X4543004Y-9805412D02*
X4571576Y-9805412D01*
X4571576Y-9805412D02*
X4590624Y-9814936D01*
X4590624Y-9814936D02*
X4600147Y-9833984D01*
X4600147Y-9833984D02*
X4600147Y-9938746D01*
X4600147Y-9833984D02*
X4609671Y-9814936D01*
X4609671Y-9814936D02*
X4628719Y-9805412D01*
X4628719Y-9805412D02*
X4657290Y-9805412D01*
X4657290Y-9805412D02*
X4676338Y-9814936D01*
X4676338Y-9814936D02*
X4685862Y-9833984D01*
X4685862Y-9833984D02*
X4685862Y-9938746D01*
X4781100Y-9938746D02*
X4781100Y-9805412D01*
X4781100Y-9824460D02*
X4790624Y-9814936D01*
X4790624Y-9814936D02*
X4809671Y-9805412D01*
X4809671Y-9805412D02*
X4838243Y-9805412D01*
X4838243Y-9805412D02*
X4857290Y-9814936D01*
X4857290Y-9814936D02*
X4866814Y-9833984D01*
X4866814Y-9833984D02*
X4866814Y-9938746D01*
X4866814Y-9833984D02*
X4876338Y-9814936D01*
X4876338Y-9814936D02*
X4895385Y-9805412D01*
X4895385Y-9805412D02*
X4923957Y-9805412D01*
X4923957Y-9805412D02*
X4943005Y-9814936D01*
X4943005Y-9814936D02*
X4952528Y-9833984D01*
X4952528Y-9833984D02*
X4952528Y-9938746D01*
X5343005Y-9729222D02*
X5171576Y-9986365D01*
X5600147Y-9738746D02*
X5619195Y-9738746D01*
X5619195Y-9738746D02*
X5638243Y-9748270D01*
X5638243Y-9748270D02*
X5647766Y-9757793D01*
X5647766Y-9757793D02*
X5657290Y-9776841D01*
X5657290Y-9776841D02*
X5666814Y-9814936D01*
X5666814Y-9814936D02*
X5666814Y-9862555D01*
X5666814Y-9862555D02*
X5657290Y-9900651D01*
X5657290Y-9900651D02*
X5647766Y-9919698D01*
X5647766Y-9919698D02*
X5638243Y-9929222D01*
X5638243Y-9929222D02*
X5619195Y-9938746D01*
X5619195Y-9938746D02*
X5600147Y-9938746D01*
X5600147Y-9938746D02*
X5581100Y-9929222D01*
X5581100Y-9929222D02*
X5571576Y-9919698D01*
X5571576Y-9919698D02*
X5562052Y-9900651D01*
X5562052Y-9900651D02*
X5552528Y-9862555D01*
X5552528Y-9862555D02*
X5552528Y-9814936D01*
X5552528Y-9814936D02*
X5562052Y-9776841D01*
X5562052Y-9776841D02*
X5571576Y-9757793D01*
X5571576Y-9757793D02*
X5581100Y-9748270D01*
X5581100Y-9748270D02*
X5600147Y-9738746D01*
X5752528Y-9919698D02*
X5762052Y-9929222D01*
X5762052Y-9929222D02*
X5752528Y-9938746D01*
X5752528Y-9938746D02*
X5743005Y-9929222D01*
X5743005Y-9929222D02*
X5752528Y-9919698D01*
X5752528Y-9919698D02*
X5752528Y-9938746D01*
X5885862Y-9738746D02*
X5904909Y-9738746D01*
X5904909Y-9738746D02*
X5923957Y-9748270D01*
X5923957Y-9748270D02*
X5933481Y-9757793D01*
X5933481Y-9757793D02*
X5943005Y-9776841D01*
X5943005Y-9776841D02*
X5952528Y-9814936D01*
X5952528Y-9814936D02*
X5952528Y-9862555D01*
X5952528Y-9862555D02*
X5943005Y-9900651D01*
X5943005Y-9900651D02*
X5933481Y-9919698D01*
X5933481Y-9919698D02*
X5923957Y-9929222D01*
X5923957Y-9929222D02*
X5904909Y-9938746D01*
X5904909Y-9938746D02*
X5885862Y-9938746D01*
X5885862Y-9938746D02*
X5866814Y-9929222D01*
X5866814Y-9929222D02*
X5857290Y-9919698D01*
X5857290Y-9919698D02*
X5847766Y-9900651D01*
X5847766Y-9900651D02*
X5838243Y-9862555D01*
X5838243Y-9862555D02*
X5838243Y-9814936D01*
X5838243Y-9814936D02*
X5847766Y-9776841D01*
X5847766Y-9776841D02*
X5857290Y-9757793D01*
X5857290Y-9757793D02*
X5866814Y-9748270D01*
X5866814Y-9748270D02*
X5885862Y-9738746D01*
X6019195Y-9738746D02*
X6143005Y-9738746D01*
X6143005Y-9738746D02*
X6076338Y-9814936D01*
X6076338Y-9814936D02*
X6104909Y-9814936D01*
X6104909Y-9814936D02*
X6123957Y-9824460D01*
X6123957Y-9824460D02*
X6133481Y-9833984D01*
X6133481Y-9833984D02*
X6143005Y-9853032D01*
X6143005Y-9853032D02*
X6143005Y-9900651D01*
X6143005Y-9900651D02*
X6133481Y-9919698D01*
X6133481Y-9919698D02*
X6123957Y-9929222D01*
X6123957Y-9929222D02*
X6104909Y-9938746D01*
X6104909Y-9938746D02*
X6047766Y-9938746D01*
X6047766Y-9938746D02*
X6028719Y-9929222D01*
X6028719Y-9929222D02*
X6019195Y-9919698D01*
X6209671Y-9738746D02*
X6333481Y-9738746D01*
X6333481Y-9738746D02*
X6266814Y-9814936D01*
X6266814Y-9814936D02*
X6295386Y-9814936D01*
X6295386Y-9814936D02*
X6314433Y-9824460D01*
X6314433Y-9824460D02*
X6323957Y-9833984D01*
X6323957Y-9833984D02*
X6333481Y-9853032D01*
X6333481Y-9853032D02*
X6333481Y-9900651D01*
X6333481Y-9900651D02*
X6323957Y-9919698D01*
X6323957Y-9919698D02*
X6314433Y-9929222D01*
X6314433Y-9929222D02*
X6295386Y-9938746D01*
X6295386Y-9938746D02*
X6238243Y-9938746D01*
X6238243Y-9938746D02*
X6219195Y-9929222D01*
X6219195Y-9929222D02*
X6209671Y-9919698D01*
X6514433Y-9738746D02*
X6419195Y-9738746D01*
X6419195Y-9738746D02*
X6409671Y-9833984D01*
X6409671Y-9833984D02*
X6419195Y-9824460D01*
X6419195Y-9824460D02*
X6438243Y-9814936D01*
X6438243Y-9814936D02*
X6485862Y-9814936D01*
X6485862Y-9814936D02*
X6504909Y-9824460D01*
X6504909Y-9824460D02*
X6514433Y-9833984D01*
X6514433Y-9833984D02*
X6523957Y-9853032D01*
X6523957Y-9853032D02*
X6523957Y-9900651D01*
X6523957Y-9900651D02*
X6514433Y-9919698D01*
X6514433Y-9919698D02*
X6504909Y-9929222D01*
X6504909Y-9929222D02*
X6485862Y-9938746D01*
X6485862Y-9938746D02*
X6438243Y-9938746D01*
X6438243Y-9938746D02*
X6419195Y-9929222D01*
X6419195Y-9929222D02*
X6409671Y-9919698D01*
X6600147Y-9738746D02*
X6600147Y-9776841D01*
X6676338Y-9738746D02*
X6676338Y-9776841D01*
X6971576Y-10014936D02*
X6962052Y-10005412D01*
X6962052Y-10005412D02*
X6943005Y-9976841D01*
X6943005Y-9976841D02*
X6933481Y-9957793D01*
X6933481Y-9957793D02*
X6923957Y-9929222D01*
X6923957Y-9929222D02*
X6914433Y-9881603D01*
X6914433Y-9881603D02*
X6914433Y-9843508D01*
X6914433Y-9843508D02*
X6923957Y-9795889D01*
X6923957Y-9795889D02*
X6933481Y-9767317D01*
X6933481Y-9767317D02*
X6943005Y-9748270D01*
X6943005Y-9748270D02*
X6962052Y-9719698D01*
X6962052Y-9719698D02*
X6971576Y-9710174D01*
X7038243Y-9757793D02*
X7047767Y-9748270D01*
X7047767Y-9748270D02*
X7066814Y-9738746D01*
X7066814Y-9738746D02*
X7114433Y-9738746D01*
X7114433Y-9738746D02*
X7133481Y-9748270D01*
X7133481Y-9748270D02*
X7143005Y-9757793D01*
X7143005Y-9757793D02*
X7152528Y-9776841D01*
X7152528Y-9776841D02*
X7152528Y-9795889D01*
X7152528Y-9795889D02*
X7143005Y-9824460D01*
X7143005Y-9824460D02*
X7028719Y-9938746D01*
X7028719Y-9938746D02*
X7152528Y-9938746D01*
X7390624Y-9938746D02*
X7390624Y-9738746D01*
X7476338Y-9938746D02*
X7476338Y-9833984D01*
X7476338Y-9833984D02*
X7466814Y-9814936D01*
X7466814Y-9814936D02*
X7447767Y-9805412D01*
X7447767Y-9805412D02*
X7419195Y-9805412D01*
X7419195Y-9805412D02*
X7400148Y-9814936D01*
X7400148Y-9814936D02*
X7390624Y-9824460D01*
X7600148Y-9938746D02*
X7581100Y-9929222D01*
X7581100Y-9929222D02*
X7571576Y-9919698D01*
X7571576Y-9919698D02*
X7562052Y-9900651D01*
X7562052Y-9900651D02*
X7562052Y-9843508D01*
X7562052Y-9843508D02*
X7571576Y-9824460D01*
X7571576Y-9824460D02*
X7581100Y-9814936D01*
X7581100Y-9814936D02*
X7600148Y-9805412D01*
X7600148Y-9805412D02*
X7628719Y-9805412D01*
X7628719Y-9805412D02*
X7647767Y-9814936D01*
X7647767Y-9814936D02*
X7657290Y-9824460D01*
X7657290Y-9824460D02*
X7666814Y-9843508D01*
X7666814Y-9843508D02*
X7666814Y-9900651D01*
X7666814Y-9900651D02*
X7657290Y-9919698D01*
X7657290Y-9919698D02*
X7647767Y-9929222D01*
X7647767Y-9929222D02*
X7628719Y-9938746D01*
X7628719Y-9938746D02*
X7600148Y-9938746D01*
X7781100Y-9938746D02*
X7762052Y-9929222D01*
X7762052Y-9929222D02*
X7752529Y-9910174D01*
X7752529Y-9910174D02*
X7752529Y-9738746D01*
X7933481Y-9929222D02*
X7914433Y-9938746D01*
X7914433Y-9938746D02*
X7876338Y-9938746D01*
X7876338Y-9938746D02*
X7857290Y-9929222D01*
X7857290Y-9929222D02*
X7847767Y-9910174D01*
X7847767Y-9910174D02*
X7847767Y-9833984D01*
X7847767Y-9833984D02*
X7857290Y-9814936D01*
X7857290Y-9814936D02*
X7876338Y-9805412D01*
X7876338Y-9805412D02*
X7914433Y-9805412D01*
X7914433Y-9805412D02*
X7933481Y-9814936D01*
X7933481Y-9814936D02*
X7943005Y-9833984D01*
X7943005Y-9833984D02*
X7943005Y-9853032D01*
X7943005Y-9853032D02*
X7847767Y-9872079D01*
X8019195Y-9929222D02*
X8038243Y-9938746D01*
X8038243Y-9938746D02*
X8076338Y-9938746D01*
X8076338Y-9938746D02*
X8095386Y-9929222D01*
X8095386Y-9929222D02*
X8104910Y-9910174D01*
X8104910Y-9910174D02*
X8104910Y-9900651D01*
X8104910Y-9900651D02*
X8095386Y-9881603D01*
X8095386Y-9881603D02*
X8076338Y-9872079D01*
X8076338Y-9872079D02*
X8047767Y-9872079D01*
X8047767Y-9872079D02*
X8028719Y-9862555D01*
X8028719Y-9862555D02*
X8019195Y-9843508D01*
X8019195Y-9843508D02*
X8019195Y-9833984D01*
X8019195Y-9833984D02*
X8028719Y-9814936D01*
X8028719Y-9814936D02*
X8047767Y-9805412D01*
X8047767Y-9805412D02*
X8076338Y-9805412D01*
X8076338Y-9805412D02*
X8095386Y-9814936D01*
X8171576Y-10014936D02*
X8181100Y-10005412D01*
X8181100Y-10005412D02*
X8200148Y-9976841D01*
X8200148Y-9976841D02*
X8209671Y-9957793D01*
X8209671Y-9957793D02*
X8219195Y-9929222D01*
X8219195Y-9929222D02*
X8228719Y-9881603D01*
X8228719Y-9881603D02*
X8228719Y-9843508D01*
X8228719Y-9843508D02*
X8219195Y-9795889D01*
X8219195Y-9795889D02*
X8209671Y-9767317D01*
X8209671Y-9767317D02*
X8200148Y-9748270D01*
X8200148Y-9748270D02*
X8181100Y-9719698D01*
X8181100Y-9719698D02*
X8171576Y-9710174D01*
X8533481Y-10014936D02*
X8523957Y-10005412D01*
X8523957Y-10005412D02*
X8504910Y-9976841D01*
X8504910Y-9976841D02*
X8495386Y-9957793D01*
X8495386Y-9957793D02*
X8485862Y-9929222D01*
X8485862Y-9929222D02*
X8476338Y-9881603D01*
X8476338Y-9881603D02*
X8476338Y-9843508D01*
X8476338Y-9843508D02*
X8485862Y-9795889D01*
X8485862Y-9795889D02*
X8495386Y-9767317D01*
X8495386Y-9767317D02*
X8504910Y-9748270D01*
X8504910Y-9748270D02*
X8523957Y-9719698D01*
X8523957Y-9719698D02*
X8533481Y-9710174D01*
X8609672Y-9805412D02*
X8609672Y-9938746D01*
X8609672Y-9824460D02*
X8619195Y-9814936D01*
X8619195Y-9814936D02*
X8638243Y-9805412D01*
X8638243Y-9805412D02*
X8666814Y-9805412D01*
X8666814Y-9805412D02*
X8685862Y-9814936D01*
X8685862Y-9814936D02*
X8695386Y-9833984D01*
X8695386Y-9833984D02*
X8695386Y-9938746D01*
X8819195Y-9938746D02*
X8800148Y-9929222D01*
X8800148Y-9929222D02*
X8790624Y-9919698D01*
X8790624Y-9919698D02*
X8781100Y-9900651D01*
X8781100Y-9900651D02*
X8781100Y-9843508D01*
X8781100Y-9843508D02*
X8790624Y-9824460D01*
X8790624Y-9824460D02*
X8800148Y-9814936D01*
X8800148Y-9814936D02*
X8819195Y-9805412D01*
X8819195Y-9805412D02*
X8847767Y-9805412D01*
X8847767Y-9805412D02*
X8866814Y-9814936D01*
X8866814Y-9814936D02*
X8876338Y-9824460D01*
X8876338Y-9824460D02*
X8885862Y-9843508D01*
X8885862Y-9843508D02*
X8885862Y-9900651D01*
X8885862Y-9900651D02*
X8876338Y-9919698D01*
X8876338Y-9919698D02*
X8866814Y-9929222D01*
X8866814Y-9929222D02*
X8847767Y-9938746D01*
X8847767Y-9938746D02*
X8819195Y-9938746D01*
X8943005Y-9805412D02*
X9019195Y-9805412D01*
X8971576Y-9738746D02*
X8971576Y-9910174D01*
X8971576Y-9910174D02*
X8981100Y-9929222D01*
X8981100Y-9929222D02*
X9000148Y-9938746D01*
X9000148Y-9938746D02*
X9019195Y-9938746D01*
X9238243Y-9805412D02*
X9238243Y-10005412D01*
X9238243Y-9814936D02*
X9257291Y-9805412D01*
X9257291Y-9805412D02*
X9295386Y-9805412D01*
X9295386Y-9805412D02*
X9314434Y-9814936D01*
X9314434Y-9814936D02*
X9323957Y-9824460D01*
X9323957Y-9824460D02*
X9333481Y-9843508D01*
X9333481Y-9843508D02*
X9333481Y-9900651D01*
X9333481Y-9900651D02*
X9323957Y-9919698D01*
X9323957Y-9919698D02*
X9314434Y-9929222D01*
X9314434Y-9929222D02*
X9295386Y-9938746D01*
X9295386Y-9938746D02*
X9257291Y-9938746D01*
X9257291Y-9938746D02*
X9238243Y-9929222D01*
X9447767Y-9938746D02*
X9428719Y-9929222D01*
X9428719Y-9929222D02*
X9419195Y-9910174D01*
X9419195Y-9910174D02*
X9419195Y-9738746D01*
X9609672Y-9938746D02*
X9609672Y-9833984D01*
X9609672Y-9833984D02*
X9600148Y-9814936D01*
X9600148Y-9814936D02*
X9581100Y-9805412D01*
X9581100Y-9805412D02*
X9543005Y-9805412D01*
X9543005Y-9805412D02*
X9523957Y-9814936D01*
X9609672Y-9929222D02*
X9590624Y-9938746D01*
X9590624Y-9938746D02*
X9543005Y-9938746D01*
X9543005Y-9938746D02*
X9523957Y-9929222D01*
X9523957Y-9929222D02*
X9514434Y-9910174D01*
X9514434Y-9910174D02*
X9514434Y-9891127D01*
X9514434Y-9891127D02*
X9523957Y-9872079D01*
X9523957Y-9872079D02*
X9543005Y-9862555D01*
X9543005Y-9862555D02*
X9590624Y-9862555D01*
X9590624Y-9862555D02*
X9609672Y-9853032D01*
X9676338Y-9805412D02*
X9752529Y-9805412D01*
X9704910Y-9738746D02*
X9704910Y-9910174D01*
X9704910Y-9910174D02*
X9714434Y-9929222D01*
X9714434Y-9929222D02*
X9733481Y-9938746D01*
X9733481Y-9938746D02*
X9752529Y-9938746D01*
X9895386Y-9929222D02*
X9876338Y-9938746D01*
X9876338Y-9938746D02*
X9838243Y-9938746D01*
X9838243Y-9938746D02*
X9819195Y-9929222D01*
X9819195Y-9929222D02*
X9809672Y-9910174D01*
X9809672Y-9910174D02*
X9809672Y-9833984D01*
X9809672Y-9833984D02*
X9819195Y-9814936D01*
X9819195Y-9814936D02*
X9838243Y-9805412D01*
X9838243Y-9805412D02*
X9876338Y-9805412D01*
X9876338Y-9805412D02*
X9895386Y-9814936D01*
X9895386Y-9814936D02*
X9904910Y-9833984D01*
X9904910Y-9833984D02*
X9904910Y-9853032D01*
X9904910Y-9853032D02*
X9809672Y-9872079D01*
X10076338Y-9938746D02*
X10076338Y-9738746D01*
X10076338Y-9929222D02*
X10057291Y-9938746D01*
X10057291Y-9938746D02*
X10019195Y-9938746D01*
X10019195Y-9938746D02*
X10000148Y-9929222D01*
X10000148Y-9929222D02*
X9990624Y-9919698D01*
X9990624Y-9919698D02*
X9981100Y-9900651D01*
X9981100Y-9900651D02*
X9981100Y-9843508D01*
X9981100Y-9843508D02*
X9990624Y-9824460D01*
X9990624Y-9824460D02*
X10000148Y-9814936D01*
X10000148Y-9814936D02*
X10019195Y-9805412D01*
X10019195Y-9805412D02*
X10057291Y-9805412D01*
X10057291Y-9805412D02*
X10076338Y-9814936D01*
X10152529Y-10014936D02*
X10162053Y-10005412D01*
X10162053Y-10005412D02*
X10181100Y-9976841D01*
X10181100Y-9976841D02*
X10190624Y-9957793D01*
X10190624Y-9957793D02*
X10200148Y-9929222D01*
X10200148Y-9929222D02*
X10209672Y-9881603D01*
X10209672Y-9881603D02*
X10209672Y-9843508D01*
X10209672Y-9843508D02*
X10200148Y-9795889D01*
X10200148Y-9795889D02*
X10190624Y-9767317D01*
X10190624Y-9767317D02*
X10181100Y-9748270D01*
X10181100Y-9748270D02*
X10162053Y-9719698D01*
X10162053Y-9719698D02*
X10152529Y-9710174D01*
M02*
