G04 #@! TF.GenerationSoftware,KiCad,Pcbnew,8.0.1-rc2-202403101705~c0fd138706~ubuntu22.04.1*
G04 #@! TF.CreationDate,2024-03-11T22:08:15-04:00*
G04 #@! TF.ProjectId,Balance_Controller,42616c61-6e63-4655-9f43-6f6e74726f6c,rev?*
G04 #@! TF.SameCoordinates,Original*
G04 #@! TF.FileFunction,Copper,L2,Inr*
G04 #@! TF.FilePolarity,Positive*
%FSLAX46Y46*%
G04 Gerber Fmt 4.6, Leading zero omitted, Abs format (unit mm)*
G04 Created by KiCad (PCBNEW 8.0.1-rc2-202403101705~c0fd138706~ubuntu22.04.1) date 2024-03-11 22:08:15*
%MOMM*%
%LPD*%
G01*
G04 APERTURE LIST*
G04 Aperture macros list*
%AMRoundRect*
0 Rectangle with rounded corners*
0 $1 Rounding radius*
0 $2 $3 $4 $5 $6 $7 $8 $9 X,Y pos of 4 corners*
0 Add a 4 corners polygon primitive as box body*
4,1,4,$2,$3,$4,$5,$6,$7,$8,$9,$2,$3,0*
0 Add four circle primitives for the rounded corners*
1,1,$1+$1,$2,$3*
1,1,$1+$1,$4,$5*
1,1,$1+$1,$6,$7*
1,1,$1+$1,$8,$9*
0 Add four rect primitives between the rounded corners*
20,1,$1+$1,$2,$3,$4,$5,0*
20,1,$1+$1,$4,$5,$6,$7,0*
20,1,$1+$1,$6,$7,$8,$9,0*
20,1,$1+$1,$8,$9,$2,$3,0*%
G04 Aperture macros list end*
G04 #@! TA.AperFunction,ComponentPad*
%ADD10RoundRect,0.250000X-0.600000X-0.725000X0.600000X-0.725000X0.600000X0.725000X-0.600000X0.725000X0*%
G04 #@! TD*
G04 #@! TA.AperFunction,ComponentPad*
%ADD11O,1.700000X1.950000*%
G04 #@! TD*
G04 #@! TA.AperFunction,ComponentPad*
%ADD12C,5.400000*%
G04 #@! TD*
G04 #@! TA.AperFunction,ComponentPad*
%ADD13C,5.600000*%
G04 #@! TD*
G04 #@! TA.AperFunction,ComponentPad*
%ADD14C,2.400000*%
G04 #@! TD*
G04 #@! TA.AperFunction,ComponentPad*
%ADD15RoundRect,1.500000X-1.500000X1.500000X-1.500000X-1.500000X1.500000X-1.500000X1.500000X1.500000X0*%
G04 #@! TD*
G04 #@! TA.AperFunction,ComponentPad*
%ADD16C,6.000000*%
G04 #@! TD*
G04 #@! TA.AperFunction,ComponentPad*
%ADD17R,1.700000X1.700000*%
G04 #@! TD*
G04 #@! TA.AperFunction,ComponentPad*
%ADD18O,1.700000X1.700000*%
G04 #@! TD*
G04 #@! TA.AperFunction,ComponentPad*
%ADD19RoundRect,0.250000X0.350000X0.625000X-0.350000X0.625000X-0.350000X-0.625000X0.350000X-0.625000X0*%
G04 #@! TD*
G04 #@! TA.AperFunction,ComponentPad*
%ADD20O,1.200000X1.750000*%
G04 #@! TD*
G04 #@! TA.AperFunction,ViaPad*
%ADD21C,0.700000*%
G04 #@! TD*
G04 #@! TA.AperFunction,ViaPad*
%ADD22C,0.800000*%
G04 #@! TD*
G04 #@! TA.AperFunction,ViaPad*
%ADD23C,1.000000*%
G04 #@! TD*
G04 APERTURE END LIST*
D10*
X82250000Y-54750000D03*
D11*
X84750000Y-54750000D03*
X87250000Y-54750000D03*
X89750000Y-54750000D03*
D12*
X55000000Y-28000000D03*
X91500000Y-28000000D03*
D13*
X159500000Y-26542136D03*
D14*
X81500000Y-45920000D03*
X78100000Y-45920000D03*
X81500000Y-36000000D03*
X78100000Y-36000000D03*
D12*
X70250000Y-57250000D03*
D13*
X99500000Y-87000000D03*
D12*
X68000000Y-28000000D03*
D15*
X91500000Y-37420000D03*
D16*
X91500000Y-44620000D03*
D12*
X63750000Y-50750000D03*
D17*
X140000000Y-26500000D03*
D18*
X142540000Y-26500000D03*
X145080000Y-26500000D03*
X147620000Y-26500000D03*
X150160000Y-26500000D03*
X152700000Y-26500000D03*
D12*
X55000000Y-40500000D03*
D13*
X39500000Y-26542136D03*
D12*
X80000000Y-28000000D03*
D10*
X82250000Y-62420000D03*
D11*
X84750000Y-62420000D03*
X87250000Y-62420000D03*
X89750000Y-62420000D03*
D19*
X120500000Y-41500000D03*
D20*
X118500000Y-41500000D03*
D19*
X113500000Y-41500000D03*
D20*
X111500000Y-41500000D03*
D19*
X106500000Y-41500000D03*
D20*
X104500000Y-41500000D03*
X102500000Y-41500000D03*
D21*
X103500000Y-54500000D03*
X143020000Y-37250000D03*
X120900000Y-34400000D03*
X119900000Y-35500000D03*
X111500000Y-43250000D03*
X131650000Y-30250000D03*
X123750000Y-51500000D03*
D22*
X46800000Y-28000000D03*
D21*
X117850000Y-53900000D03*
X117250000Y-60500000D03*
X102500000Y-43250000D03*
X129750000Y-52750000D03*
X111750000Y-48000000D03*
X101000000Y-34400000D03*
X126000000Y-57100000D03*
X106250000Y-57300000D03*
X153250000Y-36750000D03*
X107500000Y-54500000D03*
X110100000Y-32000000D03*
X114750000Y-58500000D03*
X151250000Y-36750000D03*
X128500000Y-32000000D03*
X120650000Y-53900000D03*
X142500000Y-30250000D03*
X128500000Y-30250000D03*
X111750000Y-30250000D03*
X107000000Y-32000000D03*
X103750000Y-80250000D03*
X111750000Y-28500000D03*
X101750000Y-79750000D03*
X111750000Y-32000000D03*
X126250000Y-59250000D03*
X100000000Y-24750000D03*
X110100000Y-28500000D03*
X99800000Y-35500000D03*
X130000000Y-30250000D03*
X141750000Y-45750000D03*
X96500000Y-75750000D03*
X119900000Y-24700000D03*
X105500000Y-47250000D03*
X87000000Y-31750000D03*
X147000000Y-34000000D03*
X120650000Y-56700000D03*
X99250000Y-80000000D03*
X128500000Y-28500000D03*
X134250000Y-51500000D03*
X103750000Y-74000000D03*
X117850000Y-56700000D03*
X108500000Y-47000000D03*
X123750000Y-57000000D03*
X124000000Y-42800000D03*
X137250000Y-51350000D03*
X130000000Y-32000000D03*
D23*
X56500000Y-48500000D03*
D21*
X114750000Y-53500000D03*
X104900000Y-76400000D03*
X117250000Y-47250000D03*
X149000000Y-30250000D03*
X119250000Y-55300000D03*
X108500000Y-28500000D03*
X131650000Y-32000000D03*
X108750000Y-62500000D03*
X102750000Y-58850000D03*
X108500000Y-32000000D03*
X104750000Y-57300000D03*
X118500000Y-35500000D03*
X130000000Y-28500000D03*
X139210000Y-33500000D03*
X123250000Y-62000000D03*
X133000000Y-49500000D03*
X141750000Y-37250000D03*
X110100000Y-30250000D03*
X105500000Y-64250000D03*
X126000000Y-48000000D03*
X130000000Y-54900000D03*
X126900000Y-32000000D03*
X99000000Y-82250000D03*
X108500000Y-30250000D03*
X100500000Y-63000000D03*
X112600000Y-72800000D03*
X118500000Y-43250000D03*
X114500000Y-62000000D03*
X123750000Y-60000000D03*
X131500000Y-28500000D03*
X102500000Y-75750000D03*
G04 #@! TA.AperFunction,Conductor*
G36*
X160039123Y-21801997D02*
G01*
X160309617Y-21840638D01*
X160323195Y-21843352D01*
X160324296Y-21843486D01*
X160324298Y-21843487D01*
X160359024Y-21847728D01*
X160362006Y-21848123D01*
X160396667Y-21853075D01*
X160396667Y-21853074D01*
X160397760Y-21853231D01*
X160411580Y-21854147D01*
X160677984Y-21886685D01*
X160692025Y-21889088D01*
X161004800Y-21958172D01*
X161012668Y-21960137D01*
X161417801Y-22073076D01*
X161430596Y-22077276D01*
X161816243Y-22223533D01*
X161828614Y-22228876D01*
X162199451Y-22409438D01*
X162211296Y-22415886D01*
X162564255Y-22629257D01*
X162575479Y-22636756D01*
X162907669Y-22881187D01*
X162918156Y-22889661D01*
X163203503Y-23142457D01*
X163226874Y-23163162D01*
X163236561Y-23172561D01*
X163338477Y-23280828D01*
X163519262Y-23472879D01*
X163528047Y-23483104D01*
X163541677Y-23500500D01*
X163782406Y-23807766D01*
X163790237Y-23818752D01*
X163922489Y-24023304D01*
X164014168Y-24165102D01*
X164020975Y-24176756D01*
X164069283Y-24268799D01*
X164212642Y-24541945D01*
X164218367Y-24554169D01*
X164376202Y-24935216D01*
X164380791Y-24947890D01*
X164503494Y-25341657D01*
X164506921Y-25354713D01*
X164593481Y-25757950D01*
X164595714Y-25771262D01*
X164645429Y-26180694D01*
X164646447Y-26194154D01*
X164658904Y-26606400D01*
X164658700Y-26619896D01*
X164633799Y-27031564D01*
X164632375Y-27044988D01*
X164570315Y-27452742D01*
X164567681Y-27465980D01*
X164468984Y-27866414D01*
X164465164Y-27879360D01*
X164330623Y-28269243D01*
X164325646Y-28281791D01*
X164156382Y-28657880D01*
X164150290Y-28669925D01*
X163947689Y-29029145D01*
X163940533Y-29040589D01*
X163706236Y-29380028D01*
X163698079Y-29390771D01*
X163480710Y-29651596D01*
X163432419Y-29709541D01*
X163424491Y-29718320D01*
X163280286Y-29865796D01*
X163279111Y-29866984D01*
X156782312Y-36363783D01*
X125619861Y-67526236D01*
X102824773Y-90321322D01*
X102823618Y-90322464D01*
X102681676Y-90461344D01*
X102673247Y-90468984D01*
X102367128Y-90725846D01*
X102356816Y-90733759D01*
X102031496Y-90961551D01*
X102020533Y-90968535D01*
X101676584Y-91167114D01*
X101665054Y-91173116D01*
X101305119Y-91340957D01*
X101293110Y-91345931D01*
X100919907Y-91481766D01*
X100907510Y-91485675D01*
X100523899Y-91588463D01*
X100511209Y-91591276D01*
X100120094Y-91660240D01*
X100107207Y-91661937D01*
X99711566Y-91696553D01*
X99698579Y-91697120D01*
X99301421Y-91697120D01*
X99288434Y-91696553D01*
X98892791Y-91661937D01*
X98879904Y-91660240D01*
X98488789Y-91591276D01*
X98476099Y-91588463D01*
X98092488Y-91485675D01*
X98080091Y-91481766D01*
X97706887Y-91345930D01*
X97694878Y-91340956D01*
X97334940Y-91173115D01*
X97323410Y-91167113D01*
X96979471Y-90968539D01*
X96968508Y-90961555D01*
X96643177Y-90733755D01*
X96632865Y-90725842D01*
X96326751Y-90468984D01*
X96318322Y-90461344D01*
X96176380Y-90322464D01*
X96175225Y-90321322D01*
X92853911Y-87000008D01*
X96195153Y-87000008D01*
X96214525Y-87357308D01*
X96214526Y-87357317D01*
X96272417Y-87710442D01*
X96272418Y-87710447D01*
X96368150Y-88055238D01*
X96500600Y-88387664D01*
X96500606Y-88387677D01*
X96668214Y-88703821D01*
X96869040Y-89000016D01*
X96869044Y-89000021D01*
X96996441Y-89150002D01*
X96996442Y-89150002D01*
X98205747Y-87940696D01*
X98279588Y-88042330D01*
X98457670Y-88220412D01*
X98559301Y-88294251D01*
X97347256Y-89506296D01*
X97360480Y-89518823D01*
X97645360Y-89735384D01*
X97951976Y-89919869D01*
X98276752Y-90070126D01*
X98276762Y-90070131D01*
X98615857Y-90184384D01*
X98615871Y-90184388D01*
X98965319Y-90261307D01*
X98965333Y-90261310D01*
X99321078Y-90299999D01*
X99321088Y-90300000D01*
X99678912Y-90300000D01*
X99678921Y-90299999D01*
X100034666Y-90261310D01*
X100034680Y-90261307D01*
X100384128Y-90184388D01*
X100384142Y-90184384D01*
X100723237Y-90070131D01*
X100723247Y-90070126D01*
X101048023Y-89919869D01*
X101354639Y-89735384D01*
X101639514Y-89518827D01*
X101652742Y-89506296D01*
X100440698Y-88294251D01*
X100542330Y-88220412D01*
X100720412Y-88042330D01*
X100794252Y-87940698D01*
X102003557Y-89150003D01*
X102003558Y-89150003D01*
X102130955Y-89000021D01*
X102130959Y-89000016D01*
X102331785Y-88703821D01*
X102499393Y-88387677D01*
X102499399Y-88387664D01*
X102631849Y-88055238D01*
X102727581Y-87710447D01*
X102727582Y-87710442D01*
X102785473Y-87357317D01*
X102785474Y-87357308D01*
X102804847Y-87000008D01*
X102804847Y-86999991D01*
X102785474Y-86642691D01*
X102785473Y-86642682D01*
X102727582Y-86289557D01*
X102727581Y-86289552D01*
X102631849Y-85944761D01*
X102499399Y-85612335D01*
X102499393Y-85612322D01*
X102331785Y-85296178D01*
X102130959Y-84999983D01*
X102130955Y-84999978D01*
X102003557Y-84849996D01*
X102003556Y-84849996D01*
X100794251Y-86059300D01*
X100720412Y-85957670D01*
X100542330Y-85779588D01*
X100440696Y-85705747D01*
X101652742Y-84493702D01*
X101639519Y-84481176D01*
X101354639Y-84264615D01*
X101048023Y-84080130D01*
X100723247Y-83929873D01*
X100723237Y-83929868D01*
X100384142Y-83815615D01*
X100384128Y-83815611D01*
X100034680Y-83738692D01*
X100034666Y-83738689D01*
X99678921Y-83700000D01*
X99321078Y-83700000D01*
X98965333Y-83738689D01*
X98965319Y-83738692D01*
X98615871Y-83815611D01*
X98615857Y-83815615D01*
X98276762Y-83929868D01*
X98276752Y-83929873D01*
X97951976Y-84080130D01*
X97645360Y-84264615D01*
X97360491Y-84481168D01*
X97347257Y-84493703D01*
X98559301Y-85705747D01*
X98457670Y-85779588D01*
X98279588Y-85957670D01*
X98205747Y-86059301D01*
X96996442Y-84849996D01*
X96869035Y-84999991D01*
X96668214Y-85296178D01*
X96500606Y-85612322D01*
X96500600Y-85612335D01*
X96368150Y-85944761D01*
X96272418Y-86289552D01*
X96272417Y-86289557D01*
X96214526Y-86642682D01*
X96214525Y-86642691D01*
X96195153Y-86999991D01*
X96195153Y-87000008D01*
X92853911Y-87000008D01*
X88103906Y-82250003D01*
X97544867Y-82250003D01*
X97563302Y-82378223D01*
X97617118Y-82496064D01*
X97672282Y-82559727D01*
X97701951Y-82593967D01*
X97810931Y-82664004D01*
X97935228Y-82700500D01*
X97935231Y-82700500D01*
X98064769Y-82700500D01*
X98064772Y-82700500D01*
X98189069Y-82664004D01*
X98298049Y-82593967D01*
X98382882Y-82496063D01*
X98436697Y-82378226D01*
X98455133Y-82250000D01*
X98455133Y-82249996D01*
X98436697Y-82121776D01*
X98436697Y-82121774D01*
X98382882Y-82003937D01*
X98382881Y-82003936D01*
X98382881Y-82003935D01*
X98336216Y-81950080D01*
X98298049Y-81906033D01*
X98189069Y-81835996D01*
X98064772Y-81799500D01*
X97935228Y-81799500D01*
X97810931Y-81835996D01*
X97810928Y-81835997D01*
X97810927Y-81835998D01*
X97701955Y-81906030D01*
X97701952Y-81906031D01*
X97701951Y-81906033D01*
X97701949Y-81906034D01*
X97701948Y-81906036D01*
X97617118Y-82003935D01*
X97563302Y-82121776D01*
X97544867Y-82249996D01*
X97544867Y-82250003D01*
X88103906Y-82250003D01*
X83253906Y-77400003D01*
X104444867Y-77400003D01*
X104463302Y-77528223D01*
X104517118Y-77646064D01*
X104572282Y-77709727D01*
X104601951Y-77743967D01*
X104710931Y-77814004D01*
X104835228Y-77850500D01*
X104835231Y-77850500D01*
X104964769Y-77850500D01*
X104964772Y-77850500D01*
X105089069Y-77814004D01*
X105198049Y-77743967D01*
X105282882Y-77646063D01*
X105336697Y-77528226D01*
X105355133Y-77400000D01*
X105355133Y-77399996D01*
X105336697Y-77271776D01*
X105336697Y-77271774D01*
X105282882Y-77153937D01*
X105282881Y-77153936D01*
X105282881Y-77153935D01*
X105236216Y-77100080D01*
X105198049Y-77056033D01*
X105089069Y-76985996D01*
X104964772Y-76949500D01*
X104835228Y-76949500D01*
X104710931Y-76985996D01*
X104710928Y-76985997D01*
X104710927Y-76985998D01*
X104601955Y-77056030D01*
X104601952Y-77056031D01*
X104601951Y-77056033D01*
X104601949Y-77056034D01*
X104601948Y-77056036D01*
X104517118Y-77153935D01*
X104463302Y-77271776D01*
X104444867Y-77399996D01*
X104444867Y-77400003D01*
X83253906Y-77400003D01*
X80821377Y-74967474D01*
X115349195Y-74967474D01*
X115377075Y-75107635D01*
X115377076Y-75107637D01*
X115431762Y-75239661D01*
X115431764Y-75239665D01*
X115431766Y-75239669D01*
X115511163Y-75358495D01*
X115612216Y-75459548D01*
X115731042Y-75538945D01*
X115863075Y-75593635D01*
X116003240Y-75621516D01*
X116003244Y-75621516D01*
X116146146Y-75621516D01*
X116146150Y-75621516D01*
X116286315Y-75593635D01*
X116418348Y-75538945D01*
X116537174Y-75459548D01*
X116638227Y-75358495D01*
X116717624Y-75239669D01*
X116772314Y-75107636D01*
X116800195Y-74967471D01*
X116800195Y-74824561D01*
X116772314Y-74684396D01*
X116717624Y-74552363D01*
X116638227Y-74433537D01*
X116537174Y-74332484D01*
X116418348Y-74253087D01*
X116418344Y-74253085D01*
X116418340Y-74253083D01*
X116286316Y-74198397D01*
X116286314Y-74198396D01*
X116146153Y-74170516D01*
X116146150Y-74170516D01*
X116003240Y-74170516D01*
X116003236Y-74170516D01*
X115863075Y-74198396D01*
X115863073Y-74198397D01*
X115731049Y-74253083D01*
X115731042Y-74253087D01*
X115612212Y-74332487D01*
X115511166Y-74433533D01*
X115431766Y-74552363D01*
X115431762Y-74552370D01*
X115377076Y-74684394D01*
X115377075Y-74684396D01*
X115349195Y-74824557D01*
X115349195Y-74967474D01*
X80821377Y-74967474D01*
X78700056Y-72846153D01*
X117470516Y-72846153D01*
X117498396Y-72986314D01*
X117498397Y-72986316D01*
X117553083Y-73118340D01*
X117553085Y-73118344D01*
X117553087Y-73118348D01*
X117632484Y-73237174D01*
X117733537Y-73338227D01*
X117852363Y-73417624D01*
X117984396Y-73472314D01*
X118124561Y-73500195D01*
X118124565Y-73500195D01*
X118267467Y-73500195D01*
X118267471Y-73500195D01*
X118407636Y-73472314D01*
X118539669Y-73417624D01*
X118658495Y-73338227D01*
X118759548Y-73237174D01*
X118838945Y-73118348D01*
X118893635Y-72986315D01*
X118921516Y-72846150D01*
X118921516Y-72703240D01*
X118893635Y-72563075D01*
X118838945Y-72431042D01*
X118759548Y-72312216D01*
X118658495Y-72211163D01*
X118539669Y-72131766D01*
X118539665Y-72131764D01*
X118539661Y-72131762D01*
X118407637Y-72077076D01*
X118407635Y-72077075D01*
X118267474Y-72049195D01*
X118267471Y-72049195D01*
X118124561Y-72049195D01*
X118124557Y-72049195D01*
X117984396Y-72077075D01*
X117984394Y-72077076D01*
X117852370Y-72131762D01*
X117852363Y-72131766D01*
X117733533Y-72211166D01*
X117632487Y-72312212D01*
X117553087Y-72431042D01*
X117553083Y-72431049D01*
X117498397Y-72563073D01*
X117498396Y-72563075D01*
X117470516Y-72703236D01*
X117470516Y-72846153D01*
X78700056Y-72846153D01*
X77353906Y-71500003D01*
X97219867Y-71500003D01*
X97238302Y-71628223D01*
X97292118Y-71746064D01*
X97347282Y-71809727D01*
X97376951Y-71843967D01*
X97485931Y-71914004D01*
X97610228Y-71950500D01*
X97610231Y-71950500D01*
X97739769Y-71950500D01*
X97739772Y-71950500D01*
X97864069Y-71914004D01*
X97973049Y-71843967D01*
X98057882Y-71746063D01*
X98111697Y-71628226D01*
X98130133Y-71500003D01*
X103369867Y-71500003D01*
X103388302Y-71628223D01*
X103442118Y-71746064D01*
X103497282Y-71809727D01*
X103526951Y-71843967D01*
X103635931Y-71914004D01*
X103760228Y-71950500D01*
X103760231Y-71950500D01*
X103889769Y-71950500D01*
X103889772Y-71950500D01*
X104014069Y-71914004D01*
X104123049Y-71843967D01*
X104207882Y-71746063D01*
X104261697Y-71628226D01*
X104280133Y-71500000D01*
X104280133Y-71499996D01*
X104261697Y-71371776D01*
X104261697Y-71371774D01*
X104207882Y-71253937D01*
X104207881Y-71253936D01*
X104207881Y-71253935D01*
X104161216Y-71200080D01*
X104123049Y-71156033D01*
X104014069Y-71085996D01*
X103889772Y-71049500D01*
X103760228Y-71049500D01*
X103635931Y-71085996D01*
X103635928Y-71085997D01*
X103635927Y-71085998D01*
X103526955Y-71156030D01*
X103526952Y-71156031D01*
X103526951Y-71156033D01*
X103526949Y-71156034D01*
X103526948Y-71156036D01*
X103442118Y-71253935D01*
X103388302Y-71371776D01*
X103369867Y-71499996D01*
X103369867Y-71500003D01*
X98130133Y-71500003D01*
X98130133Y-71500000D01*
X98130133Y-71499996D01*
X98111697Y-71371776D01*
X98111697Y-71371774D01*
X98057882Y-71253937D01*
X98057881Y-71253936D01*
X98057881Y-71253935D01*
X98011216Y-71200080D01*
X97973049Y-71156033D01*
X97864069Y-71085996D01*
X97739772Y-71049500D01*
X97610228Y-71049500D01*
X97485931Y-71085996D01*
X97485928Y-71085997D01*
X97485927Y-71085998D01*
X97376955Y-71156030D01*
X97376952Y-71156031D01*
X97376951Y-71156033D01*
X97376949Y-71156034D01*
X97376948Y-71156036D01*
X97292118Y-71253935D01*
X97238302Y-71371776D01*
X97219867Y-71499996D01*
X97219867Y-71500003D01*
X77353906Y-71500003D01*
X75353906Y-69500003D01*
X98869867Y-69500003D01*
X98888302Y-69628223D01*
X98942118Y-69746064D01*
X98997282Y-69809727D01*
X99026951Y-69843967D01*
X99135931Y-69914004D01*
X99260228Y-69950500D01*
X99260231Y-69950500D01*
X99389769Y-69950500D01*
X99389772Y-69950500D01*
X99514069Y-69914004D01*
X99623049Y-69843967D01*
X99707882Y-69746063D01*
X99761697Y-69628226D01*
X99780133Y-69500000D01*
X99780133Y-69499996D01*
X99761697Y-69371776D01*
X99761697Y-69371774D01*
X99728920Y-69300003D01*
X115644867Y-69300003D01*
X115663302Y-69428223D01*
X115717118Y-69546064D01*
X115772282Y-69609727D01*
X115801951Y-69643967D01*
X115910931Y-69714004D01*
X116035228Y-69750500D01*
X116035231Y-69750500D01*
X116164769Y-69750500D01*
X116164772Y-69750500D01*
X116289069Y-69714004D01*
X116398049Y-69643967D01*
X116482882Y-69546063D01*
X116536697Y-69428226D01*
X116555133Y-69300000D01*
X116555133Y-69299996D01*
X116536697Y-69171776D01*
X116536697Y-69171774D01*
X116482882Y-69053937D01*
X116482881Y-69053936D01*
X116482881Y-69053935D01*
X116436216Y-69000080D01*
X116398049Y-68956033D01*
X116289069Y-68885996D01*
X116164772Y-68849500D01*
X116035228Y-68849500D01*
X115910931Y-68885996D01*
X115910928Y-68885997D01*
X115910927Y-68885998D01*
X115801955Y-68956030D01*
X115801952Y-68956031D01*
X115801951Y-68956033D01*
X115801949Y-68956034D01*
X115801948Y-68956036D01*
X115717118Y-69053935D01*
X115663302Y-69171776D01*
X115644867Y-69299996D01*
X115644867Y-69300003D01*
X99728920Y-69300003D01*
X99707882Y-69253937D01*
X99707881Y-69253936D01*
X99707881Y-69253935D01*
X99636688Y-69171774D01*
X99623049Y-69156033D01*
X99514069Y-69085996D01*
X99389772Y-69049500D01*
X99260228Y-69049500D01*
X99135931Y-69085996D01*
X99135928Y-69085997D01*
X99135927Y-69085998D01*
X99026955Y-69156030D01*
X99026952Y-69156031D01*
X99026951Y-69156033D01*
X99026949Y-69156034D01*
X99026948Y-69156036D01*
X98942118Y-69253935D01*
X98888302Y-69371776D01*
X98869867Y-69499996D01*
X98869867Y-69500003D01*
X75353906Y-69500003D01*
X72353906Y-66500003D01*
X106794867Y-66500003D01*
X106813302Y-66628223D01*
X106867118Y-66746064D01*
X106922282Y-66809727D01*
X106951951Y-66843967D01*
X107060931Y-66914004D01*
X107185228Y-66950500D01*
X107185231Y-66950500D01*
X107314769Y-66950500D01*
X107314772Y-66950500D01*
X107439069Y-66914004D01*
X107548049Y-66843967D01*
X107632882Y-66746063D01*
X107686697Y-66628226D01*
X107705133Y-66500000D01*
X107705133Y-66499996D01*
X107686697Y-66371776D01*
X107686697Y-66371774D01*
X107632882Y-66253937D01*
X107632881Y-66253936D01*
X107632881Y-66253935D01*
X107586216Y-66200080D01*
X107548049Y-66156033D01*
X107439069Y-66085996D01*
X107314772Y-66049500D01*
X107185228Y-66049500D01*
X107060931Y-66085996D01*
X107060928Y-66085997D01*
X107060927Y-66085998D01*
X106951955Y-66156030D01*
X106951952Y-66156031D01*
X106951951Y-66156033D01*
X106951949Y-66156034D01*
X106951948Y-66156036D01*
X106867118Y-66253935D01*
X106813302Y-66371776D01*
X106794867Y-66499996D01*
X106794867Y-66500003D01*
X72353906Y-66500003D01*
X69042008Y-63188105D01*
X81099500Y-63188105D01*
X81110122Y-63276563D01*
X81165638Y-63417341D01*
X81250307Y-63528994D01*
X81257078Y-63537922D01*
X81377658Y-63629361D01*
X81518436Y-63684877D01*
X81606898Y-63695500D01*
X81606899Y-63695500D01*
X82893101Y-63695500D01*
X82893102Y-63695500D01*
X82981564Y-63684877D01*
X83122342Y-63629361D01*
X83242922Y-63537922D01*
X83334361Y-63417342D01*
X83389877Y-63276564D01*
X83400500Y-63188102D01*
X83400500Y-63051283D01*
X83420462Y-62976783D01*
X83475000Y-62922245D01*
X83549500Y-62902283D01*
X83624000Y-62922245D01*
X83678538Y-62976783D01*
X83682260Y-62983638D01*
X83683788Y-62986638D01*
X83683789Y-62986639D01*
X83734415Y-63085998D01*
X83766005Y-63147995D01*
X83766005Y-63147996D01*
X83795144Y-63188102D01*
X83872447Y-63294501D01*
X84000499Y-63422553D01*
X84147006Y-63528996D01*
X84308361Y-63611211D01*
X84480591Y-63667171D01*
X84659454Y-63695500D01*
X84659458Y-63695500D01*
X84840542Y-63695500D01*
X84840546Y-63695500D01*
X85019409Y-63667171D01*
X85191639Y-63611211D01*
X85352994Y-63528996D01*
X85499501Y-63422553D01*
X85627553Y-63294501D01*
X85733996Y-63147994D01*
X85816211Y-62986639D01*
X85858292Y-62857125D01*
X85900299Y-62792439D01*
X85969020Y-62757423D01*
X86046042Y-62761459D01*
X86110728Y-62803466D01*
X86141708Y-62857125D01*
X86183788Y-62986638D01*
X86266005Y-63147995D01*
X86266005Y-63147996D01*
X86295144Y-63188102D01*
X86372447Y-63294501D01*
X86500499Y-63422553D01*
X86647006Y-63528996D01*
X86808361Y-63611211D01*
X86980591Y-63667171D01*
X87159454Y-63695500D01*
X87159458Y-63695500D01*
X87340542Y-63695500D01*
X87340546Y-63695500D01*
X87519409Y-63667171D01*
X87691639Y-63611211D01*
X87852994Y-63528996D01*
X87999501Y-63422553D01*
X88127553Y-63294501D01*
X88233996Y-63147994D01*
X88316211Y-62986639D01*
X88358292Y-62857125D01*
X88400299Y-62792439D01*
X88469020Y-62757423D01*
X88546042Y-62761459D01*
X88610728Y-62803466D01*
X88641708Y-62857125D01*
X88683788Y-62986638D01*
X88766005Y-63147995D01*
X88766005Y-63147996D01*
X88795144Y-63188102D01*
X88872447Y-63294501D01*
X89000499Y-63422553D01*
X89147006Y-63528996D01*
X89308361Y-63611211D01*
X89480591Y-63667171D01*
X89659454Y-63695500D01*
X89659458Y-63695500D01*
X89840542Y-63695500D01*
X89840546Y-63695500D01*
X90019409Y-63667171D01*
X90191639Y-63611211D01*
X90352994Y-63528996D01*
X90392900Y-63500003D01*
X119794867Y-63500003D01*
X119813302Y-63628223D01*
X119813302Y-63628224D01*
X119813303Y-63628226D01*
X119831088Y-63667170D01*
X119867118Y-63746064D01*
X119922282Y-63809727D01*
X119951951Y-63843967D01*
X120060931Y-63914004D01*
X120185228Y-63950500D01*
X120185231Y-63950500D01*
X120314769Y-63950500D01*
X120314772Y-63950500D01*
X120439069Y-63914004D01*
X120548049Y-63843967D01*
X120632882Y-63746063D01*
X120686697Y-63628226D01*
X120700964Y-63528996D01*
X120705133Y-63500003D01*
X120705133Y-63499996D01*
X120686697Y-63371776D01*
X120686697Y-63371774D01*
X120632882Y-63253937D01*
X120632881Y-63253936D01*
X120632881Y-63253935D01*
X120575839Y-63188105D01*
X120548049Y-63156033D01*
X120439069Y-63085996D01*
X120314772Y-63049500D01*
X120185228Y-63049500D01*
X120060931Y-63085996D01*
X120060928Y-63085997D01*
X120060927Y-63085998D01*
X119951955Y-63156030D01*
X119951952Y-63156031D01*
X119951951Y-63156033D01*
X119951949Y-63156034D01*
X119951948Y-63156036D01*
X119867118Y-63253935D01*
X119813302Y-63371776D01*
X119794867Y-63499996D01*
X119794867Y-63500003D01*
X90392900Y-63500003D01*
X90499501Y-63422553D01*
X90627553Y-63294501D01*
X90733996Y-63147994D01*
X90816211Y-62986639D01*
X90872171Y-62814409D01*
X90900500Y-62635546D01*
X90900500Y-62204454D01*
X90872171Y-62025591D01*
X90847610Y-61950000D01*
X100044867Y-61950000D01*
X100063302Y-62078220D01*
X100117118Y-62196061D01*
X100172282Y-62259724D01*
X100201951Y-62293964D01*
X100310931Y-62364001D01*
X100435228Y-62400497D01*
X100435231Y-62400497D01*
X100564769Y-62400497D01*
X100564772Y-62400497D01*
X100689069Y-62364001D01*
X100798049Y-62293964D01*
X100882882Y-62196060D01*
X100936697Y-62078223D01*
X100955133Y-61949997D01*
X100955133Y-61949993D01*
X100941239Y-61853360D01*
X100936697Y-61821771D01*
X100882882Y-61703934D01*
X100882881Y-61703933D01*
X100882881Y-61703932D01*
X100836216Y-61650077D01*
X100798049Y-61606030D01*
X100689069Y-61535993D01*
X100566495Y-61500003D01*
X108294867Y-61500003D01*
X108313302Y-61628223D01*
X108367118Y-61746064D01*
X108422282Y-61809727D01*
X108451951Y-61843967D01*
X108560931Y-61914004D01*
X108685228Y-61950500D01*
X108685231Y-61950500D01*
X108814769Y-61950500D01*
X108814772Y-61950500D01*
X108939069Y-61914004D01*
X109048049Y-61843967D01*
X109132882Y-61746063D01*
X109186697Y-61628226D01*
X109205133Y-61500000D01*
X109205133Y-61499996D01*
X109186697Y-61371776D01*
X109186697Y-61371774D01*
X109132882Y-61253937D01*
X109132881Y-61253936D01*
X109132881Y-61253935D01*
X109086216Y-61200080D01*
X109048049Y-61156033D01*
X108939069Y-61085996D01*
X108814772Y-61049500D01*
X108685228Y-61049500D01*
X108560931Y-61085996D01*
X108560928Y-61085997D01*
X108560927Y-61085998D01*
X108451955Y-61156030D01*
X108451952Y-61156031D01*
X108451951Y-61156033D01*
X108451949Y-61156034D01*
X108451948Y-61156036D01*
X108367118Y-61253935D01*
X108313302Y-61371776D01*
X108294867Y-61499996D01*
X108294867Y-61500003D01*
X100566495Y-61500003D01*
X100564772Y-61499497D01*
X100435228Y-61499497D01*
X100310931Y-61535993D01*
X100310928Y-61535994D01*
X100310927Y-61535995D01*
X100201955Y-61606027D01*
X100201952Y-61606028D01*
X100201951Y-61606030D01*
X100201949Y-61606031D01*
X100201948Y-61606033D01*
X100117118Y-61703932D01*
X100063302Y-61821773D01*
X100044867Y-61949993D01*
X100044867Y-61950000D01*
X90847610Y-61950000D01*
X90816211Y-61853361D01*
X90733996Y-61692006D01*
X90627553Y-61545499D01*
X90499501Y-61417447D01*
X90352994Y-61311004D01*
X90191639Y-61228789D01*
X90019409Y-61172829D01*
X89840546Y-61144500D01*
X89659454Y-61144500D01*
X89480591Y-61172829D01*
X89308360Y-61228789D01*
X89147004Y-61311005D01*
X89147003Y-61311005D01*
X89000500Y-61417446D01*
X89000497Y-61417448D01*
X88872448Y-61545497D01*
X88872446Y-61545500D01*
X88766005Y-61692003D01*
X88766005Y-61692004D01*
X88683789Y-61853360D01*
X88641708Y-61982875D01*
X88599701Y-62047560D01*
X88530980Y-62082576D01*
X88453957Y-62078540D01*
X88389272Y-62036533D01*
X88358292Y-61982875D01*
X88347773Y-61950500D01*
X88316211Y-61853361D01*
X88233996Y-61692006D01*
X88127553Y-61545499D01*
X87999501Y-61417447D01*
X87852994Y-61311004D01*
X87691639Y-61228789D01*
X87519409Y-61172829D01*
X87340546Y-61144500D01*
X87159454Y-61144500D01*
X86980591Y-61172829D01*
X86808360Y-61228789D01*
X86647004Y-61311005D01*
X86647003Y-61311005D01*
X86500500Y-61417446D01*
X86500497Y-61417448D01*
X86372448Y-61545497D01*
X86372446Y-61545500D01*
X86266005Y-61692003D01*
X86266005Y-61692004D01*
X86183789Y-61853360D01*
X86141708Y-61982875D01*
X86099701Y-62047560D01*
X86030980Y-62082576D01*
X85953957Y-62078540D01*
X85889272Y-62036533D01*
X85858292Y-61982875D01*
X85847773Y-61950500D01*
X85816211Y-61853361D01*
X85733996Y-61692006D01*
X85627553Y-61545499D01*
X85499501Y-61417447D01*
X85352994Y-61311004D01*
X85191639Y-61228789D01*
X85019409Y-61172829D01*
X84840546Y-61144500D01*
X84659454Y-61144500D01*
X84480591Y-61172829D01*
X84308360Y-61228789D01*
X84147004Y-61311005D01*
X84147003Y-61311005D01*
X84000500Y-61417446D01*
X84000497Y-61417448D01*
X83872448Y-61545497D01*
X83872446Y-61545500D01*
X83766005Y-61692003D01*
X83766005Y-61692004D01*
X83682260Y-61856361D01*
X83630650Y-61913678D01*
X83557297Y-61937512D01*
X83481855Y-61921476D01*
X83424538Y-61869866D01*
X83400704Y-61796513D01*
X83400500Y-61788716D01*
X83400500Y-61651899D01*
X83400500Y-61651898D01*
X83389877Y-61563436D01*
X83334361Y-61422658D01*
X83242922Y-61302078D01*
X83242920Y-61302076D01*
X83179436Y-61253935D01*
X83122342Y-61210639D01*
X83122341Y-61210638D01*
X82981563Y-61155122D01*
X82893105Y-61144500D01*
X82893102Y-61144500D01*
X81606898Y-61144500D01*
X81606894Y-61144500D01*
X81518436Y-61155122D01*
X81377658Y-61210638D01*
X81377658Y-61210639D01*
X81257079Y-61302076D01*
X81257076Y-61302079D01*
X81165639Y-61422658D01*
X81165638Y-61422658D01*
X81110122Y-61563436D01*
X81099500Y-61651894D01*
X81099500Y-63188105D01*
X69042008Y-63188105D01*
X66853906Y-61000003D01*
X114044867Y-61000003D01*
X114063302Y-61128223D01*
X114117118Y-61246064D01*
X114165655Y-61302079D01*
X114201951Y-61343967D01*
X114310931Y-61414004D01*
X114435228Y-61450500D01*
X114435231Y-61450500D01*
X114564769Y-61450500D01*
X114564772Y-61450500D01*
X114689069Y-61414004D01*
X114798049Y-61343967D01*
X114882882Y-61246063D01*
X114936697Y-61128226D01*
X114955133Y-61000003D01*
X122794867Y-61000003D01*
X122813302Y-61128223D01*
X122867118Y-61246064D01*
X122915655Y-61302079D01*
X122951951Y-61343967D01*
X123060931Y-61414004D01*
X123185228Y-61450500D01*
X123185231Y-61450500D01*
X123314769Y-61450500D01*
X123314772Y-61450500D01*
X123439069Y-61414004D01*
X123548049Y-61343967D01*
X123632882Y-61246063D01*
X123686697Y-61128226D01*
X123705133Y-61000000D01*
X123705133Y-60999996D01*
X123686697Y-60871776D01*
X123686697Y-60871774D01*
X123632882Y-60753937D01*
X123632881Y-60753936D01*
X123632881Y-60753935D01*
X123586216Y-60700080D01*
X123548049Y-60656033D01*
X123439069Y-60585996D01*
X123314772Y-60549500D01*
X123185228Y-60549500D01*
X123060931Y-60585996D01*
X123060928Y-60585997D01*
X123060927Y-60585998D01*
X122951955Y-60656030D01*
X122951952Y-60656031D01*
X122951951Y-60656033D01*
X122951949Y-60656034D01*
X122951948Y-60656036D01*
X122867118Y-60753935D01*
X122813302Y-60871776D01*
X122794867Y-60999996D01*
X122794867Y-61000003D01*
X114955133Y-61000003D01*
X114955133Y-61000000D01*
X114955133Y-60999996D01*
X114936697Y-60871776D01*
X114936697Y-60871774D01*
X114882882Y-60753937D01*
X114882881Y-60753936D01*
X114882881Y-60753935D01*
X114836216Y-60700080D01*
X114798049Y-60656033D01*
X114689069Y-60585996D01*
X114564772Y-60549500D01*
X114435228Y-60549500D01*
X114310931Y-60585996D01*
X114310928Y-60585997D01*
X114310927Y-60585998D01*
X114201955Y-60656030D01*
X114201952Y-60656031D01*
X114201951Y-60656033D01*
X114201949Y-60656034D01*
X114201948Y-60656036D01*
X114117118Y-60753935D01*
X114063302Y-60871776D01*
X114044867Y-60999996D01*
X114044867Y-61000003D01*
X66853906Y-61000003D01*
X63103903Y-57250000D01*
X67044958Y-57250000D01*
X67065111Y-57608854D01*
X67125313Y-57963181D01*
X67224816Y-58308563D01*
X67224817Y-58308568D01*
X67362359Y-58640621D01*
X67362361Y-58640625D01*
X67517681Y-58921656D01*
X67517682Y-58921657D01*
X68925034Y-57514304D01*
X68933242Y-57566126D01*
X68998906Y-57768220D01*
X69095377Y-57957554D01*
X69220278Y-58129466D01*
X69370534Y-58279722D01*
X69542446Y-58404623D01*
X69731780Y-58501094D01*
X69933874Y-58566758D01*
X69985694Y-58574965D01*
X68578342Y-59982317D01*
X68859374Y-60137638D01*
X68859378Y-60137640D01*
X69191431Y-60275182D01*
X69191436Y-60275183D01*
X69536818Y-60374686D01*
X69891145Y-60434888D01*
X70250000Y-60455041D01*
X70608854Y-60434888D01*
X70963181Y-60374686D01*
X71308563Y-60275183D01*
X71308568Y-60275182D01*
X71640616Y-60137642D01*
X71921656Y-59982316D01*
X71689343Y-59750003D01*
X116044867Y-59750003D01*
X116063302Y-59878223D01*
X116117118Y-59996064D01*
X116172282Y-60059727D01*
X116201951Y-60093967D01*
X116310931Y-60164004D01*
X116435228Y-60200500D01*
X116435231Y-60200500D01*
X116564769Y-60200500D01*
X116564772Y-60200500D01*
X116689069Y-60164004D01*
X116798049Y-60093967D01*
X116882882Y-59996063D01*
X116936697Y-59878226D01*
X116955133Y-59750003D01*
X117544867Y-59750003D01*
X117563302Y-59878223D01*
X117617118Y-59996064D01*
X117672282Y-60059727D01*
X117701951Y-60093967D01*
X117810931Y-60164004D01*
X117935228Y-60200500D01*
X117935231Y-60200500D01*
X118064769Y-60200500D01*
X118064772Y-60200500D01*
X118189069Y-60164004D01*
X118298049Y-60093967D01*
X118382882Y-59996063D01*
X118436697Y-59878226D01*
X118455133Y-59750003D01*
X120132237Y-59750003D01*
X120150672Y-59878223D01*
X120204488Y-59996064D01*
X120259652Y-60059727D01*
X120289321Y-60093967D01*
X120398301Y-60164004D01*
X120522598Y-60200500D01*
X120522601Y-60200500D01*
X120652139Y-60200500D01*
X120652142Y-60200500D01*
X120776439Y-60164004D01*
X120885419Y-60093967D01*
X120970252Y-59996063D01*
X121024067Y-59878226D01*
X121042503Y-59750000D01*
X121042503Y-59749996D01*
X121024067Y-59621776D01*
X121024067Y-59621774D01*
X120970252Y-59503937D01*
X120970251Y-59503936D01*
X120970251Y-59503935D01*
X120923586Y-59450080D01*
X120885419Y-59406033D01*
X120776439Y-59335996D01*
X120652142Y-59299500D01*
X120522598Y-59299500D01*
X120398301Y-59335996D01*
X120398298Y-59335997D01*
X120398297Y-59335998D01*
X120289325Y-59406030D01*
X120289322Y-59406031D01*
X120289321Y-59406033D01*
X120289319Y-59406034D01*
X120289318Y-59406036D01*
X120204488Y-59503935D01*
X120150672Y-59621776D01*
X120132237Y-59749996D01*
X120132237Y-59750003D01*
X118455133Y-59750003D01*
X118455133Y-59750000D01*
X118455133Y-59749996D01*
X118436697Y-59621776D01*
X118436697Y-59621774D01*
X118382882Y-59503937D01*
X118382881Y-59503936D01*
X118382881Y-59503935D01*
X118336216Y-59450080D01*
X118298049Y-59406033D01*
X118189069Y-59335996D01*
X118064772Y-59299500D01*
X117935228Y-59299500D01*
X117810931Y-59335996D01*
X117810928Y-59335997D01*
X117810927Y-59335998D01*
X117701955Y-59406030D01*
X117701952Y-59406031D01*
X117701951Y-59406033D01*
X117701949Y-59406034D01*
X117701948Y-59406036D01*
X117617118Y-59503935D01*
X117563302Y-59621776D01*
X117544867Y-59749996D01*
X117544867Y-59750003D01*
X116955133Y-59750003D01*
X116955133Y-59750000D01*
X116955133Y-59749996D01*
X116936697Y-59621776D01*
X116936697Y-59621774D01*
X116882882Y-59503937D01*
X116882881Y-59503936D01*
X116882881Y-59503935D01*
X116836216Y-59450080D01*
X116798049Y-59406033D01*
X116689069Y-59335996D01*
X116564772Y-59299500D01*
X116435228Y-59299500D01*
X116310931Y-59335996D01*
X116310928Y-59335997D01*
X116310927Y-59335998D01*
X116201955Y-59406030D01*
X116201952Y-59406031D01*
X116201951Y-59406033D01*
X116201949Y-59406034D01*
X116201948Y-59406036D01*
X116117118Y-59503935D01*
X116063302Y-59621776D01*
X116044867Y-59749996D01*
X116044867Y-59750003D01*
X71689343Y-59750003D01*
X70514305Y-58574965D01*
X70566126Y-58566758D01*
X70768220Y-58501094D01*
X70957554Y-58404623D01*
X71129466Y-58279722D01*
X71279722Y-58129466D01*
X71404623Y-57957554D01*
X71501094Y-57768220D01*
X71566758Y-57566126D01*
X71574965Y-57514305D01*
X72982316Y-58921656D01*
X73021917Y-58850003D01*
X103294867Y-58850003D01*
X103313302Y-58978223D01*
X103313302Y-58978224D01*
X103313303Y-58978226D01*
X103337390Y-59030970D01*
X103367118Y-59096064D01*
X103394984Y-59128223D01*
X103451951Y-59193967D01*
X103560931Y-59264004D01*
X103685228Y-59300500D01*
X103685231Y-59300500D01*
X103814769Y-59300500D01*
X103814772Y-59300500D01*
X103939069Y-59264004D01*
X104048049Y-59193967D01*
X104132882Y-59096063D01*
X104176752Y-59000003D01*
X107794867Y-59000003D01*
X107813302Y-59128223D01*
X107813302Y-59128224D01*
X107813303Y-59128226D01*
X107837390Y-59180970D01*
X107867118Y-59246064D01*
X107913421Y-59299500D01*
X107951951Y-59343967D01*
X108060931Y-59414004D01*
X108185228Y-59450500D01*
X108185231Y-59450500D01*
X108314769Y-59450500D01*
X108314772Y-59450500D01*
X108439069Y-59414004D01*
X108548049Y-59343967D01*
X108632882Y-59246063D01*
X108686697Y-59128226D01*
X108705133Y-59000000D01*
X108705133Y-58999996D01*
X108692842Y-58914516D01*
X108686697Y-58871774D01*
X108632882Y-58753937D01*
X108632881Y-58753936D01*
X108632881Y-58753935D01*
X108629474Y-58750003D01*
X123294867Y-58750003D01*
X123313302Y-58878223D01*
X123367118Y-58996064D01*
X123422282Y-59059727D01*
X123451951Y-59093967D01*
X123560931Y-59164004D01*
X123685228Y-59200500D01*
X123685231Y-59200500D01*
X123814769Y-59200500D01*
X123814772Y-59200500D01*
X123939069Y-59164004D01*
X124048049Y-59093967D01*
X124132882Y-58996063D01*
X124186697Y-58878226D01*
X124204567Y-58753937D01*
X124205133Y-58750003D01*
X124205133Y-58749996D01*
X124186697Y-58621776D01*
X124186697Y-58621774D01*
X124132882Y-58503937D01*
X124132881Y-58503936D01*
X124132881Y-58503935D01*
X124074013Y-58435998D01*
X124048049Y-58406033D01*
X123939069Y-58335996D01*
X123814772Y-58299500D01*
X123685228Y-58299500D01*
X123560931Y-58335996D01*
X123560928Y-58335997D01*
X123560927Y-58335998D01*
X123451955Y-58406030D01*
X123451952Y-58406031D01*
X123451951Y-58406033D01*
X123451949Y-58406034D01*
X123451948Y-58406036D01*
X123367118Y-58503935D01*
X123313302Y-58621776D01*
X123294867Y-58749996D01*
X123294867Y-58750003D01*
X108629474Y-58750003D01*
X108586216Y-58700080D01*
X108548049Y-58656033D01*
X108439069Y-58585996D01*
X108314772Y-58549500D01*
X108185228Y-58549500D01*
X108060931Y-58585996D01*
X108060928Y-58585997D01*
X108060927Y-58585998D01*
X107951955Y-58656030D01*
X107951952Y-58656031D01*
X107951951Y-58656033D01*
X107951949Y-58656034D01*
X107951948Y-58656036D01*
X107867118Y-58753935D01*
X107813302Y-58871776D01*
X107794867Y-58999996D01*
X107794867Y-59000003D01*
X104176752Y-59000003D01*
X104186697Y-58978226D01*
X104202002Y-58871776D01*
X104205133Y-58850003D01*
X104205133Y-58849996D01*
X104186697Y-58721776D01*
X104186697Y-58721774D01*
X104132882Y-58603937D01*
X104132881Y-58603936D01*
X104132881Y-58603935D01*
X104085713Y-58549500D01*
X104048049Y-58506033D01*
X103939069Y-58435996D01*
X103814772Y-58399500D01*
X103685228Y-58399500D01*
X103560931Y-58435996D01*
X103560928Y-58435997D01*
X103560927Y-58435998D01*
X103451955Y-58506030D01*
X103451952Y-58506031D01*
X103451951Y-58506033D01*
X103451949Y-58506034D01*
X103451948Y-58506036D01*
X103367118Y-58603935D01*
X103313302Y-58721776D01*
X103294867Y-58849996D01*
X103294867Y-58850003D01*
X73021917Y-58850003D01*
X73137642Y-58640616D01*
X73275182Y-58308568D01*
X73275183Y-58308563D01*
X73374686Y-57963181D01*
X73434888Y-57608854D01*
X73441001Y-57500003D01*
X114294867Y-57500003D01*
X114313302Y-57628223D01*
X114367118Y-57746064D01*
X114422282Y-57809727D01*
X114451951Y-57843967D01*
X114560931Y-57914004D01*
X114685228Y-57950500D01*
X114685231Y-57950500D01*
X114814769Y-57950500D01*
X114814772Y-57950500D01*
X114939069Y-57914004D01*
X115048049Y-57843967D01*
X115132882Y-57746063D01*
X115186697Y-57628226D01*
X115205133Y-57500000D01*
X115205133Y-57499996D01*
X115186697Y-57371776D01*
X115186697Y-57371774D01*
X115132882Y-57253937D01*
X115132881Y-57253936D01*
X115132881Y-57253935D01*
X115086216Y-57200080D01*
X115048049Y-57156033D01*
X114939069Y-57085996D01*
X114814772Y-57049500D01*
X114685228Y-57049500D01*
X114560931Y-57085996D01*
X114560928Y-57085997D01*
X114560927Y-57085998D01*
X114451955Y-57156030D01*
X114451952Y-57156031D01*
X114451951Y-57156033D01*
X114451949Y-57156034D01*
X114451948Y-57156036D01*
X114367118Y-57253935D01*
X114313302Y-57371776D01*
X114294867Y-57499996D01*
X114294867Y-57500003D01*
X73441001Y-57500003D01*
X73455041Y-57250000D01*
X73434888Y-56891145D01*
X73374686Y-56536818D01*
X73275183Y-56191436D01*
X73275182Y-56191431D01*
X73137640Y-55859378D01*
X73137638Y-55859374D01*
X72982317Y-55578342D01*
X71574965Y-56985693D01*
X71566758Y-56933874D01*
X71501094Y-56731780D01*
X71404623Y-56542446D01*
X71279722Y-56370534D01*
X71129466Y-56220278D01*
X70957554Y-56095377D01*
X70768220Y-55998906D01*
X70566126Y-55933242D01*
X70514304Y-55925034D01*
X70921233Y-55518105D01*
X81099500Y-55518105D01*
X81110122Y-55606563D01*
X81165638Y-55747341D01*
X81250602Y-55859383D01*
X81257078Y-55867922D01*
X81377658Y-55959361D01*
X81518436Y-56014877D01*
X81606898Y-56025500D01*
X81606899Y-56025500D01*
X82893101Y-56025500D01*
X82893102Y-56025500D01*
X82981564Y-56014877D01*
X83122342Y-55959361D01*
X83242922Y-55867922D01*
X83334361Y-55747342D01*
X83389877Y-55606564D01*
X83400500Y-55518102D01*
X83400500Y-55381283D01*
X83420462Y-55306783D01*
X83475000Y-55252245D01*
X83549500Y-55232283D01*
X83624000Y-55252245D01*
X83678538Y-55306783D01*
X83682260Y-55313638D01*
X83766005Y-55477995D01*
X83766005Y-55477996D01*
X83795144Y-55518102D01*
X83872447Y-55624501D01*
X84000499Y-55752553D01*
X84147006Y-55858996D01*
X84308361Y-55941211D01*
X84480591Y-55997171D01*
X84659454Y-56025500D01*
X84659458Y-56025500D01*
X84840542Y-56025500D01*
X84840546Y-56025500D01*
X85019409Y-55997171D01*
X85191639Y-55941211D01*
X85352994Y-55858996D01*
X85499501Y-55752553D01*
X85627553Y-55624501D01*
X85733996Y-55477994D01*
X85816211Y-55316639D01*
X85858292Y-55187125D01*
X85900299Y-55122439D01*
X85969020Y-55087423D01*
X86046042Y-55091459D01*
X86110728Y-55133466D01*
X86141708Y-55187125D01*
X86183788Y-55316638D01*
X86266005Y-55477995D01*
X86266005Y-55477996D01*
X86295144Y-55518102D01*
X86372447Y-55624501D01*
X86500499Y-55752553D01*
X86647006Y-55858996D01*
X86808361Y-55941211D01*
X86980591Y-55997171D01*
X87159454Y-56025500D01*
X87159458Y-56025500D01*
X87340542Y-56025500D01*
X87340546Y-56025500D01*
X87519409Y-55997171D01*
X87691639Y-55941211D01*
X87852994Y-55858996D01*
X87999501Y-55752553D01*
X88127553Y-55624501D01*
X88233996Y-55477994D01*
X88316211Y-55316639D01*
X88358292Y-55187125D01*
X88400299Y-55122439D01*
X88469020Y-55087423D01*
X88546042Y-55091459D01*
X88610728Y-55133466D01*
X88641708Y-55187125D01*
X88683788Y-55316638D01*
X88766005Y-55477995D01*
X88766005Y-55477996D01*
X88795144Y-55518102D01*
X88872447Y-55624501D01*
X89000499Y-55752553D01*
X89147006Y-55858996D01*
X89308361Y-55941211D01*
X89480591Y-55997171D01*
X89659454Y-56025500D01*
X89659458Y-56025500D01*
X89840542Y-56025500D01*
X89840546Y-56025500D01*
X90019409Y-55997171D01*
X90191639Y-55941211D01*
X90352994Y-55858996D01*
X90499501Y-55752553D01*
X90627553Y-55624501D01*
X90718006Y-55500003D01*
X110294867Y-55500003D01*
X110313302Y-55628223D01*
X110367118Y-55746064D01*
X110422282Y-55809727D01*
X110451951Y-55843967D01*
X110560931Y-55914004D01*
X110685228Y-55950500D01*
X110685231Y-55950500D01*
X110814769Y-55950500D01*
X110814772Y-55950500D01*
X110939069Y-55914004D01*
X111048049Y-55843967D01*
X111132882Y-55746063D01*
X111186697Y-55628226D01*
X111202530Y-55518105D01*
X111205133Y-55500003D01*
X111205133Y-55499996D01*
X111186697Y-55371776D01*
X111186697Y-55371774D01*
X111132882Y-55253937D01*
X111132881Y-55253936D01*
X111132881Y-55253935D01*
X111074990Y-55187125D01*
X111048049Y-55156033D01*
X110939069Y-55085996D01*
X110814772Y-55049500D01*
X110685228Y-55049500D01*
X110560931Y-55085996D01*
X110560928Y-55085997D01*
X110560927Y-55085998D01*
X110451955Y-55156030D01*
X110451952Y-55156031D01*
X110451951Y-55156033D01*
X110451949Y-55156034D01*
X110451948Y-55156036D01*
X110367118Y-55253935D01*
X110313302Y-55371776D01*
X110294867Y-55499996D01*
X110294867Y-55500003D01*
X90718006Y-55500003D01*
X90733996Y-55477994D01*
X90816211Y-55316639D01*
X90872171Y-55144409D01*
X90900500Y-54965546D01*
X90900500Y-54534454D01*
X90895044Y-54500003D01*
X114294867Y-54500003D01*
X114313302Y-54628223D01*
X114313302Y-54628224D01*
X114313303Y-54628226D01*
X114334892Y-54675499D01*
X114367118Y-54746064D01*
X114422282Y-54809727D01*
X114451951Y-54843967D01*
X114560931Y-54914004D01*
X114685228Y-54950500D01*
X114685231Y-54950500D01*
X114814769Y-54950500D01*
X114814772Y-54950500D01*
X114939069Y-54914004D01*
X115048049Y-54843967D01*
X115132882Y-54746063D01*
X115186697Y-54628226D01*
X115205133Y-54500000D01*
X115205133Y-54499996D01*
X115186697Y-54371776D01*
X115186697Y-54371774D01*
X115132882Y-54253937D01*
X115132881Y-54253936D01*
X115132881Y-54253935D01*
X115107811Y-54225003D01*
X124294867Y-54225003D01*
X124313302Y-54353223D01*
X124367118Y-54471064D01*
X124392194Y-54500003D01*
X124451951Y-54568967D01*
X124560931Y-54639004D01*
X124685228Y-54675500D01*
X124685231Y-54675500D01*
X124814769Y-54675500D01*
X124814772Y-54675500D01*
X124939069Y-54639004D01*
X125048049Y-54568967D01*
X125132882Y-54471063D01*
X125186697Y-54353226D01*
X125200973Y-54253935D01*
X125205133Y-54225003D01*
X125205133Y-54224996D01*
X125186697Y-54096776D01*
X125186697Y-54096774D01*
X125132882Y-53978937D01*
X125132881Y-53978936D01*
X125132881Y-53978935D01*
X125058796Y-53893436D01*
X125048049Y-53881033D01*
X124939069Y-53810996D01*
X124814772Y-53774500D01*
X124685228Y-53774500D01*
X124560931Y-53810996D01*
X124560928Y-53810997D01*
X124560927Y-53810998D01*
X124451955Y-53881030D01*
X124451952Y-53881031D01*
X124451951Y-53881033D01*
X124451949Y-53881034D01*
X124451948Y-53881036D01*
X124367118Y-53978935D01*
X124313302Y-54096776D01*
X124294867Y-54224996D01*
X124294867Y-54225003D01*
X115107811Y-54225003D01*
X115071728Y-54183361D01*
X115048049Y-54156033D01*
X114939069Y-54085996D01*
X114814772Y-54049500D01*
X114685228Y-54049500D01*
X114560931Y-54085996D01*
X114560928Y-54085997D01*
X114560927Y-54085998D01*
X114451955Y-54156030D01*
X114451952Y-54156031D01*
X114451951Y-54156033D01*
X114451949Y-54156034D01*
X114451948Y-54156036D01*
X114367118Y-54253935D01*
X114313302Y-54371776D01*
X114294867Y-54499996D01*
X114294867Y-54500003D01*
X90895044Y-54500003D01*
X90872171Y-54355591D01*
X90816211Y-54183361D01*
X90733996Y-54022006D01*
X90627553Y-53875499D01*
X90499501Y-53747447D01*
X90352994Y-53641004D01*
X90191639Y-53558789D01*
X90019409Y-53502829D01*
X89840546Y-53474500D01*
X89659454Y-53474500D01*
X89480591Y-53502829D01*
X89308360Y-53558789D01*
X89147004Y-53641005D01*
X89147003Y-53641005D01*
X89000500Y-53747446D01*
X89000497Y-53747448D01*
X88872448Y-53875497D01*
X88872446Y-53875500D01*
X88766005Y-54022003D01*
X88766005Y-54022004D01*
X88683789Y-54183360D01*
X88641708Y-54312875D01*
X88599701Y-54377560D01*
X88530980Y-54412576D01*
X88453957Y-54408540D01*
X88389272Y-54366533D01*
X88358292Y-54312875D01*
X88339142Y-54253937D01*
X88316211Y-54183361D01*
X88233996Y-54022006D01*
X88127553Y-53875499D01*
X87999501Y-53747447D01*
X87852994Y-53641004D01*
X87691639Y-53558789D01*
X87519409Y-53502829D01*
X87340546Y-53474500D01*
X87159454Y-53474500D01*
X86980591Y-53502829D01*
X86808360Y-53558789D01*
X86647004Y-53641005D01*
X86647003Y-53641005D01*
X86500500Y-53747446D01*
X86500497Y-53747448D01*
X86372448Y-53875497D01*
X86372446Y-53875500D01*
X86266005Y-54022003D01*
X86266005Y-54022004D01*
X86183789Y-54183360D01*
X86141708Y-54312875D01*
X86099701Y-54377560D01*
X86030980Y-54412576D01*
X85953957Y-54408540D01*
X85889272Y-54366533D01*
X85858292Y-54312875D01*
X85839142Y-54253937D01*
X85816211Y-54183361D01*
X85733996Y-54022006D01*
X85627553Y-53875499D01*
X85499501Y-53747447D01*
X85352994Y-53641004D01*
X85191639Y-53558789D01*
X85019409Y-53502829D01*
X84840546Y-53474500D01*
X84659454Y-53474500D01*
X84480591Y-53502829D01*
X84308360Y-53558789D01*
X84147004Y-53641005D01*
X84147003Y-53641005D01*
X84000500Y-53747446D01*
X84000497Y-53747448D01*
X83872448Y-53875497D01*
X83872446Y-53875500D01*
X83766005Y-54022003D01*
X83766005Y-54022004D01*
X83682260Y-54186361D01*
X83630650Y-54243678D01*
X83557297Y-54267512D01*
X83481855Y-54251476D01*
X83424538Y-54199866D01*
X83400704Y-54126513D01*
X83400500Y-54118716D01*
X83400500Y-53981899D01*
X83400500Y-53981898D01*
X83389877Y-53893436D01*
X83334361Y-53752658D01*
X83242922Y-53632078D01*
X83242920Y-53632076D01*
X83146276Y-53558789D01*
X83122342Y-53540639D01*
X83122341Y-53540638D01*
X82981563Y-53485122D01*
X82893105Y-53474500D01*
X82893102Y-53474500D01*
X81606898Y-53474500D01*
X81606894Y-53474500D01*
X81518436Y-53485122D01*
X81377658Y-53540638D01*
X81377658Y-53540639D01*
X81257079Y-53632076D01*
X81257076Y-53632079D01*
X81165639Y-53752658D01*
X81165638Y-53752658D01*
X81110122Y-53893436D01*
X81099500Y-53981894D01*
X81099500Y-55518105D01*
X70921233Y-55518105D01*
X71921657Y-54517682D01*
X71921656Y-54517681D01*
X71640625Y-54362361D01*
X71640621Y-54362359D01*
X71308568Y-54224817D01*
X71308563Y-54224816D01*
X70963181Y-54125313D01*
X70608854Y-54065111D01*
X70250000Y-54044958D01*
X69891145Y-54065111D01*
X69536818Y-54125313D01*
X69191436Y-54224816D01*
X69191431Y-54224817D01*
X68859383Y-54362357D01*
X68578342Y-54517682D01*
X69985694Y-55925034D01*
X69933874Y-55933242D01*
X69731780Y-55998906D01*
X69542446Y-56095377D01*
X69370534Y-56220278D01*
X69220278Y-56370534D01*
X69095377Y-56542446D01*
X68998906Y-56731780D01*
X68933242Y-56933874D01*
X68925034Y-56985694D01*
X67517682Y-55578342D01*
X67362357Y-55859383D01*
X67224817Y-56191431D01*
X67224816Y-56191436D01*
X67125313Y-56536818D01*
X67065111Y-56891145D01*
X67044958Y-57250000D01*
X63103903Y-57250000D01*
X56603903Y-50750000D01*
X60744415Y-50750000D01*
X60764737Y-51098920D01*
X60764739Y-51098936D01*
X60825428Y-51443128D01*
X60825430Y-51443134D01*
X60925671Y-51777963D01*
X60925673Y-51777970D01*
X61064109Y-52098900D01*
X61064111Y-52098904D01*
X61238870Y-52401596D01*
X61447588Y-52681953D01*
X61447590Y-52681955D01*
X61447593Y-52681959D01*
X61447596Y-52681963D01*
X61687430Y-52936171D01*
X61687435Y-52936176D01*
X61687442Y-52936183D01*
X61955189Y-53160849D01*
X62247207Y-53352913D01*
X62559549Y-53509777D01*
X62887989Y-53629319D01*
X63228086Y-53709923D01*
X63468402Y-53738012D01*
X63575232Y-53750499D01*
X63575238Y-53750500D01*
X63575241Y-53750500D01*
X63924762Y-53750500D01*
X63924766Y-53750499D01*
X64271914Y-53709923D01*
X64612011Y-53629319D01*
X64940451Y-53509777D01*
X65252793Y-53352913D01*
X65544811Y-53160849D01*
X65812558Y-52936183D01*
X66052412Y-52681953D01*
X66261130Y-52401596D01*
X66435889Y-52098904D01*
X66574326Y-51777971D01*
X66674569Y-51443136D01*
X66674569Y-51443131D01*
X66674571Y-51443128D01*
X66723787Y-51164004D01*
X66735262Y-51098927D01*
X66755585Y-50750003D01*
X120794867Y-50750003D01*
X120813302Y-50878223D01*
X120813302Y-50878224D01*
X120813303Y-50878226D01*
X120837390Y-50930970D01*
X120867118Y-50996064D01*
X120922282Y-51059727D01*
X120951951Y-51093967D01*
X121060931Y-51164004D01*
X121185228Y-51200500D01*
X121185231Y-51200500D01*
X121314769Y-51200500D01*
X121314772Y-51200500D01*
X121439069Y-51164004D01*
X121548049Y-51093967D01*
X121632882Y-50996063D01*
X121686697Y-50878226D01*
X121705133Y-50750000D01*
X121705133Y-50749996D01*
X121692842Y-50664516D01*
X121686697Y-50621774D01*
X121632882Y-50503937D01*
X121632881Y-50503936D01*
X121632881Y-50503935D01*
X121629474Y-50500003D01*
X122794867Y-50500003D01*
X122813302Y-50628223D01*
X122867118Y-50746064D01*
X122922282Y-50809727D01*
X122951951Y-50843967D01*
X123060931Y-50914004D01*
X123185228Y-50950500D01*
X123185231Y-50950500D01*
X123314769Y-50950500D01*
X123314772Y-50950500D01*
X123439069Y-50914004D01*
X123548049Y-50843967D01*
X123632882Y-50746063D01*
X123686697Y-50628226D01*
X123704567Y-50503937D01*
X123705133Y-50500003D01*
X123705133Y-50499996D01*
X123690910Y-50401079D01*
X123686697Y-50371774D01*
X123632882Y-50253937D01*
X123632881Y-50253936D01*
X123632881Y-50253935D01*
X123586216Y-50200080D01*
X123548049Y-50156033D01*
X123439069Y-50085996D01*
X123314772Y-50049500D01*
X123185228Y-50049500D01*
X123060931Y-50085996D01*
X123060928Y-50085997D01*
X123060927Y-50085998D01*
X122951955Y-50156030D01*
X122951952Y-50156031D01*
X122951951Y-50156033D01*
X122951949Y-50156034D01*
X122951948Y-50156036D01*
X122867118Y-50253935D01*
X122813302Y-50371776D01*
X122794867Y-50499996D01*
X122794867Y-50500003D01*
X121629474Y-50500003D01*
X121586216Y-50450080D01*
X121548049Y-50406033D01*
X121439069Y-50335996D01*
X121314772Y-50299500D01*
X121185228Y-50299500D01*
X121060931Y-50335996D01*
X121060928Y-50335997D01*
X121060927Y-50335998D01*
X120951955Y-50406030D01*
X120951952Y-50406031D01*
X120951951Y-50406033D01*
X120951949Y-50406034D01*
X120951948Y-50406036D01*
X120867118Y-50503935D01*
X120813302Y-50621776D01*
X120794867Y-50749996D01*
X120794867Y-50750003D01*
X66755585Y-50750003D01*
X66755585Y-50750000D01*
X66735262Y-50401073D01*
X66692056Y-50156036D01*
X66674571Y-50056871D01*
X66674569Y-50056865D01*
X66657546Y-50000003D01*
X111294867Y-50000003D01*
X111313302Y-50128223D01*
X111367118Y-50246064D01*
X111413421Y-50299500D01*
X111451951Y-50343967D01*
X111560931Y-50414004D01*
X111685228Y-50450500D01*
X111685231Y-50450500D01*
X111814769Y-50450500D01*
X111814772Y-50450500D01*
X111939069Y-50414004D01*
X112048049Y-50343967D01*
X112132882Y-50246063D01*
X112186697Y-50128226D01*
X112205133Y-50000000D01*
X112205133Y-49999996D01*
X112186697Y-49871776D01*
X112186697Y-49871774D01*
X112132882Y-49753937D01*
X112132881Y-49753936D01*
X112132881Y-49753935D01*
X112086216Y-49700080D01*
X112048049Y-49656033D01*
X111939069Y-49585996D01*
X111814772Y-49549500D01*
X111685228Y-49549500D01*
X111560931Y-49585996D01*
X111560928Y-49585997D01*
X111560927Y-49585998D01*
X111451955Y-49656030D01*
X111451952Y-49656031D01*
X111451951Y-49656033D01*
X111451949Y-49656034D01*
X111451948Y-49656036D01*
X111367118Y-49753935D01*
X111313302Y-49871776D01*
X111294867Y-49999996D01*
X111294867Y-50000003D01*
X66657546Y-50000003D01*
X66574328Y-49722036D01*
X66574326Y-49722029D01*
X66515648Y-49585998D01*
X66435889Y-49401096D01*
X66348656Y-49250003D01*
X122794867Y-49250003D01*
X122813302Y-49378223D01*
X122867118Y-49496064D01*
X122913421Y-49549500D01*
X122951951Y-49593967D01*
X123060931Y-49664004D01*
X123185228Y-49700500D01*
X123185231Y-49700500D01*
X123314769Y-49700500D01*
X123314772Y-49700500D01*
X123439069Y-49664004D01*
X123548049Y-49593967D01*
X123632882Y-49496063D01*
X123686697Y-49378226D01*
X123705133Y-49250000D01*
X123705133Y-49249996D01*
X123686697Y-49121776D01*
X123686697Y-49121774D01*
X123632882Y-49003937D01*
X123632881Y-49003936D01*
X123632881Y-49003935D01*
X123586216Y-48950080D01*
X123548049Y-48906033D01*
X123439069Y-48835996D01*
X123314772Y-48799500D01*
X123185228Y-48799500D01*
X123060931Y-48835996D01*
X123060928Y-48835997D01*
X123060927Y-48835998D01*
X122951955Y-48906030D01*
X122951952Y-48906031D01*
X122951951Y-48906033D01*
X122951949Y-48906034D01*
X122951948Y-48906036D01*
X122867118Y-49003935D01*
X122813302Y-49121776D01*
X122794867Y-49249996D01*
X122794867Y-49250003D01*
X66348656Y-49250003D01*
X66261130Y-49098404D01*
X66052412Y-48818047D01*
X66052408Y-48818043D01*
X66052406Y-48818040D01*
X66052403Y-48818036D01*
X65812569Y-48563828D01*
X65812563Y-48563823D01*
X65812558Y-48563817D01*
X65736507Y-48500003D01*
X132544867Y-48500003D01*
X132563302Y-48628223D01*
X132617118Y-48746064D01*
X132663421Y-48799500D01*
X132701951Y-48843967D01*
X132810931Y-48914004D01*
X132935228Y-48950500D01*
X132935231Y-48950500D01*
X133064769Y-48950500D01*
X133064772Y-48950500D01*
X133189069Y-48914004D01*
X133298049Y-48843967D01*
X133382882Y-48746063D01*
X133436697Y-48628226D01*
X133445958Y-48563815D01*
X133455133Y-48500003D01*
X133455133Y-48499996D01*
X133436697Y-48371776D01*
X133436697Y-48371774D01*
X133382882Y-48253937D01*
X133382881Y-48253936D01*
X133382881Y-48253935D01*
X133336216Y-48200080D01*
X133298049Y-48156033D01*
X133189069Y-48085996D01*
X133064772Y-48049500D01*
X132935228Y-48049500D01*
X132810931Y-48085996D01*
X132810928Y-48085997D01*
X132810927Y-48085998D01*
X132701955Y-48156030D01*
X132701952Y-48156031D01*
X132701951Y-48156033D01*
X132701949Y-48156034D01*
X132701948Y-48156036D01*
X132617118Y-48253935D01*
X132563302Y-48371776D01*
X132544867Y-48499996D01*
X132544867Y-48500003D01*
X65736507Y-48500003D01*
X65544811Y-48339151D01*
X65544803Y-48339146D01*
X65544798Y-48339142D01*
X65252800Y-48147091D01*
X65252796Y-48147089D01*
X65252793Y-48147087D01*
X65100804Y-48070755D01*
X64940456Y-47990225D01*
X64940454Y-47990224D01*
X64612014Y-47870682D01*
X64612013Y-47870681D01*
X64612011Y-47870681D01*
X64491414Y-47842099D01*
X64271912Y-47790076D01*
X63924767Y-47749500D01*
X63924759Y-47749500D01*
X63575241Y-47749500D01*
X63575232Y-47749500D01*
X63228087Y-47790076D01*
X62887985Y-47870682D01*
X62559545Y-47990224D01*
X62559543Y-47990225D01*
X62247199Y-48147091D01*
X61955201Y-48339142D01*
X61955186Y-48339153D01*
X61687444Y-48563815D01*
X61687430Y-48563828D01*
X61447596Y-48818036D01*
X61447593Y-48818040D01*
X61238869Y-49098405D01*
X61064111Y-49401095D01*
X61064109Y-49401099D01*
X60925673Y-49722029D01*
X60925671Y-49722036D01*
X60825430Y-50056865D01*
X60825428Y-50056871D01*
X60764739Y-50401063D01*
X60764737Y-50401079D01*
X60744415Y-50750000D01*
X56603903Y-50750000D01*
X51773904Y-45920001D01*
X76594357Y-45920001D01*
X76614891Y-46167816D01*
X76675937Y-46408882D01*
X76775827Y-46636607D01*
X76911837Y-46844787D01*
X76968221Y-46906036D01*
X77080256Y-47027738D01*
X77276491Y-47180474D01*
X77276492Y-47180474D01*
X77276494Y-47180476D01*
X77404969Y-47250003D01*
X77495190Y-47298828D01*
X77726459Y-47378223D01*
X77730386Y-47379571D01*
X77730390Y-47379572D01*
X77800359Y-47391247D01*
X77975665Y-47420500D01*
X77975667Y-47420500D01*
X78224333Y-47420500D01*
X78224335Y-47420500D01*
X78434750Y-47385388D01*
X78469609Y-47379572D01*
X78469610Y-47379571D01*
X78469614Y-47379571D01*
X78704810Y-47298828D01*
X78923509Y-47180474D01*
X79119744Y-47027738D01*
X79288164Y-46844785D01*
X79424173Y-46636607D01*
X79524063Y-46408881D01*
X79585108Y-46167821D01*
X79605643Y-45920001D01*
X79994357Y-45920001D01*
X80014891Y-46167816D01*
X80075937Y-46408882D01*
X80175827Y-46636607D01*
X80311837Y-46844787D01*
X80368221Y-46906036D01*
X80480256Y-47027738D01*
X80676491Y-47180474D01*
X80676492Y-47180474D01*
X80676494Y-47180476D01*
X80804969Y-47250003D01*
X80895190Y-47298828D01*
X81126459Y-47378223D01*
X81130386Y-47379571D01*
X81130390Y-47379572D01*
X81200359Y-47391247D01*
X81375665Y-47420500D01*
X81375667Y-47420500D01*
X81624333Y-47420500D01*
X81624335Y-47420500D01*
X81834750Y-47385388D01*
X81869609Y-47379572D01*
X81869610Y-47379571D01*
X81869614Y-47379571D01*
X82104810Y-47298828D01*
X82323509Y-47180474D01*
X82519744Y-47027738D01*
X82688164Y-46844785D01*
X82824173Y-46636607D01*
X82924063Y-46408881D01*
X82985108Y-46167821D01*
X83005643Y-45920000D01*
X82985108Y-45672179D01*
X82924063Y-45431119D01*
X82824173Y-45203393D01*
X82688164Y-44995215D01*
X82688163Y-44995214D01*
X82688162Y-44995212D01*
X82519743Y-44812261D01*
X82323510Y-44659527D01*
X82323505Y-44659523D01*
X82250473Y-44620000D01*
X87995197Y-44620000D01*
X88014396Y-44986346D01*
X88071786Y-45348696D01*
X88071787Y-45348699D01*
X88166732Y-45703039D01*
X88166739Y-45703059D01*
X88298197Y-46045518D01*
X88298208Y-46045542D01*
X88464744Y-46372388D01*
X88464755Y-46372408D01*
X88552230Y-46507107D01*
X88552231Y-46507108D01*
X89467263Y-45592074D01*
X89477706Y-45617285D01*
X89625179Y-45872715D01*
X89804731Y-46106711D01*
X90013289Y-46315269D01*
X90247285Y-46494821D01*
X90502715Y-46642294D01*
X90527923Y-46652735D01*
X89612891Y-47567768D01*
X89747591Y-47655244D01*
X89747611Y-47655255D01*
X90074457Y-47821791D01*
X90074481Y-47821802D01*
X90416940Y-47953260D01*
X90416960Y-47953267D01*
X90771300Y-48048212D01*
X90771303Y-48048213D01*
X91133653Y-48105603D01*
X91500000Y-48124802D01*
X91866346Y-48105603D01*
X92228696Y-48048213D01*
X92228699Y-48048212D01*
X92583039Y-47953267D01*
X92583059Y-47953260D01*
X92925518Y-47821802D01*
X92925542Y-47821791D01*
X93252388Y-47655255D01*
X93252412Y-47655241D01*
X93387107Y-47567768D01*
X93069342Y-47250003D01*
X120294867Y-47250003D01*
X120313302Y-47378223D01*
X120313302Y-47378224D01*
X120313303Y-47378226D01*
X120313918Y-47379572D01*
X120367118Y-47496064D01*
X120422282Y-47559727D01*
X120451951Y-47593967D01*
X120560931Y-47664004D01*
X120685228Y-47700500D01*
X120685231Y-47700500D01*
X120814769Y-47700500D01*
X120814772Y-47700500D01*
X120939069Y-47664004D01*
X121048049Y-47593967D01*
X121132882Y-47496063D01*
X121186697Y-47378226D01*
X121205133Y-47250000D01*
X121205133Y-47249996D01*
X121186697Y-47121776D01*
X121186697Y-47121774D01*
X121132882Y-47003937D01*
X121132881Y-47003936D01*
X121132881Y-47003935D01*
X121086216Y-46950080D01*
X121048049Y-46906033D01*
X120939069Y-46835996D01*
X120814772Y-46799500D01*
X120685228Y-46799500D01*
X120560931Y-46835996D01*
X120560928Y-46835997D01*
X120560927Y-46835998D01*
X120451955Y-46906030D01*
X120451952Y-46906031D01*
X120451951Y-46906033D01*
X120451949Y-46906034D01*
X120451948Y-46906036D01*
X120367118Y-47003935D01*
X120313302Y-47121776D01*
X120294867Y-47249996D01*
X120294867Y-47250003D01*
X93069342Y-47250003D01*
X92472075Y-46652736D01*
X92497285Y-46642294D01*
X92752715Y-46494821D01*
X92986711Y-46315269D01*
X93195269Y-46106711D01*
X93374821Y-45872715D01*
X93522294Y-45617285D01*
X93532736Y-45592075D01*
X94447768Y-46507107D01*
X94535241Y-46372412D01*
X94535255Y-46372388D01*
X94701791Y-46045542D01*
X94701802Y-46045518D01*
X94833260Y-45703059D01*
X94833267Y-45703039D01*
X94928212Y-45348699D01*
X94928213Y-45348696D01*
X94985603Y-44986346D01*
X95004802Y-44620000D01*
X94985603Y-44253653D01*
X94928213Y-43891303D01*
X94928212Y-43891300D01*
X94833267Y-43536960D01*
X94833260Y-43536940D01*
X94701800Y-43194476D01*
X94535251Y-42867605D01*
X94535244Y-42867592D01*
X94447768Y-42732891D01*
X93532735Y-43647923D01*
X93522294Y-43622715D01*
X93374821Y-43367285D01*
X93195269Y-43133289D01*
X92986711Y-42924731D01*
X92752715Y-42745179D01*
X92497285Y-42597706D01*
X92472074Y-42587263D01*
X93197772Y-41861567D01*
X101400000Y-41861567D01*
X101427086Y-42032586D01*
X101480590Y-42197253D01*
X101559197Y-42351526D01*
X101559197Y-42351527D01*
X101660966Y-42491600D01*
X101660968Y-42491603D01*
X101783396Y-42614031D01*
X101783399Y-42614033D01*
X101923473Y-42715802D01*
X102077744Y-42794409D01*
X102242411Y-42847912D01*
X102250000Y-42849114D01*
X102250000Y-41780330D01*
X102269745Y-41800075D01*
X102355255Y-41849444D01*
X102450630Y-41875000D01*
X102549370Y-41875000D01*
X102644745Y-41849444D01*
X102730255Y-41800075D01*
X102750000Y-41780330D01*
X102750000Y-42849114D01*
X102757588Y-42847912D01*
X102922255Y-42794409D01*
X103076526Y-42715802D01*
X103076527Y-42715802D01*
X103216600Y-42614033D01*
X103216603Y-42614031D01*
X103339031Y-42491603D01*
X103339033Y-42491600D01*
X103440802Y-42351527D01*
X103440805Y-42351521D01*
X103481746Y-42271172D01*
X103533355Y-42213854D01*
X103606708Y-42190020D01*
X103682150Y-42206056D01*
X103738394Y-42256035D01*
X103800531Y-42349029D01*
X103800533Y-42349031D01*
X103800536Y-42349035D01*
X103925965Y-42474464D01*
X103925968Y-42474466D01*
X104073451Y-42573012D01*
X104073453Y-42573013D01*
X104237334Y-42640894D01*
X104411309Y-42675500D01*
X104588691Y-42675500D01*
X104762666Y-42640894D01*
X104926547Y-42573013D01*
X105074035Y-42474464D01*
X105199464Y-42349035D01*
X105298013Y-42201547D01*
X105317102Y-42155461D01*
X105364053Y-42094274D01*
X105435309Y-42064758D01*
X105511778Y-42074824D01*
X105572968Y-42121777D01*
X105602484Y-42193033D01*
X105602696Y-42194718D01*
X105610122Y-42256563D01*
X105665638Y-42397341D01*
X105737119Y-42491603D01*
X105757078Y-42517922D01*
X105877658Y-42609361D01*
X106018436Y-42664877D01*
X106106898Y-42675500D01*
X106106899Y-42675500D01*
X106893101Y-42675500D01*
X106893102Y-42675500D01*
X106981564Y-42664877D01*
X107122342Y-42609361D01*
X107242922Y-42517922D01*
X107334361Y-42397342D01*
X107389877Y-42256564D01*
X107400500Y-42168102D01*
X107400500Y-41861567D01*
X110400000Y-41861567D01*
X110427086Y-42032586D01*
X110480590Y-42197253D01*
X110559197Y-42351526D01*
X110559197Y-42351527D01*
X110660966Y-42491600D01*
X110660968Y-42491603D01*
X110783396Y-42614031D01*
X110783399Y-42614033D01*
X110923473Y-42715802D01*
X111077744Y-42794409D01*
X111242411Y-42847912D01*
X111250000Y-42849114D01*
X111250000Y-41780330D01*
X111269745Y-41800075D01*
X111355255Y-41849444D01*
X111450630Y-41875000D01*
X111549370Y-41875000D01*
X111644745Y-41849444D01*
X111730255Y-41800075D01*
X111750000Y-41780330D01*
X111750000Y-42849114D01*
X111757588Y-42847912D01*
X111922255Y-42794409D01*
X112076526Y-42715802D01*
X112076527Y-42715802D01*
X112216600Y-42614033D01*
X112216603Y-42614031D01*
X112339031Y-42491603D01*
X112339036Y-42491597D01*
X112416469Y-42385018D01*
X112476409Y-42336478D01*
X112552587Y-42324412D01*
X112624592Y-42352051D01*
X112658406Y-42390035D01*
X112659481Y-42389221D01*
X112737119Y-42491603D01*
X112757078Y-42517922D01*
X112877658Y-42609361D01*
X113018436Y-42664877D01*
X113106898Y-42675500D01*
X113106899Y-42675500D01*
X113893101Y-42675500D01*
X113893102Y-42675500D01*
X113981564Y-42664877D01*
X114122342Y-42609361D01*
X114242922Y-42517922D01*
X114334361Y-42397342D01*
X114389877Y-42256564D01*
X114400500Y-42168102D01*
X114400500Y-41861567D01*
X117400000Y-41861567D01*
X117427086Y-42032586D01*
X117480590Y-42197253D01*
X117559197Y-42351526D01*
X117559197Y-42351527D01*
X117660966Y-42491600D01*
X117660968Y-42491603D01*
X117783396Y-42614031D01*
X117783399Y-42614033D01*
X117923473Y-42715802D01*
X118077744Y-42794409D01*
X118242411Y-42847912D01*
X118250000Y-42849114D01*
X118250000Y-41780330D01*
X118269745Y-41800075D01*
X118355255Y-41849444D01*
X118450630Y-41875000D01*
X118549370Y-41875000D01*
X118644745Y-41849444D01*
X118730255Y-41800075D01*
X118750000Y-41780330D01*
X118750000Y-42849114D01*
X118757588Y-42847912D01*
X118922255Y-42794409D01*
X119076526Y-42715802D01*
X119076527Y-42715802D01*
X119216600Y-42614033D01*
X119216603Y-42614031D01*
X119339031Y-42491603D01*
X119339036Y-42491597D01*
X119416469Y-42385018D01*
X119476409Y-42336478D01*
X119552587Y-42324412D01*
X119624592Y-42352051D01*
X119658406Y-42390035D01*
X119659481Y-42389221D01*
X119737119Y-42491603D01*
X119757078Y-42517922D01*
X119877658Y-42609361D01*
X120018436Y-42664877D01*
X120106898Y-42675500D01*
X120106899Y-42675500D01*
X120893101Y-42675500D01*
X120893102Y-42675500D01*
X120981564Y-42664877D01*
X121122342Y-42609361D01*
X121242922Y-42517922D01*
X121334361Y-42397342D01*
X121389877Y-42256564D01*
X121400500Y-42168102D01*
X121400500Y-41000003D01*
X138754867Y-41000003D01*
X138773302Y-41128223D01*
X138773302Y-41128224D01*
X138773303Y-41128226D01*
X138777964Y-41138432D01*
X138827118Y-41246064D01*
X138830529Y-41250000D01*
X138911951Y-41343967D01*
X139020931Y-41414004D01*
X139145228Y-41450500D01*
X139145231Y-41450500D01*
X139274769Y-41450500D01*
X139274772Y-41450500D01*
X139399069Y-41414004D01*
X139508049Y-41343967D01*
X139592882Y-41246063D01*
X139646697Y-41128226D01*
X139655915Y-41064113D01*
X139665133Y-41000003D01*
X141294867Y-41000003D01*
X141313302Y-41128223D01*
X141313302Y-41128224D01*
X141313303Y-41128226D01*
X141317964Y-41138432D01*
X141367118Y-41246064D01*
X141370529Y-41250000D01*
X141451951Y-41343967D01*
X141560931Y-41414004D01*
X141685228Y-41450500D01*
X141685231Y-41450500D01*
X141814769Y-41450500D01*
X141814772Y-41450500D01*
X141939069Y-41414004D01*
X142048049Y-41343967D01*
X142132882Y-41246063D01*
X142186697Y-41128226D01*
X142195915Y-41064113D01*
X142205133Y-41000003D01*
X142564867Y-41000003D01*
X142583302Y-41128223D01*
X142583302Y-41128224D01*
X142583303Y-41128226D01*
X142587964Y-41138432D01*
X142637118Y-41246064D01*
X142640529Y-41250000D01*
X142721951Y-41343967D01*
X142830931Y-41414004D01*
X142955228Y-41450500D01*
X142955231Y-41450500D01*
X143084769Y-41450500D01*
X143084772Y-41450500D01*
X143209069Y-41414004D01*
X143318049Y-41343967D01*
X143402882Y-41246063D01*
X143456697Y-41128226D01*
X143465915Y-41064113D01*
X143475133Y-41000003D01*
X143834867Y-41000003D01*
X143853302Y-41128223D01*
X143853302Y-41128224D01*
X143853303Y-41128226D01*
X143857964Y-41138432D01*
X143907118Y-41246064D01*
X143910529Y-41250000D01*
X143991951Y-41343967D01*
X144100931Y-41414004D01*
X144225228Y-41450500D01*
X144225231Y-41450500D01*
X144354769Y-41450500D01*
X144354772Y-41450500D01*
X144479069Y-41414004D01*
X144588049Y-41343967D01*
X144672882Y-41246063D01*
X144726697Y-41128226D01*
X144735915Y-41064113D01*
X144745133Y-41000003D01*
X144745133Y-40999996D01*
X144731726Y-40906750D01*
X144726697Y-40871774D01*
X144672882Y-40753937D01*
X144672881Y-40753936D01*
X144672881Y-40753935D01*
X144626216Y-40700080D01*
X144588049Y-40656033D01*
X144479069Y-40585996D01*
X144354772Y-40549500D01*
X144225228Y-40549500D01*
X144100931Y-40585996D01*
X144100928Y-40585997D01*
X144100927Y-40585998D01*
X143991955Y-40656030D01*
X143991952Y-40656031D01*
X143991951Y-40656033D01*
X143991949Y-40656034D01*
X143991948Y-40656036D01*
X143907118Y-40753935D01*
X143853302Y-40871776D01*
X143834867Y-40999996D01*
X143834867Y-41000003D01*
X143475133Y-41000003D01*
X143475133Y-40999996D01*
X143461726Y-40906750D01*
X143456697Y-40871774D01*
X143402882Y-40753937D01*
X143402881Y-40753936D01*
X143402881Y-40753935D01*
X143356216Y-40700080D01*
X143318049Y-40656033D01*
X143209069Y-40585996D01*
X143084772Y-40549500D01*
X142955228Y-40549500D01*
X142830931Y-40585996D01*
X142830928Y-40585997D01*
X142830927Y-40585998D01*
X142721955Y-40656030D01*
X142721952Y-40656031D01*
X142721951Y-40656033D01*
X142721949Y-40656034D01*
X142721948Y-40656036D01*
X142637118Y-40753935D01*
X142583302Y-40871776D01*
X142564867Y-40999996D01*
X142564867Y-41000003D01*
X142205133Y-41000003D01*
X142205133Y-40999996D01*
X142191726Y-40906750D01*
X142186697Y-40871774D01*
X142132882Y-40753937D01*
X142132881Y-40753936D01*
X142132881Y-40753935D01*
X142086216Y-40700080D01*
X142048049Y-40656033D01*
X141939069Y-40585996D01*
X141814772Y-40549500D01*
X141685228Y-40549500D01*
X141560931Y-40585996D01*
X141560928Y-40585997D01*
X141560927Y-40585998D01*
X141451955Y-40656030D01*
X141451952Y-40656031D01*
X141451951Y-40656033D01*
X141451949Y-40656034D01*
X141451948Y-40656036D01*
X141367118Y-40753935D01*
X141313302Y-40871776D01*
X141294867Y-40999996D01*
X141294867Y-41000003D01*
X139665133Y-41000003D01*
X139665133Y-40999996D01*
X139651726Y-40906750D01*
X139646697Y-40871774D01*
X139592882Y-40753937D01*
X139592881Y-40753936D01*
X139592881Y-40753935D01*
X139546216Y-40700080D01*
X139508049Y-40656033D01*
X139399069Y-40585996D01*
X139274772Y-40549500D01*
X139145228Y-40549500D01*
X139020931Y-40585996D01*
X139020928Y-40585997D01*
X139020927Y-40585998D01*
X138911955Y-40656030D01*
X138911952Y-40656031D01*
X138911951Y-40656033D01*
X138911949Y-40656034D01*
X138911948Y-40656036D01*
X138827118Y-40753935D01*
X138773302Y-40871776D01*
X138754867Y-40999996D01*
X138754867Y-41000003D01*
X121400500Y-41000003D01*
X121400500Y-40831898D01*
X121389877Y-40743436D01*
X121334361Y-40602658D01*
X121294050Y-40549500D01*
X121242923Y-40482079D01*
X121242920Y-40482076D01*
X121170274Y-40426987D01*
X121122342Y-40390639D01*
X121122341Y-40390638D01*
X120981563Y-40335122D01*
X120893105Y-40324500D01*
X120893102Y-40324500D01*
X120106898Y-40324500D01*
X120106894Y-40324500D01*
X120018436Y-40335122D01*
X119877658Y-40390638D01*
X119877658Y-40390639D01*
X119757079Y-40482076D01*
X119757076Y-40482079D01*
X119686692Y-40574896D01*
X119678274Y-40585997D01*
X119659481Y-40610779D01*
X119657928Y-40609602D01*
X119612962Y-40655594D01*
X119538692Y-40676394D01*
X119463972Y-40657271D01*
X119416470Y-40614982D01*
X119339038Y-40508404D01*
X119339031Y-40508396D01*
X119216603Y-40385968D01*
X119216600Y-40385966D01*
X119076526Y-40284197D01*
X118922253Y-40205590D01*
X118757586Y-40152086D01*
X118750000Y-40150884D01*
X118750000Y-41219670D01*
X118730255Y-41199925D01*
X118644745Y-41150556D01*
X118549370Y-41125000D01*
X118450630Y-41125000D01*
X118355255Y-41150556D01*
X118269745Y-41199925D01*
X118250000Y-41219670D01*
X118250000Y-40150884D01*
X118249999Y-40150884D01*
X118242414Y-40152086D01*
X118242412Y-40152086D01*
X118077746Y-40205590D01*
X117923473Y-40284197D01*
X117923472Y-40284197D01*
X117783399Y-40385966D01*
X117783396Y-40385968D01*
X117660968Y-40508396D01*
X117660966Y-40508399D01*
X117559197Y-40648472D01*
X117559197Y-40648473D01*
X117480590Y-40802746D01*
X117427086Y-40967413D01*
X117400000Y-41138432D01*
X117400000Y-41250000D01*
X118219670Y-41250000D01*
X118199925Y-41269745D01*
X118150556Y-41355255D01*
X118125000Y-41450630D01*
X118125000Y-41549370D01*
X118150556Y-41644745D01*
X118199925Y-41730255D01*
X118219670Y-41750000D01*
X117400000Y-41750000D01*
X117400000Y-41861567D01*
X114400500Y-41861567D01*
X114400500Y-40831898D01*
X114389877Y-40743436D01*
X114334361Y-40602658D01*
X114294050Y-40549500D01*
X114242923Y-40482079D01*
X114242920Y-40482076D01*
X114170274Y-40426987D01*
X114122342Y-40390639D01*
X114122341Y-40390638D01*
X113981563Y-40335122D01*
X113893105Y-40324500D01*
X113893102Y-40324500D01*
X113106898Y-40324500D01*
X113106894Y-40324500D01*
X113018436Y-40335122D01*
X112877658Y-40390638D01*
X112877658Y-40390639D01*
X112757079Y-40482076D01*
X112757076Y-40482079D01*
X112686692Y-40574896D01*
X112678274Y-40585997D01*
X112659481Y-40610779D01*
X112657928Y-40609602D01*
X112612962Y-40655594D01*
X112538692Y-40676394D01*
X112463972Y-40657271D01*
X112416470Y-40614982D01*
X112339038Y-40508404D01*
X112339031Y-40508396D01*
X112216603Y-40385968D01*
X112216600Y-40385966D01*
X112076526Y-40284197D01*
X111922253Y-40205590D01*
X111757586Y-40152086D01*
X111750000Y-40150884D01*
X111750000Y-41219670D01*
X111730255Y-41199925D01*
X111644745Y-41150556D01*
X111549370Y-41125000D01*
X111450630Y-41125000D01*
X111355255Y-41150556D01*
X111269745Y-41199925D01*
X111250000Y-41219670D01*
X111250000Y-40150884D01*
X111242414Y-40152086D01*
X111242412Y-40152086D01*
X111077746Y-40205590D01*
X110923473Y-40284197D01*
X110923472Y-40284197D01*
X110783399Y-40385966D01*
X110783396Y-40385968D01*
X110660968Y-40508396D01*
X110660966Y-40508399D01*
X110559197Y-40648472D01*
X110559197Y-40648473D01*
X110480590Y-40802746D01*
X110427086Y-40967413D01*
X110400000Y-41138432D01*
X110400000Y-41250000D01*
X111219670Y-41250000D01*
X111199925Y-41269745D01*
X111150556Y-41355255D01*
X111125000Y-41450630D01*
X111125000Y-41549370D01*
X111150556Y-41644745D01*
X111199925Y-41730255D01*
X111219670Y-41750000D01*
X110400000Y-41750000D01*
X110400000Y-41861567D01*
X107400500Y-41861567D01*
X107400500Y-40831898D01*
X107389877Y-40743436D01*
X107334361Y-40602658D01*
X107294050Y-40549500D01*
X107242923Y-40482079D01*
X107242920Y-40482076D01*
X107170274Y-40426987D01*
X107122342Y-40390639D01*
X107122341Y-40390638D01*
X106981563Y-40335122D01*
X106893105Y-40324500D01*
X106893102Y-40324500D01*
X106106898Y-40324500D01*
X106106894Y-40324500D01*
X106018436Y-40335122D01*
X105877658Y-40390638D01*
X105877658Y-40390639D01*
X105757079Y-40482076D01*
X105757076Y-40482079D01*
X105665639Y-40602658D01*
X105665638Y-40602658D01*
X105610123Y-40743435D01*
X105602696Y-40805282D01*
X105573993Y-40876870D01*
X105513342Y-40924516D01*
X105436993Y-40935453D01*
X105365405Y-40906750D01*
X105317759Y-40846099D01*
X105317101Y-40844536D01*
X105298012Y-40798450D01*
X105199466Y-40650968D01*
X105199462Y-40650963D01*
X105074036Y-40525537D01*
X105074031Y-40525533D01*
X104926548Y-40426987D01*
X104926546Y-40426986D01*
X104762667Y-40359106D01*
X104762663Y-40359105D01*
X104588691Y-40324500D01*
X104411309Y-40324500D01*
X104237336Y-40359105D01*
X104237332Y-40359106D01*
X104073453Y-40426986D01*
X104073451Y-40426987D01*
X103925968Y-40525533D01*
X103925963Y-40525537D01*
X103800537Y-40650963D01*
X103800531Y-40650971D01*
X103738394Y-40743964D01*
X103680406Y-40794818D01*
X103604759Y-40809864D01*
X103531725Y-40785071D01*
X103481746Y-40728828D01*
X103440802Y-40648473D01*
X103440802Y-40648472D01*
X103339033Y-40508399D01*
X103339031Y-40508396D01*
X103216603Y-40385968D01*
X103216600Y-40385966D01*
X103076526Y-40284197D01*
X102922253Y-40205590D01*
X102757586Y-40152086D01*
X102750000Y-40150884D01*
X102750000Y-41219670D01*
X102730255Y-41199925D01*
X102644745Y-41150556D01*
X102549370Y-41125000D01*
X102450630Y-41125000D01*
X102355255Y-41150556D01*
X102269745Y-41199925D01*
X102250000Y-41219670D01*
X102250000Y-40150884D01*
X102242414Y-40152086D01*
X102242412Y-40152086D01*
X102077746Y-40205590D01*
X101923473Y-40284197D01*
X101923472Y-40284197D01*
X101783399Y-40385966D01*
X101783396Y-40385968D01*
X101660968Y-40508396D01*
X101660966Y-40508399D01*
X101559197Y-40648472D01*
X101559197Y-40648473D01*
X101480590Y-40802746D01*
X101427086Y-40967413D01*
X101400000Y-41138432D01*
X101400000Y-41250000D01*
X102219670Y-41250000D01*
X102199925Y-41269745D01*
X102150556Y-41355255D01*
X102125000Y-41450630D01*
X102125000Y-41549370D01*
X102150556Y-41644745D01*
X102199925Y-41730255D01*
X102219670Y-41750000D01*
X101400000Y-41750000D01*
X101400000Y-41861567D01*
X93197772Y-41861567D01*
X93387108Y-41672231D01*
X93387107Y-41672230D01*
X93252408Y-41584755D01*
X93252388Y-41584744D01*
X92925542Y-41418208D01*
X92925518Y-41418197D01*
X92583059Y-41286739D01*
X92583039Y-41286732D01*
X92228699Y-41191787D01*
X92228696Y-41191786D01*
X91866346Y-41134396D01*
X91500000Y-41115197D01*
X91133653Y-41134396D01*
X90771303Y-41191786D01*
X90771300Y-41191787D01*
X90416960Y-41286732D01*
X90416940Y-41286739D01*
X90074476Y-41418199D01*
X89747605Y-41584748D01*
X89612891Y-41672231D01*
X90527924Y-42587264D01*
X90502715Y-42597706D01*
X90247285Y-42745179D01*
X90013289Y-42924731D01*
X89804731Y-43133289D01*
X89625179Y-43367285D01*
X89477706Y-43622715D01*
X89467264Y-43647924D01*
X88552231Y-42732891D01*
X88464748Y-42867605D01*
X88298199Y-43194476D01*
X88166739Y-43536940D01*
X88166732Y-43536960D01*
X88071787Y-43891300D01*
X88071786Y-43891303D01*
X88014396Y-44253653D01*
X87995197Y-44620000D01*
X82250473Y-44620000D01*
X82104815Y-44541174D01*
X82104811Y-44541172D01*
X81869613Y-44460428D01*
X81869609Y-44460427D01*
X81624335Y-44419500D01*
X81375665Y-44419500D01*
X81375664Y-44419500D01*
X81130390Y-44460427D01*
X81130386Y-44460428D01*
X80895188Y-44541172D01*
X80895184Y-44541174D01*
X80676494Y-44659523D01*
X80676489Y-44659527D01*
X80480256Y-44812261D01*
X80311837Y-44995212D01*
X80175827Y-45203392D01*
X80075937Y-45431117D01*
X80014891Y-45672183D01*
X79994357Y-45919998D01*
X79994357Y-45920001D01*
X79605643Y-45920001D01*
X79605643Y-45920000D01*
X79585108Y-45672179D01*
X79524063Y-45431119D01*
X79424173Y-45203393D01*
X79288164Y-44995215D01*
X79288163Y-44995214D01*
X79288162Y-44995212D01*
X79119743Y-44812261D01*
X78923510Y-44659527D01*
X78923505Y-44659523D01*
X78704815Y-44541174D01*
X78704811Y-44541172D01*
X78469613Y-44460428D01*
X78469609Y-44460427D01*
X78224335Y-44419500D01*
X77975665Y-44419500D01*
X77975664Y-44419500D01*
X77730390Y-44460427D01*
X77730386Y-44460428D01*
X77495188Y-44541172D01*
X77495184Y-44541174D01*
X77276494Y-44659523D01*
X77276489Y-44659527D01*
X77080256Y-44812261D01*
X76911837Y-44995212D01*
X76775827Y-45203392D01*
X76675937Y-45431117D01*
X76614891Y-45672183D01*
X76594357Y-45919998D01*
X76594357Y-45920001D01*
X51773904Y-45920001D01*
X46353903Y-40500000D01*
X51794958Y-40500000D01*
X51815111Y-40858854D01*
X51875313Y-41213181D01*
X51974816Y-41558563D01*
X51974817Y-41558568D01*
X52112359Y-41890621D01*
X52112361Y-41890625D01*
X52267681Y-42171656D01*
X52267682Y-42171657D01*
X53675034Y-40764304D01*
X53683242Y-40816126D01*
X53748906Y-41018220D01*
X53845377Y-41207554D01*
X53970278Y-41379466D01*
X54120534Y-41529722D01*
X54292446Y-41654623D01*
X54481780Y-41751094D01*
X54683874Y-41816758D01*
X54735694Y-41824965D01*
X53328342Y-43232317D01*
X53609374Y-43387638D01*
X53609378Y-43387640D01*
X53941431Y-43525182D01*
X53941436Y-43525183D01*
X54286818Y-43624686D01*
X54641145Y-43684888D01*
X55000000Y-43705041D01*
X55358854Y-43684888D01*
X55713181Y-43624686D01*
X56058563Y-43525183D01*
X56058568Y-43525182D01*
X56390616Y-43387642D01*
X56639656Y-43250002D01*
X64694750Y-43250002D01*
X64713668Y-43393706D01*
X64769138Y-43527625D01*
X64836910Y-43615945D01*
X64857379Y-43642621D01*
X64904602Y-43678857D01*
X64972374Y-43730861D01*
X65106293Y-43786331D01*
X65249997Y-43805250D01*
X65250000Y-43805250D01*
X65250003Y-43805250D01*
X65393706Y-43786331D01*
X65393708Y-43786330D01*
X65393709Y-43786330D01*
X65527625Y-43730861D01*
X65642621Y-43642621D01*
X65730861Y-43527625D01*
X65786330Y-43393709D01*
X65786330Y-43393708D01*
X65786331Y-43393706D01*
X65805250Y-43250002D01*
X67444750Y-43250002D01*
X67463668Y-43393706D01*
X67519138Y-43527625D01*
X67586910Y-43615945D01*
X67607379Y-43642621D01*
X67654602Y-43678857D01*
X67722374Y-43730861D01*
X67856293Y-43786331D01*
X67999997Y-43805250D01*
X68000000Y-43805250D01*
X68000003Y-43805250D01*
X68143706Y-43786331D01*
X68143708Y-43786330D01*
X68143709Y-43786330D01*
X68277625Y-43730861D01*
X68392621Y-43642621D01*
X68480861Y-43527625D01*
X68536330Y-43393709D01*
X68536330Y-43393708D01*
X68536331Y-43393706D01*
X68555250Y-43250002D01*
X70444750Y-43250002D01*
X70463668Y-43393706D01*
X70519138Y-43527625D01*
X70586910Y-43615945D01*
X70607379Y-43642621D01*
X70654602Y-43678857D01*
X70722374Y-43730861D01*
X70856293Y-43786331D01*
X70999997Y-43805250D01*
X71000000Y-43805250D01*
X71000003Y-43805250D01*
X71143706Y-43786331D01*
X71143708Y-43786330D01*
X71143709Y-43786330D01*
X71277625Y-43730861D01*
X71392621Y-43642621D01*
X71480861Y-43527625D01*
X71536330Y-43393709D01*
X71536330Y-43393708D01*
X71536331Y-43393706D01*
X71555250Y-43250002D01*
X71555250Y-43249997D01*
X71536331Y-43106293D01*
X71480861Y-42972374D01*
X71428857Y-42904602D01*
X71392621Y-42857379D01*
X71365945Y-42836910D01*
X71277625Y-42769138D01*
X71143706Y-42713668D01*
X71000003Y-42694750D01*
X70999997Y-42694750D01*
X70856293Y-42713668D01*
X70722374Y-42769138D01*
X70607381Y-42857377D01*
X70607377Y-42857381D01*
X70519138Y-42972374D01*
X70463668Y-43106293D01*
X70444750Y-43249997D01*
X70444750Y-43250002D01*
X68555250Y-43250002D01*
X68555250Y-43249997D01*
X68536331Y-43106293D01*
X68480861Y-42972374D01*
X68428857Y-42904602D01*
X68392621Y-42857379D01*
X68365945Y-42836910D01*
X68277625Y-42769138D01*
X68143706Y-42713668D01*
X68000003Y-42694750D01*
X67999997Y-42694750D01*
X67856293Y-42713668D01*
X67722374Y-42769138D01*
X67607381Y-42857377D01*
X67607377Y-42857381D01*
X67519138Y-42972374D01*
X67463668Y-43106293D01*
X67444750Y-43249997D01*
X67444750Y-43250002D01*
X65805250Y-43250002D01*
X65805250Y-43249997D01*
X65786331Y-43106293D01*
X65730861Y-42972374D01*
X65678857Y-42904602D01*
X65642621Y-42857379D01*
X65615945Y-42836910D01*
X65527625Y-42769138D01*
X65393706Y-42713668D01*
X65250003Y-42694750D01*
X65249997Y-42694750D01*
X65106293Y-42713668D01*
X64972374Y-42769138D01*
X64857381Y-42857377D01*
X64857377Y-42857381D01*
X64769138Y-42972374D01*
X64713668Y-43106293D01*
X64694750Y-43249997D01*
X64694750Y-43250002D01*
X56639656Y-43250002D01*
X56671656Y-43232316D01*
X55264305Y-41824965D01*
X55316126Y-41816758D01*
X55518220Y-41751094D01*
X55707554Y-41654623D01*
X55879466Y-41529722D01*
X56029722Y-41379466D01*
X56154623Y-41207554D01*
X56251094Y-41018220D01*
X56316758Y-40816126D01*
X56324965Y-40764305D01*
X57732316Y-42171656D01*
X57887642Y-41890616D01*
X58025182Y-41558568D01*
X58025183Y-41558563D01*
X58124686Y-41213181D01*
X58184888Y-40858854D01*
X58205041Y-40500000D01*
X58184888Y-40141145D01*
X58160907Y-40000002D01*
X64694750Y-40000002D01*
X64713668Y-40143706D01*
X64769138Y-40277625D01*
X64813258Y-40335122D01*
X64857379Y-40392621D01*
X64902164Y-40426986D01*
X64972374Y-40480861D01*
X65106293Y-40536331D01*
X65249997Y-40555250D01*
X65250000Y-40555250D01*
X65250003Y-40555250D01*
X65393706Y-40536331D01*
X65393708Y-40536330D01*
X65393709Y-40536330D01*
X65527625Y-40480861D01*
X65642621Y-40392621D01*
X65730861Y-40277625D01*
X65786330Y-40143709D01*
X65786330Y-40143708D01*
X65786331Y-40143706D01*
X65805250Y-40000002D01*
X67444750Y-40000002D01*
X67463668Y-40143706D01*
X67519138Y-40277625D01*
X67563258Y-40335122D01*
X67607379Y-40392621D01*
X67652164Y-40426986D01*
X67722374Y-40480861D01*
X67856293Y-40536331D01*
X67999997Y-40555250D01*
X68000000Y-40555250D01*
X68000003Y-40555250D01*
X68143706Y-40536331D01*
X68143708Y-40536330D01*
X68143709Y-40536330D01*
X68277625Y-40480861D01*
X68392621Y-40392621D01*
X68480861Y-40277625D01*
X68536330Y-40143709D01*
X68536330Y-40143708D01*
X68536331Y-40143706D01*
X68555250Y-40000002D01*
X70444750Y-40000002D01*
X70463668Y-40143706D01*
X70519138Y-40277625D01*
X70563258Y-40335122D01*
X70607379Y-40392621D01*
X70652164Y-40426986D01*
X70722374Y-40480861D01*
X70856293Y-40536331D01*
X70999997Y-40555250D01*
X71000000Y-40555250D01*
X71000003Y-40555250D01*
X71143706Y-40536331D01*
X71143708Y-40536330D01*
X71143709Y-40536330D01*
X71277625Y-40480861D01*
X71392621Y-40392621D01*
X71480861Y-40277625D01*
X71536330Y-40143709D01*
X71536330Y-40143708D01*
X71536331Y-40143706D01*
X71555250Y-40000002D01*
X71555250Y-39999997D01*
X71536331Y-39856293D01*
X71480861Y-39722374D01*
X71402715Y-39620534D01*
X71392621Y-39607379D01*
X71365945Y-39586910D01*
X71277625Y-39519138D01*
X71143706Y-39463668D01*
X71000003Y-39444750D01*
X70999997Y-39444750D01*
X70856293Y-39463668D01*
X70722374Y-39519138D01*
X70607381Y-39607377D01*
X70607377Y-39607381D01*
X70519138Y-39722374D01*
X70463668Y-39856293D01*
X70444750Y-39999997D01*
X70444750Y-40000002D01*
X68555250Y-40000002D01*
X68555250Y-39999997D01*
X68536331Y-39856293D01*
X68480861Y-39722374D01*
X68402715Y-39620534D01*
X68392621Y-39607379D01*
X68365945Y-39586910D01*
X68277625Y-39519138D01*
X68143706Y-39463668D01*
X68000003Y-39444750D01*
X67999997Y-39444750D01*
X67856293Y-39463668D01*
X67722374Y-39519138D01*
X67607381Y-39607377D01*
X67607377Y-39607381D01*
X67519138Y-39722374D01*
X67463668Y-39856293D01*
X67444750Y-39999997D01*
X67444750Y-40000002D01*
X65805250Y-40000002D01*
X65805250Y-39999997D01*
X65786331Y-39856293D01*
X65730861Y-39722374D01*
X65652715Y-39620534D01*
X65642621Y-39607379D01*
X65615945Y-39586910D01*
X65527625Y-39519138D01*
X65393706Y-39463668D01*
X65250003Y-39444750D01*
X65249997Y-39444750D01*
X65106293Y-39463668D01*
X64972374Y-39519138D01*
X64857381Y-39607377D01*
X64857377Y-39607381D01*
X64769138Y-39722374D01*
X64713668Y-39856293D01*
X64694750Y-39999997D01*
X64694750Y-40000002D01*
X58160907Y-40000002D01*
X58124686Y-39786818D01*
X58025183Y-39441436D01*
X58025182Y-39441431D01*
X57887640Y-39109378D01*
X57887638Y-39109374D01*
X57732317Y-38828342D01*
X56324965Y-40235693D01*
X56316758Y-40183874D01*
X56251094Y-39981780D01*
X56154623Y-39792446D01*
X56029722Y-39620534D01*
X55879466Y-39470278D01*
X55707554Y-39345377D01*
X55518220Y-39248906D01*
X55316126Y-39183242D01*
X55264304Y-39175034D01*
X55939336Y-38500002D01*
X79194750Y-38500002D01*
X79213668Y-38643706D01*
X79269138Y-38777625D01*
X79320042Y-38843963D01*
X79357379Y-38892621D01*
X79385242Y-38914001D01*
X79472374Y-38980861D01*
X79606293Y-39036331D01*
X79749997Y-39055250D01*
X79750000Y-39055250D01*
X79750003Y-39055250D01*
X79893706Y-39036331D01*
X79893708Y-39036330D01*
X79893709Y-39036330D01*
X79957537Y-39009892D01*
X88199500Y-39009892D01*
X88199501Y-39009904D01*
X88205086Y-39109378D01*
X88205804Y-39122153D01*
X88205806Y-39122169D01*
X88255972Y-39387305D01*
X88255974Y-39387310D01*
X88345102Y-39642025D01*
X88424602Y-39792446D01*
X88471197Y-39880608D01*
X88471199Y-39880612D01*
X88559312Y-40000000D01*
X88631445Y-40097737D01*
X88822263Y-40288555D01*
X89039390Y-40448802D01*
X89277975Y-40574898D01*
X89532690Y-40664026D01*
X89532692Y-40664026D01*
X89532694Y-40664027D01*
X89749697Y-40705086D01*
X89797843Y-40714196D01*
X89910095Y-40720500D01*
X93089904Y-40720499D01*
X93202157Y-40714196D01*
X93467310Y-40664026D01*
X93722025Y-40574898D01*
X93960610Y-40448802D01*
X94177737Y-40288555D01*
X94368555Y-40097737D01*
X94528802Y-39880610D01*
X94654898Y-39642025D01*
X94744026Y-39387310D01*
X94794196Y-39122157D01*
X94800500Y-39009905D01*
X94800500Y-38750003D01*
X99794867Y-38750003D01*
X99813302Y-38878223D01*
X99813302Y-38878224D01*
X99813303Y-38878226D01*
X99837390Y-38930970D01*
X99867118Y-38996064D01*
X99902009Y-39036330D01*
X99951951Y-39093967D01*
X100060931Y-39164004D01*
X100185228Y-39200500D01*
X100185231Y-39200500D01*
X100314769Y-39200500D01*
X100314772Y-39200500D01*
X100439069Y-39164004D01*
X100548049Y-39093967D01*
X100632882Y-38996063D01*
X100686697Y-38878226D01*
X100705133Y-38750003D01*
X101794867Y-38750003D01*
X101813302Y-38878223D01*
X101813302Y-38878224D01*
X101813303Y-38878226D01*
X101837390Y-38930970D01*
X101867118Y-38996064D01*
X101902009Y-39036330D01*
X101951951Y-39093967D01*
X102060931Y-39164004D01*
X102185228Y-39200500D01*
X102185231Y-39200500D01*
X102314769Y-39200500D01*
X102314772Y-39200500D01*
X102439069Y-39164004D01*
X102548049Y-39093967D01*
X102632882Y-38996063D01*
X102686697Y-38878226D01*
X102705133Y-38750000D01*
X102705133Y-38749996D01*
X102689850Y-38643706D01*
X102686697Y-38621774D01*
X102632882Y-38503937D01*
X102632881Y-38503936D01*
X102632881Y-38503935D01*
X102629474Y-38500003D01*
X113044867Y-38500003D01*
X113063302Y-38628223D01*
X113117118Y-38746064D01*
X113144466Y-38777625D01*
X113201951Y-38843967D01*
X113310931Y-38914004D01*
X113435228Y-38950500D01*
X113435231Y-38950500D01*
X113564769Y-38950500D01*
X113564772Y-38950500D01*
X113689069Y-38914004D01*
X113798049Y-38843967D01*
X113882882Y-38746063D01*
X113936697Y-38628226D01*
X113954567Y-38503937D01*
X113955133Y-38500003D01*
X114294867Y-38500003D01*
X114313302Y-38628223D01*
X114367118Y-38746064D01*
X114394466Y-38777625D01*
X114451951Y-38843967D01*
X114560931Y-38914004D01*
X114685228Y-38950500D01*
X114685231Y-38950500D01*
X114814769Y-38950500D01*
X114814772Y-38950500D01*
X114939069Y-38914004D01*
X115048049Y-38843967D01*
X115132882Y-38746063D01*
X115186697Y-38628226D01*
X115204567Y-38503937D01*
X115205133Y-38500003D01*
X115544867Y-38500003D01*
X115563302Y-38628223D01*
X115617118Y-38746064D01*
X115644466Y-38777625D01*
X115701951Y-38843967D01*
X115810931Y-38914004D01*
X115935228Y-38950500D01*
X115935231Y-38950500D01*
X116064769Y-38950500D01*
X116064772Y-38950500D01*
X116189069Y-38914004D01*
X116298049Y-38843967D01*
X116379468Y-38750003D01*
X120044867Y-38750003D01*
X120063302Y-38878223D01*
X120063302Y-38878224D01*
X120063303Y-38878226D01*
X120087390Y-38930970D01*
X120117118Y-38996064D01*
X120152009Y-39036330D01*
X120201951Y-39093967D01*
X120310931Y-39164004D01*
X120435228Y-39200500D01*
X120435231Y-39200500D01*
X120564769Y-39200500D01*
X120564772Y-39200500D01*
X120689069Y-39164004D01*
X120798049Y-39093967D01*
X120882882Y-38996063D01*
X120936697Y-38878226D01*
X120955133Y-38750003D01*
X121544867Y-38750003D01*
X121563302Y-38878223D01*
X121563302Y-38878224D01*
X121563303Y-38878226D01*
X121587390Y-38930970D01*
X121617118Y-38996064D01*
X121652009Y-39036330D01*
X121701951Y-39093967D01*
X121810931Y-39164004D01*
X121935228Y-39200500D01*
X121935231Y-39200500D01*
X122064769Y-39200500D01*
X122064772Y-39200500D01*
X122189069Y-39164004D01*
X122298049Y-39093967D01*
X122382882Y-38996063D01*
X122436697Y-38878226D01*
X122455133Y-38750000D01*
X122455133Y-38749996D01*
X122439850Y-38643706D01*
X122436697Y-38621774D01*
X122382882Y-38503937D01*
X122382881Y-38503936D01*
X122382881Y-38503935D01*
X122379474Y-38500003D01*
X132794867Y-38500003D01*
X132813302Y-38628223D01*
X132867118Y-38746064D01*
X132894466Y-38777625D01*
X132951951Y-38843967D01*
X133060931Y-38914004D01*
X133185228Y-38950500D01*
X133185231Y-38950500D01*
X133314769Y-38950500D01*
X133314772Y-38950500D01*
X133439069Y-38914004D01*
X133548049Y-38843967D01*
X133632882Y-38746063D01*
X133686697Y-38628226D01*
X133704567Y-38503937D01*
X133705133Y-38500003D01*
X134044867Y-38500003D01*
X134063302Y-38628223D01*
X134117118Y-38746064D01*
X134144466Y-38777625D01*
X134201951Y-38843967D01*
X134310931Y-38914004D01*
X134435228Y-38950500D01*
X134435231Y-38950500D01*
X134564769Y-38950500D01*
X134564772Y-38950500D01*
X134689069Y-38914004D01*
X134798049Y-38843967D01*
X134882882Y-38746063D01*
X134936697Y-38628226D01*
X134954567Y-38503937D01*
X134955133Y-38500003D01*
X135294867Y-38500003D01*
X135313302Y-38628223D01*
X135367118Y-38746064D01*
X135394466Y-38777625D01*
X135451951Y-38843967D01*
X135560931Y-38914004D01*
X135685228Y-38950500D01*
X135685231Y-38950500D01*
X135814769Y-38950500D01*
X135814772Y-38950500D01*
X135939069Y-38914004D01*
X136048049Y-38843967D01*
X136132882Y-38746063D01*
X136186697Y-38628226D01*
X136204567Y-38503937D01*
X136205133Y-38500003D01*
X136205133Y-38499996D01*
X136191623Y-38406033D01*
X136186697Y-38371774D01*
X136132882Y-38253937D01*
X136132881Y-38253936D01*
X136132881Y-38253935D01*
X136059670Y-38169445D01*
X136048049Y-38156033D01*
X135939069Y-38085996D01*
X135814772Y-38049500D01*
X135685228Y-38049500D01*
X135560931Y-38085996D01*
X135560928Y-38085997D01*
X135560927Y-38085998D01*
X135451955Y-38156030D01*
X135451952Y-38156031D01*
X135451951Y-38156033D01*
X135451949Y-38156034D01*
X135451948Y-38156036D01*
X135367118Y-38253935D01*
X135313302Y-38371776D01*
X135294867Y-38499996D01*
X135294867Y-38500003D01*
X134955133Y-38500003D01*
X134955133Y-38499996D01*
X134941623Y-38406033D01*
X134936697Y-38371774D01*
X134882882Y-38253937D01*
X134882881Y-38253936D01*
X134882881Y-38253935D01*
X134809670Y-38169445D01*
X134798049Y-38156033D01*
X134689069Y-38085996D01*
X134564772Y-38049500D01*
X134435228Y-38049500D01*
X134310931Y-38085996D01*
X134310928Y-38085997D01*
X134310927Y-38085998D01*
X134201955Y-38156030D01*
X134201952Y-38156031D01*
X134201951Y-38156033D01*
X134201949Y-38156034D01*
X134201948Y-38156036D01*
X134117118Y-38253935D01*
X134063302Y-38371776D01*
X134044867Y-38499996D01*
X134044867Y-38500003D01*
X133705133Y-38500003D01*
X133705133Y-38499996D01*
X133691623Y-38406033D01*
X133686697Y-38371774D01*
X133632882Y-38253937D01*
X133632881Y-38253936D01*
X133632881Y-38253935D01*
X133559670Y-38169445D01*
X133548049Y-38156033D01*
X133439069Y-38085996D01*
X133314772Y-38049500D01*
X133185228Y-38049500D01*
X133060931Y-38085996D01*
X133060928Y-38085997D01*
X133060927Y-38085998D01*
X132951955Y-38156030D01*
X132951952Y-38156031D01*
X132951951Y-38156033D01*
X132951949Y-38156034D01*
X132951948Y-38156036D01*
X132867118Y-38253935D01*
X132813302Y-38371776D01*
X132794867Y-38499996D01*
X132794867Y-38500003D01*
X122379474Y-38500003D01*
X122336216Y-38450080D01*
X122298049Y-38406033D01*
X122298046Y-38406031D01*
X122298045Y-38406030D01*
X122271201Y-38388778D01*
X122250299Y-38375346D01*
X122198419Y-38318277D01*
X122182024Y-38242911D01*
X122205508Y-38169445D01*
X122250299Y-38124653D01*
X122298049Y-38093967D01*
X122382882Y-37996063D01*
X122436697Y-37878226D01*
X122455133Y-37750000D01*
X122455133Y-37749997D01*
X122455133Y-37749996D01*
X122436697Y-37621776D01*
X122436697Y-37621774D01*
X122382882Y-37503937D01*
X122382881Y-37503936D01*
X122382881Y-37503935D01*
X122336216Y-37450080D01*
X122298049Y-37406033D01*
X122189069Y-37335996D01*
X122064772Y-37299500D01*
X121935228Y-37299500D01*
X121810931Y-37335996D01*
X121810928Y-37335997D01*
X121810927Y-37335998D01*
X121701955Y-37406030D01*
X121701952Y-37406031D01*
X121701951Y-37406033D01*
X121701949Y-37406034D01*
X121701948Y-37406036D01*
X121617118Y-37503935D01*
X121563302Y-37621776D01*
X121544867Y-37749996D01*
X121544867Y-37750003D01*
X121563302Y-37878223D01*
X121617118Y-37996064D01*
X121637112Y-38019138D01*
X121701951Y-38093967D01*
X121749700Y-38124653D01*
X121801581Y-38181724D01*
X121817975Y-38257090D01*
X121794491Y-38330556D01*
X121749700Y-38375346D01*
X121726620Y-38390178D01*
X121701952Y-38406032D01*
X121701948Y-38406036D01*
X121617118Y-38503935D01*
X121563302Y-38621776D01*
X121544867Y-38749996D01*
X121544867Y-38750003D01*
X120955133Y-38750003D01*
X120955133Y-38750000D01*
X120955133Y-38749996D01*
X120939850Y-38643706D01*
X120936697Y-38621774D01*
X120882882Y-38503937D01*
X120882881Y-38503936D01*
X120882881Y-38503935D01*
X120836216Y-38450080D01*
X120798049Y-38406033D01*
X120798046Y-38406031D01*
X120798045Y-38406030D01*
X120771201Y-38388778D01*
X120750299Y-38375346D01*
X120698419Y-38318277D01*
X120682024Y-38242911D01*
X120705508Y-38169445D01*
X120750299Y-38124653D01*
X120798049Y-38093967D01*
X120882882Y-37996063D01*
X120936697Y-37878226D01*
X120955133Y-37750000D01*
X120955133Y-37749997D01*
X120955133Y-37749996D01*
X120936697Y-37621776D01*
X120936697Y-37621774D01*
X120882882Y-37503937D01*
X120882881Y-37503936D01*
X120882881Y-37503935D01*
X120836216Y-37450080D01*
X120798049Y-37406033D01*
X120689069Y-37335996D01*
X120564772Y-37299500D01*
X120435228Y-37299500D01*
X120310931Y-37335996D01*
X120310928Y-37335997D01*
X120310927Y-37335998D01*
X120201955Y-37406030D01*
X120201952Y-37406031D01*
X120201951Y-37406033D01*
X120201949Y-37406034D01*
X120201948Y-37406036D01*
X120117118Y-37503935D01*
X120063302Y-37621776D01*
X120044867Y-37749996D01*
X120044867Y-37750003D01*
X120063302Y-37878223D01*
X120117118Y-37996064D01*
X120137112Y-38019138D01*
X120201951Y-38093967D01*
X120249700Y-38124653D01*
X120301581Y-38181724D01*
X120317975Y-38257090D01*
X120294491Y-38330556D01*
X120249700Y-38375346D01*
X120226620Y-38390178D01*
X120201952Y-38406032D01*
X120201948Y-38406036D01*
X120117118Y-38503935D01*
X120063302Y-38621776D01*
X120044867Y-38749996D01*
X120044867Y-38750003D01*
X116379468Y-38750003D01*
X116382882Y-38746063D01*
X116436697Y-38628226D01*
X116454567Y-38503937D01*
X116455133Y-38500003D01*
X116455133Y-38499996D01*
X116441623Y-38406033D01*
X116436697Y-38371774D01*
X116382882Y-38253937D01*
X116382881Y-38253936D01*
X116382881Y-38253935D01*
X116309670Y-38169445D01*
X116298049Y-38156033D01*
X116189069Y-38085996D01*
X116064772Y-38049500D01*
X115935228Y-38049500D01*
X115810931Y-38085996D01*
X115810928Y-38085997D01*
X115810927Y-38085998D01*
X115701955Y-38156030D01*
X115701952Y-38156031D01*
X115701951Y-38156033D01*
X115701949Y-38156034D01*
X115701948Y-38156036D01*
X115617118Y-38253935D01*
X115563302Y-38371776D01*
X115544867Y-38499996D01*
X115544867Y-38500003D01*
X115205133Y-38500003D01*
X115205133Y-38499996D01*
X115191623Y-38406033D01*
X115186697Y-38371774D01*
X115132882Y-38253937D01*
X115132881Y-38253936D01*
X115132881Y-38253935D01*
X115059670Y-38169445D01*
X115048049Y-38156033D01*
X114939069Y-38085996D01*
X114814772Y-38049500D01*
X114685228Y-38049500D01*
X114560931Y-38085996D01*
X114560928Y-38085997D01*
X114560927Y-38085998D01*
X114451955Y-38156030D01*
X114451952Y-38156031D01*
X114451951Y-38156033D01*
X114451949Y-38156034D01*
X114451948Y-38156036D01*
X114367118Y-38253935D01*
X114313302Y-38371776D01*
X114294867Y-38499996D01*
X114294867Y-38500003D01*
X113955133Y-38500003D01*
X113955133Y-38499996D01*
X113941623Y-38406033D01*
X113936697Y-38371774D01*
X113882882Y-38253937D01*
X113882881Y-38253936D01*
X113882881Y-38253935D01*
X113809670Y-38169445D01*
X113798049Y-38156033D01*
X113689069Y-38085996D01*
X113564772Y-38049500D01*
X113435228Y-38049500D01*
X113310931Y-38085996D01*
X113310928Y-38085997D01*
X113310927Y-38085998D01*
X113201955Y-38156030D01*
X113201952Y-38156031D01*
X113201951Y-38156033D01*
X113201949Y-38156034D01*
X113201948Y-38156036D01*
X113117118Y-38253935D01*
X113063302Y-38371776D01*
X113044867Y-38499996D01*
X113044867Y-38500003D01*
X102629474Y-38500003D01*
X102586216Y-38450080D01*
X102548049Y-38406033D01*
X102548046Y-38406031D01*
X102548045Y-38406030D01*
X102521201Y-38388778D01*
X102500299Y-38375346D01*
X102448419Y-38318277D01*
X102432024Y-38242911D01*
X102455508Y-38169445D01*
X102500299Y-38124653D01*
X102548049Y-38093967D01*
X102632882Y-37996063D01*
X102686697Y-37878226D01*
X102705133Y-37750000D01*
X102705133Y-37749997D01*
X102705133Y-37749996D01*
X102686697Y-37621776D01*
X102686697Y-37621774D01*
X102632882Y-37503937D01*
X102632881Y-37503936D01*
X102632881Y-37503935D01*
X102586216Y-37450080D01*
X102548049Y-37406033D01*
X102439069Y-37335996D01*
X102314772Y-37299500D01*
X102185228Y-37299500D01*
X102060931Y-37335996D01*
X102060928Y-37335997D01*
X102060927Y-37335998D01*
X101951955Y-37406030D01*
X101951952Y-37406031D01*
X101951951Y-37406033D01*
X101951949Y-37406034D01*
X101951948Y-37406036D01*
X101867118Y-37503935D01*
X101813302Y-37621776D01*
X101794867Y-37749996D01*
X101794867Y-37750003D01*
X101813302Y-37878223D01*
X101867118Y-37996064D01*
X101887112Y-38019138D01*
X101951951Y-38093967D01*
X101999700Y-38124653D01*
X102051581Y-38181724D01*
X102067975Y-38257090D01*
X102044491Y-38330556D01*
X101999700Y-38375346D01*
X101976620Y-38390178D01*
X101951952Y-38406032D01*
X101951948Y-38406036D01*
X101867118Y-38503935D01*
X101813302Y-38621776D01*
X101794867Y-38749996D01*
X101794867Y-38750003D01*
X100705133Y-38750003D01*
X100705133Y-38750000D01*
X100705133Y-38749996D01*
X100689850Y-38643706D01*
X100686697Y-38621774D01*
X100632882Y-38503937D01*
X100632881Y-38503936D01*
X100632881Y-38503935D01*
X100586216Y-38450080D01*
X100548049Y-38406033D01*
X100548046Y-38406031D01*
X100548045Y-38406030D01*
X100521201Y-38388778D01*
X100500299Y-38375346D01*
X100448419Y-38318277D01*
X100432024Y-38242911D01*
X100455508Y-38169445D01*
X100500299Y-38124653D01*
X100548049Y-38093967D01*
X100632882Y-37996063D01*
X100686697Y-37878226D01*
X100705133Y-37750000D01*
X100705133Y-37749997D01*
X100705133Y-37749996D01*
X100686697Y-37621776D01*
X100686697Y-37621774D01*
X100632882Y-37503937D01*
X100632881Y-37503936D01*
X100632881Y-37503935D01*
X100586216Y-37450080D01*
X100548049Y-37406033D01*
X100439069Y-37335996D01*
X100314772Y-37299500D01*
X100185228Y-37299500D01*
X100060931Y-37335996D01*
X100060928Y-37335997D01*
X100060927Y-37335998D01*
X99951955Y-37406030D01*
X99951952Y-37406031D01*
X99951951Y-37406033D01*
X99951949Y-37406034D01*
X99951948Y-37406036D01*
X99867118Y-37503935D01*
X99813302Y-37621776D01*
X99794867Y-37749996D01*
X99794867Y-37750003D01*
X99813302Y-37878223D01*
X99867118Y-37996064D01*
X99887112Y-38019138D01*
X99951951Y-38093967D01*
X99999700Y-38124653D01*
X100051581Y-38181724D01*
X100067975Y-38257090D01*
X100044491Y-38330556D01*
X99999700Y-38375346D01*
X99976620Y-38390178D01*
X99951952Y-38406032D01*
X99951948Y-38406036D01*
X99867118Y-38503935D01*
X99813302Y-38621776D01*
X99794867Y-38749996D01*
X99794867Y-38750003D01*
X94800500Y-38750003D01*
X94800499Y-37000003D01*
X113044867Y-37000003D01*
X113063302Y-37128223D01*
X113117118Y-37246064D01*
X113137112Y-37269138D01*
X113201951Y-37343967D01*
X113310931Y-37414004D01*
X113435228Y-37450500D01*
X113435231Y-37450500D01*
X113564769Y-37450500D01*
X113564772Y-37450500D01*
X113689069Y-37414004D01*
X113798049Y-37343967D01*
X113882882Y-37246063D01*
X113936697Y-37128226D01*
X113955133Y-37000003D01*
X114294867Y-37000003D01*
X114313302Y-37128223D01*
X114367118Y-37246064D01*
X114387112Y-37269138D01*
X114451951Y-37343967D01*
X114560931Y-37414004D01*
X114685228Y-37450500D01*
X114685231Y-37450500D01*
X114814769Y-37450500D01*
X114814772Y-37450500D01*
X114939069Y-37414004D01*
X115048049Y-37343967D01*
X115132882Y-37246063D01*
X115186697Y-37128226D01*
X115205133Y-37000003D01*
X115544867Y-37000003D01*
X115563302Y-37128223D01*
X115617118Y-37246064D01*
X115637112Y-37269138D01*
X115701951Y-37343967D01*
X115810931Y-37414004D01*
X115935228Y-37450500D01*
X115935231Y-37450500D01*
X116064769Y-37450500D01*
X116064772Y-37450500D01*
X116189069Y-37414004D01*
X116298049Y-37343967D01*
X116382882Y-37246063D01*
X116436697Y-37128226D01*
X116455133Y-37000003D01*
X132794867Y-37000003D01*
X132813302Y-37128223D01*
X132867118Y-37246064D01*
X132887112Y-37269138D01*
X132951951Y-37343967D01*
X133060931Y-37414004D01*
X133185228Y-37450500D01*
X133185231Y-37450500D01*
X133314769Y-37450500D01*
X133314772Y-37450500D01*
X133439069Y-37414004D01*
X133548049Y-37343967D01*
X133632882Y-37246063D01*
X133686697Y-37128226D01*
X133705133Y-37000003D01*
X134044867Y-37000003D01*
X134063302Y-37128223D01*
X134117118Y-37246064D01*
X134137112Y-37269138D01*
X134201951Y-37343967D01*
X134310931Y-37414004D01*
X134435228Y-37450500D01*
X134435231Y-37450500D01*
X134564769Y-37450500D01*
X134564772Y-37450500D01*
X134689069Y-37414004D01*
X134798049Y-37343967D01*
X134882882Y-37246063D01*
X134936697Y-37128226D01*
X134955133Y-37000003D01*
X135294867Y-37000003D01*
X135313302Y-37128223D01*
X135367118Y-37246064D01*
X135387112Y-37269138D01*
X135451951Y-37343967D01*
X135560931Y-37414004D01*
X135685228Y-37450500D01*
X135685231Y-37450500D01*
X135814769Y-37450500D01*
X135814772Y-37450500D01*
X135939069Y-37414004D01*
X136048049Y-37343967D01*
X136132882Y-37246063D01*
X136186697Y-37128226D01*
X136205133Y-37000000D01*
X136205133Y-36999996D01*
X136186697Y-36871776D01*
X136186697Y-36871774D01*
X136132882Y-36753937D01*
X136132881Y-36753936D01*
X136132881Y-36753935D01*
X136086216Y-36700080D01*
X136048049Y-36656033D01*
X135939069Y-36585996D01*
X135814772Y-36549500D01*
X135685228Y-36549500D01*
X135560931Y-36585996D01*
X135560928Y-36585997D01*
X135560927Y-36585998D01*
X135451955Y-36656030D01*
X135451952Y-36656031D01*
X135451951Y-36656033D01*
X135451949Y-36656034D01*
X135451948Y-36656036D01*
X135367118Y-36753935D01*
X135313302Y-36871776D01*
X135294867Y-36999996D01*
X135294867Y-37000003D01*
X134955133Y-37000003D01*
X134955133Y-37000000D01*
X134955133Y-36999996D01*
X134936697Y-36871776D01*
X134936697Y-36871774D01*
X134882882Y-36753937D01*
X134882881Y-36753936D01*
X134882881Y-36753935D01*
X134836216Y-36700080D01*
X134798049Y-36656033D01*
X134689069Y-36585996D01*
X134564772Y-36549500D01*
X134435228Y-36549500D01*
X134310931Y-36585996D01*
X134310928Y-36585997D01*
X134310927Y-36585998D01*
X134201955Y-36656030D01*
X134201952Y-36656031D01*
X134201951Y-36656033D01*
X134201949Y-36656034D01*
X134201948Y-36656036D01*
X134117118Y-36753935D01*
X134063302Y-36871776D01*
X134044867Y-36999996D01*
X134044867Y-37000003D01*
X133705133Y-37000003D01*
X133705133Y-37000000D01*
X133705133Y-36999996D01*
X133686697Y-36871776D01*
X133686697Y-36871774D01*
X133632882Y-36753937D01*
X133632881Y-36753936D01*
X133632881Y-36753935D01*
X133586216Y-36700080D01*
X133548049Y-36656033D01*
X133439069Y-36585996D01*
X133314772Y-36549500D01*
X133185228Y-36549500D01*
X133060931Y-36585996D01*
X133060928Y-36585997D01*
X133060927Y-36585998D01*
X132951955Y-36656030D01*
X132951952Y-36656031D01*
X132951951Y-36656033D01*
X132951949Y-36656034D01*
X132951948Y-36656036D01*
X132867118Y-36753935D01*
X132813302Y-36871776D01*
X132794867Y-36999996D01*
X132794867Y-37000003D01*
X116455133Y-37000003D01*
X116455133Y-37000000D01*
X116455133Y-36999996D01*
X116436697Y-36871776D01*
X116436697Y-36871774D01*
X116382882Y-36753937D01*
X116382881Y-36753936D01*
X116382881Y-36753935D01*
X116336216Y-36700080D01*
X116298049Y-36656033D01*
X116189069Y-36585996D01*
X116064772Y-36549500D01*
X115935228Y-36549500D01*
X115810931Y-36585996D01*
X115810928Y-36585997D01*
X115810927Y-36585998D01*
X115701955Y-36656030D01*
X115701952Y-36656031D01*
X115701951Y-36656033D01*
X115701949Y-36656034D01*
X115701948Y-36656036D01*
X115617118Y-36753935D01*
X115563302Y-36871776D01*
X115544867Y-36999996D01*
X115544867Y-37000003D01*
X115205133Y-37000003D01*
X115205133Y-37000000D01*
X115205133Y-36999996D01*
X115186697Y-36871776D01*
X115186697Y-36871774D01*
X115132882Y-36753937D01*
X115132881Y-36753936D01*
X115132881Y-36753935D01*
X115086216Y-36700080D01*
X115048049Y-36656033D01*
X114939069Y-36585996D01*
X114814772Y-36549500D01*
X114685228Y-36549500D01*
X114560931Y-36585996D01*
X114560928Y-36585997D01*
X114560927Y-36585998D01*
X114451955Y-36656030D01*
X114451952Y-36656031D01*
X114451951Y-36656033D01*
X114451949Y-36656034D01*
X114451948Y-36656036D01*
X114367118Y-36753935D01*
X114313302Y-36871776D01*
X114294867Y-36999996D01*
X114294867Y-37000003D01*
X113955133Y-37000003D01*
X113955133Y-37000000D01*
X113955133Y-36999996D01*
X113936697Y-36871776D01*
X113936697Y-36871774D01*
X113882882Y-36753937D01*
X113882881Y-36753936D01*
X113882881Y-36753935D01*
X113836216Y-36700080D01*
X113798049Y-36656033D01*
X113689069Y-36585996D01*
X113564772Y-36549500D01*
X113435228Y-36549500D01*
X113310931Y-36585996D01*
X113310928Y-36585997D01*
X113310927Y-36585998D01*
X113201955Y-36656030D01*
X113201952Y-36656031D01*
X113201951Y-36656033D01*
X113201949Y-36656034D01*
X113201948Y-36656036D01*
X113117118Y-36753935D01*
X113063302Y-36871776D01*
X113044867Y-36999996D01*
X113044867Y-37000003D01*
X94800499Y-37000003D01*
X94800499Y-36000003D01*
X146544867Y-36000003D01*
X146563302Y-36128223D01*
X146617118Y-36246064D01*
X146637112Y-36269138D01*
X146701951Y-36343967D01*
X146810931Y-36414004D01*
X146935228Y-36450500D01*
X146935231Y-36450500D01*
X147064769Y-36450500D01*
X147064772Y-36450500D01*
X147189069Y-36414004D01*
X147298049Y-36343967D01*
X147382882Y-36246063D01*
X147436697Y-36128226D01*
X147455133Y-36000000D01*
X147455133Y-35999998D01*
X147455133Y-35999996D01*
X147436697Y-35871776D01*
X147436697Y-35871774D01*
X147382882Y-35753937D01*
X147382881Y-35753936D01*
X147382881Y-35753935D01*
X147336216Y-35700080D01*
X147298049Y-35656033D01*
X147189069Y-35585996D01*
X147064772Y-35549500D01*
X146935228Y-35549500D01*
X146810931Y-35585996D01*
X146810928Y-35585997D01*
X146810927Y-35585998D01*
X146701955Y-35656030D01*
X146701952Y-35656031D01*
X146701951Y-35656033D01*
X146701949Y-35656034D01*
X146701948Y-35656036D01*
X146617118Y-35753935D01*
X146563302Y-35871776D01*
X146544867Y-35999996D01*
X146544867Y-36000003D01*
X94800499Y-36000003D01*
X94800499Y-35830096D01*
X94794196Y-35717843D01*
X94759597Y-35534987D01*
X94752978Y-35500003D01*
X113044867Y-35500003D01*
X113063302Y-35628223D01*
X113117118Y-35746064D01*
X113172282Y-35809727D01*
X113201951Y-35843967D01*
X113310931Y-35914004D01*
X113435228Y-35950500D01*
X113435231Y-35950500D01*
X113564769Y-35950500D01*
X113564772Y-35950500D01*
X113689069Y-35914004D01*
X113798049Y-35843967D01*
X113882882Y-35746063D01*
X113936697Y-35628226D01*
X113948016Y-35549500D01*
X113955133Y-35500003D01*
X114294867Y-35500003D01*
X114313302Y-35628223D01*
X114367118Y-35746064D01*
X114422282Y-35809727D01*
X114451951Y-35843967D01*
X114560931Y-35914004D01*
X114685228Y-35950500D01*
X114685231Y-35950500D01*
X114814769Y-35950500D01*
X114814772Y-35950500D01*
X114939069Y-35914004D01*
X115048049Y-35843967D01*
X115132882Y-35746063D01*
X115186697Y-35628226D01*
X115198016Y-35549500D01*
X115205133Y-35500003D01*
X115544867Y-35500003D01*
X115563302Y-35628223D01*
X115617118Y-35746064D01*
X115672282Y-35809727D01*
X115701951Y-35843967D01*
X115810931Y-35914004D01*
X115935228Y-35950500D01*
X115935231Y-35950500D01*
X116064769Y-35950500D01*
X116064772Y-35950500D01*
X116189069Y-35914004D01*
X116298049Y-35843967D01*
X116382882Y-35746063D01*
X116436697Y-35628226D01*
X116448016Y-35549500D01*
X116455133Y-35500003D01*
X132794867Y-35500003D01*
X132813302Y-35628223D01*
X132867118Y-35746064D01*
X132922282Y-35809727D01*
X132951951Y-35843967D01*
X133060931Y-35914004D01*
X133185228Y-35950500D01*
X133185231Y-35950500D01*
X133314769Y-35950500D01*
X133314772Y-35950500D01*
X133439069Y-35914004D01*
X133548049Y-35843967D01*
X133632882Y-35746063D01*
X133686697Y-35628226D01*
X133698016Y-35549500D01*
X133705133Y-35500003D01*
X134044867Y-35500003D01*
X134063302Y-35628223D01*
X134117118Y-35746064D01*
X134172282Y-35809727D01*
X134201951Y-35843967D01*
X134310931Y-35914004D01*
X134435228Y-35950500D01*
X134435231Y-35950500D01*
X134564769Y-35950500D01*
X134564772Y-35950500D01*
X134689069Y-35914004D01*
X134798049Y-35843967D01*
X134882882Y-35746063D01*
X134936697Y-35628226D01*
X134948016Y-35549500D01*
X134955133Y-35500003D01*
X135294867Y-35500003D01*
X135313302Y-35628223D01*
X135367118Y-35746064D01*
X135422282Y-35809727D01*
X135451951Y-35843967D01*
X135560931Y-35914004D01*
X135685228Y-35950500D01*
X135685231Y-35950500D01*
X135814769Y-35950500D01*
X135814772Y-35950500D01*
X135939069Y-35914004D01*
X136048049Y-35843967D01*
X136132882Y-35746063D01*
X136186697Y-35628226D01*
X136198016Y-35549500D01*
X136205133Y-35500003D01*
X136205133Y-35499996D01*
X136186697Y-35371776D01*
X136186697Y-35371774D01*
X136132882Y-35253937D01*
X136132881Y-35253936D01*
X136132881Y-35253935D01*
X136084390Y-35197973D01*
X136048049Y-35156033D01*
X135939069Y-35085996D01*
X135814772Y-35049500D01*
X135685228Y-35049500D01*
X135560931Y-35085996D01*
X135560928Y-35085997D01*
X135560927Y-35085998D01*
X135451955Y-35156030D01*
X135451952Y-35156031D01*
X135451951Y-35156033D01*
X135451949Y-35156034D01*
X135451948Y-35156036D01*
X135367118Y-35253935D01*
X135313302Y-35371776D01*
X135294867Y-35499996D01*
X135294867Y-35500003D01*
X134955133Y-35500003D01*
X134955133Y-35499996D01*
X134936697Y-35371776D01*
X134936697Y-35371774D01*
X134882882Y-35253937D01*
X134882881Y-35253936D01*
X134882881Y-35253935D01*
X134834390Y-35197973D01*
X134798049Y-35156033D01*
X134689069Y-35085996D01*
X134564772Y-35049500D01*
X134435228Y-35049500D01*
X134310931Y-35085996D01*
X134310928Y-35085997D01*
X134310927Y-35085998D01*
X134201955Y-35156030D01*
X134201952Y-35156031D01*
X134201951Y-35156033D01*
X134201949Y-35156034D01*
X134201948Y-35156036D01*
X134117118Y-35253935D01*
X134063302Y-35371776D01*
X134044867Y-35499996D01*
X134044867Y-35500003D01*
X133705133Y-35500003D01*
X133705133Y-35499996D01*
X133686697Y-35371776D01*
X133686697Y-35371774D01*
X133632882Y-35253937D01*
X133632881Y-35253936D01*
X133632881Y-35253935D01*
X133584390Y-35197973D01*
X133548049Y-35156033D01*
X133439069Y-35085996D01*
X133314772Y-35049500D01*
X133185228Y-35049500D01*
X133060931Y-35085996D01*
X133060928Y-35085997D01*
X133060927Y-35085998D01*
X132951955Y-35156030D01*
X132951952Y-35156031D01*
X132951951Y-35156033D01*
X132951949Y-35156034D01*
X132951948Y-35156036D01*
X132867118Y-35253935D01*
X132813302Y-35371776D01*
X132794867Y-35499996D01*
X132794867Y-35500003D01*
X116455133Y-35500003D01*
X116455133Y-35499996D01*
X116436697Y-35371776D01*
X116436697Y-35371774D01*
X116382882Y-35253937D01*
X116382881Y-35253936D01*
X116382881Y-35253935D01*
X116334390Y-35197973D01*
X116298049Y-35156033D01*
X116189069Y-35085996D01*
X116064772Y-35049500D01*
X115935228Y-35049500D01*
X115810931Y-35085996D01*
X115810928Y-35085997D01*
X115810927Y-35085998D01*
X115701955Y-35156030D01*
X115701952Y-35156031D01*
X115701951Y-35156033D01*
X115701949Y-35156034D01*
X115701948Y-35156036D01*
X115617118Y-35253935D01*
X115563302Y-35371776D01*
X115544867Y-35499996D01*
X115544867Y-35500003D01*
X115205133Y-35500003D01*
X115205133Y-35499996D01*
X115186697Y-35371776D01*
X115186697Y-35371774D01*
X115132882Y-35253937D01*
X115132881Y-35253936D01*
X115132881Y-35253935D01*
X115084390Y-35197973D01*
X115048049Y-35156033D01*
X114939069Y-35085996D01*
X114814772Y-35049500D01*
X114685228Y-35049500D01*
X114560931Y-35085996D01*
X114560928Y-35085997D01*
X114560927Y-35085998D01*
X114451955Y-35156030D01*
X114451952Y-35156031D01*
X114451951Y-35156033D01*
X114451949Y-35156034D01*
X114451948Y-35156036D01*
X114367118Y-35253935D01*
X114313302Y-35371776D01*
X114294867Y-35499996D01*
X114294867Y-35500003D01*
X113955133Y-35500003D01*
X113955133Y-35499996D01*
X113936697Y-35371776D01*
X113936697Y-35371774D01*
X113882882Y-35253937D01*
X113882881Y-35253936D01*
X113882881Y-35253935D01*
X113834390Y-35197973D01*
X113798049Y-35156033D01*
X113689069Y-35085996D01*
X113564772Y-35049500D01*
X113435228Y-35049500D01*
X113310931Y-35085996D01*
X113310928Y-35085997D01*
X113310927Y-35085998D01*
X113201955Y-35156030D01*
X113201952Y-35156031D01*
X113201951Y-35156033D01*
X113201949Y-35156034D01*
X113201948Y-35156036D01*
X113117118Y-35253935D01*
X113063302Y-35371776D01*
X113044867Y-35499996D01*
X113044867Y-35500003D01*
X94752978Y-35500003D01*
X94744027Y-35452694D01*
X94744026Y-35452690D01*
X94654898Y-35197975D01*
X94528802Y-34959390D01*
X94374267Y-34750003D01*
X150794867Y-34750003D01*
X150813302Y-34878223D01*
X150867118Y-34996064D01*
X150913421Y-35049500D01*
X150951951Y-35093967D01*
X151060931Y-35164004D01*
X151185228Y-35200500D01*
X151185231Y-35200500D01*
X151314769Y-35200500D01*
X151314772Y-35200500D01*
X151439069Y-35164004D01*
X151548049Y-35093967D01*
X151632882Y-34996063D01*
X151686697Y-34878226D01*
X151705133Y-34750003D01*
X152794867Y-34750003D01*
X152813302Y-34878223D01*
X152867118Y-34996064D01*
X152913421Y-35049500D01*
X152951951Y-35093967D01*
X153060931Y-35164004D01*
X153185228Y-35200500D01*
X153185231Y-35200500D01*
X153314769Y-35200500D01*
X153314772Y-35200500D01*
X153439069Y-35164004D01*
X153548049Y-35093967D01*
X153632882Y-34996063D01*
X153686697Y-34878226D01*
X153705133Y-34750000D01*
X153705133Y-34749996D01*
X153686697Y-34621776D01*
X153686697Y-34621774D01*
X153632882Y-34503937D01*
X153632881Y-34503936D01*
X153632881Y-34503935D01*
X153586216Y-34450080D01*
X153548049Y-34406033D01*
X153439069Y-34335996D01*
X153314772Y-34299500D01*
X153185228Y-34299500D01*
X153060931Y-34335996D01*
X153060928Y-34335997D01*
X153060927Y-34335998D01*
X152951955Y-34406030D01*
X152951952Y-34406031D01*
X152951951Y-34406033D01*
X152951949Y-34406034D01*
X152951948Y-34406036D01*
X152867118Y-34503935D01*
X152813302Y-34621776D01*
X152794867Y-34749996D01*
X152794867Y-34750003D01*
X151705133Y-34750003D01*
X151705133Y-34750000D01*
X151705133Y-34749996D01*
X151686697Y-34621776D01*
X151686697Y-34621774D01*
X151632882Y-34503937D01*
X151632881Y-34503936D01*
X151632881Y-34503935D01*
X151586216Y-34450080D01*
X151548049Y-34406033D01*
X151439069Y-34335996D01*
X151314772Y-34299500D01*
X151185228Y-34299500D01*
X151060931Y-34335996D01*
X151060928Y-34335997D01*
X151060927Y-34335998D01*
X150951955Y-34406030D01*
X150951952Y-34406031D01*
X150951951Y-34406033D01*
X150951949Y-34406034D01*
X150951948Y-34406036D01*
X150867118Y-34503935D01*
X150813302Y-34621776D01*
X150794867Y-34749996D01*
X150794867Y-34750003D01*
X94374267Y-34750003D01*
X94368555Y-34742263D01*
X94177737Y-34551445D01*
X94162811Y-34540429D01*
X93960612Y-34391199D01*
X93960608Y-34391197D01*
X93722025Y-34265102D01*
X93538143Y-34200759D01*
X93467305Y-34175972D01*
X93202161Y-34125804D01*
X93146031Y-34122652D01*
X93089905Y-34119500D01*
X93089901Y-34119500D01*
X89910107Y-34119500D01*
X89910091Y-34119501D01*
X89839937Y-34123440D01*
X89797843Y-34125804D01*
X89797837Y-34125805D01*
X89797830Y-34125806D01*
X89532694Y-34175972D01*
X89362880Y-34235392D01*
X89277975Y-34265102D01*
X89277973Y-34265102D01*
X89277973Y-34265103D01*
X89039391Y-34391197D01*
X89039387Y-34391199D01*
X88822262Y-34551445D01*
X88631445Y-34742262D01*
X88471199Y-34959387D01*
X88471197Y-34959391D01*
X88367269Y-35156033D01*
X88345102Y-35197975D01*
X88325521Y-35253935D01*
X88255972Y-35452694D01*
X88205804Y-35717838D01*
X88199500Y-35830092D01*
X88199500Y-39009892D01*
X79957537Y-39009892D01*
X80027625Y-38980861D01*
X80142621Y-38892621D01*
X80230861Y-38777625D01*
X80286330Y-38643709D01*
X80286330Y-38643708D01*
X80286331Y-38643706D01*
X80305250Y-38500002D01*
X80305250Y-38499997D01*
X80286331Y-38356293D01*
X80230861Y-38222374D01*
X80155876Y-38124653D01*
X80142621Y-38107379D01*
X80114754Y-38085996D01*
X80027625Y-38019138D01*
X79893706Y-37963668D01*
X79750003Y-37944750D01*
X79749997Y-37944750D01*
X79606293Y-37963668D01*
X79472374Y-38019138D01*
X79357381Y-38107377D01*
X79357377Y-38107381D01*
X79269138Y-38222374D01*
X79213668Y-38356293D01*
X79194750Y-38499997D01*
X79194750Y-38500002D01*
X55939336Y-38500002D01*
X56671657Y-37767682D01*
X56671656Y-37767681D01*
X56639668Y-37750002D01*
X74944750Y-37750002D01*
X74963668Y-37893706D01*
X75019138Y-38027625D01*
X75063930Y-38085998D01*
X75107379Y-38142621D01*
X75124854Y-38156030D01*
X75222374Y-38230861D01*
X75356293Y-38286331D01*
X75499997Y-38305250D01*
X75500000Y-38305250D01*
X75500003Y-38305250D01*
X75643706Y-38286331D01*
X75643708Y-38286330D01*
X75643709Y-38286330D01*
X75777625Y-38230861D01*
X75892621Y-38142621D01*
X75980861Y-38027625D01*
X76036330Y-37893709D01*
X76036330Y-37893708D01*
X76036331Y-37893706D01*
X76055250Y-37750002D01*
X83444750Y-37750002D01*
X83463668Y-37893706D01*
X83519138Y-38027625D01*
X83563930Y-38085998D01*
X83607379Y-38142621D01*
X83624854Y-38156030D01*
X83722374Y-38230861D01*
X83856293Y-38286331D01*
X83999997Y-38305250D01*
X84000000Y-38305250D01*
X84000003Y-38305250D01*
X84143706Y-38286331D01*
X84143708Y-38286330D01*
X84143709Y-38286330D01*
X84277625Y-38230861D01*
X84392621Y-38142621D01*
X84480861Y-38027625D01*
X84536330Y-37893709D01*
X84536330Y-37893708D01*
X84536331Y-37893706D01*
X84555250Y-37750002D01*
X84555250Y-37749997D01*
X84536331Y-37606293D01*
X84480861Y-37472374D01*
X84409079Y-37378828D01*
X84392621Y-37357379D01*
X84324686Y-37305250D01*
X84277625Y-37269138D01*
X84143706Y-37213668D01*
X84000003Y-37194750D01*
X83999997Y-37194750D01*
X83856293Y-37213668D01*
X83722374Y-37269138D01*
X83607381Y-37357377D01*
X83607377Y-37357381D01*
X83519138Y-37472374D01*
X83463668Y-37606293D01*
X83444750Y-37749997D01*
X83444750Y-37750002D01*
X76055250Y-37750002D01*
X76055250Y-37749997D01*
X76036331Y-37606293D01*
X75980861Y-37472374D01*
X75909079Y-37378828D01*
X75892621Y-37357379D01*
X75824686Y-37305250D01*
X75777625Y-37269138D01*
X75643706Y-37213668D01*
X75500003Y-37194750D01*
X75499997Y-37194750D01*
X75356293Y-37213668D01*
X75222374Y-37269138D01*
X75107381Y-37357377D01*
X75107377Y-37357381D01*
X75019138Y-37472374D01*
X74963668Y-37606293D01*
X74944750Y-37749997D01*
X74944750Y-37750002D01*
X56639668Y-37750002D01*
X56390625Y-37612361D01*
X56390621Y-37612359D01*
X56058568Y-37474817D01*
X56058563Y-37474816D01*
X55713181Y-37375313D01*
X55358854Y-37315111D01*
X55000000Y-37294958D01*
X54641145Y-37315111D01*
X54286818Y-37375313D01*
X53941436Y-37474816D01*
X53941431Y-37474817D01*
X53609383Y-37612357D01*
X53328342Y-37767682D01*
X54735694Y-39175034D01*
X54683874Y-39183242D01*
X54481780Y-39248906D01*
X54292446Y-39345377D01*
X54120534Y-39470278D01*
X53970278Y-39620534D01*
X53845377Y-39792446D01*
X53748906Y-39981780D01*
X53683242Y-40183874D01*
X53675034Y-40235694D01*
X52267682Y-38828342D01*
X52112357Y-39109383D01*
X51974817Y-39441431D01*
X51974816Y-39441436D01*
X51875313Y-39786818D01*
X51815111Y-40141145D01*
X51794958Y-40500000D01*
X46353903Y-40500000D01*
X42603905Y-36750002D01*
X64694750Y-36750002D01*
X64713668Y-36893706D01*
X64769138Y-37027625D01*
X64830612Y-37107738D01*
X64857379Y-37142621D01*
X64904602Y-37178857D01*
X64972374Y-37230861D01*
X65106293Y-37286331D01*
X65249997Y-37305250D01*
X65250000Y-37305250D01*
X65250003Y-37305250D01*
X65393706Y-37286331D01*
X65393708Y-37286330D01*
X65393709Y-37286330D01*
X65527625Y-37230861D01*
X65642621Y-37142621D01*
X65730861Y-37027625D01*
X65786330Y-36893709D01*
X65786330Y-36893708D01*
X65786331Y-36893706D01*
X65805250Y-36750002D01*
X67444750Y-36750002D01*
X67463668Y-36893706D01*
X67519138Y-37027625D01*
X67580612Y-37107738D01*
X67607379Y-37142621D01*
X67654602Y-37178857D01*
X67722374Y-37230861D01*
X67856293Y-37286331D01*
X67999997Y-37305250D01*
X68000000Y-37305250D01*
X68000003Y-37305250D01*
X68143706Y-37286331D01*
X68143708Y-37286330D01*
X68143709Y-37286330D01*
X68277625Y-37230861D01*
X68392621Y-37142621D01*
X68480861Y-37027625D01*
X68536330Y-36893709D01*
X68536330Y-36893708D01*
X68536331Y-36893706D01*
X68555250Y-36750002D01*
X70444750Y-36750002D01*
X70463668Y-36893706D01*
X70519138Y-37027625D01*
X70580612Y-37107738D01*
X70607379Y-37142621D01*
X70654602Y-37178857D01*
X70722374Y-37230861D01*
X70856293Y-37286331D01*
X70999997Y-37305250D01*
X71000000Y-37305250D01*
X71000003Y-37305250D01*
X71143706Y-37286331D01*
X71143708Y-37286330D01*
X71143709Y-37286330D01*
X71277625Y-37230861D01*
X71392621Y-37142621D01*
X71480861Y-37027625D01*
X71536330Y-36893709D01*
X71536330Y-36893708D01*
X71536331Y-36893706D01*
X71555250Y-36750002D01*
X71555250Y-36749997D01*
X71536331Y-36606293D01*
X71480861Y-36472374D01*
X71397535Y-36363783D01*
X71392621Y-36357379D01*
X71365945Y-36336910D01*
X71277625Y-36269138D01*
X71143706Y-36213668D01*
X71000003Y-36194750D01*
X70999997Y-36194750D01*
X70856293Y-36213668D01*
X70722374Y-36269138D01*
X70607381Y-36357377D01*
X70607377Y-36357381D01*
X70519138Y-36472374D01*
X70463668Y-36606293D01*
X70444750Y-36749997D01*
X70444750Y-36750002D01*
X68555250Y-36750002D01*
X68555250Y-36749997D01*
X68536331Y-36606293D01*
X68480861Y-36472374D01*
X68397535Y-36363783D01*
X68392621Y-36357379D01*
X68365945Y-36336910D01*
X68277625Y-36269138D01*
X68143706Y-36213668D01*
X68000003Y-36194750D01*
X67999997Y-36194750D01*
X67856293Y-36213668D01*
X67722374Y-36269138D01*
X67607381Y-36357377D01*
X67607377Y-36357381D01*
X67519138Y-36472374D01*
X67463668Y-36606293D01*
X67444750Y-36749997D01*
X67444750Y-36750002D01*
X65805250Y-36750002D01*
X65805250Y-36749997D01*
X65786331Y-36606293D01*
X65730861Y-36472374D01*
X65647535Y-36363783D01*
X65642621Y-36357379D01*
X65615945Y-36336910D01*
X65527625Y-36269138D01*
X65393706Y-36213668D01*
X65250003Y-36194750D01*
X65249997Y-36194750D01*
X65106293Y-36213668D01*
X64972374Y-36269138D01*
X64857381Y-36357377D01*
X64857377Y-36357381D01*
X64769138Y-36472374D01*
X64713668Y-36606293D01*
X64694750Y-36749997D01*
X64694750Y-36750002D01*
X42603905Y-36750002D01*
X41853904Y-36000001D01*
X76594357Y-36000001D01*
X76614891Y-36247816D01*
X76614891Y-36247819D01*
X76614892Y-36247821D01*
X76642636Y-36357379D01*
X76675937Y-36488882D01*
X76775827Y-36716607D01*
X76911837Y-36924787D01*
X77080256Y-37107738D01*
X77276491Y-37260474D01*
X77276492Y-37260474D01*
X77276494Y-37260476D01*
X77495184Y-37378825D01*
X77495190Y-37378828D01*
X77703960Y-37450499D01*
X77730386Y-37459571D01*
X77730390Y-37459572D01*
X77800359Y-37471247D01*
X77975665Y-37500500D01*
X77975667Y-37500500D01*
X78224333Y-37500500D01*
X78224335Y-37500500D01*
X78434750Y-37465388D01*
X78469609Y-37459572D01*
X78469610Y-37459571D01*
X78469614Y-37459571D01*
X78704810Y-37378828D01*
X78923509Y-37260474D01*
X79119744Y-37107738D01*
X79288164Y-36924785D01*
X79424173Y-36716607D01*
X79524063Y-36488881D01*
X79585108Y-36247821D01*
X79605643Y-36000001D01*
X79994357Y-36000001D01*
X80014891Y-36247816D01*
X80014891Y-36247819D01*
X80014892Y-36247821D01*
X80042636Y-36357379D01*
X80075937Y-36488882D01*
X80175827Y-36716607D01*
X80311837Y-36924787D01*
X80480256Y-37107738D01*
X80676491Y-37260474D01*
X80676492Y-37260474D01*
X80676494Y-37260476D01*
X80895184Y-37378825D01*
X80895190Y-37378828D01*
X81103960Y-37450499D01*
X81130386Y-37459571D01*
X81130390Y-37459572D01*
X81200359Y-37471247D01*
X81375665Y-37500500D01*
X81375667Y-37500500D01*
X81624333Y-37500500D01*
X81624335Y-37500500D01*
X81834750Y-37465388D01*
X81869609Y-37459572D01*
X81869610Y-37459571D01*
X81869614Y-37459571D01*
X82104810Y-37378828D01*
X82323509Y-37260474D01*
X82519744Y-37107738D01*
X82688164Y-36924785D01*
X82824173Y-36716607D01*
X82924063Y-36488881D01*
X82985108Y-36247821D01*
X83005643Y-36000000D01*
X82985108Y-35752179D01*
X82924063Y-35511119D01*
X82824173Y-35283393D01*
X82688164Y-35075215D01*
X82688163Y-35075214D01*
X82688162Y-35075212D01*
X82519743Y-34892261D01*
X82323510Y-34739527D01*
X82323505Y-34739523D01*
X82104815Y-34621174D01*
X82104811Y-34621172D01*
X81869613Y-34540428D01*
X81869609Y-34540427D01*
X81624335Y-34499500D01*
X81375665Y-34499500D01*
X81375664Y-34499500D01*
X81130390Y-34540427D01*
X81130386Y-34540428D01*
X80895188Y-34621172D01*
X80895184Y-34621174D01*
X80676494Y-34739523D01*
X80676489Y-34739527D01*
X80480256Y-34892261D01*
X80311837Y-35075212D01*
X80175827Y-35283392D01*
X80075937Y-35511117D01*
X80014891Y-35752183D01*
X79994357Y-35999998D01*
X79994357Y-36000001D01*
X79605643Y-36000001D01*
X79605643Y-36000000D01*
X79585108Y-35752179D01*
X79524063Y-35511119D01*
X79424173Y-35283393D01*
X79288164Y-35075215D01*
X79288163Y-35075214D01*
X79288162Y-35075212D01*
X79119743Y-34892261D01*
X78923510Y-34739527D01*
X78923505Y-34739523D01*
X78704815Y-34621174D01*
X78704811Y-34621172D01*
X78469613Y-34540428D01*
X78469609Y-34540427D01*
X78224335Y-34499500D01*
X77975665Y-34499500D01*
X77975664Y-34499500D01*
X77730390Y-34540427D01*
X77730386Y-34540428D01*
X77495188Y-34621172D01*
X77495184Y-34621174D01*
X77276494Y-34739523D01*
X77276489Y-34739527D01*
X77080256Y-34892261D01*
X76911837Y-35075212D01*
X76775827Y-35283392D01*
X76675937Y-35511117D01*
X76614891Y-35752183D01*
X76594357Y-35999998D01*
X76594357Y-36000001D01*
X41853904Y-36000001D01*
X39353905Y-33500002D01*
X64694750Y-33500002D01*
X64713668Y-33643706D01*
X64769138Y-33777625D01*
X64829502Y-33856291D01*
X64857379Y-33892621D01*
X64904602Y-33928857D01*
X64972374Y-33980861D01*
X65106293Y-34036331D01*
X65249997Y-34055250D01*
X65250000Y-34055250D01*
X65250003Y-34055250D01*
X65393706Y-34036331D01*
X65393708Y-34036330D01*
X65393709Y-34036330D01*
X65527625Y-33980861D01*
X65642621Y-33892621D01*
X65730861Y-33777625D01*
X65786330Y-33643709D01*
X65786330Y-33643708D01*
X65786331Y-33643706D01*
X65805250Y-33500002D01*
X67444750Y-33500002D01*
X67463668Y-33643706D01*
X67519138Y-33777625D01*
X67579502Y-33856291D01*
X67607379Y-33892621D01*
X67654602Y-33928857D01*
X67722374Y-33980861D01*
X67856293Y-34036331D01*
X67999997Y-34055250D01*
X68000000Y-34055250D01*
X68000003Y-34055250D01*
X68143706Y-34036331D01*
X68143708Y-34036330D01*
X68143709Y-34036330D01*
X68277625Y-33980861D01*
X68392621Y-33892621D01*
X68480861Y-33777625D01*
X68536330Y-33643709D01*
X68536330Y-33643708D01*
X68536331Y-33643706D01*
X68555250Y-33500002D01*
X70444750Y-33500002D01*
X70463668Y-33643706D01*
X70519138Y-33777625D01*
X70579502Y-33856291D01*
X70607379Y-33892621D01*
X70654602Y-33928857D01*
X70722374Y-33980861D01*
X70856293Y-34036331D01*
X70999997Y-34055250D01*
X71000000Y-34055250D01*
X71000003Y-34055250D01*
X71143706Y-34036331D01*
X71143708Y-34036330D01*
X71143709Y-34036330D01*
X71231414Y-34000002D01*
X74944750Y-34000002D01*
X74963668Y-34143706D01*
X75019138Y-34277625D01*
X75063930Y-34335998D01*
X75107379Y-34392621D01*
X75124854Y-34406030D01*
X75222374Y-34480861D01*
X75356293Y-34536331D01*
X75499997Y-34555250D01*
X75500000Y-34555250D01*
X75500003Y-34555250D01*
X75643706Y-34536331D01*
X75643708Y-34536330D01*
X75643709Y-34536330D01*
X75777625Y-34480861D01*
X75892621Y-34392621D01*
X75980861Y-34277625D01*
X76036330Y-34143709D01*
X76036330Y-34143708D01*
X76036331Y-34143706D01*
X76055250Y-34000002D01*
X79194750Y-34000002D01*
X79213668Y-34143706D01*
X79269138Y-34277625D01*
X79313930Y-34335998D01*
X79357379Y-34392621D01*
X79374854Y-34406030D01*
X79472374Y-34480861D01*
X79606293Y-34536331D01*
X79749997Y-34555250D01*
X79750000Y-34555250D01*
X79750003Y-34555250D01*
X79893706Y-34536331D01*
X79893708Y-34536330D01*
X79893709Y-34536330D01*
X80027625Y-34480861D01*
X80142621Y-34392621D01*
X80230861Y-34277625D01*
X80286330Y-34143709D01*
X80286330Y-34143708D01*
X80286331Y-34143706D01*
X80305250Y-34000002D01*
X83444750Y-34000002D01*
X83463668Y-34143706D01*
X83519138Y-34277625D01*
X83563930Y-34335998D01*
X83607379Y-34392621D01*
X83624854Y-34406030D01*
X83722374Y-34480861D01*
X83856293Y-34536331D01*
X83999997Y-34555250D01*
X84000000Y-34555250D01*
X84000003Y-34555250D01*
X84143706Y-34536331D01*
X84143708Y-34536330D01*
X84143709Y-34536330D01*
X84277625Y-34480861D01*
X84392621Y-34392621D01*
X84480861Y-34277625D01*
X84536330Y-34143709D01*
X84536330Y-34143708D01*
X84536331Y-34143706D01*
X84555250Y-34000002D01*
X84555250Y-33999997D01*
X84536331Y-33856293D01*
X84480861Y-33722374D01*
X84420496Y-33643706D01*
X84392621Y-33607379D01*
X84365945Y-33586910D01*
X84277625Y-33519138D01*
X84143706Y-33463668D01*
X84000003Y-33444750D01*
X83999997Y-33444750D01*
X83856293Y-33463668D01*
X83722374Y-33519138D01*
X83607381Y-33607377D01*
X83607377Y-33607381D01*
X83519138Y-33722374D01*
X83463668Y-33856293D01*
X83444750Y-33999997D01*
X83444750Y-34000002D01*
X80305250Y-34000002D01*
X80305250Y-33999997D01*
X80286331Y-33856293D01*
X80230861Y-33722374D01*
X80170496Y-33643706D01*
X80142621Y-33607379D01*
X80115945Y-33586910D01*
X80027625Y-33519138D01*
X79893706Y-33463668D01*
X79750003Y-33444750D01*
X79749997Y-33444750D01*
X79606293Y-33463668D01*
X79472374Y-33519138D01*
X79357381Y-33607377D01*
X79357377Y-33607381D01*
X79269138Y-33722374D01*
X79213668Y-33856293D01*
X79194750Y-33999997D01*
X79194750Y-34000002D01*
X76055250Y-34000002D01*
X76055250Y-33999997D01*
X76036331Y-33856293D01*
X75980861Y-33722374D01*
X75920496Y-33643706D01*
X75892621Y-33607379D01*
X75865945Y-33586910D01*
X75777625Y-33519138D01*
X75643706Y-33463668D01*
X75500003Y-33444750D01*
X75499997Y-33444750D01*
X75356293Y-33463668D01*
X75222374Y-33519138D01*
X75107381Y-33607377D01*
X75107377Y-33607381D01*
X75019138Y-33722374D01*
X74963668Y-33856293D01*
X74944750Y-33999997D01*
X74944750Y-34000002D01*
X71231414Y-34000002D01*
X71277625Y-33980861D01*
X71392621Y-33892621D01*
X71480861Y-33777625D01*
X71536330Y-33643709D01*
X71536330Y-33643708D01*
X71536331Y-33643706D01*
X71555250Y-33500002D01*
X71555250Y-33499997D01*
X71536331Y-33356293D01*
X71480861Y-33222374D01*
X71428857Y-33154602D01*
X71392621Y-33107379D01*
X71365945Y-33086910D01*
X71277625Y-33019138D01*
X71143706Y-32963668D01*
X71000003Y-32944750D01*
X70999997Y-32944750D01*
X70856293Y-32963668D01*
X70722374Y-33019138D01*
X70607381Y-33107377D01*
X70607377Y-33107381D01*
X70519138Y-33222374D01*
X70463668Y-33356293D01*
X70444750Y-33499997D01*
X70444750Y-33500002D01*
X68555250Y-33500002D01*
X68555250Y-33499997D01*
X68536331Y-33356293D01*
X68480861Y-33222374D01*
X68428857Y-33154602D01*
X68392621Y-33107379D01*
X68365945Y-33086910D01*
X68277625Y-33019138D01*
X68143706Y-32963668D01*
X68000003Y-32944750D01*
X67999997Y-32944750D01*
X67856293Y-32963668D01*
X67722374Y-33019138D01*
X67607381Y-33107377D01*
X67607377Y-33107381D01*
X67519138Y-33222374D01*
X67463668Y-33356293D01*
X67444750Y-33499997D01*
X67444750Y-33500002D01*
X65805250Y-33500002D01*
X65805250Y-33499997D01*
X65786331Y-33356293D01*
X65730861Y-33222374D01*
X65678857Y-33154602D01*
X65642621Y-33107379D01*
X65615945Y-33086910D01*
X65527625Y-33019138D01*
X65393706Y-32963668D01*
X65250003Y-32944750D01*
X65249997Y-32944750D01*
X65106293Y-32963668D01*
X64972374Y-33019138D01*
X64857381Y-33107377D01*
X64857377Y-33107381D01*
X64769138Y-33222374D01*
X64713668Y-33356293D01*
X64694750Y-33499997D01*
X64694750Y-33500002D01*
X39353905Y-33500002D01*
X37853905Y-32000002D01*
X76944750Y-32000002D01*
X76963668Y-32143706D01*
X77019138Y-32277625D01*
X77086910Y-32365945D01*
X77107379Y-32392621D01*
X77154602Y-32428857D01*
X77222374Y-32480861D01*
X77356293Y-32536331D01*
X77499997Y-32555250D01*
X77500000Y-32555250D01*
X77500003Y-32555250D01*
X77643706Y-32536331D01*
X77643708Y-32536330D01*
X77643709Y-32536330D01*
X77777625Y-32480861D01*
X77892621Y-32392621D01*
X77980861Y-32277625D01*
X78036330Y-32143709D01*
X78036330Y-32143708D01*
X78036331Y-32143706D01*
X78055250Y-32000002D01*
X81694750Y-32000002D01*
X81713668Y-32143706D01*
X81769138Y-32277625D01*
X81836910Y-32365945D01*
X81857379Y-32392621D01*
X81904602Y-32428857D01*
X81972374Y-32480861D01*
X82106293Y-32536331D01*
X82249997Y-32555250D01*
X82250000Y-32555250D01*
X82250003Y-32555250D01*
X82393706Y-32536331D01*
X82393708Y-32536330D01*
X82393709Y-32536330D01*
X82527625Y-32480861D01*
X82642621Y-32392621D01*
X82730861Y-32277625D01*
X82786330Y-32143709D01*
X82786330Y-32143708D01*
X82786331Y-32143706D01*
X82805250Y-32000002D01*
X82805250Y-31999997D01*
X82786331Y-31856293D01*
X82730861Y-31722374D01*
X82678857Y-31654602D01*
X82642621Y-31607379D01*
X82615945Y-31586910D01*
X82527625Y-31519138D01*
X82393706Y-31463668D01*
X82250003Y-31444750D01*
X82249997Y-31444750D01*
X82106293Y-31463668D01*
X81972374Y-31519138D01*
X81857381Y-31607377D01*
X81857377Y-31607381D01*
X81769138Y-31722374D01*
X81713668Y-31856293D01*
X81694750Y-31999997D01*
X81694750Y-32000002D01*
X78055250Y-32000002D01*
X78055250Y-31999997D01*
X78036331Y-31856293D01*
X77980861Y-31722374D01*
X77928857Y-31654602D01*
X77892621Y-31607379D01*
X77865945Y-31586910D01*
X77777625Y-31519138D01*
X77643706Y-31463668D01*
X77500003Y-31444750D01*
X77499997Y-31444750D01*
X77356293Y-31463668D01*
X77222374Y-31519138D01*
X77107381Y-31607377D01*
X77107377Y-31607381D01*
X77019138Y-31722374D01*
X76963668Y-31856293D01*
X76944750Y-31999997D01*
X76944750Y-32000002D01*
X37853905Y-32000002D01*
X35720870Y-29866967D01*
X35719694Y-29865778D01*
X35575508Y-29718319D01*
X35567581Y-29709540D01*
X35301925Y-29390771D01*
X35293762Y-29380021D01*
X35073534Y-29060963D01*
X35059477Y-29040598D01*
X35052325Y-29029160D01*
X35051654Y-29027971D01*
X34849710Y-28669910D01*
X34843622Y-28657871D01*
X34782448Y-28521946D01*
X34674354Y-28281769D01*
X34669386Y-28269243D01*
X34534843Y-27879344D01*
X34531028Y-27866414D01*
X34432329Y-27465976D01*
X34429697Y-27452745D01*
X34424713Y-27419994D01*
X34367636Y-27044965D01*
X34366215Y-27031564D01*
X34341315Y-26619896D01*
X34341111Y-26606404D01*
X34343053Y-26542144D01*
X36195153Y-26542144D01*
X36214525Y-26899444D01*
X36214526Y-26899453D01*
X36272417Y-27252578D01*
X36272418Y-27252583D01*
X36368150Y-27597374D01*
X36500600Y-27929800D01*
X36500606Y-27929813D01*
X36668214Y-28245957D01*
X36869040Y-28542152D01*
X36869044Y-28542157D01*
X36996441Y-28692138D01*
X36996442Y-28692138D01*
X38205747Y-27482832D01*
X38279588Y-27584466D01*
X38457670Y-27762548D01*
X38559301Y-27836387D01*
X37347256Y-29048432D01*
X37360480Y-29060959D01*
X37645360Y-29277520D01*
X37951976Y-29462005D01*
X38276752Y-29612262D01*
X38276762Y-29612267D01*
X38615857Y-29726520D01*
X38615871Y-29726524D01*
X38965319Y-29803443D01*
X38965333Y-29803446D01*
X39321078Y-29842135D01*
X39321088Y-29842136D01*
X39678912Y-29842136D01*
X39678921Y-29842135D01*
X40034666Y-29803446D01*
X40034680Y-29803443D01*
X40384128Y-29726524D01*
X40384142Y-29726520D01*
X40723237Y-29612267D01*
X40723247Y-29612262D01*
X41048023Y-29462005D01*
X41354639Y-29277520D01*
X41639514Y-29060963D01*
X41652742Y-29048432D01*
X40440698Y-27836387D01*
X40542330Y-27762548D01*
X40720412Y-27584466D01*
X40794252Y-27482834D01*
X42003557Y-28692139D01*
X42003558Y-28692139D01*
X42130955Y-28542157D01*
X42130959Y-28542152D01*
X42331785Y-28245957D01*
X42462182Y-28000000D01*
X51994415Y-28000000D01*
X52014737Y-28348920D01*
X52014739Y-28348936D01*
X52075428Y-28693128D01*
X52075430Y-28693134D01*
X52175671Y-29027963D01*
X52175673Y-29027970D01*
X52189905Y-29060963D01*
X52314111Y-29348904D01*
X52488870Y-29651596D01*
X52697588Y-29931953D01*
X52697590Y-29931955D01*
X52697593Y-29931959D01*
X52697596Y-29931963D01*
X52937430Y-30186171D01*
X52937435Y-30186176D01*
X52937442Y-30186183D01*
X53205189Y-30410849D01*
X53497207Y-30602913D01*
X53809549Y-30759777D01*
X54137989Y-30879319D01*
X54478086Y-30959923D01*
X54718402Y-30988012D01*
X54825232Y-31000499D01*
X54825238Y-31000500D01*
X54825241Y-31000500D01*
X55174762Y-31000500D01*
X55174766Y-31000499D01*
X55521914Y-30959923D01*
X55862011Y-30879319D01*
X56190451Y-30759777D01*
X56502793Y-30602913D01*
X56794811Y-30410849D01*
X57062558Y-30186183D01*
X57302412Y-29931953D01*
X57511130Y-29651596D01*
X57685889Y-29348904D01*
X57824326Y-29027971D01*
X57924569Y-28693136D01*
X57924569Y-28693131D01*
X57924571Y-28693128D01*
X57985260Y-28348936D01*
X57985262Y-28348927D01*
X58005585Y-28000000D01*
X64994415Y-28000000D01*
X65014737Y-28348920D01*
X65014739Y-28348936D01*
X65075428Y-28693128D01*
X65075430Y-28693134D01*
X65175671Y-29027963D01*
X65175673Y-29027970D01*
X65189905Y-29060963D01*
X65314111Y-29348904D01*
X65488870Y-29651596D01*
X65697588Y-29931953D01*
X65697590Y-29931955D01*
X65697593Y-29931959D01*
X65697596Y-29931963D01*
X65937430Y-30186171D01*
X65937435Y-30186176D01*
X65937442Y-30186183D01*
X66205189Y-30410849D01*
X66497207Y-30602913D01*
X66809549Y-30759777D01*
X67137989Y-30879319D01*
X67478086Y-30959923D01*
X67718402Y-30988012D01*
X67825232Y-31000499D01*
X67825238Y-31000500D01*
X67825241Y-31000500D01*
X68174762Y-31000500D01*
X68174766Y-31000499D01*
X68521914Y-30959923D01*
X68862011Y-30879319D01*
X69190451Y-30759777D01*
X69502793Y-30602913D01*
X69794811Y-30410849D01*
X70062558Y-30186183D01*
X70302412Y-29931953D01*
X70511130Y-29651596D01*
X70685889Y-29348904D01*
X70824326Y-29027971D01*
X70924569Y-28693136D01*
X70924569Y-28693131D01*
X70924571Y-28693128D01*
X70985260Y-28348936D01*
X70985262Y-28348927D01*
X71005585Y-28000000D01*
X76994415Y-28000000D01*
X77014737Y-28348920D01*
X77014739Y-28348936D01*
X77075428Y-28693128D01*
X77075430Y-28693134D01*
X77175671Y-29027963D01*
X77175673Y-29027970D01*
X77189905Y-29060963D01*
X77314111Y-29348904D01*
X77488870Y-29651596D01*
X77697588Y-29931953D01*
X77697590Y-29931955D01*
X77697593Y-29931959D01*
X77697596Y-29931963D01*
X77937430Y-30186171D01*
X77937435Y-30186176D01*
X77937442Y-30186183D01*
X78205189Y-30410849D01*
X78497207Y-30602913D01*
X78809549Y-30759777D01*
X79137989Y-30879319D01*
X79478086Y-30959923D01*
X79718402Y-30988012D01*
X79825232Y-31000499D01*
X79825238Y-31000500D01*
X79825241Y-31000500D01*
X80174762Y-31000500D01*
X80174766Y-31000499D01*
X80521914Y-30959923D01*
X80862011Y-30879319D01*
X81190451Y-30759777D01*
X81502793Y-30602913D01*
X81794811Y-30410849D01*
X82062558Y-30186183D01*
X82302412Y-29931953D01*
X82511130Y-29651596D01*
X82685889Y-29348904D01*
X82824326Y-29027971D01*
X82924569Y-28693136D01*
X82924569Y-28693131D01*
X82924571Y-28693128D01*
X82985260Y-28348936D01*
X82985262Y-28348927D01*
X83005585Y-28000000D01*
X88494415Y-28000000D01*
X88514737Y-28348920D01*
X88514739Y-28348936D01*
X88575428Y-28693128D01*
X88575430Y-28693134D01*
X88675671Y-29027963D01*
X88675673Y-29027970D01*
X88689905Y-29060963D01*
X88814111Y-29348904D01*
X88988870Y-29651596D01*
X89197588Y-29931953D01*
X89197590Y-29931955D01*
X89197593Y-29931959D01*
X89197596Y-29931963D01*
X89437430Y-30186171D01*
X89437435Y-30186176D01*
X89437442Y-30186183D01*
X89705189Y-30410849D01*
X89997207Y-30602913D01*
X90309549Y-30759777D01*
X90637989Y-30879319D01*
X90978086Y-30959923D01*
X91218402Y-30988012D01*
X91325232Y-31000499D01*
X91325238Y-31000500D01*
X91325241Y-31000500D01*
X91674762Y-31000500D01*
X91674766Y-31000499D01*
X92021914Y-30959923D01*
X92362011Y-30879319D01*
X92690451Y-30759777D01*
X93002793Y-30602913D01*
X93294811Y-30410849D01*
X93562558Y-30186183D01*
X93802412Y-29931953D01*
X94011130Y-29651596D01*
X94185889Y-29348904D01*
X94324326Y-29027971D01*
X94424569Y-28693136D01*
X94424569Y-28693131D01*
X94424571Y-28693128D01*
X94458623Y-28500003D01*
X99544867Y-28500003D01*
X99563302Y-28628223D01*
X99617118Y-28746064D01*
X99672282Y-28809727D01*
X99701951Y-28843967D01*
X99810931Y-28914004D01*
X99935228Y-28950500D01*
X99935231Y-28950500D01*
X100064769Y-28950500D01*
X100064772Y-28950500D01*
X100189069Y-28914004D01*
X100298049Y-28843967D01*
X100382882Y-28746063D01*
X100436697Y-28628226D01*
X100449072Y-28542157D01*
X100455133Y-28500003D01*
X119444867Y-28500003D01*
X119463302Y-28628223D01*
X119517118Y-28746064D01*
X119572282Y-28809727D01*
X119601951Y-28843967D01*
X119710931Y-28914004D01*
X119835228Y-28950500D01*
X119835231Y-28950500D01*
X119964769Y-28950500D01*
X119964772Y-28950500D01*
X120089069Y-28914004D01*
X120198049Y-28843967D01*
X120282882Y-28746063D01*
X120336697Y-28628226D01*
X120349072Y-28542157D01*
X120355133Y-28500003D01*
X120355133Y-28499996D01*
X120336697Y-28371776D01*
X120336697Y-28371774D01*
X120282882Y-28253937D01*
X120282881Y-28253936D01*
X120282881Y-28253935D01*
X120236216Y-28200080D01*
X120198049Y-28156033D01*
X120089069Y-28085996D01*
X119964772Y-28049500D01*
X119835228Y-28049500D01*
X119710931Y-28085996D01*
X119710928Y-28085997D01*
X119710927Y-28085998D01*
X119601955Y-28156030D01*
X119601952Y-28156031D01*
X119601951Y-28156033D01*
X119601949Y-28156034D01*
X119601948Y-28156036D01*
X119517118Y-28253935D01*
X119463302Y-28371776D01*
X119444867Y-28499996D01*
X119444867Y-28500003D01*
X100455133Y-28500003D01*
X100455133Y-28499996D01*
X100436697Y-28371776D01*
X100436697Y-28371774D01*
X100382882Y-28253937D01*
X100382881Y-28253936D01*
X100382881Y-28253935D01*
X100336216Y-28200080D01*
X100298049Y-28156033D01*
X100189069Y-28085996D01*
X100064772Y-28049500D01*
X99935228Y-28049500D01*
X99810931Y-28085996D01*
X99810928Y-28085997D01*
X99810927Y-28085998D01*
X99701955Y-28156030D01*
X99701952Y-28156031D01*
X99701951Y-28156033D01*
X99701949Y-28156034D01*
X99701948Y-28156036D01*
X99617118Y-28253935D01*
X99563302Y-28371776D01*
X99544867Y-28499996D01*
X99544867Y-28500003D01*
X94458623Y-28500003D01*
X94485260Y-28348936D01*
X94485262Y-28348927D01*
X94505585Y-28000000D01*
X94485262Y-27651073D01*
X94452626Y-27465984D01*
X94440086Y-27394866D01*
X138849500Y-27394866D01*
X138852414Y-27419989D01*
X138852415Y-27419992D01*
X138897793Y-27522764D01*
X138897794Y-27522765D01*
X138977235Y-27602206D01*
X139080009Y-27647585D01*
X139105135Y-27650500D01*
X140894864Y-27650499D01*
X140894866Y-27650499D01*
X140907427Y-27649042D01*
X140919991Y-27647585D01*
X141022765Y-27602206D01*
X141102206Y-27522765D01*
X141147585Y-27419991D01*
X141150500Y-27394865D01*
X141150499Y-26888632D01*
X141170461Y-26814135D01*
X141224999Y-26759597D01*
X141299499Y-26739635D01*
X141373999Y-26759597D01*
X141428537Y-26814135D01*
X141442811Y-26847858D01*
X141462594Y-26917387D01*
X141557636Y-27108259D01*
X141666626Y-27252583D01*
X141686128Y-27278407D01*
X141841441Y-27419994D01*
X141843697Y-27422051D01*
X141843698Y-27422052D01*
X142024977Y-27534296D01*
X142024983Y-27534299D01*
X142112189Y-27568082D01*
X142223802Y-27611321D01*
X142433390Y-27650500D01*
X142433393Y-27650500D01*
X142646607Y-27650500D01*
X142646610Y-27650500D01*
X142856198Y-27611321D01*
X143055019Y-27534298D01*
X143236302Y-27422052D01*
X143393872Y-27278407D01*
X143522366Y-27108255D01*
X143566206Y-27020210D01*
X143617282Y-26962420D01*
X143690411Y-26937909D01*
X143765999Y-26953246D01*
X143823791Y-27004323D01*
X143834625Y-27023656D01*
X143906400Y-27177579D01*
X143906406Y-27177588D01*
X144041888Y-27371076D01*
X144208923Y-27538111D01*
X144402411Y-27673593D01*
X144402420Y-27673599D01*
X144616508Y-27773430D01*
X144616513Y-27773432D01*
X144830000Y-27830634D01*
X144830000Y-26933012D01*
X144887007Y-26965925D01*
X145014174Y-27000000D01*
X145145826Y-27000000D01*
X145272993Y-26965925D01*
X145330000Y-26933012D01*
X145330000Y-27830633D01*
X145543486Y-27773432D01*
X145543491Y-27773430D01*
X145757579Y-27673599D01*
X145757588Y-27673593D01*
X145951076Y-27538111D01*
X146118111Y-27371076D01*
X146253593Y-27177588D01*
X146253599Y-27177579D01*
X146325374Y-27023656D01*
X146374951Y-26964573D01*
X146447427Y-26938193D01*
X146523384Y-26951586D01*
X146582467Y-27001163D01*
X146593793Y-27020211D01*
X146637633Y-27108254D01*
X146637636Y-27108258D01*
X146746626Y-27252583D01*
X146766128Y-27278407D01*
X146921441Y-27419994D01*
X146923697Y-27422051D01*
X146923698Y-27422052D01*
X147104977Y-27534296D01*
X147104983Y-27534299D01*
X147192189Y-27568082D01*
X147303802Y-27611321D01*
X147513390Y-27650500D01*
X147513393Y-27650500D01*
X147726607Y-27650500D01*
X147726610Y-27650500D01*
X147936198Y-27611321D01*
X148135019Y-27534298D01*
X148316302Y-27422052D01*
X148473872Y-27278407D01*
X148602366Y-27108255D01*
X148697405Y-26917389D01*
X148746688Y-26744177D01*
X148786276Y-26677986D01*
X148853657Y-26640455D01*
X148930776Y-26641643D01*
X148996969Y-26681231D01*
X149033312Y-26744179D01*
X149082593Y-26917385D01*
X149082594Y-26917387D01*
X149177636Y-27108259D01*
X149286626Y-27252583D01*
X149306128Y-27278407D01*
X149461441Y-27419994D01*
X149463697Y-27422051D01*
X149463698Y-27422052D01*
X149644977Y-27534296D01*
X149644983Y-27534299D01*
X149732189Y-27568082D01*
X149843802Y-27611321D01*
X150053390Y-27650500D01*
X150053393Y-27650500D01*
X150266607Y-27650500D01*
X150266610Y-27650500D01*
X150476198Y-27611321D01*
X150675019Y-27534298D01*
X150856302Y-27422052D01*
X151013872Y-27278407D01*
X151142366Y-27108255D01*
X151237405Y-26917389D01*
X151286688Y-26744177D01*
X151326276Y-26677986D01*
X151393657Y-26640455D01*
X151470776Y-26641643D01*
X151536969Y-26681231D01*
X151573312Y-26744179D01*
X151622593Y-26917385D01*
X151622594Y-26917387D01*
X151717636Y-27108259D01*
X151826626Y-27252583D01*
X151846128Y-27278407D01*
X152001441Y-27419994D01*
X152003697Y-27422051D01*
X152003698Y-27422052D01*
X152184977Y-27534296D01*
X152184983Y-27534299D01*
X152272189Y-27568082D01*
X152383802Y-27611321D01*
X152593390Y-27650500D01*
X152593393Y-27650500D01*
X152806607Y-27650500D01*
X152806610Y-27650500D01*
X153016198Y-27611321D01*
X153215019Y-27534298D01*
X153396302Y-27422052D01*
X153553872Y-27278407D01*
X153682366Y-27108255D01*
X153777405Y-26917389D01*
X153835756Y-26712310D01*
X153847752Y-26582849D01*
X153851524Y-26542144D01*
X156195153Y-26542144D01*
X156214525Y-26899444D01*
X156214526Y-26899453D01*
X156272417Y-27252578D01*
X156272418Y-27252583D01*
X156368150Y-27597374D01*
X156500600Y-27929800D01*
X156500606Y-27929813D01*
X156668214Y-28245957D01*
X156869040Y-28542152D01*
X156869044Y-28542157D01*
X156996441Y-28692138D01*
X156996442Y-28692138D01*
X158205747Y-27482832D01*
X158279588Y-27584466D01*
X158457670Y-27762548D01*
X158559301Y-27836387D01*
X157347256Y-29048432D01*
X157360480Y-29060959D01*
X157645360Y-29277520D01*
X157951976Y-29462005D01*
X158276752Y-29612262D01*
X158276762Y-29612267D01*
X158615857Y-29726520D01*
X158615871Y-29726524D01*
X158965319Y-29803443D01*
X158965333Y-29803446D01*
X159321078Y-29842135D01*
X159321088Y-29842136D01*
X159678912Y-29842136D01*
X159678921Y-29842135D01*
X160034666Y-29803446D01*
X160034680Y-29803443D01*
X160384128Y-29726524D01*
X160384142Y-29726520D01*
X160723237Y-29612267D01*
X160723247Y-29612262D01*
X161048023Y-29462005D01*
X161354639Y-29277520D01*
X161639514Y-29060963D01*
X161652742Y-29048432D01*
X160440698Y-27836387D01*
X160542330Y-27762548D01*
X160720412Y-27584466D01*
X160794252Y-27482834D01*
X162003557Y-28692139D01*
X162003558Y-28692139D01*
X162130955Y-28542157D01*
X162130959Y-28542152D01*
X162331785Y-28245957D01*
X162499393Y-27929813D01*
X162499399Y-27929800D01*
X162631849Y-27597374D01*
X162727581Y-27252583D01*
X162727582Y-27252578D01*
X162785473Y-26899453D01*
X162785474Y-26899444D01*
X162804847Y-26542144D01*
X162804847Y-26542127D01*
X162785474Y-26184827D01*
X162785473Y-26184818D01*
X162727582Y-25831693D01*
X162727581Y-25831688D01*
X162631849Y-25486897D01*
X162499399Y-25154471D01*
X162499393Y-25154458D01*
X162331785Y-24838314D01*
X162130959Y-24542119D01*
X162130955Y-24542114D01*
X162003557Y-24392132D01*
X162003556Y-24392132D01*
X160794251Y-25601436D01*
X160720412Y-25499806D01*
X160542330Y-25321724D01*
X160440696Y-25247883D01*
X161652742Y-24035838D01*
X161639519Y-24023312D01*
X161354639Y-23806751D01*
X161048023Y-23622266D01*
X160723247Y-23472009D01*
X160723237Y-23472004D01*
X160384142Y-23357751D01*
X160384128Y-23357747D01*
X160034680Y-23280828D01*
X160034666Y-23280825D01*
X159678921Y-23242136D01*
X159321078Y-23242136D01*
X158965333Y-23280825D01*
X158965319Y-23280828D01*
X158615871Y-23357747D01*
X158615857Y-23357751D01*
X158276762Y-23472004D01*
X158276752Y-23472009D01*
X157951976Y-23622266D01*
X157645360Y-23806751D01*
X157360491Y-24023304D01*
X157347257Y-24035839D01*
X158559301Y-25247883D01*
X158457670Y-25321724D01*
X158279588Y-25499806D01*
X158205747Y-25601437D01*
X156996442Y-24392132D01*
X156869035Y-24542127D01*
X156668214Y-24838314D01*
X156500606Y-25154458D01*
X156500600Y-25154471D01*
X156368150Y-25486897D01*
X156272418Y-25831688D01*
X156272417Y-25831693D01*
X156214526Y-26184818D01*
X156214525Y-26184827D01*
X156195153Y-26542127D01*
X156195153Y-26542144D01*
X153851524Y-26542144D01*
X153855429Y-26500004D01*
X153855429Y-26499995D01*
X153838936Y-26322013D01*
X153835756Y-26287690D01*
X153778369Y-26085998D01*
X153777406Y-26082614D01*
X153777405Y-26082612D01*
X153770153Y-26068047D01*
X153682366Y-25891745D01*
X153682363Y-25891741D01*
X153682363Y-25891740D01*
X153553872Y-25721593D01*
X153396302Y-25577948D01*
X153396301Y-25577947D01*
X153215022Y-25465703D01*
X153215016Y-25465700D01*
X153016204Y-25388681D01*
X153016200Y-25388680D01*
X153016198Y-25388679D01*
X152974280Y-25380843D01*
X152806614Y-25349500D01*
X152806610Y-25349500D01*
X152593390Y-25349500D01*
X152593385Y-25349500D01*
X152383802Y-25388679D01*
X152383795Y-25388681D01*
X152184983Y-25465700D01*
X152184977Y-25465703D01*
X152003698Y-25577947D01*
X152003697Y-25577948D01*
X151846127Y-25721593D01*
X151717636Y-25891740D01*
X151622594Y-26082612D01*
X151622593Y-26082614D01*
X151573312Y-26255820D01*
X151533724Y-26322013D01*
X151466343Y-26359544D01*
X151389224Y-26358356D01*
X151323031Y-26318768D01*
X151286688Y-26255820D01*
X151237406Y-26082614D01*
X151237405Y-26082612D01*
X151230153Y-26068047D01*
X151142366Y-25891745D01*
X151142363Y-25891741D01*
X151142363Y-25891740D01*
X151013872Y-25721593D01*
X150856302Y-25577948D01*
X150856301Y-25577947D01*
X150675022Y-25465703D01*
X150675016Y-25465700D01*
X150476204Y-25388681D01*
X150476200Y-25388680D01*
X150476198Y-25388679D01*
X150434280Y-25380843D01*
X150266614Y-25349500D01*
X150266610Y-25349500D01*
X150053390Y-25349500D01*
X150053385Y-25349500D01*
X149843802Y-25388679D01*
X149843795Y-25388681D01*
X149644983Y-25465700D01*
X149644977Y-25465703D01*
X149463698Y-25577947D01*
X149463697Y-25577948D01*
X149306127Y-25721593D01*
X149177636Y-25891740D01*
X149082594Y-26082612D01*
X149082593Y-26082614D01*
X149033312Y-26255820D01*
X148993724Y-26322013D01*
X148926343Y-26359544D01*
X148849224Y-26358356D01*
X148783031Y-26318768D01*
X148746688Y-26255820D01*
X148697406Y-26082614D01*
X148697405Y-26082612D01*
X148690153Y-26068047D01*
X148602366Y-25891745D01*
X148602363Y-25891741D01*
X148602363Y-25891740D01*
X148473872Y-25721593D01*
X148316302Y-25577948D01*
X148316301Y-25577947D01*
X148135022Y-25465703D01*
X148135016Y-25465700D01*
X147936204Y-25388681D01*
X147936200Y-25388680D01*
X147936198Y-25388679D01*
X147894280Y-25380843D01*
X147726614Y-25349500D01*
X147726610Y-25349500D01*
X147513390Y-25349500D01*
X147513385Y-25349500D01*
X147303802Y-25388679D01*
X147303795Y-25388681D01*
X147104983Y-25465700D01*
X147104977Y-25465703D01*
X146923698Y-25577947D01*
X146923697Y-25577948D01*
X146766127Y-25721593D01*
X146637636Y-25891741D01*
X146593793Y-25979789D01*
X146542716Y-26037580D01*
X146469586Y-26062090D01*
X146393998Y-26046752D01*
X146336207Y-25995675D01*
X146325374Y-25976343D01*
X146253599Y-25822421D01*
X146253598Y-25822420D01*
X146118108Y-25628920D01*
X145951076Y-25461888D01*
X145757588Y-25326406D01*
X145757579Y-25326400D01*
X145543491Y-25226569D01*
X145543489Y-25226568D01*
X145330000Y-25169364D01*
X145330000Y-26066988D01*
X145272993Y-26034075D01*
X145145826Y-26000000D01*
X145014174Y-26000000D01*
X144887007Y-26034075D01*
X144830000Y-26066988D01*
X144830000Y-25169364D01*
X144829999Y-25169364D01*
X144616512Y-25226568D01*
X144402419Y-25326402D01*
X144208920Y-25461891D01*
X144041891Y-25628920D01*
X143906402Y-25822419D01*
X143834625Y-25976344D01*
X143785047Y-26035427D01*
X143712570Y-26061806D01*
X143636614Y-26048413D01*
X143577531Y-25998835D01*
X143566205Y-25979787D01*
X143540393Y-25927949D01*
X143522366Y-25891745D01*
X143522363Y-25891741D01*
X143522363Y-25891740D01*
X143393872Y-25721593D01*
X143236302Y-25577948D01*
X143236301Y-25577947D01*
X143055022Y-25465703D01*
X143055016Y-25465700D01*
X142856204Y-25388681D01*
X142856200Y-25388680D01*
X142856198Y-25388679D01*
X142814280Y-25380843D01*
X142646614Y-25349500D01*
X142646610Y-25349500D01*
X142433390Y-25349500D01*
X142433385Y-25349500D01*
X142223802Y-25388679D01*
X142223795Y-25388681D01*
X142024983Y-25465700D01*
X142024977Y-25465703D01*
X141843698Y-25577947D01*
X141843697Y-25577948D01*
X141686127Y-25721593D01*
X141557636Y-25891740D01*
X141462594Y-26082612D01*
X141442811Y-26152143D01*
X141403222Y-26218335D01*
X141335841Y-26255866D01*
X141258722Y-26254678D01*
X141192530Y-26215089D01*
X141154999Y-26147708D01*
X141150499Y-26111366D01*
X141150499Y-25605133D01*
X141147585Y-25580010D01*
X141147584Y-25580008D01*
X141102206Y-25477235D01*
X141022765Y-25397794D01*
X141022764Y-25397793D01*
X140919994Y-25352416D01*
X140919991Y-25352415D01*
X140919982Y-25352414D01*
X140894865Y-25349500D01*
X140894859Y-25349500D01*
X139105133Y-25349500D01*
X139080010Y-25352414D01*
X139080007Y-25352415D01*
X138977235Y-25397793D01*
X138897793Y-25477235D01*
X138852416Y-25580005D01*
X138852415Y-25580008D01*
X138852415Y-25580009D01*
X138849500Y-25605135D01*
X138849500Y-25605136D01*
X138849500Y-25605140D01*
X138849500Y-27394866D01*
X94440086Y-27394866D01*
X94424571Y-27306871D01*
X94424569Y-27306865D01*
X94416049Y-27278407D01*
X94324326Y-26972029D01*
X94185889Y-26651096D01*
X94098656Y-26500003D01*
X108044867Y-26500003D01*
X108063302Y-26628223D01*
X108063302Y-26628224D01*
X108063303Y-26628226D01*
X108072407Y-26648161D01*
X108117118Y-26746064D01*
X108169925Y-26807007D01*
X108201951Y-26843967D01*
X108310931Y-26914004D01*
X108435228Y-26950500D01*
X108435231Y-26950500D01*
X108564769Y-26950500D01*
X108564772Y-26950500D01*
X108689069Y-26914004D01*
X108798049Y-26843967D01*
X108882882Y-26746063D01*
X108936697Y-26628226D01*
X108949076Y-26542127D01*
X108955133Y-26500003D01*
X128044867Y-26500003D01*
X128063302Y-26628223D01*
X128063302Y-26628224D01*
X128063303Y-26628226D01*
X128072407Y-26648161D01*
X128117118Y-26746064D01*
X128169925Y-26807007D01*
X128201951Y-26843967D01*
X128310931Y-26914004D01*
X128435228Y-26950500D01*
X128435231Y-26950500D01*
X128564769Y-26950500D01*
X128564772Y-26950500D01*
X128689069Y-26914004D01*
X128798049Y-26843967D01*
X128882882Y-26746063D01*
X128936697Y-26628226D01*
X128949076Y-26542127D01*
X128955133Y-26500003D01*
X136294867Y-26500003D01*
X136313302Y-26628223D01*
X136313302Y-26628224D01*
X136313303Y-26628226D01*
X136322407Y-26648161D01*
X136367118Y-26746064D01*
X136419925Y-26807007D01*
X136451951Y-26843967D01*
X136560931Y-26914004D01*
X136685228Y-26950500D01*
X136685231Y-26950500D01*
X136814769Y-26950500D01*
X136814772Y-26950500D01*
X136939069Y-26914004D01*
X137048049Y-26843967D01*
X137132882Y-26746063D01*
X137186697Y-26628226D01*
X137199076Y-26542127D01*
X137205133Y-26500003D01*
X137205133Y-26499996D01*
X137186697Y-26371776D01*
X137186697Y-26371774D01*
X137132882Y-26253937D01*
X137132881Y-26253936D01*
X137132881Y-26253935D01*
X137081083Y-26194157D01*
X137048049Y-26156033D01*
X136939069Y-26085996D01*
X136814772Y-26049500D01*
X136685228Y-26049500D01*
X136560931Y-26085996D01*
X136560928Y-26085997D01*
X136560927Y-26085998D01*
X136451955Y-26156030D01*
X136451952Y-26156031D01*
X136451951Y-26156033D01*
X136451949Y-26156034D01*
X136451948Y-26156036D01*
X136367118Y-26253935D01*
X136313302Y-26371776D01*
X136294867Y-26499996D01*
X136294867Y-26500003D01*
X128955133Y-26500003D01*
X128955133Y-26499996D01*
X128936697Y-26371776D01*
X128936697Y-26371774D01*
X128882882Y-26253937D01*
X128882881Y-26253936D01*
X128882881Y-26253935D01*
X128831083Y-26194157D01*
X128798049Y-26156033D01*
X128689069Y-26085996D01*
X128564772Y-26049500D01*
X128435228Y-26049500D01*
X128310931Y-26085996D01*
X128310928Y-26085997D01*
X128310927Y-26085998D01*
X128201955Y-26156030D01*
X128201952Y-26156031D01*
X128201951Y-26156033D01*
X128201949Y-26156034D01*
X128201948Y-26156036D01*
X128117118Y-26253935D01*
X128063302Y-26371776D01*
X128044867Y-26499996D01*
X128044867Y-26500003D01*
X108955133Y-26500003D01*
X108955133Y-26499996D01*
X108936697Y-26371776D01*
X108936697Y-26371774D01*
X108882882Y-26253937D01*
X108882881Y-26253936D01*
X108882881Y-26253935D01*
X108831083Y-26194157D01*
X108798049Y-26156033D01*
X108689069Y-26085996D01*
X108564772Y-26049500D01*
X108435228Y-26049500D01*
X108310931Y-26085996D01*
X108310928Y-26085997D01*
X108310927Y-26085998D01*
X108201955Y-26156030D01*
X108201952Y-26156031D01*
X108201951Y-26156033D01*
X108201949Y-26156034D01*
X108201948Y-26156036D01*
X108117118Y-26253935D01*
X108063302Y-26371776D01*
X108044867Y-26499996D01*
X108044867Y-26500003D01*
X94098656Y-26500003D01*
X94011130Y-26348404D01*
X93802412Y-26068047D01*
X93802408Y-26068043D01*
X93802406Y-26068040D01*
X93802403Y-26068036D01*
X93562569Y-25813828D01*
X93562563Y-25813823D01*
X93562558Y-25813817D01*
X93294811Y-25589151D01*
X93294803Y-25589146D01*
X93294798Y-25589142D01*
X93002800Y-25397091D01*
X93002796Y-25397089D01*
X93002793Y-25397087D01*
X92850804Y-25320755D01*
X92690456Y-25240225D01*
X92690454Y-25240224D01*
X92362014Y-25120682D01*
X92362013Y-25120681D01*
X92362011Y-25120681D01*
X92241414Y-25092099D01*
X92021912Y-25040076D01*
X91674767Y-24999500D01*
X91674759Y-24999500D01*
X91325241Y-24999500D01*
X91325232Y-24999500D01*
X90978087Y-25040076D01*
X90637985Y-25120682D01*
X90309545Y-25240224D01*
X90309543Y-25240225D01*
X89997199Y-25397091D01*
X89705201Y-25589142D01*
X89705186Y-25589153D01*
X89437444Y-25813815D01*
X89437430Y-25813828D01*
X89197596Y-26068036D01*
X89197593Y-26068040D01*
X88988869Y-26348405D01*
X88814111Y-26651095D01*
X88814109Y-26651099D01*
X88675673Y-26972029D01*
X88675671Y-26972036D01*
X88575430Y-27306865D01*
X88575428Y-27306871D01*
X88514739Y-27651063D01*
X88514737Y-27651079D01*
X88494415Y-28000000D01*
X83005585Y-28000000D01*
X82985262Y-27651073D01*
X82952626Y-27465984D01*
X82924571Y-27306871D01*
X82924569Y-27306865D01*
X82916049Y-27278407D01*
X82824326Y-26972029D01*
X82685889Y-26651096D01*
X82511130Y-26348404D01*
X82302412Y-26068047D01*
X82302408Y-26068043D01*
X82302406Y-26068040D01*
X82302403Y-26068036D01*
X82062569Y-25813828D01*
X82062563Y-25813823D01*
X82062558Y-25813817D01*
X81794811Y-25589151D01*
X81794803Y-25589146D01*
X81794798Y-25589142D01*
X81502800Y-25397091D01*
X81502796Y-25397089D01*
X81502793Y-25397087D01*
X81350804Y-25320755D01*
X81190456Y-25240225D01*
X81190454Y-25240224D01*
X80862014Y-25120682D01*
X80862013Y-25120681D01*
X80862011Y-25120681D01*
X80741414Y-25092099D01*
X80521912Y-25040076D01*
X80174767Y-24999500D01*
X80174759Y-24999500D01*
X79825241Y-24999500D01*
X79825232Y-24999500D01*
X79478087Y-25040076D01*
X79137985Y-25120682D01*
X78809545Y-25240224D01*
X78809543Y-25240225D01*
X78497199Y-25397091D01*
X78205201Y-25589142D01*
X78205186Y-25589153D01*
X77937444Y-25813815D01*
X77937430Y-25813828D01*
X77697596Y-26068036D01*
X77697593Y-26068040D01*
X77488869Y-26348405D01*
X77314111Y-26651095D01*
X77314109Y-26651099D01*
X77175673Y-26972029D01*
X77175671Y-26972036D01*
X77075430Y-27306865D01*
X77075428Y-27306871D01*
X77014739Y-27651063D01*
X77014737Y-27651079D01*
X76994415Y-28000000D01*
X71005585Y-28000000D01*
X70985262Y-27651073D01*
X70952626Y-27465984D01*
X70924571Y-27306871D01*
X70924569Y-27306865D01*
X70916049Y-27278407D01*
X70824326Y-26972029D01*
X70685889Y-26651096D01*
X70511130Y-26348404D01*
X70302412Y-26068047D01*
X70302408Y-26068043D01*
X70302406Y-26068040D01*
X70302403Y-26068036D01*
X70062569Y-25813828D01*
X70062563Y-25813823D01*
X70062558Y-25813817D01*
X69794811Y-25589151D01*
X69794803Y-25589146D01*
X69794798Y-25589142D01*
X69502800Y-25397091D01*
X69502796Y-25397089D01*
X69502793Y-25397087D01*
X69350804Y-25320755D01*
X69190456Y-25240225D01*
X69190454Y-25240224D01*
X68862014Y-25120682D01*
X68862013Y-25120681D01*
X68862011Y-25120681D01*
X68741414Y-25092099D01*
X68521912Y-25040076D01*
X68174767Y-24999500D01*
X68174759Y-24999500D01*
X67825241Y-24999500D01*
X67825232Y-24999500D01*
X67478087Y-25040076D01*
X67137985Y-25120682D01*
X66809545Y-25240224D01*
X66809543Y-25240225D01*
X66497199Y-25397091D01*
X66205201Y-25589142D01*
X66205186Y-25589153D01*
X65937444Y-25813815D01*
X65937430Y-25813828D01*
X65697596Y-26068036D01*
X65697593Y-26068040D01*
X65488869Y-26348405D01*
X65314111Y-26651095D01*
X65314109Y-26651099D01*
X65175673Y-26972029D01*
X65175671Y-26972036D01*
X65075430Y-27306865D01*
X65075428Y-27306871D01*
X65014739Y-27651063D01*
X65014737Y-27651079D01*
X64994415Y-28000000D01*
X58005585Y-28000000D01*
X57985262Y-27651073D01*
X57952626Y-27465984D01*
X57924571Y-27306871D01*
X57924569Y-27306865D01*
X57916049Y-27278407D01*
X57824326Y-26972029D01*
X57685889Y-26651096D01*
X57511130Y-26348404D01*
X57302412Y-26068047D01*
X57302408Y-26068043D01*
X57302406Y-26068040D01*
X57302403Y-26068036D01*
X57062569Y-25813828D01*
X57062563Y-25813823D01*
X57062558Y-25813817D01*
X56794811Y-25589151D01*
X56794803Y-25589146D01*
X56794798Y-25589142D01*
X56502800Y-25397091D01*
X56502796Y-25397089D01*
X56502793Y-25397087D01*
X56350804Y-25320755D01*
X56190456Y-25240225D01*
X56190454Y-25240224D01*
X55862014Y-25120682D01*
X55862013Y-25120681D01*
X55862011Y-25120681D01*
X55741414Y-25092099D01*
X55521912Y-25040076D01*
X55174767Y-24999500D01*
X55174759Y-24999500D01*
X54825241Y-24999500D01*
X54825232Y-24999500D01*
X54478087Y-25040076D01*
X54137985Y-25120682D01*
X53809545Y-25240224D01*
X53809543Y-25240225D01*
X53497199Y-25397091D01*
X53205201Y-25589142D01*
X53205186Y-25589153D01*
X52937444Y-25813815D01*
X52937430Y-25813828D01*
X52697596Y-26068036D01*
X52697593Y-26068040D01*
X52488869Y-26348405D01*
X52314111Y-26651095D01*
X52314109Y-26651099D01*
X52175673Y-26972029D01*
X52175671Y-26972036D01*
X52075430Y-27306865D01*
X52075428Y-27306871D01*
X52014739Y-27651063D01*
X52014737Y-27651079D01*
X51994415Y-28000000D01*
X42462182Y-28000000D01*
X42499393Y-27929813D01*
X42499399Y-27929800D01*
X42631849Y-27597374D01*
X42727581Y-27252583D01*
X42727582Y-27252578D01*
X42785473Y-26899453D01*
X42785474Y-26899444D01*
X42804847Y-26542144D01*
X42804847Y-26542127D01*
X42785474Y-26184827D01*
X42785473Y-26184818D01*
X42727582Y-25831693D01*
X42727581Y-25831688D01*
X42631849Y-25486897D01*
X42499399Y-25154471D01*
X42499393Y-25154458D01*
X42331785Y-24838314D01*
X42130959Y-24542119D01*
X42130955Y-24542114D01*
X42003557Y-24392132D01*
X42003556Y-24392132D01*
X40794251Y-25601436D01*
X40720412Y-25499806D01*
X40542330Y-25321724D01*
X40440696Y-25247883D01*
X41438577Y-24250003D01*
X101294867Y-24250003D01*
X101313302Y-24378223D01*
X101367118Y-24496064D01*
X101417466Y-24554169D01*
X101451951Y-24593967D01*
X101560931Y-24664004D01*
X101685228Y-24700500D01*
X101685231Y-24700500D01*
X101814769Y-24700500D01*
X101814772Y-24700500D01*
X101939069Y-24664004D01*
X102048049Y-24593967D01*
X102132882Y-24496063D01*
X102186697Y-24378226D01*
X102198985Y-24292759D01*
X102205133Y-24250003D01*
X102794867Y-24250003D01*
X102813302Y-24378223D01*
X102867118Y-24496064D01*
X102917466Y-24554169D01*
X102951951Y-24593967D01*
X103060931Y-24664004D01*
X103185228Y-24700500D01*
X103185231Y-24700500D01*
X103314769Y-24700500D01*
X103314772Y-24700500D01*
X103439069Y-24664004D01*
X103548049Y-24593967D01*
X103632882Y-24496063D01*
X103686697Y-24378226D01*
X103698985Y-24292759D01*
X103705133Y-24250003D01*
X104294867Y-24250003D01*
X104313302Y-24378223D01*
X104367118Y-24496064D01*
X104417466Y-24554169D01*
X104451951Y-24593967D01*
X104560931Y-24664004D01*
X104685228Y-24700500D01*
X104685231Y-24700500D01*
X104814769Y-24700500D01*
X104814772Y-24700500D01*
X104939069Y-24664004D01*
X105048049Y-24593967D01*
X105132882Y-24496063D01*
X105186697Y-24378226D01*
X105198985Y-24292759D01*
X105205133Y-24250003D01*
X121194867Y-24250003D01*
X121213302Y-24378223D01*
X121267118Y-24496064D01*
X121317466Y-24554169D01*
X121351951Y-24593967D01*
X121460931Y-24664004D01*
X121585228Y-24700500D01*
X121585231Y-24700500D01*
X121714769Y-24700500D01*
X121714772Y-24700500D01*
X121839069Y-24664004D01*
X121948049Y-24593967D01*
X122032882Y-24496063D01*
X122086697Y-24378226D01*
X122098985Y-24292759D01*
X122105133Y-24250003D01*
X122694867Y-24250003D01*
X122713302Y-24378223D01*
X122767118Y-24496064D01*
X122817466Y-24554169D01*
X122851951Y-24593967D01*
X122960931Y-24664004D01*
X123085228Y-24700500D01*
X123085231Y-24700500D01*
X123214769Y-24700500D01*
X123214772Y-24700500D01*
X123339069Y-24664004D01*
X123448049Y-24593967D01*
X123532882Y-24496063D01*
X123586697Y-24378226D01*
X123598985Y-24292759D01*
X123605133Y-24250003D01*
X124194867Y-24250003D01*
X124213302Y-24378223D01*
X124267118Y-24496064D01*
X124317466Y-24554169D01*
X124351951Y-24593967D01*
X124460931Y-24664004D01*
X124585228Y-24700500D01*
X124585231Y-24700500D01*
X124714769Y-24700500D01*
X124714772Y-24700500D01*
X124839069Y-24664004D01*
X124948049Y-24593967D01*
X125032882Y-24496063D01*
X125086697Y-24378226D01*
X125098985Y-24292759D01*
X125105133Y-24250003D01*
X125105133Y-24249996D01*
X125086697Y-24121776D01*
X125086697Y-24121774D01*
X125032882Y-24003937D01*
X125032881Y-24003936D01*
X125032881Y-24003935D01*
X124986216Y-23950080D01*
X124948049Y-23906033D01*
X124839069Y-23835996D01*
X124714772Y-23799500D01*
X124585228Y-23799500D01*
X124460931Y-23835996D01*
X124460928Y-23835997D01*
X124460927Y-23835998D01*
X124351955Y-23906030D01*
X124351952Y-23906031D01*
X124351951Y-23906033D01*
X124351949Y-23906034D01*
X124351948Y-23906036D01*
X124267118Y-24003935D01*
X124213302Y-24121776D01*
X124194867Y-24249996D01*
X124194867Y-24250003D01*
X123605133Y-24250003D01*
X123605133Y-24249996D01*
X123586697Y-24121776D01*
X123586697Y-24121774D01*
X123532882Y-24003937D01*
X123532881Y-24003936D01*
X123532881Y-24003935D01*
X123486216Y-23950080D01*
X123448049Y-23906033D01*
X123339069Y-23835996D01*
X123214772Y-23799500D01*
X123085228Y-23799500D01*
X122960931Y-23835996D01*
X122960928Y-23835997D01*
X122960927Y-23835998D01*
X122851955Y-23906030D01*
X122851952Y-23906031D01*
X122851951Y-23906033D01*
X122851949Y-23906034D01*
X122851948Y-23906036D01*
X122767118Y-24003935D01*
X122713302Y-24121776D01*
X122694867Y-24249996D01*
X122694867Y-24250003D01*
X122105133Y-24250003D01*
X122105133Y-24249996D01*
X122086697Y-24121776D01*
X122086697Y-24121774D01*
X122032882Y-24003937D01*
X122032881Y-24003936D01*
X122032881Y-24003935D01*
X121986216Y-23950080D01*
X121948049Y-23906033D01*
X121839069Y-23835996D01*
X121714772Y-23799500D01*
X121585228Y-23799500D01*
X121460931Y-23835996D01*
X121460928Y-23835997D01*
X121460927Y-23835998D01*
X121351955Y-23906030D01*
X121351952Y-23906031D01*
X121351951Y-23906033D01*
X121351949Y-23906034D01*
X121351948Y-23906036D01*
X121267118Y-24003935D01*
X121213302Y-24121776D01*
X121194867Y-24249996D01*
X121194867Y-24250003D01*
X105205133Y-24250003D01*
X105205133Y-24249996D01*
X105186697Y-24121776D01*
X105186697Y-24121774D01*
X105132882Y-24003937D01*
X105132881Y-24003936D01*
X105132881Y-24003935D01*
X105086216Y-23950080D01*
X105048049Y-23906033D01*
X104939069Y-23835996D01*
X104814772Y-23799500D01*
X104685228Y-23799500D01*
X104560931Y-23835996D01*
X104560928Y-23835997D01*
X104560927Y-23835998D01*
X104451955Y-23906030D01*
X104451952Y-23906031D01*
X104451951Y-23906033D01*
X104451949Y-23906034D01*
X104451948Y-23906036D01*
X104367118Y-24003935D01*
X104313302Y-24121776D01*
X104294867Y-24249996D01*
X104294867Y-24250003D01*
X103705133Y-24250003D01*
X103705133Y-24249996D01*
X103686697Y-24121776D01*
X103686697Y-24121774D01*
X103632882Y-24003937D01*
X103632881Y-24003936D01*
X103632881Y-24003935D01*
X103586216Y-23950080D01*
X103548049Y-23906033D01*
X103439069Y-23835996D01*
X103314772Y-23799500D01*
X103185228Y-23799500D01*
X103060931Y-23835996D01*
X103060928Y-23835997D01*
X103060927Y-23835998D01*
X102951955Y-23906030D01*
X102951952Y-23906031D01*
X102951951Y-23906033D01*
X102951949Y-23906034D01*
X102951948Y-23906036D01*
X102867118Y-24003935D01*
X102813302Y-24121776D01*
X102794867Y-24249996D01*
X102794867Y-24250003D01*
X102205133Y-24250003D01*
X102205133Y-24249996D01*
X102186697Y-24121776D01*
X102186697Y-24121774D01*
X102132882Y-24003937D01*
X102132881Y-24003936D01*
X102132881Y-24003935D01*
X102086216Y-23950080D01*
X102048049Y-23906033D01*
X101939069Y-23835996D01*
X101814772Y-23799500D01*
X101685228Y-23799500D01*
X101560931Y-23835996D01*
X101560928Y-23835997D01*
X101560927Y-23835998D01*
X101451955Y-23906030D01*
X101451952Y-23906031D01*
X101451951Y-23906033D01*
X101451949Y-23906034D01*
X101451948Y-23906036D01*
X101367118Y-24003935D01*
X101313302Y-24121776D01*
X101294867Y-24249996D01*
X101294867Y-24250003D01*
X41438577Y-24250003D01*
X41652742Y-24035838D01*
X41639519Y-24023312D01*
X41354639Y-23806751D01*
X41048023Y-23622266D01*
X40723247Y-23472009D01*
X40723237Y-23472004D01*
X40384142Y-23357751D01*
X40384128Y-23357747D01*
X40034680Y-23280828D01*
X40034666Y-23280825D01*
X39678921Y-23242136D01*
X39321078Y-23242136D01*
X38965333Y-23280825D01*
X38965319Y-23280828D01*
X38615871Y-23357747D01*
X38615857Y-23357751D01*
X38276762Y-23472004D01*
X38276752Y-23472009D01*
X37951976Y-23622266D01*
X37645360Y-23806751D01*
X37360491Y-24023304D01*
X37347257Y-24035839D01*
X38559301Y-25247883D01*
X38457670Y-25321724D01*
X38279588Y-25499806D01*
X38205747Y-25601437D01*
X36996442Y-24392132D01*
X36869035Y-24542127D01*
X36668214Y-24838314D01*
X36500606Y-25154458D01*
X36500600Y-25154471D01*
X36368150Y-25486897D01*
X36272418Y-25831688D01*
X36272417Y-25831693D01*
X36214526Y-26184818D01*
X36214525Y-26184827D01*
X36195153Y-26542127D01*
X36195153Y-26542144D01*
X34343053Y-26542144D01*
X34344326Y-26500000D01*
X34353569Y-26194139D01*
X34354584Y-26180716D01*
X34404303Y-25771249D01*
X34406530Y-25757973D01*
X34493096Y-25354709D01*
X34496522Y-25341662D01*
X34528131Y-25240225D01*
X34619224Y-24947897D01*
X34623806Y-24935238D01*
X34781652Y-24554169D01*
X34787375Y-24541951D01*
X34899048Y-24329173D01*
X34979036Y-24176764D01*
X34985842Y-24165113D01*
X35013863Y-24121774D01*
X35209792Y-23818737D01*
X35217605Y-23807776D01*
X35471978Y-23483094D01*
X35480748Y-23472888D01*
X35763457Y-23172560D01*
X35773134Y-23163172D01*
X36081846Y-22889676D01*
X36092337Y-22881197D01*
X36270632Y-22750003D01*
X101294867Y-22750003D01*
X101313302Y-22878223D01*
X101313302Y-22878224D01*
X101313303Y-22878226D01*
X101316488Y-22885199D01*
X101367118Y-22996064D01*
X101419915Y-23056995D01*
X101451951Y-23093967D01*
X101560931Y-23164004D01*
X101685228Y-23200500D01*
X101685231Y-23200500D01*
X101814769Y-23200500D01*
X101814772Y-23200500D01*
X101939069Y-23164004D01*
X102048049Y-23093967D01*
X102132882Y-22996063D01*
X102186697Y-22878226D01*
X102195915Y-22814113D01*
X102205133Y-22750003D01*
X102794867Y-22750003D01*
X102813302Y-22878223D01*
X102813302Y-22878224D01*
X102813303Y-22878226D01*
X102816488Y-22885199D01*
X102867118Y-22996064D01*
X102919915Y-23056995D01*
X102951951Y-23093967D01*
X103060931Y-23164004D01*
X103185228Y-23200500D01*
X103185231Y-23200500D01*
X103314769Y-23200500D01*
X103314772Y-23200500D01*
X103439069Y-23164004D01*
X103548049Y-23093967D01*
X103632882Y-22996063D01*
X103686697Y-22878226D01*
X103695915Y-22814113D01*
X103705133Y-22750003D01*
X104294867Y-22750003D01*
X104313302Y-22878223D01*
X104313302Y-22878224D01*
X104313303Y-22878226D01*
X104316488Y-22885199D01*
X104367118Y-22996064D01*
X104419915Y-23056995D01*
X104451951Y-23093967D01*
X104560931Y-23164004D01*
X104685228Y-23200500D01*
X104685231Y-23200500D01*
X104814769Y-23200500D01*
X104814772Y-23200500D01*
X104939069Y-23164004D01*
X105048049Y-23093967D01*
X105129468Y-23000003D01*
X115994353Y-23000003D01*
X116014834Y-23142454D01*
X116014834Y-23142455D01*
X116014835Y-23142457D01*
X116074623Y-23273373D01*
X116168872Y-23382143D01*
X116289947Y-23459953D01*
X116428039Y-23500500D01*
X116428041Y-23500500D01*
X116571959Y-23500500D01*
X116571961Y-23500500D01*
X116710053Y-23459953D01*
X116831128Y-23382143D01*
X116925377Y-23273373D01*
X116985165Y-23142457D01*
X116997451Y-23057004D01*
X117005647Y-23000003D01*
X117005647Y-22999996D01*
X116985165Y-22857545D01*
X116985165Y-22857543D01*
X116936053Y-22750003D01*
X121194867Y-22750003D01*
X121213302Y-22878223D01*
X121213302Y-22878224D01*
X121213303Y-22878226D01*
X121216488Y-22885199D01*
X121267118Y-22996064D01*
X121319915Y-23056995D01*
X121351951Y-23093967D01*
X121460931Y-23164004D01*
X121585228Y-23200500D01*
X121585231Y-23200500D01*
X121714769Y-23200500D01*
X121714772Y-23200500D01*
X121839069Y-23164004D01*
X121948049Y-23093967D01*
X122032882Y-22996063D01*
X122086697Y-22878226D01*
X122095915Y-22814113D01*
X122105133Y-22750003D01*
X122694867Y-22750003D01*
X122713302Y-22878223D01*
X122713302Y-22878224D01*
X122713303Y-22878226D01*
X122716488Y-22885199D01*
X122767118Y-22996064D01*
X122819915Y-23056995D01*
X122851951Y-23093967D01*
X122960931Y-23164004D01*
X123085228Y-23200500D01*
X123085231Y-23200500D01*
X123214769Y-23200500D01*
X123214772Y-23200500D01*
X123339069Y-23164004D01*
X123448049Y-23093967D01*
X123532882Y-22996063D01*
X123586697Y-22878226D01*
X123595915Y-22814113D01*
X123605133Y-22750003D01*
X124194867Y-22750003D01*
X124213302Y-22878223D01*
X124213302Y-22878224D01*
X124213303Y-22878226D01*
X124216488Y-22885199D01*
X124267118Y-22996064D01*
X124319915Y-23056995D01*
X124351951Y-23093967D01*
X124460931Y-23164004D01*
X124585228Y-23200500D01*
X124585231Y-23200500D01*
X124714769Y-23200500D01*
X124714772Y-23200500D01*
X124839069Y-23164004D01*
X124948049Y-23093967D01*
X125032882Y-22996063D01*
X125086697Y-22878226D01*
X125095915Y-22814113D01*
X125105133Y-22750003D01*
X125105133Y-22749996D01*
X125088851Y-22636756D01*
X125086697Y-22621774D01*
X125032882Y-22503937D01*
X125032881Y-22503936D01*
X125032881Y-22503935D01*
X124956595Y-22415896D01*
X124948049Y-22406033D01*
X124839069Y-22335996D01*
X124714772Y-22299500D01*
X124585228Y-22299500D01*
X124460931Y-22335996D01*
X124460928Y-22335997D01*
X124460927Y-22335998D01*
X124351955Y-22406030D01*
X124351952Y-22406031D01*
X124351951Y-22406033D01*
X124351949Y-22406034D01*
X124351948Y-22406036D01*
X124267118Y-22503935D01*
X124213302Y-22621776D01*
X124194867Y-22749996D01*
X124194867Y-22750003D01*
X123605133Y-22750003D01*
X123605133Y-22749996D01*
X123588851Y-22636756D01*
X123586697Y-22621774D01*
X123532882Y-22503937D01*
X123532881Y-22503936D01*
X123532881Y-22503935D01*
X123456595Y-22415896D01*
X123448049Y-22406033D01*
X123339069Y-22335996D01*
X123214772Y-22299500D01*
X123085228Y-22299500D01*
X122960931Y-22335996D01*
X122960928Y-22335997D01*
X122960927Y-22335998D01*
X122851955Y-22406030D01*
X122851952Y-22406031D01*
X122851951Y-22406033D01*
X122851949Y-22406034D01*
X122851948Y-22406036D01*
X122767118Y-22503935D01*
X122713302Y-22621776D01*
X122694867Y-22749996D01*
X122694867Y-22750003D01*
X122105133Y-22750003D01*
X122105133Y-22749996D01*
X122088851Y-22636756D01*
X122086697Y-22621774D01*
X122032882Y-22503937D01*
X122032881Y-22503936D01*
X122032881Y-22503935D01*
X121956595Y-22415896D01*
X121948049Y-22406033D01*
X121839069Y-22335996D01*
X121714772Y-22299500D01*
X121585228Y-22299500D01*
X121460931Y-22335996D01*
X121460928Y-22335997D01*
X121460927Y-22335998D01*
X121351955Y-22406030D01*
X121351952Y-22406031D01*
X121351951Y-22406033D01*
X121351949Y-22406034D01*
X121351948Y-22406036D01*
X121267118Y-22503935D01*
X121213302Y-22621776D01*
X121194867Y-22749996D01*
X121194867Y-22750003D01*
X116936053Y-22750003D01*
X116925377Y-22726627D01*
X116831128Y-22617857D01*
X116831127Y-22617856D01*
X116797465Y-22596223D01*
X116710053Y-22540047D01*
X116710050Y-22540046D01*
X116571967Y-22499501D01*
X116571962Y-22499500D01*
X116571961Y-22499500D01*
X116428039Y-22499500D01*
X116428037Y-22499500D01*
X116428032Y-22499501D01*
X116289949Y-22540046D01*
X116168872Y-22617856D01*
X116168870Y-22617859D01*
X116074622Y-22726628D01*
X116014834Y-22857545D01*
X115994353Y-22999996D01*
X115994353Y-23000003D01*
X105129468Y-23000003D01*
X105132882Y-22996063D01*
X105186697Y-22878226D01*
X105195915Y-22814113D01*
X105205133Y-22750003D01*
X105205133Y-22749996D01*
X105188851Y-22636756D01*
X105186697Y-22621774D01*
X105132882Y-22503937D01*
X105132881Y-22503936D01*
X105132881Y-22503935D01*
X105056595Y-22415896D01*
X105048049Y-22406033D01*
X104939069Y-22335996D01*
X104814772Y-22299500D01*
X104685228Y-22299500D01*
X104560931Y-22335996D01*
X104560928Y-22335997D01*
X104560927Y-22335998D01*
X104451955Y-22406030D01*
X104451952Y-22406031D01*
X104451951Y-22406033D01*
X104451949Y-22406034D01*
X104451948Y-22406036D01*
X104367118Y-22503935D01*
X104313302Y-22621776D01*
X104294867Y-22749996D01*
X104294867Y-22750003D01*
X103705133Y-22750003D01*
X103705133Y-22749996D01*
X103688851Y-22636756D01*
X103686697Y-22621774D01*
X103632882Y-22503937D01*
X103632881Y-22503936D01*
X103632881Y-22503935D01*
X103556595Y-22415896D01*
X103548049Y-22406033D01*
X103439069Y-22335996D01*
X103314772Y-22299500D01*
X103185228Y-22299500D01*
X103060931Y-22335996D01*
X103060928Y-22335997D01*
X103060927Y-22335998D01*
X102951955Y-22406030D01*
X102951952Y-22406031D01*
X102951951Y-22406033D01*
X102951949Y-22406034D01*
X102951948Y-22406036D01*
X102867118Y-22503935D01*
X102813302Y-22621776D01*
X102794867Y-22749996D01*
X102794867Y-22750003D01*
X102205133Y-22750003D01*
X102205133Y-22749996D01*
X102188851Y-22636756D01*
X102186697Y-22621774D01*
X102132882Y-22503937D01*
X102132881Y-22503936D01*
X102132881Y-22503935D01*
X102056595Y-22415896D01*
X102048049Y-22406033D01*
X101939069Y-22335996D01*
X101814772Y-22299500D01*
X101685228Y-22299500D01*
X101560931Y-22335996D01*
X101560928Y-22335997D01*
X101560927Y-22335998D01*
X101451955Y-22406030D01*
X101451952Y-22406031D01*
X101451951Y-22406033D01*
X101451949Y-22406034D01*
X101451948Y-22406036D01*
X101367118Y-22503935D01*
X101313302Y-22621776D01*
X101294867Y-22749996D01*
X101294867Y-22750003D01*
X36270632Y-22750003D01*
X36424547Y-22636749D01*
X36435731Y-22629276D01*
X36788719Y-22415886D01*
X36800548Y-22409447D01*
X37171384Y-22228885D01*
X37183757Y-22223539D01*
X37569412Y-22077278D01*
X37582214Y-22073076D01*
X37979501Y-21962323D01*
X37992648Y-21959292D01*
X38398328Y-21884945D01*
X38411692Y-21883116D01*
X38824966Y-21845560D01*
X38836749Y-21844959D01*
X39043202Y-21842642D01*
X39044569Y-21842634D01*
X143999827Y-21800500D01*
X152710438Y-21800500D01*
X160018052Y-21800500D01*
X160039123Y-21801997D01*
G37*
G04 #@! TD.AperFunction*
M02*
