G04 #@! TF.GenerationSoftware,KiCad,Pcbnew,8.0.1-rc2-202403101705~c0fd138706~ubuntu22.04.1*
G04 #@! TF.CreationDate,2024-03-11T22:08:16-04:00*
G04 #@! TF.ProjectId,Balance_Controller,42616c61-6e63-4655-9f43-6f6e74726f6c,rev?*
G04 #@! TF.SameCoordinates,Original*
G04 #@! TF.FileFunction,Soldermask,Bot*
G04 #@! TF.FilePolarity,Negative*
%FSLAX46Y46*%
G04 Gerber Fmt 4.6, Leading zero omitted, Abs format (unit mm)*
G04 Created by KiCad (PCBNEW 8.0.1-rc2-202403101705~c0fd138706~ubuntu22.04.1) date 2024-03-11 22:08:16*
%MOMM*%
%LPD*%
G01*
G04 APERTURE LIST*
G04 Aperture macros list*
%AMRoundRect*
0 Rectangle with rounded corners*
0 $1 Rounding radius*
0 $2 $3 $4 $5 $6 $7 $8 $9 X,Y pos of 4 corners*
0 Add a 4 corners polygon primitive as box body*
4,1,4,$2,$3,$4,$5,$6,$7,$8,$9,$2,$3,0*
0 Add four circle primitives for the rounded corners*
1,1,$1+$1,$2,$3*
1,1,$1+$1,$4,$5*
1,1,$1+$1,$6,$7*
1,1,$1+$1,$8,$9*
0 Add four rect primitives between the rounded corners*
20,1,$1+$1,$2,$3,$4,$5,0*
20,1,$1+$1,$4,$5,$6,$7,0*
20,1,$1+$1,$6,$7,$8,$9,0*
20,1,$1+$1,$8,$9,$2,$3,0*%
G04 Aperture macros list end*
%ADD10RoundRect,0.250000X-0.600000X-0.725000X0.600000X-0.725000X0.600000X0.725000X-0.600000X0.725000X0*%
%ADD11O,1.700000X1.950000*%
%ADD12C,5.400000*%
%ADD13C,0.850000*%
%ADD14C,5.600000*%
%ADD15C,2.400000*%
%ADD16RoundRect,1.500000X-1.500000X1.500000X-1.500000X-1.500000X1.500000X-1.500000X1.500000X1.500000X0*%
%ADD17C,6.000000*%
%ADD18R,1.700000X1.700000*%
%ADD19O,1.700000X1.700000*%
%ADD20RoundRect,0.200000X-0.275000X0.200000X-0.275000X-0.200000X0.275000X-0.200000X0.275000X0.200000X0*%
%ADD21RoundRect,0.250000X0.350000X0.625000X-0.350000X0.625000X-0.350000X-0.625000X0.350000X-0.625000X0*%
%ADD22O,1.200000X1.750000*%
%ADD23RoundRect,0.112500X0.112500X-0.187500X0.112500X0.187500X-0.112500X0.187500X-0.112500X-0.187500X0*%
%ADD24RoundRect,0.200000X0.275000X-0.200000X0.275000X0.200000X-0.275000X0.200000X-0.275000X-0.200000X0*%
%ADD25RoundRect,0.225000X-0.250000X0.225000X-0.250000X-0.225000X0.250000X-0.225000X0.250000X0.225000X0*%
%ADD26RoundRect,0.112500X-0.112500X-0.237500X0.112500X-0.237500X0.112500X0.237500X-0.112500X0.237500X0*%
G04 APERTURE END LIST*
D10*
X82250000Y-54750000D03*
D11*
X84750000Y-54750000D03*
X87250000Y-54750000D03*
X89750000Y-54750000D03*
D12*
X55000000Y-28000000D03*
X91500000Y-28000000D03*
D13*
X116074695Y-74896016D03*
X118196016Y-72774695D03*
D14*
X159500000Y-26542136D03*
D15*
X81500000Y-45920000D03*
X78100000Y-45920000D03*
X81500000Y-36000000D03*
X78100000Y-36000000D03*
D12*
X70250000Y-57250000D03*
D14*
X99500000Y-87000000D03*
D12*
X68000000Y-28000000D03*
D16*
X91500000Y-37420000D03*
D17*
X91500000Y-44620000D03*
D12*
X63750000Y-50750000D03*
D18*
X140000000Y-26500000D03*
D19*
X142540000Y-26500000D03*
X145080000Y-26500000D03*
X147620000Y-26500000D03*
X150160000Y-26500000D03*
X152700000Y-26500000D03*
D12*
X55000000Y-40500000D03*
D14*
X39500000Y-26542136D03*
D12*
X80000000Y-28000000D03*
D10*
X82250000Y-62420000D03*
D11*
X84750000Y-62420000D03*
X87250000Y-62420000D03*
X89750000Y-62420000D03*
D20*
X120587370Y-60675000D03*
X120587370Y-62325000D03*
D21*
X120500000Y-41500000D03*
D22*
X118500000Y-41500000D03*
D23*
X124000000Y-43800000D03*
X124000000Y-41700000D03*
X108500000Y-47800000D03*
X108500000Y-45700000D03*
X142500000Y-31300000D03*
X142500000Y-29200000D03*
D24*
X120750000Y-49825000D03*
X120750000Y-48175000D03*
D25*
X124750000Y-55450000D03*
X124750000Y-57000000D03*
D26*
X148350000Y-29250000D03*
X149650000Y-29250000D03*
X149000000Y-31250000D03*
D21*
X113500000Y-41500000D03*
D22*
X111500000Y-41500000D03*
D21*
X106500000Y-41500000D03*
D22*
X104500000Y-41500000D03*
X102500000Y-41500000D03*
M02*
