G04 #@! TF.GenerationSoftware,KiCad,Pcbnew,7.0.10-7.0.10~ubuntu22.04.1*
G04 #@! TF.CreationDate,2024-02-06T20:51:40-05:00*
G04 #@! TF.ProjectId,PCB,5043422e-6b69-4636-9164-5f7063625858,rev?*
G04 #@! TF.SameCoordinates,Original*
G04 #@! TF.FileFunction,Copper,L4,Bot*
G04 #@! TF.FilePolarity,Positive*
%FSLAX46Y46*%
G04 Gerber Fmt 4.6, Leading zero omitted, Abs format (unit mm)*
G04 Created by KiCad (PCBNEW 7.0.10-7.0.10~ubuntu22.04.1) date 2024-02-06 20:51:40*
%MOMM*%
%LPD*%
G01*
G04 APERTURE LIST*
G04 Aperture macros list*
%AMRoundRect*
0 Rectangle with rounded corners*
0 $1 Rounding radius*
0 $2 $3 $4 $5 $6 $7 $8 $9 X,Y pos of 4 corners*
0 Add a 4 corners polygon primitive as box body*
4,1,4,$2,$3,$4,$5,$6,$7,$8,$9,$2,$3,0*
0 Add four circle primitives for the rounded corners*
1,1,$1+$1,$2,$3*
1,1,$1+$1,$4,$5*
1,1,$1+$1,$6,$7*
1,1,$1+$1,$8,$9*
0 Add four rect primitives between the rounded corners*
20,1,$1+$1,$2,$3,$4,$5,0*
20,1,$1+$1,$4,$5,$6,$7,0*
20,1,$1+$1,$6,$7,$8,$9,0*
20,1,$1+$1,$8,$9,$2,$3,0*%
%AMHorizOval*
0 Thick line with rounded ends*
0 $1 width*
0 $2 $3 position (X,Y) of the first rounded end (center of the circle)*
0 $4 $5 position (X,Y) of the second rounded end (center of the circle)*
0 Add line between two ends*
20,1,$1,$2,$3,$4,$5,0*
0 Add two circle primitives to create the rounded ends*
1,1,$1,$2,$3*
1,1,$1,$4,$5*%
%AMRotRect*
0 Rectangle, with rotation*
0 The origin of the aperture is its center*
0 $1 length*
0 $2 width*
0 $3 Rotation angle, in degrees counterclockwise*
0 Add horizontal line*
21,1,$1,$2,0,0,$3*%
G04 Aperture macros list end*
G04 #@! TA.AperFunction,ComponentPad*
%ADD10C,5.400000*%
G04 #@! TD*
G04 #@! TA.AperFunction,ComponentPad*
%ADD11C,5.600000*%
G04 #@! TD*
G04 #@! TA.AperFunction,ComponentPad*
%ADD12RotRect,1.000000X1.000000X135.000000*%
G04 #@! TD*
G04 #@! TA.AperFunction,ComponentPad*
%ADD13HorizOval,1.000000X0.000000X0.000000X0.000000X0.000000X0*%
G04 #@! TD*
G04 #@! TA.AperFunction,ComponentPad*
%ADD14C,2.400000*%
G04 #@! TD*
G04 #@! TA.AperFunction,ComponentPad*
%ADD15RoundRect,1.500000X-1.500000X1.500000X-1.500000X-1.500000X1.500000X-1.500000X1.500000X1.500000X0*%
G04 #@! TD*
G04 #@! TA.AperFunction,ComponentPad*
%ADD16C,6.000000*%
G04 #@! TD*
G04 #@! TA.AperFunction,ComponentPad*
%ADD17RoundRect,0.250000X-0.600000X-0.725000X0.600000X-0.725000X0.600000X0.725000X-0.600000X0.725000X0*%
G04 #@! TD*
G04 #@! TA.AperFunction,ComponentPad*
%ADD18O,1.700000X1.950000*%
G04 #@! TD*
G04 #@! TA.AperFunction,SMDPad,CuDef*
%ADD19RoundRect,0.200000X-0.275000X0.200000X-0.275000X-0.200000X0.275000X-0.200000X0.275000X0.200000X0*%
G04 #@! TD*
G04 #@! TA.AperFunction,ComponentPad*
%ADD20RoundRect,0.250000X0.350000X0.625000X-0.350000X0.625000X-0.350000X-0.625000X0.350000X-0.625000X0*%
G04 #@! TD*
G04 #@! TA.AperFunction,ComponentPad*
%ADD21O,1.200000X1.750000*%
G04 #@! TD*
G04 #@! TA.AperFunction,SMDPad,CuDef*
%ADD22RoundRect,0.112500X0.112500X-0.187500X0.112500X0.187500X-0.112500X0.187500X-0.112500X-0.187500X0*%
G04 #@! TD*
G04 #@! TA.AperFunction,SMDPad,CuDef*
%ADD23RoundRect,0.200000X0.275000X-0.200000X0.275000X0.200000X-0.275000X0.200000X-0.275000X-0.200000X0*%
G04 #@! TD*
G04 #@! TA.AperFunction,SMDPad,CuDef*
%ADD24RoundRect,0.225000X-0.250000X0.225000X-0.250000X-0.225000X0.250000X-0.225000X0.250000X0.225000X0*%
G04 #@! TD*
G04 #@! TA.AperFunction,ViaPad*
%ADD25C,1.000000*%
G04 #@! TD*
G04 #@! TA.AperFunction,ViaPad*
%ADD26C,0.700000*%
G04 #@! TD*
G04 #@! TA.AperFunction,ViaPad*
%ADD27C,0.800000*%
G04 #@! TD*
G04 #@! TA.AperFunction,Conductor*
%ADD28C,0.700000*%
G04 #@! TD*
G04 #@! TA.AperFunction,Conductor*
%ADD29C,0.300000*%
G04 #@! TD*
G04 #@! TA.AperFunction,Conductor*
%ADD30C,0.400000*%
G04 #@! TD*
G04 #@! TA.AperFunction,Conductor*
%ADD31C,0.250000*%
G04 #@! TD*
G04 APERTURE END LIST*
D10*
X49000000Y-36000000D03*
X91500000Y-28000000D03*
D11*
X159500000Y-26542136D03*
D12*
X153805923Y-36694077D03*
D13*
X154703949Y-35796051D03*
X155601974Y-34898026D03*
X156500000Y-34000000D03*
X157398025Y-33101975D03*
D14*
X81500000Y-45920000D03*
X78100000Y-45920000D03*
X81500000Y-36000000D03*
X78100000Y-36000000D03*
D10*
X70250000Y-57250000D03*
D11*
X99500000Y-87000000D03*
D10*
X68000000Y-28000000D03*
D15*
X91500000Y-37420000D03*
D16*
X91500000Y-44620000D03*
D10*
X63750000Y-50750000D03*
D17*
X78500000Y-54920000D03*
D18*
X81000000Y-54920000D03*
X83500000Y-54920000D03*
X86000000Y-54920000D03*
X88500000Y-54920000D03*
X91000000Y-54920000D03*
X93500000Y-54920000D03*
D12*
X112750000Y-77750000D03*
D13*
X113648026Y-76851974D03*
X114546051Y-75953949D03*
X115444077Y-75055923D03*
X116342102Y-74157898D03*
D10*
X55000000Y-28000000D03*
D11*
X39500000Y-26542136D03*
D10*
X80000000Y-28000000D03*
D17*
X82250000Y-62420000D03*
D18*
X84750000Y-62420000D03*
X87250000Y-62420000D03*
X89750000Y-62420000D03*
D19*
X120587370Y-60675000D03*
X120587370Y-62325000D03*
D20*
X120500000Y-41500000D03*
D21*
X118500000Y-41500000D03*
D22*
X124000000Y-43800000D03*
X124000000Y-41700000D03*
X108500000Y-47800000D03*
X108500000Y-45700000D03*
D23*
X120750000Y-49825000D03*
X120750000Y-48175000D03*
D24*
X124750000Y-55450000D03*
X124750000Y-57000000D03*
D20*
X113500000Y-41500000D03*
D21*
X111500000Y-41500000D03*
D20*
X106500000Y-41500000D03*
D21*
X104500000Y-41500000D03*
X102500000Y-41500000D03*
D25*
X57750000Y-38500000D03*
X56000000Y-38500000D03*
D26*
X121650000Y-24250000D03*
D25*
X56000000Y-43750000D03*
D26*
X103250000Y-22750000D03*
D25*
X54250000Y-38500000D03*
D26*
X103250000Y-24250000D03*
X121650000Y-22750000D03*
X104750000Y-22750000D03*
X124650000Y-22750000D03*
D25*
X56000000Y-33250000D03*
X54250000Y-33250000D03*
D26*
X101750000Y-22750000D03*
D27*
X116500000Y-23000000D03*
D25*
X57750000Y-33250000D03*
D26*
X104750000Y-24250000D03*
D25*
X54250000Y-43750000D03*
D26*
X124650000Y-24250000D03*
X123150000Y-22750000D03*
D25*
X57750000Y-43750000D03*
D26*
X123150000Y-24250000D03*
X101750000Y-24250000D03*
X103500000Y-54500000D03*
X120900000Y-34400000D03*
X119900000Y-35500000D03*
X110750000Y-80250000D03*
X111500000Y-43250000D03*
X131650000Y-30250000D03*
X123750000Y-51500000D03*
D27*
X42250000Y-33250000D03*
D26*
X117850000Y-53900000D03*
X136750000Y-27500000D03*
X117250000Y-60500000D03*
X153500000Y-28750000D03*
X102500000Y-43250000D03*
X129750000Y-52750000D03*
X142800000Y-40900000D03*
X111750000Y-48000000D03*
X101000000Y-34400000D03*
X126000000Y-57100000D03*
X106250000Y-57300000D03*
X138500000Y-50000000D03*
X107500000Y-54500000D03*
X110100000Y-32000000D03*
X114750000Y-58500000D03*
X136500000Y-50000000D03*
X128500000Y-32000000D03*
X120650000Y-53900000D03*
X128500000Y-30250000D03*
X111750000Y-30250000D03*
X107000000Y-32000000D03*
X149500000Y-36000000D03*
X103750000Y-80250000D03*
X146200000Y-40900000D03*
X111750000Y-28500000D03*
X101750000Y-79750000D03*
X111750000Y-32000000D03*
X126250000Y-59250000D03*
X100000000Y-24750000D03*
X110100000Y-28500000D03*
X99800000Y-35500000D03*
X130000000Y-30250000D03*
X158648025Y-31851975D03*
X96500000Y-75750000D03*
X119900000Y-24700000D03*
X105500000Y-47250000D03*
X87000000Y-31750000D03*
X120650000Y-56700000D03*
X99250000Y-80000000D03*
X128500000Y-28500000D03*
X103750000Y-74000000D03*
X117850000Y-56700000D03*
X108500000Y-47000000D03*
X123750000Y-57000000D03*
X124000000Y-42800000D03*
X130000000Y-32000000D03*
D25*
X56500000Y-48500000D03*
D26*
X142800000Y-37000000D03*
X114750000Y-53500000D03*
X104900000Y-76400000D03*
X117350000Y-48087500D03*
X152000000Y-25946639D03*
X119250000Y-55300000D03*
X108500000Y-28500000D03*
X131650000Y-32000000D03*
X108750000Y-62500000D03*
X140750000Y-23548879D03*
X102750000Y-58850000D03*
X108500000Y-32000000D03*
X104750000Y-57300000D03*
X118500000Y-35500000D03*
X130000000Y-28500000D03*
X123250000Y-62000000D03*
X142700000Y-34200000D03*
X133000000Y-49500000D03*
X110100000Y-30250000D03*
X105500000Y-64250000D03*
X126000000Y-48000000D03*
X130000000Y-54900000D03*
X126900000Y-32000000D03*
X99000000Y-82250000D03*
X108500000Y-30250000D03*
X100500000Y-63000000D03*
X116500000Y-69250000D03*
X117250000Y-73250000D03*
X142700000Y-33400000D03*
X118500000Y-43250000D03*
X114500000Y-62000000D03*
X123750000Y-60000000D03*
X131500000Y-28500000D03*
X102500000Y-75750000D03*
X123250000Y-61000000D03*
X110750000Y-55500000D03*
X123750000Y-58750000D03*
X133250000Y-35500000D03*
X134500000Y-38500000D03*
X120750000Y-47250000D03*
X133250000Y-38500000D03*
X97675000Y-71500000D03*
X135750000Y-37000000D03*
X128500000Y-26500000D03*
X111750000Y-50000000D03*
X133000000Y-48500000D03*
X142800000Y-39000000D03*
X134500000Y-35500000D03*
X114500000Y-61000000D03*
X144500000Y-39000000D03*
X119900000Y-28500000D03*
X103825000Y-71500000D03*
X104900000Y-77400000D03*
X120000000Y-65750000D03*
X98000000Y-82250000D03*
X135750000Y-38500000D03*
X134500000Y-37000000D03*
X133250000Y-37000000D03*
X135750000Y-35500000D03*
X110000000Y-77250000D03*
X114750000Y-37000000D03*
X100000000Y-28500000D03*
X100500000Y-61949997D03*
X113500000Y-38500000D03*
X113500000Y-37000000D03*
X114750000Y-35500000D03*
X116000000Y-38500000D03*
X116000000Y-37000000D03*
X108250000Y-59000000D03*
X136500000Y-26250000D03*
X108500000Y-26500000D03*
X116000000Y-35500000D03*
X113500000Y-35500000D03*
X114750000Y-38500000D03*
X136500000Y-48000000D03*
X138500000Y-48000000D03*
X124750000Y-54225000D03*
D27*
X70000000Y-38500000D03*
D25*
X68000000Y-45000000D03*
D27*
X66000000Y-42500000D03*
D25*
X65250000Y-31750000D03*
X68000000Y-31750000D03*
D27*
X66000000Y-34500000D03*
X70000000Y-34500000D03*
D25*
X71000000Y-45000000D03*
X71000000Y-47250000D03*
D27*
X70000000Y-42500000D03*
D25*
X71000000Y-31750000D03*
D27*
X66000000Y-38500000D03*
D25*
X68000000Y-47250000D03*
X65250000Y-45000000D03*
D26*
X114750000Y-54500000D03*
X120750000Y-50750000D03*
X118000000Y-59750000D03*
X114750000Y-57500000D03*
X116500000Y-59750000D03*
X152000000Y-22750000D03*
X144451680Y-30000000D03*
X145650560Y-30000000D03*
X99325000Y-69500000D03*
X107250000Y-66500000D03*
X136750000Y-28500000D03*
X150500000Y-28250000D03*
X120587370Y-59750000D03*
X118250000Y-67500000D03*
X108750000Y-61500000D03*
X103750000Y-58850000D03*
X120500000Y-38750000D03*
X122000000Y-38750000D03*
X120500000Y-37750000D03*
X122000000Y-37750000D03*
X102250000Y-37750000D03*
X100250000Y-37750000D03*
X102250000Y-38750000D03*
X100250000Y-38750000D03*
D25*
X82250000Y-32000000D03*
X75500000Y-37750000D03*
X79750000Y-38500000D03*
X84000000Y-34000000D03*
X79750000Y-34000000D03*
X75500000Y-34000000D03*
X84000000Y-37750000D03*
X77500000Y-32000000D03*
D28*
X118500000Y-43250000D02*
X118500000Y-41500000D01*
D29*
X108500000Y-47800000D02*
X108500000Y-47000000D01*
D28*
X102500000Y-43250000D02*
X102500000Y-41500000D01*
X111500000Y-43250000D02*
X111500000Y-41500000D01*
X123750000Y-57000000D02*
X124750000Y-57000000D01*
X124000000Y-42800000D02*
X124000000Y-43800000D01*
X120750000Y-48175000D02*
X120750000Y-47250000D01*
D30*
X124750000Y-54225000D02*
X124750000Y-53250000D01*
D28*
X137500000Y-48000000D02*
X138500000Y-48000000D01*
D30*
X137000000Y-49250000D02*
X137500000Y-48750000D01*
X133000000Y-51500000D02*
X135250000Y-49250000D01*
X126500000Y-51500000D02*
X133000000Y-51500000D01*
D28*
X124750000Y-54225000D02*
X124750000Y-55450000D01*
D30*
X124750000Y-53250000D02*
X126500000Y-51500000D01*
X137500000Y-48750000D02*
X137500000Y-48000000D01*
D28*
X136500000Y-48000000D02*
X137500000Y-48000000D01*
D30*
X135250000Y-49250000D02*
X137000000Y-49250000D01*
X113500000Y-41500000D02*
X113500000Y-43000000D01*
X114000000Y-54500000D02*
X110750000Y-51250000D01*
X114750000Y-54500000D02*
X114000000Y-54500000D01*
X113500000Y-43000000D02*
X110800000Y-45700000D01*
X110800000Y-45700000D02*
X108500000Y-45700000D01*
X110750000Y-51250000D02*
X110750000Y-45700000D01*
D28*
X120700000Y-41700000D02*
X120500000Y-41500000D01*
X120750000Y-50750000D02*
X120750000Y-49825000D01*
D30*
X121462500Y-49825000D02*
X122500000Y-48787500D01*
X120750000Y-49825000D02*
X121462500Y-49825000D01*
X124000000Y-41700000D02*
X122750000Y-41700000D01*
X122500000Y-48787500D02*
X122500000Y-41700000D01*
X122750000Y-41700000D02*
X120700000Y-41700000D01*
D29*
X118000000Y-66250000D02*
X115000000Y-69250000D01*
X115000000Y-69250000D02*
X115000000Y-74361846D01*
X115000000Y-74361846D02*
X115500000Y-74861846D01*
X118000000Y-59750000D02*
X118000000Y-66250000D01*
X114000000Y-57500000D02*
X112750000Y-58750000D01*
X112750000Y-75953948D02*
X113648026Y-76851974D01*
X114750000Y-57500000D02*
X114000000Y-57500000D01*
X112750000Y-58750000D02*
X112750000Y-75953948D01*
X114000000Y-75157898D02*
X114000000Y-65750000D01*
X114500000Y-75657898D02*
X114000000Y-75157898D01*
X116500000Y-63250000D02*
X116500000Y-59750000D01*
X114000000Y-65750000D02*
X116500000Y-63250000D01*
D30*
X154500000Y-25250000D02*
X154500000Y-32000000D01*
X154500000Y-32000000D02*
X156500000Y-34000000D01*
X152000000Y-22750000D02*
X154500000Y-25250000D01*
D31*
X153907898Y-35000000D02*
X148625000Y-35000000D01*
X154703949Y-35796051D02*
X153907898Y-35000000D01*
X148625000Y-35000000D02*
X144451680Y-30826680D01*
X144451680Y-30826680D02*
X144451680Y-30000000D01*
X145650560Y-30650560D02*
X145650560Y-30000000D01*
X149000000Y-34000000D02*
X145650560Y-30650560D01*
X154703948Y-34000000D02*
X149000000Y-34000000D01*
X155601974Y-34898026D02*
X154703948Y-34000000D01*
D29*
X107250000Y-66500000D02*
X104500000Y-66500000D01*
X101500000Y-69500000D02*
X99325000Y-69500000D01*
X104500000Y-66500000D02*
X101500000Y-69500000D01*
D30*
X149500000Y-28250000D02*
X150500000Y-28250000D01*
X149250000Y-28500000D02*
X149500000Y-28250000D01*
X136750000Y-28500000D02*
X149250000Y-28500000D01*
D28*
X120587370Y-60675000D02*
X120587370Y-59750000D01*
D29*
X120587370Y-62912630D02*
X119250000Y-64250000D01*
X120587370Y-62325000D02*
X120587370Y-62912630D01*
X119250000Y-64250000D02*
X119250000Y-66500000D01*
D30*
X120750000Y-62487630D02*
X120587370Y-62325000D01*
D29*
X119250000Y-66500000D02*
X118250000Y-67500000D01*
X103750000Y-59425000D02*
X105825000Y-61500000D01*
X103750000Y-58850000D02*
X103750000Y-59425000D01*
X105825000Y-61500000D02*
X108750000Y-61500000D01*
G04 #@! TA.AperFunction,Conductor*
G36*
X82522708Y-24519685D02*
G01*
X82534282Y-24528104D01*
X83661834Y-25452476D01*
X83701197Y-25510200D01*
X83704810Y-25524051D01*
X84802681Y-31013408D01*
X84804486Y-31025507D01*
X84999397Y-32993910D01*
X85000000Y-33006129D01*
X85000000Y-38448638D01*
X84980315Y-38515677D01*
X84963681Y-38536319D01*
X84036319Y-39463681D01*
X83974996Y-39497166D01*
X83948638Y-39500000D01*
X75551362Y-39500000D01*
X75484323Y-39480315D01*
X75463681Y-39463681D01*
X74536319Y-38536319D01*
X74502834Y-38474996D01*
X74500000Y-38448638D01*
X74500000Y-33008091D01*
X74501051Y-32991979D01*
X74756612Y-31041783D01*
X74759748Y-31025945D01*
X74759865Y-31025507D01*
X75500000Y-28250000D01*
X76231480Y-25506944D01*
X76267773Y-25447242D01*
X76275748Y-25440565D01*
X77466589Y-24525669D01*
X77531743Y-24500436D01*
X77542134Y-24500000D01*
X82455669Y-24500000D01*
X82522708Y-24519685D01*
G37*
G04 #@! TD.AperFunction*
G04 #@! TA.AperFunction,Conductor*
G36*
X122465677Y-34769685D02*
G01*
X122486319Y-34786319D01*
X122713681Y-35013681D01*
X122747166Y-35075004D01*
X122750000Y-35101362D01*
X122750000Y-39148638D01*
X122730315Y-39215677D01*
X122713681Y-39236319D01*
X122486319Y-39463681D01*
X122424996Y-39497166D01*
X122398638Y-39500000D01*
X119851362Y-39500000D01*
X119784323Y-39480315D01*
X119763681Y-39463681D01*
X119536319Y-39236319D01*
X119502834Y-39174996D01*
X119500000Y-39148638D01*
X119500000Y-36601362D01*
X119519685Y-36534323D01*
X119536319Y-36513681D01*
X119763681Y-36286319D01*
X119825004Y-36252834D01*
X119851362Y-36250000D01*
X121200000Y-36250000D01*
X121500000Y-36250000D01*
X121500000Y-35101362D01*
X121519685Y-35034323D01*
X121536319Y-35013681D01*
X121763681Y-34786319D01*
X121825004Y-34752834D01*
X121851362Y-34750000D01*
X122398638Y-34750000D01*
X122465677Y-34769685D01*
G37*
G04 #@! TD.AperFunction*
G04 #@! TA.AperFunction,Conductor*
G36*
X102715438Y-34774430D02*
G01*
X102737094Y-34791439D01*
X102962948Y-35013560D01*
X102996942Y-35074602D01*
X103000000Y-35101969D01*
X103000000Y-39148638D01*
X102980315Y-39215677D01*
X102963681Y-39236319D01*
X102736319Y-39463681D01*
X102674996Y-39497166D01*
X102648638Y-39500000D01*
X99751362Y-39500000D01*
X99684323Y-39480315D01*
X99663681Y-39463681D01*
X99436319Y-39236319D01*
X99402834Y-39174996D01*
X99400000Y-39148638D01*
X99400000Y-36851362D01*
X99419685Y-36784323D01*
X99436319Y-36763681D01*
X99663681Y-36536319D01*
X99725004Y-36502834D01*
X99751362Y-36500000D01*
X101200000Y-36500000D01*
X101500000Y-36500000D01*
X101500000Y-35125758D01*
X101519685Y-35058719D01*
X101535587Y-35038814D01*
X101764367Y-34806189D01*
X101825409Y-34772196D01*
X101850709Y-34769155D01*
X102250000Y-34762500D01*
X102648080Y-34755865D01*
X102715438Y-34774430D01*
G37*
G04 #@! TD.AperFunction*
G04 #@! TA.AperFunction,Conductor*
G36*
X71262782Y-24519962D02*
G01*
X71293641Y-24543641D01*
X72206359Y-25456359D01*
X72244923Y-25523154D01*
X72250000Y-25561718D01*
X72250000Y-47220410D01*
X72238695Y-47277342D01*
X71555105Y-48930669D01*
X71522904Y-48978959D01*
X70470976Y-50033586D01*
X64885232Y-55633659D01*
X64818486Y-55672308D01*
X64779833Y-55677435D01*
X63490074Y-55678261D01*
X63415562Y-55658346D01*
X63384620Y-55634620D01*
X58875748Y-51125748D01*
X58837184Y-51058953D01*
X58832107Y-51020389D01*
X58832107Y-49729611D01*
X58852069Y-49655111D01*
X58875744Y-49624256D01*
X63042893Y-45457107D01*
X63042892Y-45457107D01*
X63750000Y-44750000D01*
X63750000Y-25561718D01*
X63769962Y-25487218D01*
X63793641Y-25456359D01*
X64706359Y-24543641D01*
X64773154Y-24505077D01*
X64811718Y-24500000D01*
X71188282Y-24500000D01*
X71262782Y-24519962D01*
G37*
G04 #@! TD.AperFunction*
M02*
