G04 #@! TF.GenerationSoftware,KiCad,Pcbnew,7.0.10-7.0.10~ubuntu22.04.1*
G04 #@! TF.CreationDate,2024-02-06T20:51:40-05:00*
G04 #@! TF.ProjectId,PCB,5043422e-6b69-4636-9164-5f7063625858,rev?*
G04 #@! TF.SameCoordinates,Original*
G04 #@! TF.FileFunction,Soldermask,Top*
G04 #@! TF.FilePolarity,Negative*
%FSLAX46Y46*%
G04 Gerber Fmt 4.6, Leading zero omitted, Abs format (unit mm)*
G04 Created by KiCad (PCBNEW 7.0.10-7.0.10~ubuntu22.04.1) date 2024-02-06 20:51:40*
%MOMM*%
%LPD*%
G01*
G04 APERTURE LIST*
G04 Aperture macros list*
%AMRoundRect*
0 Rectangle with rounded corners*
0 $1 Rounding radius*
0 $2 $3 $4 $5 $6 $7 $8 $9 X,Y pos of 4 corners*
0 Add a 4 corners polygon primitive as box body*
4,1,4,$2,$3,$4,$5,$6,$7,$8,$9,$2,$3,0*
0 Add four circle primitives for the rounded corners*
1,1,$1+$1,$2,$3*
1,1,$1+$1,$4,$5*
1,1,$1+$1,$6,$7*
1,1,$1+$1,$8,$9*
0 Add four rect primitives between the rounded corners*
20,1,$1+$1,$2,$3,$4,$5,0*
20,1,$1+$1,$4,$5,$6,$7,0*
20,1,$1+$1,$6,$7,$8,$9,0*
20,1,$1+$1,$8,$9,$2,$3,0*%
%AMHorizOval*
0 Thick line with rounded ends*
0 $1 width*
0 $2 $3 position (X,Y) of the first rounded end (center of the circle)*
0 $4 $5 position (X,Y) of the second rounded end (center of the circle)*
0 Add line between two ends*
20,1,$1,$2,$3,$4,$5,0*
0 Add two circle primitives to create the rounded ends*
1,1,$1,$2,$3*
1,1,$1,$4,$5*%
%AMRotRect*
0 Rectangle, with rotation*
0 The origin of the aperture is its center*
0 $1 length*
0 $2 width*
0 $3 Rotation angle, in degrees counterclockwise*
0 Add horizontal line*
21,1,$1,$2,0,0,$3*%
G04 Aperture macros list end*
%ADD10RoundRect,0.200000X-0.275000X0.200000X-0.275000X-0.200000X0.275000X-0.200000X0.275000X0.200000X0*%
%ADD11RoundRect,0.243750X0.243750X0.456250X-0.243750X0.456250X-0.243750X-0.456250X0.243750X-0.456250X0*%
%ADD12RoundRect,0.250000X0.475000X-0.250000X0.475000X0.250000X-0.475000X0.250000X-0.475000X-0.250000X0*%
%ADD13RoundRect,0.225000X-0.225000X-0.250000X0.225000X-0.250000X0.225000X0.250000X-0.225000X0.250000X0*%
%ADD14RoundRect,0.250000X0.450000X-0.262500X0.450000X0.262500X-0.450000X0.262500X-0.450000X-0.262500X0*%
%ADD15RoundRect,0.250000X1.100000X-0.325000X1.100000X0.325000X-1.100000X0.325000X-1.100000X-0.325000X0*%
%ADD16RoundRect,0.243750X-0.456250X0.243750X-0.456250X-0.243750X0.456250X-0.243750X0.456250X0.243750X0*%
%ADD17R,0.812800X0.254000*%
%ADD18R,1.092200X0.304800*%
%ADD19R,0.508000X0.254000*%
%ADD20R,0.711200X0.254000*%
%ADD21R,0.254000X0.711200*%
%ADD22R,0.304800X1.092200*%
%ADD23R,0.254000X0.406400*%
%ADD24C,5.400000*%
%ADD25R,1.950000X1.100000*%
%ADD26C,0.850000*%
%ADD27RotRect,1.000000X1.200000X45.000000*%
%ADD28C,5.600000*%
%ADD29R,0.350000X0.650000*%
%ADD30R,2.400000X1.550000*%
%ADD31RotRect,1.000000X1.000000X135.000000*%
%ADD32HorizOval,1.000000X0.000000X0.000000X0.000000X0.000000X0*%
%ADD33C,2.400000*%
%ADD34RoundRect,0.200000X0.200000X0.275000X-0.200000X0.275000X-0.200000X-0.275000X0.200000X-0.275000X0*%
%ADD35RoundRect,0.225000X-0.250000X0.225000X-0.250000X-0.225000X0.250000X-0.225000X0.250000X0.225000X0*%
%ADD36RoundRect,0.250000X-0.325000X-1.100000X0.325000X-1.100000X0.325000X1.100000X-0.325000X1.100000X0*%
%ADD37RoundRect,0.112500X-0.212132X0.053033X0.053033X-0.212132X0.212132X-0.053033X-0.053033X0.212132X0*%
%ADD38RoundRect,0.200000X0.275000X-0.200000X0.275000X0.200000X-0.275000X0.200000X-0.275000X-0.200000X0*%
%ADD39RoundRect,0.225000X0.250000X-0.225000X0.250000X0.225000X-0.250000X0.225000X-0.250000X-0.225000X0*%
%ADD40R,1.100000X1.950000*%
%ADD41R,0.500000X1.000000*%
%ADD42RoundRect,0.250000X-0.475000X0.250000X-0.475000X-0.250000X0.475000X-0.250000X0.475000X0.250000X0*%
%ADD43RoundRect,0.112500X-0.187500X-0.112500X0.187500X-0.112500X0.187500X0.112500X-0.187500X0.112500X0*%
%ADD44RoundRect,0.075000X-0.350000X-0.075000X0.350000X-0.075000X0.350000X0.075000X-0.350000X0.075000X0*%
%ADD45RoundRect,0.075000X0.075000X-0.350000X0.075000X0.350000X-0.075000X0.350000X-0.075000X-0.350000X0*%
%ADD46RoundRect,0.250000X-0.650000X0.325000X-0.650000X-0.325000X0.650000X-0.325000X0.650000X0.325000X0*%
%ADD47R,3.620000X1.140000*%
%ADD48R,7.860000X10.860000*%
%ADD49RoundRect,1.500000X-1.500000X1.500000X-1.500000X-1.500000X1.500000X-1.500000X1.500000X1.500000X0*%
%ADD50C,6.000000*%
%ADD51R,1.498600X0.711200*%
%ADD52R,0.711200X1.498600*%
%ADD53RoundRect,0.112500X-0.053033X-0.212132X0.212132X0.053033X0.053033X0.212132X-0.212132X-0.053033X0*%
%ADD54R,1.200000X1.400000*%
%ADD55RoundRect,0.250000X-0.600000X-0.725000X0.600000X-0.725000X0.600000X0.725000X-0.600000X0.725000X0*%
%ADD56O,1.700000X1.950000*%
%ADD57RoundRect,0.062500X0.375000X0.062500X-0.375000X0.062500X-0.375000X-0.062500X0.375000X-0.062500X0*%
%ADD58RoundRect,0.062500X0.062500X0.375000X-0.062500X0.375000X-0.062500X-0.375000X0.062500X-0.375000X0*%
%ADD59R,5.600000X5.600000*%
%ADD60R,0.475000X0.300000*%
%ADD61RoundRect,0.200000X-0.200000X-0.275000X0.200000X-0.275000X0.200000X0.275000X-0.200000X0.275000X0*%
%ADD62RoundRect,0.250000X0.650000X-0.325000X0.650000X0.325000X-0.650000X0.325000X-0.650000X-0.325000X0*%
%ADD63R,1.000000X0.700000*%
%ADD64RoundRect,0.150000X-0.150000X0.587500X-0.150000X-0.587500X0.150000X-0.587500X0.150000X0.587500X0*%
%ADD65RoundRect,0.250000X0.350000X0.625000X-0.350000X0.625000X-0.350000X-0.625000X0.350000X-0.625000X0*%
%ADD66O,1.200000X1.750000*%
G04 APERTURE END LIST*
G36*
X102792000Y-36727000D02*
G01*
X102208000Y-36727000D01*
X102208000Y-34773000D01*
X102792000Y-34773000D01*
X102792000Y-36727000D01*
G37*
G36*
X104792000Y-36727000D02*
G01*
X104208000Y-36727000D01*
X104208000Y-34773000D01*
X104792000Y-34773000D01*
X104792000Y-36727000D01*
G37*
G36*
X122692000Y-36727000D02*
G01*
X122108000Y-36727000D01*
X122108000Y-34773000D01*
X122692000Y-34773000D01*
X122692000Y-36727000D01*
G37*
G36*
X124692000Y-36727000D02*
G01*
X124108000Y-36727000D01*
X124108000Y-34773000D01*
X124692000Y-34773000D01*
X124692000Y-36727000D01*
G37*
D10*
X100000000Y-29425000D03*
X100000000Y-31075000D03*
D11*
X139437500Y-26250000D03*
X137562500Y-26250000D03*
D12*
X127250000Y-49950000D03*
X127250000Y-48050000D03*
D13*
X102225000Y-81250000D03*
X103775000Y-81250000D03*
D14*
X118500000Y-49912500D03*
X118500000Y-48087500D03*
D15*
X111000000Y-36475000D03*
X111000000Y-33525000D03*
D16*
X134500000Y-31625000D03*
X134500000Y-33500000D03*
D17*
X102106000Y-32950000D03*
D18*
X102246000Y-33599999D03*
X102246000Y-34250000D03*
D19*
X101954000Y-34900000D03*
X101954000Y-35750001D03*
X101954000Y-36600000D03*
X105046000Y-36600000D03*
X105046000Y-35750001D03*
X105046000Y-34900000D03*
D18*
X104754000Y-34250000D03*
X104754000Y-33599999D03*
D20*
X104944000Y-32950000D03*
D21*
X104750000Y-32056000D03*
X104250001Y-32056000D03*
D22*
X103750000Y-32246000D03*
X103250000Y-32246000D03*
D21*
X102749999Y-32056000D03*
X102250000Y-32056000D03*
D23*
X103250000Y-33925000D03*
X103750000Y-33925000D03*
D10*
X147500000Y-33925000D03*
X147500000Y-35575000D03*
D24*
X49000000Y-36000000D03*
X91500000Y-28000000D03*
D25*
X130540000Y-26500000D03*
D26*
X119974695Y-71346016D03*
X122096016Y-69224695D03*
D27*
X117429111Y-70214645D03*
X119196878Y-68446878D03*
X120964645Y-66679111D03*
D15*
X127400000Y-36475000D03*
X127400000Y-33525000D03*
D28*
X159500000Y-26542136D03*
D29*
X104525000Y-58850000D03*
X105175000Y-58850000D03*
X105825000Y-58850000D03*
X106475000Y-58850000D03*
X106475000Y-55750000D03*
X105825000Y-55750000D03*
X105175000Y-55750000D03*
X104525000Y-55750000D03*
D30*
X105500000Y-57300000D03*
D31*
X153805923Y-36694077D03*
D32*
X154703949Y-35796051D03*
X155601974Y-34898026D03*
X156500000Y-34000000D03*
X157398025Y-33101975D03*
D33*
X81500000Y-45920000D03*
X78100000Y-45920000D03*
X81500000Y-36000000D03*
X78100000Y-36000000D03*
D10*
X119900000Y-29425000D03*
X119900000Y-31075000D03*
D34*
X139400000Y-28500000D03*
X137750000Y-28500000D03*
D35*
X105500000Y-48475000D03*
X105500000Y-50025000D03*
X107500000Y-51975000D03*
X107500000Y-53525000D03*
D10*
X102000000Y-25675000D03*
X102000000Y-27325000D03*
D36*
X104025000Y-29500000D03*
X106975000Y-29500000D03*
D34*
X115575000Y-28500000D03*
X113925000Y-28500000D03*
D24*
X70250000Y-57250000D03*
D34*
X135325000Y-28500000D03*
X133675000Y-28500000D03*
D37*
X150250000Y-36750000D03*
X151734924Y-38234924D03*
D38*
X119900000Y-27325000D03*
X119900000Y-25675000D03*
D13*
X97725000Y-81250000D03*
X99275000Y-81250000D03*
D39*
X141500000Y-35525000D03*
X141500000Y-33975000D03*
D40*
X118500000Y-37750000D03*
D10*
X103500000Y-48425000D03*
X103500000Y-50075000D03*
D41*
X145150000Y-33750000D03*
X143850000Y-33750000D03*
X144500000Y-35750000D03*
D42*
X131750000Y-48050000D03*
X131750000Y-49950000D03*
D28*
X99500000Y-87000000D03*
D17*
X122006000Y-32950000D03*
D18*
X122146000Y-33599999D03*
X122146000Y-34250000D03*
D19*
X121854000Y-34900000D03*
X121854000Y-35750001D03*
X121854000Y-36600000D03*
X124946000Y-36600000D03*
X124946000Y-35750001D03*
X124946000Y-34900000D03*
D18*
X124654000Y-34250000D03*
X124654000Y-33599999D03*
D20*
X124844000Y-32950000D03*
D21*
X124650000Y-32056000D03*
X124150001Y-32056000D03*
D22*
X123650000Y-32246000D03*
X123150000Y-32246000D03*
D21*
X122649999Y-32056000D03*
X122150000Y-32056000D03*
D23*
X123150000Y-33925000D03*
X123650000Y-33925000D03*
D25*
X103000000Y-68250000D03*
D43*
X86400000Y-31750000D03*
X88500000Y-31750000D03*
D10*
X100000000Y-32925000D03*
X100000000Y-34575000D03*
D44*
X97550000Y-75750000D03*
X97550000Y-76250000D03*
X97550000Y-76750000D03*
X97550000Y-77250000D03*
X97550000Y-77750000D03*
X97550000Y-78250000D03*
D45*
X98250000Y-78950000D03*
X98750000Y-78950000D03*
X99250000Y-78950000D03*
X99750000Y-78950000D03*
X100250000Y-78950000D03*
X100750000Y-78950000D03*
D44*
X101450000Y-78250000D03*
X101450000Y-77750000D03*
X101450000Y-77250000D03*
X101450000Y-76750000D03*
X101450000Y-76250000D03*
X101450000Y-75750000D03*
D45*
X100750000Y-75050000D03*
X100250000Y-75050000D03*
X99750000Y-75050000D03*
X99250000Y-75050000D03*
X98750000Y-75050000D03*
X98250000Y-75050000D03*
D46*
X153500000Y-24775000D03*
X153500000Y-27725000D03*
D39*
X105500000Y-63275000D03*
X105500000Y-61725000D03*
D47*
X56360000Y-35960000D03*
D48*
X68000000Y-38500000D03*
D47*
X56360000Y-41040000D03*
D38*
X100000000Y-27325000D03*
X100000000Y-25675000D03*
D40*
X111500000Y-61500000D03*
X111500000Y-57250000D03*
D24*
X68000000Y-28000000D03*
D49*
X91500000Y-37420000D03*
D50*
X91500000Y-44620000D03*
D39*
X108250000Y-58025000D03*
X108250000Y-56475000D03*
D35*
X103500000Y-51975000D03*
X103500000Y-53525000D03*
D51*
X141999310Y-22349999D03*
X141999310Y-23548879D03*
X141999310Y-24747759D03*
X141999310Y-25946639D03*
X141999310Y-27145519D03*
D52*
X143252800Y-28800370D03*
X144451680Y-28800370D03*
X145650560Y-28800370D03*
X146849440Y-28800370D03*
X148048320Y-28800370D03*
X149247200Y-28800370D03*
D51*
X150500690Y-27145519D03*
X150500690Y-25946639D03*
X150500690Y-24747759D03*
X150500690Y-23548879D03*
X150500690Y-22349999D03*
D24*
X63750000Y-50750000D03*
D53*
X110015076Y-80984924D03*
X111500000Y-79500000D03*
D13*
X102200000Y-73000000D03*
X103750000Y-73000000D03*
D54*
X128800000Y-57100000D03*
X128800000Y-54900000D03*
X127200000Y-54900000D03*
X127200000Y-57100000D03*
D10*
X121900000Y-25675000D03*
X121900000Y-27325000D03*
D34*
X128825000Y-59250000D03*
X127175000Y-59250000D03*
D55*
X78500000Y-54920000D03*
D56*
X81000000Y-54920000D03*
X83500000Y-54920000D03*
X86000000Y-54920000D03*
X88500000Y-54920000D03*
X91000000Y-54920000D03*
X93500000Y-54920000D03*
D31*
X112750000Y-77750000D03*
D32*
X113648026Y-76851974D03*
X114546051Y-75953949D03*
X115444077Y-75055923D03*
X116342102Y-74157898D03*
D39*
X124750000Y-53025000D03*
X124750000Y-51475000D03*
D57*
X122687500Y-58000000D03*
X122687500Y-57500000D03*
X122687500Y-57000000D03*
X122687500Y-56500000D03*
X122687500Y-56000000D03*
X122687500Y-55500000D03*
X122687500Y-55000000D03*
X122687500Y-54500000D03*
X122687500Y-54000000D03*
X122687500Y-53500000D03*
X122687500Y-53000000D03*
X122687500Y-52500000D03*
D58*
X122000000Y-51812500D03*
X121500000Y-51812500D03*
X121000000Y-51812500D03*
X120500000Y-51812500D03*
X120000000Y-51812500D03*
X119500000Y-51812500D03*
X119000000Y-51812500D03*
X118500000Y-51812500D03*
X118000000Y-51812500D03*
X117500000Y-51812500D03*
X117000000Y-51812500D03*
X116500000Y-51812500D03*
D57*
X115812500Y-52500000D03*
X115812500Y-53000000D03*
X115812500Y-53500000D03*
X115812500Y-54000000D03*
X115812500Y-54500000D03*
X115812500Y-55000000D03*
X115812500Y-55500000D03*
X115812500Y-56000000D03*
X115812500Y-56500000D03*
X115812500Y-57000000D03*
X115812500Y-57500000D03*
X115812500Y-58000000D03*
D58*
X116500000Y-58687500D03*
X117000000Y-58687500D03*
X117500000Y-58687500D03*
X118000000Y-58687500D03*
X118500000Y-58687500D03*
X119000000Y-58687500D03*
X119500000Y-58687500D03*
X120000000Y-58687500D03*
X120500000Y-58687500D03*
X121000000Y-58687500D03*
X121500000Y-58687500D03*
X122000000Y-58687500D03*
D59*
X119250000Y-55250000D03*
D34*
X99325000Y-70500000D03*
X97675000Y-70500000D03*
D38*
X129500000Y-49825000D03*
X129500000Y-48175000D03*
D16*
X114750000Y-31562500D03*
X114750000Y-33437500D03*
D25*
X98500000Y-68250000D03*
D15*
X107500000Y-36475000D03*
X107500000Y-33525000D03*
D60*
X143662000Y-37500000D03*
X143662000Y-38000000D03*
X143662000Y-38500000D03*
X143662000Y-39000000D03*
X145338000Y-39000000D03*
X145338000Y-38500000D03*
X145338000Y-38000000D03*
X145338000Y-37500000D03*
D36*
X123950000Y-29500000D03*
X126900000Y-29500000D03*
D38*
X107500000Y-50075000D03*
X107500000Y-48425000D03*
D61*
X127175000Y-52750000D03*
X128825000Y-52750000D03*
D46*
X102000000Y-61025000D03*
X102000000Y-63975000D03*
D61*
X102175000Y-70500000D03*
X103825000Y-70500000D03*
D24*
X55000000Y-28000000D03*
D35*
X115500000Y-60725000D03*
X115500000Y-62275000D03*
D39*
X116000000Y-49775000D03*
X116000000Y-48225000D03*
D43*
X58200000Y-49000000D03*
X60300000Y-49000000D03*
D25*
X114750000Y-23000000D03*
D43*
X43650000Y-33250000D03*
X45750000Y-33250000D03*
D42*
X141500000Y-39000000D03*
X141500000Y-40900000D03*
D15*
X130900000Y-36475000D03*
X130900000Y-33525000D03*
D62*
X113250000Y-50475000D03*
X113250000Y-47525000D03*
D10*
X119900000Y-32900000D03*
X119900000Y-34550000D03*
D63*
X135250000Y-47925000D03*
X139750000Y-47925000D03*
X135250000Y-50075000D03*
X139750000Y-50075000D03*
D25*
X110960000Y-26500000D03*
D39*
X103750000Y-77775000D03*
X103750000Y-76225000D03*
D35*
X124750000Y-58475000D03*
X124750000Y-60025000D03*
D64*
X106450000Y-44062500D03*
X104550000Y-44062500D03*
X105500000Y-45937500D03*
D28*
X39500000Y-26542136D03*
D42*
X147500000Y-39000000D03*
X147500000Y-40900000D03*
D35*
X122250000Y-60725000D03*
X122250000Y-62275000D03*
D24*
X80000000Y-28000000D03*
D55*
X82250000Y-62420000D03*
D56*
X84750000Y-62420000D03*
X87250000Y-62420000D03*
X89750000Y-62420000D03*
D65*
X120500000Y-41500000D03*
D66*
X118500000Y-41500000D03*
D65*
X113500000Y-41500000D03*
D66*
X111500000Y-41500000D03*
D65*
X106500000Y-41500000D03*
D66*
X104500000Y-41500000D03*
X102500000Y-41500000D03*
M02*
